<?xml version="1.0" encoding="UTF-8"?>
<svg width="14px" height="14px" viewBox="0 0 14 14" version="1.1" xmlns="http://www.w3.org/2000/svg" xmlns:xlink="http://www.w3.org/1999/xlink">
    <!-- Generator: Sketch 47.1 (45422) - http://www.bohemiancoding.com/sketch -->
    <title>approve</title>
    <desc>Created with Sketch.</desc>
    <defs></defs>
    <g id="Consolidated-Content" stroke="none" stroke-width="1" fill="none" fill-rule="evenodd">
        <g id="Consolidate-Content-All-Actions" transform="translate(-178.000000, -250.000000)" fill-rule="nonzero" fill="#1F8AEF">
            <g id="Title" transform="translate(88.000000, 120.000000)">
                <g id="approve_icon" transform="translate(81.000000, 121.000000)">
                    <path d="M22.6250777,15.3366506 L22.1355927,15.043175 C21.927198,14.9182459 21.7861143,14.7120052 21.7225728,14.4777632 C21.7214958,14.4734553 21.7204189,14.4691474 21.7188034,14.4648395 C21.6536464,14.2284435 21.673032,13.9764314 21.7920377,13.7615749 L22.0693587,13.2623971 C22.3526031,12.751911 21.9896626,12.1234962 21.4059422,12.1138035 L20.8297607,12.1041107 C20.5858259,12.0998028 20.3596612,11.9915668 20.1873452,11.8192508 C20.1857297,11.8176354 20.1835758,11.8154814 20.1819603,11.813866 C20.0091059,11.64155 19.9008699,11.4153853 19.8971005,11.1714505 L19.8874077,10.595269 C19.8771765,10.0104716 19.2487616,9.64753111 18.7382756,9.93131398 L18.2390977,10.208635 C18.0247798,10.3276407 17.7727676,10.3470263 17.5358332,10.2818693 C17.5315253,10.2807923 17.5272174,10.2797153 17.5229095,10.2780999 C17.2886675,10.2140199 17.0824268,10.0734747 16.9574977,9.86508003 L16.6640221,9.37559497 C16.3635461,8.87480168 15.6382036,8.87480168 15.3377276,9.37559497 L15.0453289,9.86292608 C14.9193229,10.0729362 14.7114667,10.2145584 14.4756092,10.2791768 C14.4729168,10.2797153 14.4707628,10.2807923 14.4680704,10.2813308 C14.2295205,10.3470263 13.9758929,10.3276407 13.759421,10.207558 L13.2618586,9.93131398 C12.7513725,9.64753111 12.1229577,10.0104716 12.113265,10.594192 L12.1035722,11.1703735 C12.0992643,11.4143083 11.9910283,11.640473 11.8187124,11.812789 C11.8170969,11.8144045 11.8149429,11.8165584 11.8133275,11.8181739 C11.6410115,11.9910283 11.4148468,12.0992643 11.170912,12.1030337 L10.5947305,12.1127265 C10.0104716,12.1229577 9.64753111,12.7513725 9.93131398,13.2618586 L10.208635,13.7610364 C10.3276407,13.9758929 10.3470263,14.2273665 10.2818693,14.464301 C10.2807923,14.4686089 10.2797153,14.4729168 10.2780999,14.4772247 C10.2140199,14.7114667 10.0734747,14.9177074 9.86508003,15.0426365 L9.37559497,15.3361121 C8.87480168,15.6365881 8.87480168,16.3624691 9.37559497,16.6624066 L9.86508003,16.9564207 C10.0734747,17.0813498 10.2145584,17.2875905 10.2780999,17.5218325 C10.2791768,17.5261404 10.2802538,17.5304483 10.2818693,17.5347562 C10.3470263,17.7716907 10.3276407,18.0231643 10.208635,18.2380208 L9.93131398,18.7382756 C9.6480696,19.2487616 10.0110101,19.8771765 10.5947305,19.8868692 L11.170912,19.896562 C11.4148468,19.9008699 11.6410115,20.0091059 11.8133275,20.1814218 C11.8149429,20.1830373 11.8170969,20.1851912 11.8187124,20.1868067 C11.9915668,20.3591227 12.0998028,20.5852874 12.1035722,20.8292222 L12.113265,21.4048652 C12.1229577,21.9885856 12.7513725,22.3515261 13.2618586,22.0682817 L13.7610364,21.7909607 C13.9753544,21.671955 14.2273665,21.6525694 14.464301,21.7177264 C14.4686089,21.7188034 14.4729168,21.7198804 14.4772247,21.7214958 C14.7114667,21.7855758 14.9177074,21.926121 15.0426365,22.1345157 L15.3361121,22.6240007 C15.6365881,23.124794 16.3619306,23.124794 16.6624066,22.6240007 L16.9558822,22.1345157 C17.0808113,21.926121 17.287052,21.7850373 17.521294,21.7214958 C17.5256019,21.7204189 17.5299098,21.7193419 17.5342177,21.7177264 C17.7706137,21.6525694 18.0226258,21.671955 18.2374823,21.7909607 L18.7366601,22.0682817 C19.2471462,22.3515261 19.875561,21.9885856 19.8852538,21.4048652 L19.8949465,20.8292222 C19.8992544,20.5852874 20.0074904,20.3591227 20.1798064,20.1868067 C20.1814218,20.1851912 20.1835758,20.1830373 20.1851912,20.1814218 C20.3575072,20.0085674 20.5836719,19.9003314 20.8276067,19.896562 L21.4037883,19.8868692 C21.9875086,19.8771765 22.3504491,19.2487616 22.0672047,18.7382756 L21.7898837,18.2390977 C21.670878,18.0242413 21.6514925,17.7727676 21.7166494,17.5358332 C21.7177264,17.5315253 21.7188034,17.5272174 21.7204189,17.5229095 C21.7844989,17.2886675 21.9250441,17.0824268 22.1334387,16.9574977 L22.6229238,16.6634836 C23.1253325,16.3630076 23.1253325,15.6371266 22.6250777,15.3366506 Z M19.0732147,14.7653155 L15.5407373,18.2977929 C15.4395017,18.3990285 15.3027259,18.4555697 15.1600267,18.4555697 C15.0173276,18.4555697 14.8800133,18.3990285 14.7793161,18.2977929 L12.9199191,16.4383958 C12.7093705,16.2278473 12.7093705,15.8875232 12.9199191,15.6769746 C13.1304677,15.4664261 13.4707917,15.4664261 13.6813403,15.6769746 L15.1600267,17.1556611 L18.3117935,14.0038943 C18.5223421,13.7933457 18.8626662,13.7933457 19.0732147,14.0038943 C19.2837633,14.2144428 19.2837633,14.5547669 19.0732147,14.7653155 Z" id="approve"></path>
                </g>
            </g>
        </g>
    </g>
</svg>