<svg fill="#1F8AEF" xmlns:x="http://ns.adobe.com/Extensibility/1.0/" xmlns:i="http://ns.adobe.com/AdobeIllustrator/10.0/" xmlns:graph="http://ns.adobe.com/Graphs/1.0/" xmlns="http://www.w3.org/2000/svg" xmlns:xlink="http://www.w3.org/1999/xlink" version="1.1" x="0px" y="0px" viewBox="0 0 100 100" enable-background="new 0 0 100 100" width="16px" height="16px" xml:space="preserve"><metadata><sfw xmlns="http://ns.adobe.com/SaveForWeb/1.0/"><slices></slices><sliceSourceBounds width="1447.7" height="1447.2" x="1" y="-1448.3" bottomLeftOrigin="true"></sliceSourceBounds></sfw></metadata><path d="M95.9,59.8c0.6,0.9,0.9,2,0.9,3.1v28.7c0,2.8-2.3,5.1-5.1,5.1H50H8.3c-2.8,0-5.1-2.3-5.1-5.1V62.9c0-1.1,0.3-2.2,0.9-3.1  l13.3-20.6c1-1.6,2.8-2.5,4.7-2.5H28c0.9,0,1.4,0.9,0.9,1.7L14.5,60.5c-0.2,0.3,0,0.7,0.4,0.7h7h4.4h4.9c0.6,0,1.1,0.5,1.1,1.1  c0.5,9.3,8.2,16.6,17.7,16.6s17.1-7.4,17.7-16.6c0-0.6,0.5-1.1,1.1-1.1h4.9h5.1h6.3c0.3,0,0.5-0.4,0.4-0.7L71.1,38.3  c-0.5-0.7,0.1-1.7,0.9-1.7h5.9c1.9,0,3.6,1,4.7,2.5L95.9,59.8z M56.1,3.4H43.9c-0.8,0-1.5,0.7-1.5,1.5v36.5h-5  c-1.6,0-2.6,1.9-1.5,3.2l12.6,16c0.8,1,2.3,1,3.1,0l12.6-16c1-1.3,0.1-3.2-1.5-3.2h-5V4.9C57.7,4.1,57,3.4,56.1,3.4z"></path></svg>