<?xml version="1.0" encoding="UTF-8"?>
<svg width="12px" height="14px" viewBox="0 0 12 14" version="1.1" xmlns="http://www.w3.org/2000/svg" xmlns:xlink="http://www.w3.org/1999/xlink">
    <!-- Generator: Sketch 47.1 (45422) - http://www.bohemiancoding.com/sketch -->
    <title>attach</title>
    <desc>Created with Sketch.</desc>
    <defs></defs>
    <g id="Dashboard" stroke="none" stroke-width="1" fill="none" fill-rule="evenodd" stroke-linecap="round" stroke-linejoin="round">
        <g id="Object-Generic" transform="translate(-1309.000000, -137.000000)" stroke="#1F8AEF" stroke-width="1.2">
            <g id="title_bar" transform="translate(88.000000, 128.000000)">
                <g id="share_url" transform="translate(1211.000000, 0.000000)">
                    <g id="attach" transform="translate(11.000000, 10.000000)">
                        <path d="M6.33206939,3.25244605 L3.07526703,6.62666621 C2.49246496,7.23049126 2.49246496,8.20959329 3.07526703,8.81341833 L3.07526703,8.81341833 C3.65806909,9.41724338 4.60310846,9.41724338 5.1864661,8.81341833 L9.23496812,4.61937067 C10.2550106,3.56281321 10.2550106,1.84897556 9.23496812,0.792418096 L9.23496812,0.792418096 C8.21492562,-0.264139365 6.56096782,-0.264139365 5.54092532,0.792418096 L1.09296221,5.40047046 C-0.364320736,6.9103058 -0.364320736,9.35778816 1.09296221,10.8676235 L1.09296221,10.8676235 C2.55024515,12.3774588 4.91312138,12.3774588 6.37040432,10.8676235 L9.49942359,7.62595029" id="Shape"></path>
                    </g>
                </g>
            </g>
        </g>
    </g>
</svg>