<?xml version="1.0" encoding="UTF-8"?>
<svg width="26px" height="26px" viewBox="0 0 26 26" version="1.1" xmlns="http://www.w3.org/2000/svg" xmlns:xlink="http://www.w3.org/1999/xlink">
    <!-- Generator: Sketch 47.1 (45422) - http://www.bohemiancoding.com/sketch -->
    <title>back</title>
    <desc>Created with Sketch.</desc>
    <defs></defs>
    <g id="_assets" stroke="none" stroke-width="1" fill="none" fill-rule="evenodd">
        <g id="back" fill="#000000">
            <path d="M13.9465176,4.13232586 C13.4127948,3.57249654 12.5476558,3.57474695 12.0113813,4.14029907 L5.62782264,10.8723632 C4.59067501,11.9487482 6.14584657,13.5627549 7.18299421,12.48637 L11.5141674,7.98749439 C11.727365,7.76604181 11.9001958,7.84379294 11.9001958,8.157842 L11.9001958,20.5701184 C11.9001958,21.2020245 12.3883754,21.7142857 13.0000342,21.7142857 C13.6074582,21.7142857 14.0998726,21.2031247 14.0998726,20.5701184 L14.0998726,8.157842 C14.0998726,7.84230906 14.2733548,7.7667184 14.485901,7.98749439 L18.8170742,12.48637 C19.8536719,13.5627549 21.4093934,11.9487482 20.3722458,10.8723632 L13.9465176,4.13232586 Z" id="back_icon" transform="translate(13.000000, 12.714286) rotate(-90.000000) translate(-13.000000, -12.714286) "></path>
        </g>
    </g>
</svg>