<?xml version="1.0" encoding="UTF-8"?>
<svg width="15px" height="16px" viewBox="0 0 15 16" version="1.1" xmlns="http://www.w3.org/2000/svg" xmlns:xlink="http://www.w3.org/1999/xlink">
    <!-- Generator: Sketch 47.1 (45422) - http://www.bohemiancoding.com/sketch -->
    <title>bell_icon</title>
    <desc>Created with Sketch.</desc>
    <defs></defs>
    <g id="Dashboard" stroke="none" stroke-width="1" fill="none" fill-rule="evenodd">
        <g id="Dimension" transform="translate(-1493.000000, -32.000000)" fill-rule="nonzero" fill="#BFCBD9">
            <g id="notifications_icon" transform="translate(1484.000000, 24.000000)">
                <g id="bell_icon" transform="translate(9.000000, 8.000000)">
                    <path d="M1.11904762,12.9230769 L13.5,12.9230769 C13.8418906,12.9230769 14.1190476,12.6475598 14.1190476,12.3076923 C14.1190476,11.9678248 13.8418906,11.6923077 13.5,11.6923077 C12.3108095,10.5101538 11.6428571,8.90707692 11.6428571,7.23507692 L11.6428571,5.53846154 C11.6428571,3.58706026 10.3375905,1.93872269 8.54761905,1.40915533 L8.54761905,1.23076923 C8.54761905,0.550769231 7.99357143,0 7.30952381,0 C6.62547619,0 6.07142857,0.550769231 6.07142857,1.23076923 L6.07142857,1.40915533 C4.28145715,1.93872269 2.97619048,3.58706026 2.97619048,5.53846154 L2.97619048,7.23507692 C2.97619048,8.90707692 2.3082381,10.5101538 1.11904762,11.6923077 C0.77715706,11.6923077 0.5,11.9678248 0.5,12.3076923 C0.5,12.6475598 0.77715706,12.9230769 1.11904762,12.9230769 Z M7.30952381,16 C6.2837619,16 5.45238095,15.1735385 5.45238095,14.1538462 L9.16666667,14.1538462 C9.16666667,15.1735385 8.33528571,16 7.30952381,16 Z" id="Combined-Shape"></path>
                </g>
            </g>
        </g>
    </g>
</svg>