<?xml version="1.0" encoding="UTF-8"?>
<svg xmlns="http://www.w3.org/2000/svg" width="16px" height="16px" viewBox="0 0 50 50">
	<g fill="#1F8AEF" id="surface1">
    <path d="M 6 4 C 4.84 4 4 4.84 4 6 L 4 22 C 4 23.16 4.84 24 6 24 L 22 24 C 23.16 24 24 23.16 24 22 L 24 6 C 24 4.84 23.16 4 22 4 L 6 4 z M 28 4 C 27.477778 4 26.94539 4.1913289 26.568359 4.5683594 C 26.191329 4.9453899 26 5.4777778 26 6 L 26 22 C 26 22.522222 26.191329 23.05461 26.568359 23.431641 C 26.94539 23.808671 27.477778 24 28 24 L 44 24 C 44.522222 24 45.05461 23.808671 45.431641 23.431641 C 45.808671 23.05461 46 22.522222 46 22 L 46 6 C 46 5.4777778 45.808671 4.9453899 45.431641 4.5683594 C 45.05461 4.1913289 44.522222 4 44 4 L 28 4 z M 28 6 L 44 6 L 44 22 L 28 22 L 28 6 z M 32.980469 25.990234 A 1.0001 1.0001 0 0 0 32.869141 26 L 28 26 C 27.477778 26 26.94539 26.191329 26.568359 26.568359 C 26.191329 26.94539 26 27.477778 26 28 L 26 32.847656 A 1.0001 1.0001 0 0 0 26 33.179688 L 26 38.847656 A 1.0001 1.0001 0 0 0 26 39.179688 L 26 44 C 26 44.522222 26.191329 45.05461 26.568359 45.431641 C 26.94539 45.808671 27.477778 46 28 46 L 32.824219 46 A 1.0001 1.0001 0 0 0 33.152344 46 L 38.824219 46 A 1.0001 1.0001 0 0 0 39.152344 46 L 44 46 C 44.522222 46 45.05461 45.808671 45.431641 45.431641 C 45.808671 45.05461 46 44.522222 46 44 L 46 39.126953 A 1.0001 1.0001 0 0 0 46 38.851562 L 46 33.126953 A 1.0001 1.0001 0 0 0 46 32.851562 L 46 28 C 46 27.477778 45.808671 26.94539 45.431641 26.568359 C 45.05461 26.191329 44.522222 26 44 26 L 39.146484 26 A 1.0001 1.0001 0 0 0 38.980469 25.990234 A 1.0001 1.0001 0 0 0 38.869141 26 L 33.146484 26 A 1.0001 1.0001 0 0 0 32.980469 25.990234 z M 6 26 C 4.84 26 4 26.84 4 28 L 4 44 C 4 45.16 4.84 46 6 46 L 22 46 C 23.16 46 24 45.16 24 44 L 24 28 C 24 26.84 23.16 26 22 26 L 6 26 z M 28 28 L 30.585938 28 L 28 30.585938 L 28 28 z M 33.414062 28 L 36.585938 28 L 28 36.585938 L 28 33.414062 L 33.414062 28 z M 39.414062 28 L 42.585938 28 L 28 42.585938 L 28 39.414062 L 39.414062 28 z M 44 29.414062 L 44 32.585938 L 32.585938 44 L 29.414062 44 L 44 29.414062 z M 10 30 C 11.1 30 12 30.9 12 32 C 12 33.1 11.1 34 10 34 C 8.9 34 8 33.1 8 32 C 8 30.9 8.9 30 10 30 z M 18 30 C 19.1 30 20 30.9 20 32 C 20 33.1 19.1 34 18 34 C 16.9 34 16 33.1 16 32 C 16 30.9 16.9 30 18 30 z M 44 35.414062 L 44 38.585938 L 38.585938 44 L 35.414062 44 L 44 35.414062 z M 10 38 C 11.1 38 12 38.9 12 40 C 12 41.1 11.1 42 10 42 C 8.9 42 8 41.1 8 40 C 8 38.9 8.9 38 10 38 z M 18 38 C 19.1 38 20 38.9 20 40 C 20 41.1 19.1 42 18 42 C 16.9 42 16 41.1 16 40 C 16 38.9 16.9 38 18 38 z M 44 41.414062 L 44 44 L 41.414062 44 L 44 41.414062 z"></path>
	</g>
</svg>