<?xml version="1.0" encoding="UTF-8"?>
<svg xmlns="http://www.w3.org/2000/svg" xmlns:xlink="http://www.w3.org/1999/xlink" viewBox="0 0 26 26" version="1.1">
<g id="surface1" fill="#1F8AEF">
<path style=" " d="M 3 2 C 1.300781 2 0 3.300781 0 5 L 0 21 C 0 22.699219 1.300781 24 3 24 L 23 24 C 24.699219 24 26 22.699219 26 21 L 26 5 C 26 3.300781 24.699219 2 23 2 Z M 2 7 L 24 7 L 24 21 C 24 21.601563 23.601563 22 23 22 L 3 22 C 2.398438 22 2 21.601563 2 21 Z M 14 9 L 10 20 L 12 20 L 16 9 Z M 7.25 10.34375 L 3.6875 14.5 L 7.25 18.65625 L 8.75 17.34375 L 6.3125 14.5 L 8.75 11.65625 Z M 18.75 10.34375 L 17.25 11.65625 L 19.6875 14.5 L 17.25 17.34375 L 18.75 18.65625 L 22.3125 14.5 Z "></path>
</g>
</svg>