<svg version="1.1" id="Layer_1" xmlns="http://www.w3.org/2000/svg" xmlns:xlink="http://www.w3.org/1999/xlink" x="0px" y="0px" width="18px" height="18px" viewBox="0 0 512 512" enable-background="new 0 0 512 512" xml:space="preserve">
<g>
	<g>
		<g>
			<path fill="#49A0AE" d="M7.9,256C7.9,119,119,7.9,256,7.9C393,7.9,504.1,119,504.1,256c0,137-111.1,248.1-248.1,248.1
				C119,504.1,7.9,393,7.9,256z"></path>
		</g>
	</g>
	<path fill="#FFFFFF" d="M357.4,237.8c-37.6-37.6-75.2-75.2-112.8-112.8c-26.8-26.8-68.2,14.9-41.3,41.8
		c30.6,30.6,61.3,61.2,91.9,91.9c-30.7,30.7-61.4,61.4-92.1,92.1c-26.8,26.8,14.9,68.2,41.8,41.3c37.6-37.6,75.2-75.2,112.8-112.8
		C368.9,268,368.6,249,357.4,237.8z"></path>
</g>
</svg>