<?xml version="1.0" encoding="UTF-8"?>
<svg width="26px" height="26px" viewBox="0 0 26 26" version="1.1" xmlns="http://www.w3.org/2000/svg" xmlns:xlink="http://www.w3.org/1999/xlink">
    <!-- Generator: Sketch 47.1 (45422) - http://www.bohemiancoding.com/sketch -->
    <title>delete</title>
    <desc>Created with Sketch.</desc>
    <defs></defs>
    <g id="_assets" stroke="none" stroke-width="1" fill="none" fill-rule="evenodd">
        <g id="delete" fill-rule="nonzero" fill="#000000">
            <g id="trash" transform="translate(5.000000, 4.000000)">
                <path d="M11.5121739,18 L4.14,18 C3.34252174,18 2.6726087,17.4005217 2.58417391,16.6077391 L1.17391304,3.91304348 L14.4782609,3.91304348 L13.068,16.6077391 C12.9795652,17.4005217 12.3096522,18 11.5121739,18 Z" id="Shape"></path>
                <path d="M14.8695652,2.34782609 L0.782608696,2.34782609 C0.350608696,2.34782609 0,1.99721739 0,1.56521739 L0,1.56521739 C0,1.13321739 0.350608696,0.782608696 0.782608696,0.782608696 L14.8695652,0.782608696 C15.3015652,0.782608696 15.6521739,1.13321739 15.6521739,1.56521739 L15.6521739,1.56521739 C15.6521739,1.99721739 15.3015652,2.34782609 14.8695652,2.34782609 Z" id="Shape"></path>
                <path d="M10.173913,1.56521739 L5.47826087,1.56521739 L5.47826087,0.782608696 C5.47826087,0.350608696 5.82886957,0 6.26086957,0 L9.39130435,0 C9.82330435,0 10.173913,0.350608696 10.173913,0.782608696 L10.173913,1.56521739 Z" id="Shape"></path>
            </g>
        </g>
    </g>
</svg>