<?xml version="1.0" encoding="UTF-8"?>
<svg width="14px" height="14px" viewBox="0 0 14 14" version="1.1" xmlns="http://www.w3.org/2000/svg" xmlns:xlink="http://www.w3.org/1999/xlink">
    <!-- Generator: Sketch 47.1 (45422) - http://www.bohemiancoding.com/sketch -->
    <title>documents</title>
    <desc>Created with Sketch.</desc>
    <defs></defs>
    <g id="Dashboard" stroke="none" stroke-width="1" fill="none" fill-rule="evenodd">
        <g id="Dimension" transform="translate(-1169.000000, -33.000000)" fill-rule="nonzero" fill="#BFCBD9">
            <g id="drafts_btn" transform="translate(1160.000000, 24.000000)">
                <g id="documents" transform="translate(9.000000, 9.000000)">
                    <path d="M13.8135455,3.68645455 L10.3135455,0.186454545 C10.1939091,0.0668181818 10.0322727,0 9.86363636,0 L4.45454545,0 C3.75136364,0 3.18181818,0.569545455 3.18181818,1.27272727 L3.18181818,12.7272727 C3.18181818,13.4304545 3.75136364,14 4.45454545,14 L12.7272727,14 C13.4304545,14 14,13.4304545 14,12.7272727 L14,4.13636364 C14,3.96772727 13.9331818,3.80609091 13.8135455,3.68645455 Z M9.54545455,10.8181818 L6.36363636,10.8181818 C6.01236364,10.8181818 5.72727273,10.5330909 5.72727273,10.1818182 C5.72727273,9.83054545 6.01236364,9.54545455 6.36363636,9.54545455 L9.54545455,9.54545455 C9.89672727,9.54545455 10.1818182,9.83054545 10.1818182,10.1818182 C10.1818182,10.5330909 9.89672727,10.8181818 9.54545455,10.8181818 Z M10.8181818,8.27272727 L6.36363636,8.27272727 C6.01236364,8.27272727 5.72727273,7.98763636 5.72727273,7.63636364 C5.72727273,7.28509091 6.01236364,7 6.36363636,7 L10.8181818,7 C11.1694545,7 11.4545455,7.28509091 11.4545455,7.63636364 C11.4545455,7.98763636 11.1694545,8.27272727 10.8181818,8.27272727 Z M10.1818182,4.45454545 C9.83054545,4.45454545 9.54545455,4.16945455 9.54545455,3.81818182 L9.54545455,1.21163636 L12.7883636,4.45454545 L10.1818182,4.45454545 Z" id="Shape"></path>
                    <path d="M1.90909091,12.7272727 L1.90909091,1.27272727 C1.90909091,0.806909091 2.044,0.376090909 2.26290909,0 L1.27272727,0 C0.569545455,0 0,0.569545455 0,1.27272727 L0,12.7272727 C0,13.4304545 0.569545455,14 1.27272727,14 L2.26290909,14 C2.044,13.6239091 1.90909091,13.1930909 1.90909091,12.7272727 Z" id="Shape"></path>
                </g>
            </g>
        </g>
    </g>
</svg>