<svg xmlns="http://www.w3.org/2000/svg" xmlns:xlink="http://www.w3.org/1999/xlink" version="1.1" x="0px" y="0px" viewBox="0 0 100 125" style="enable-background:new 0 0 100 100;" xml:space="preserve"><g><g fill="#FFFFFF"><path d="M35.7,64.1h-1.9v4.1h1.8c1.3,0,1.9-0.9,1.9-2.1S36.9,64.1,35.7,64.1z"/><path d="M50.1,64.1h-1.9v4.1H50c1.3,0,1.9-0.9,1.9-2.1S51.3,64.1,50.1,64.1z"/><path d="M83.7,26.3c0-0.8-0.3-1.6-0.9-2.2L66,6.1c-0.6-0.7-1.5-1-2.4-1h-42c-2.9,0-5.3,2.4-5.3,5.3v79.3c0,2.9,2.4,5.3,5.3,5.3    h56.9c2.9,0,5.3-2.4,5.3-5.3L83.7,26.3z M36.4,71.3h-2.6v3.5c0,0.8-0.4,1.2-1.2,1.2h-1.4c-0.8,0-1.2-0.4-1.2-1.2V62.1    c0-0.8,0.4-1.2,1.2-1.2h5.1c2.9,0,4.9,2.1,4.9,5.2S39.3,71.3,36.4,71.3z M50.8,71.3h-2.6v3.5c0,0.8-0.4,1.2-1.2,1.2h-1.4    c-0.8,0-1.2-0.4-1.2-1.2V62.1c0-0.8,0.4-1.2,1.2-1.2h5.1c2.9,0,4.9,2.1,4.9,5.2S53.7,71.3,50.8,71.3z M63.4,76.2    c-2.1,0-4-0.9-4.8-1.5c-0.4-0.4-0.8-0.8-0.2-1.6l0.7-0.9c0.4-0.6,0.9-0.7,1.6-0.3c0.5,0.3,1.4,0.9,2.7,0.9c1.1,0,1.6-0.5,1.6-1    c0-2.1-6.6-1.8-6.6-6.5c0-2.8,2.3-4.6,5.4-4.6c1.7,0,3.3,0.6,4.1,1.1c0.6,0.4,0.7,1,0.4,1.6l-0.5,1c-0.4,0.8-1,0.7-1.6,0.4    c-0.7-0.3-1.4-0.7-2.4-0.7c-1.2,0-1.6,0.5-1.6,1c0,2.2,6.6,1.7,6.6,6.4C68.7,74,66.8,76.2,63.4,76.2z M79.1,27.3h-11    c-2.9,0-5.3-2.4-5.3-5.3V10.2c0-0.3,0.4-0.4,0.6-0.2l16,16.7C79.5,26.9,79.4,27.3,79.1,27.3z"/></g></g></svg>