<svg xmlns="http://www.w3.org/2000/svg" xmlns:xlink="http://www.w3.org/1999/xlink" version="1.1" x="0px" y="0px" viewBox="0 0 100 125" style="enable-background:new 0 0 100 100;" xml:space="preserve"><g><g fill="#FFFFFF"><path d="M83.7,26.3c0-0.8-0.3-1.6-0.9-2.2L66,6.1c-0.6-0.7-1.5-1-2.4-1h-42c-2.9,0-5.3,2.4-5.3,5.3v79.3c0,2.9,2.4,5.3,5.3,5.3    h56.9c2.9,0,5.3-2.4,5.3-5.3L83.7,26.3z M36.7,71.3h-2.6v3.5c0,0.8-0.4,1.2-1.2,1.2h-1.4c-0.8,0-1.2-0.4-1.2-1.2V62.1    c0-0.8,0.4-1.2,1.2-1.2h5.1c2.9,0,4.9,2.1,4.9,5.2S39.6,71.3,36.7,71.3z M50.2,75.9H46c-0.8,0-1.2-0.4-1.2-1.2V62.1    c0-0.8,0.4-1.2,1.2-1.2h4.2c4.7,0,7.7,2.8,7.7,7.5S54.9,75.9,50.2,75.9z M70.7,62.9c0,0.8-0.4,1.2-1.2,1.2h-4.4v3.1h3.4    c0.8,0,1.2,0.4,1.2,1.2v0.8c0,0.8-0.4,1.2-1.2,1.2h-3.4v4.4c0,0.8-0.4,1.2-1.2,1.2h-1.4c-0.8,0-1.2-0.4-1.2-1.2V62.1    c0-0.8,0.4-1.2,1.2-1.2h6.9c0.8,0,1.2,0.4,1.2,1.2V62.9z M79.1,27.3h-11c-2.9,0-5.3-2.4-5.3-5.3V10.2c0-0.3,0.4-0.4,0.6-0.2    l16,16.7C79.5,26.9,79.4,27.3,79.1,27.3z"/><path d="M36,64.1h-1.9v4.1h1.8c1.3,0,1.9-0.9,1.9-2.1S37.2,64.1,36,64.1z"/><path d="M50,64.1h-1.5v8.7H50c2.5,0,4.1-1.5,4.1-4.4C54.1,65.5,52.5,64.1,50,64.1z"/></g></g></svg>