<svg xmlns="http://www.w3.org/2000/svg" xmlns:xlink="http://www.w3.org/1999/xlink" version="1.1" x="0px" y="0px" viewBox="0 0 100 100" style="enable-background:new 0 0 100 100;" xml:space="preserve"><g><g fill="#FFFFFF"><path d="M83.7,26.3c0-0.8-0.3-1.6-0.9-2.2L66,6.1c-0.6-0.7-1.5-1-2.4-1h-42c-2.9,0-5.3,2.4-5.3,5.3v79.3c0,2.9,2.4,5.3,5.3,5.3    h56.9c2.9,0,5.3-2.4,5.3-5.3L83.7,26.3z M37,75.9h-1.6c-0.6,0-1-0.3-1.4-0.8l-2.2-4.2h-1.7v3.9c0,0.8-0.4,1.2-1.2,1.2h-1.4    c-0.8,0-1.2-0.4-1.2-1.2V62.1c0-0.8,0.4-1.2,1.2-1.2h4.1c1.5,0,2.3,0.1,2.9,0.4c1.7,0.7,2.8,2.2,2.8,4.4c0,1.6-0.8,3.3-2.2,4.1v0    c0,0,0.2,0.3,0.6,0.9l2.1,3.9C38.3,75.3,37.9,75.9,37,75.9z M52.4,75.9H51c-0.7,0-1.1-0.3-1.3-1l-0.6-2.2h-4.7L43.8,75    c-0.2,0.7-0.6,1-1.3,1h-1.4c-0.8,0-1.2-0.5-0.9-1.3l4.3-12.7c0.2-0.7,0.6-0.9,1.3-0.9h1.9c0.7,0,1.1,0.3,1.3,0.9l4.3,12.7    C53.6,75.4,53.3,75.9,52.4,75.9z M74.5,62.2l-3.2,12.7c-0.2,0.7-0.6,1-1.3,1h-2c-0.7,0-1.1-0.3-1.3-1L65,68.3    c-0.2-1-0.3-1.8-0.3-1.8h0c0,0-0.1,0.8-0.3,1.8l-1.6,6.6c-0.2,0.7-0.6,1-1.3,1h-2.1c-0.7,0-1.1-0.3-1.3-1L55,62.2    c-0.2-0.8,0.2-1.3,1-1.3h1.5c0.7,0,1.1,0.3,1.3,1l1.7,8.4c0.2,0.9,0.2,1.6,0.2,1.6h0c0,0,0-0.7,0.3-1.6l2.1-8.4    c0.2-0.7,0.6-1,1.3-1h0.9c0.7,0,1.1,0.3,1.3,1l2,8.4c0.2,0.9,0.3,1.6,0.3,1.6h0c0,0,0-0.7,0.2-1.6l1.8-8.4c0.1-0.7,0.6-1,1.3-1    h1.4C74.3,60.9,74.7,61.4,74.5,62.2z M79.1,27.3h-11c-2.9,0-5.3-2.4-5.3-5.3V10.2c0-0.3,0.4-0.4,0.6-0.2l16,16.7    C79.5,26.9,79.4,27.3,79.1,27.3z"/><path d="M46.8,64.3L46.8,64.3c0,0-0.4,1.6-0.7,2.6l-0.9,2.9h3l-0.8-2.9C47.1,66,46.8,64.3,46.8,64.3z"/><path d="M32.7,64.3c-0.3-0.1-0.8-0.2-1.4-0.2h-1.2v3.7h1.6c1.2,0,1.9-0.7,1.9-1.8C33.6,65.1,33.4,64.5,32.7,64.3z"/></g></g></svg>