<svg xmlns="http://www.w3.org/2000/svg" xmlns:xlink="http://www.w3.org/1999/xlink" version="1.1" x="0px" y="0px" viewBox="0 0 100 100" style="enable-background:new 0 0 100 100;" xml:space="preserve"><g><g fill="#FFFFFF"><path d="M83.7,26.3c0-0.8-0.3-1.6-0.9-2.2L66,6.1c-0.6-0.7-1.5-1-2.4-1h-42c-2.9,0-5.3,2.4-5.3,5.3v79.3c0,2.9,2.4,5.3,5.3,5.3    h56.9c2.9,0,5.3-2.4,5.3-5.3L83.7,26.3z M32.3,72.2h-2.1V75c0,0.6-0.3,0.9-0.9,0.9h-1.1c-0.6,0-0.9-0.3-0.9-0.9V64.7    c0-0.6,0.3-0.9,0.9-0.9h4.1c2.4,0,4,1.7,4,4.2S34.7,72.2,32.3,72.2z M44,72.2h-2.1V75c0,0.6-0.3,0.9-0.9,0.9h-1.1    c-0.6,0-0.9-0.3-0.9-0.9V64.7c0-0.6,0.3-0.9,0.9-0.9H44c2.4,0,4,1.7,4,4.2S46.3,72.2,44,72.2z M59.8,65.4c0,0.6-0.3,0.9-0.9,0.9    h-2.8V75c0,0.6-0.3,0.9-0.9,0.9h-1.1c-0.6,0-0.9-0.3-0.9-0.9v-8.7h-2.8c-0.6,0-0.9-0.3-0.9-0.9v-0.7c0-0.6,0.3-0.9,0.9-0.9h8.5    c0.6,0,0.9,0.3,0.9,0.9V65.4z M71.4,74.8c0.4,0.6,0.1,1.1-0.6,1.1h-1.2c-0.5,0-0.9-0.2-1.1-0.7l-1-1.9c-0.4-0.8-0.7-1.5-0.7-1.5h0    c0,0-0.3,0.7-0.7,1.5l-1,1.9c-0.3,0.5-0.6,0.7-1.1,0.7h-1.2c-0.8,0-1-0.5-0.6-1.1l3-4.9l-3-5c-0.4-0.6-0.1-1.1,0.6-1.1h1.3    c0.5,0,0.9,0.2,1.1,0.7l1,1.8c0.4,0.8,0.7,1.6,0.7,1.6h0c0,0,0.3-0.8,0.7-1.6l1-1.8c0.3-0.5,0.6-0.7,1.1-0.7h1.3    c0.7,0,1,0.5,0.6,1.1l-3,5L71.4,74.8z M79.1,27.3h-11c-2.9,0-5.3-2.4-5.3-5.3V10.2c0-0.3,0.4-0.4,0.6-0.2l16,16.7    C79.5,26.9,79.4,27.3,79.1,27.3z"/><path d="M43.4,66.3h-1.5v3.3h1.5c1,0,1.5-0.7,1.5-1.7S44.4,66.3,43.4,66.3z"/><path d="M31.7,66.3h-1.5v3.3h1.5c1,0,1.5-0.7,1.5-1.7S32.7,66.3,31.7,66.3z"/></g></g></svg>