<svg xmlns="http://www.w3.org/2000/svg" xmlns:xlink="http://www.w3.org/1999/xlink" version="1.1" x="0px" y="0px" viewBox="0 0 100 100" style="enable-background:new 0 0 100 100;" xml:space="preserve"><g><g fill="#FFFFFF"><path d="M49.5,64.1h-1.9v4.1h1.8c1.3,0,1.9-0.9,1.9-2.1S50.7,64.1,49.5,64.1z"/><path d="M35.1,64.1h-1.9v4.1H35c1.3,0,1.9-0.9,1.9-2.1S36.3,64.1,35.1,64.1z"/><path d="M83.7,26.3c0-0.8-0.3-1.6-0.9-2.2L66,6.1c-0.6-0.7-1.5-1-2.4-1h-42c-2.9,0-5.3,2.4-5.3,5.3v79.3c0,2.9,2.4,5.3,5.3,5.3    h56.9c2.9,0,5.3-2.4,5.3-5.3L83.7,26.3z M35.8,71.3h-2.6v3.5c0,0.8-0.4,1.2-1.2,1.2h-1.4c-0.8,0-1.2-0.4-1.2-1.2V62.1    c0-0.8,0.4-1.2,1.2-1.2h5.1c2.9,0,4.9,2.1,4.9,5.2S38.7,71.3,35.8,71.3z M50.2,71.3h-2.6v3.5c0,0.8-0.4,1.2-1.2,1.2h-1.4    c-0.8,0-1.2-0.4-1.2-1.2V62.1c0-0.8,0.4-1.2,1.2-1.2h5.1c2.9,0,4.9,2.1,4.9,5.2S53.1,71.3,50.2,71.3z M69.8,62.9    c0,0.8-0.4,1.2-1.2,1.2h-3.4v10.7c0,0.8-0.4,1.2-1.2,1.2h-1.4c-0.8,0-1.2-0.4-1.2-1.2V64.1h-3.4c-0.8,0-1.2-0.4-1.2-1.2v-0.8    c0-0.8,0.4-1.2,1.2-1.2h10.5c0.8,0,1.2,0.4,1.2,1.2V62.9z M79.1,27.3h-11c-2.9,0-5.3-2.4-5.3-5.3V10.2c0-0.3,0.4-0.4,0.6-0.2    l16,16.7C79.5,26.9,79.4,27.3,79.1,27.3z"/></g></g></svg>