<svg xmlns="http://www.w3.org/2000/svg" xmlns:xlink="http://www.w3.org/1999/xlink" version="1.1" x="0px" y="0px" viewBox="0 0 100 100" style="enable-background:new 0 0 100 100;" xml:space="preserve"><g fill="#FFFFFF"><path d="M83.7,26.3c0-0.8-0.3-1.6-0.9-2.2L66,6.1c-0.6-0.7-1.5-1-2.4-1h-42c-2.9,0-5.3,2.4-5.3,5.3v79.3c0,2.9,2.4,5.3,5.3,5.3   h56.9c2.9,0,5.3-2.4,5.3-5.3L83.7,26.3z M41.7,62.9c0,0.8-0.4,1.2-1.2,1.2h-3.4v10.7c0,0.8-0.4,1.2-1.2,1.2h-1.4   c-0.8,0-1.2-0.4-1.2-1.2V64.1h-3.4c-0.8,0-1.2-0.4-1.2-1.2v-0.8c0-0.8,0.4-1.2,1.2-1.2h10.5c0.8,0,1.2,0.4,1.2,1.2V62.9z    M55.9,74.5c0.5,0.8,0.2,1.4-0.8,1.4h-1.5c-0.6,0-1-0.3-1.4-0.8L51,72.8c-0.5-0.9-0.9-1.9-0.9-1.9h0c0,0-0.4,0.9-0.9,1.9l-1.3,2.3   c-0.3,0.6-0.7,0.8-1.4,0.8h-1.5c-0.9,0-1.3-0.6-0.8-1.4l3.7-6.1l-3.7-6.2c-0.5-0.8-0.1-1.4,0.8-1.4h1.6c0.6,0,1,0.3,1.4,0.8   l1.2,2.3c0.5,0.9,0.9,1.9,0.9,1.9h0c0,0,0.4-1,0.9-1.9l1.2-2.3c0.3-0.6,0.7-0.8,1.4-0.8h1.6c0.9,0,1.3,0.6,0.8,1.4l-3.8,6.2   L55.9,74.5z M71.1,62.9c0,0.8-0.4,1.2-1.2,1.2h-3.4v10.7c0,0.8-0.4,1.2-1.2,1.2h-1.4c-0.8,0-1.2-0.4-1.2-1.2V64.1h-3.4   c-0.8,0-1.2-0.4-1.2-1.2v-0.8c0-0.8,0.4-1.2,1.2-1.2H70c0.8,0,1.2,0.4,1.2,1.2V62.9z M79.1,27.3h-11c-2.9,0-5.3-2.4-5.3-5.3V10.2   c0-0.3,0.4-0.4,0.6-0.2l16,16.7C79.5,26.9,79.4,27.3,79.1,27.3z"/></g></svg>