<svg xmlns="http://www.w3.org/2000/svg" xmlns:xlink="http://www.w3.org/1999/xlink" version="1.1" x="0px" y="0px" viewBox="0 0 100 100" style="enable-background:new 0 0 100 100;" xml:space="preserve"><g fill="#FFFFFF"><path d="M83.7,26.3c0-0.8-0.3-1.6-0.9-2.2L66,6.1c-0.6-0.7-1.5-1-2.4-1h-42c-2.9,0-5.3,2.4-5.3,5.3v79.3c0,2.9,2.4,5.3,5.3,5.3   h56.9c2.9,0,5.3-2.4,5.3-5.3L83.7,26.3z M42.9,74.5c0.5,0.8,0.2,1.4-0.8,1.4h-1.5c-0.6,0-1-0.3-1.4-0.8l-1.3-2.3   c-0.5-0.9-0.9-1.9-0.9-1.9h0c0,0-0.4,0.9-0.9,1.9l-1.3,2.3c-0.3,0.6-0.7,0.8-1.4,0.8h-1.5c-0.9,0-1.3-0.6-0.8-1.4l3.7-6.1L31,62.3   c-0.5-0.8-0.1-1.4,0.8-1.4h1.6c0.6,0,1,0.3,1.4,0.8L36,64c0.5,0.9,0.9,1.9,0.9,1.9h0c0,0,0.4-1,0.9-1.9l1.2-2.3   c0.3-0.6,0.7-0.8,1.4-0.8h1.6c0.9,0,1.3,0.6,0.8,1.4l-3.8,6.2L42.9,74.5z M56.4,74.8c0,0.8-0.4,1.2-1.2,1.2h-7.5   c-0.8,0-1.2-0.4-1.2-1.2V62.1c0-0.8,0.4-1.2,1.2-1.2h1.4c0.8,0,1.2,0.4,1.2,1.2v10.7h5c0.8,0,1.2,0.4,1.2,1.2V74.8z M63.9,76.2   c-2.1,0-4-0.9-4.8-1.5c-0.4-0.4-0.8-0.8-0.2-1.6l0.7-0.9c0.4-0.6,0.9-0.7,1.6-0.3c0.5,0.3,1.4,0.9,2.7,0.9c1.1,0,1.6-0.5,1.6-1   c0-2.1-6.6-1.8-6.6-6.5c0-2.8,2.3-4.6,5.4-4.6c1.7,0,3.3,0.6,4.1,1.1c0.6,0.4,0.7,1,0.4,1.6l-0.5,1c-0.4,0.8-1,0.7-1.6,0.4   c-0.7-0.3-1.4-0.7-2.4-0.7c-1.2,0-1.6,0.5-1.6,1c0,2.2,6.6,1.7,6.6,6.4C69.2,74,67.3,76.2,63.9,76.2z M79.1,27.3h-11   c-2.9,0-5.3-2.4-5.3-5.3V10.2c0-0.3,0.4-0.4,0.6-0.2l16,16.7C79.5,26.9,79.4,27.3,79.1,27.3z"/></g></svg>