<svg xmlns="http://www.w3.org/2000/svg" xmlns:xlink="http://www.w3.org/1999/xlink" version="1.1" x="0px" y="0px" viewBox="0 0 100 125" style="enable-background:new 0 0 100 100;" xml:space="preserve"><g><g fill="#FFFFFF"><path d="M83.7,26.3c0-0.8-0.3-1.6-0.9-2.2L66,6.1c-0.6-0.7-1.5-1-2.4-1h-42c-2.9,0-5.3,2.4-5.3,5.3v79.3c0,2.9,2.4,5.3,5.3,5.3    h56.9c2.9,0,5.3-2.4,5.3-5.3L83.7,26.3z M31.6,75.9h-4.2c-0.8,0-1.2-0.4-1.2-1.2V62.1c0-0.8,0.4-1.2,1.2-1.2h4.2    c4.7,0,7.7,2.8,7.7,7.5C39.3,73.1,36.3,75.9,31.6,75.9z M50.1,76.2c-4.7,0-7.9-3.4-7.9-7.9c0-4.3,3.2-7.7,7.9-7.7s7.9,3.4,7.9,7.7    C57.9,72.7,54.7,76.2,50.1,76.2z M73.9,74.4c-0.9,0.7-2.7,1.8-5.2,1.8c-4.8,0-7.9-3.3-7.9-7.8c0-4.4,3.2-7.7,7.9-7.7    c2.3,0,3.9,0.8,4.8,1.4c0.6,0.4,0.6,1,0.3,1.6l-0.5,0.9c-0.4,0.7-0.9,0.7-1.6,0.3c-0.7-0.4-1.7-0.8-2.8-0.8c-3,0-4.2,2.1-4.2,4.3    c0,2.2,1.3,4.5,4.2,4.5c1.3,0,2.4-0.6,3.1-1.1c0.6-0.4,1.2-0.4,1.6,0.2l0.6,0.8C74.4,73.4,74.4,74,73.9,74.4z M79.1,27.3h-11    c-2.9,0-5.3-2.4-5.3-5.3V10.2c0-0.3,0.4-0.4,0.6-0.2l16,16.7C79.5,26.9,79.4,27.3,79.1,27.3z"/><path d="M31.5,64.1h-1.5v8.7h1.5c2.5,0,4.1-1.5,4.1-4.4C35.5,65.5,33.9,64.1,31.5,64.1z"/><path d="M50.1,64c-2.4,0-4.1,1.8-4.1,4.3c0,2.6,1.7,4.5,4.1,4.5s4.1-1.9,4.1-4.5C54.1,65.9,52.4,64,50.1,64z"/></g></g></svg>