<svg xmlns="http://www.w3.org/2000/svg" xmlns:xlink="http://www.w3.org/1999/xlink" version="1.1" x="0px" y="0px" viewBox="0 0 100 100" style="enable-background:new 0 0 100 100;" xml:space="preserve"><g fill="#FFFFFF"><path d="M83.7,26.3c0-0.8-0.3-1.6-0.9-2.2L66,6.1c-0.6-0.7-1.5-1-2.4-1h-42c-2.9,0-5.3,2.4-5.3,5.3v79.3c0,2.9,2.4,5.3,5.3,5.3   h56.9c2.9,0,5.3-2.4,5.3-5.3L83.7,26.3z M39.7,74.5c0.5,0.8,0.2,1.4-0.8,1.4h-1.5c-0.6,0-1-0.3-1.4-0.8l-1.3-2.3   c-0.5-0.9-0.9-1.9-0.9-1.9h0c0,0-0.4,0.9-0.9,1.9l-1.3,2.3c-0.3,0.6-0.7,0.8-1.4,0.8h-1.5c-0.9,0-1.3-0.6-0.8-1.4l3.7-6.1l-3.7-6.2   c-0.5-0.8-0.1-1.4,0.8-1.4h1.6c0.6,0,1,0.3,1.4,0.8l1.2,2.3c0.5,0.9,0.9,1.9,0.9,1.9h0c0,0,0.4-1,0.9-1.9l1.2-2.3   c0.3-0.6,0.7-0.8,1.4-0.8H39c0.9,0,1.3,0.6,0.8,1.4L36,68.5L39.7,74.5z M58.1,75.9h-1.4c-0.7,0-1.1-0.4-1.2-1.1l-0.4-5.6   c-0.1-1.1,0-2.5,0-2.5h0c0,0-0.5,1.6-0.8,2.5L53,72.6c-0.2,0.6-0.7,0.9-1.3,0.9h-1.2c-0.7,0-1.1-0.3-1.3-0.9L48,69.2   c-0.3-0.9-0.8-2.5-0.8-2.5h0c0,0,0.1,1.4,0,2.5l-0.4,5.6c-0.1,0.7-0.5,1.1-1.2,1.1h-1.4c-0.8,0-1.2-0.4-1.1-1.2l1-12.7   c0.1-0.7,0.5-1.1,1.2-1.1h1.9c0.7,0,1.1,0.3,1.3,0.9l1.9,5.4c0.3,1,0.8,2.5,0.8,2.5h0c0,0,0.4-1.5,0.8-2.5l1.9-5.4   c0.2-0.7,0.6-0.9,1.3-0.9h1.9c0.7,0,1.1,0.4,1.2,1.1l1,12.7C59.2,75.5,58.8,75.9,58.1,75.9z M72.9,74.8c0,0.8-0.4,1.2-1.2,1.2h-7.5   c-0.8,0-1.2-0.4-1.2-1.2V62.1c0-0.8,0.4-1.2,1.2-1.2h1.4c0.8,0,1.2,0.4,1.2,1.2v10.7h5c0.8,0,1.2,0.4,1.2,1.2V74.8z M79.1,27.3h-11   c-2.9,0-5.3-2.4-5.3-5.3V10.2c0-0.3,0.4-0.4,0.6-0.2l16,16.7C79.5,26.9,79.4,27.3,79.1,27.3z"/></g></svg>