<svg xmlns="http://www.w3.org/2000/svg" xmlns:xlink="http://www.w3.org/1999/xlink" version="1.1" x="0px" y="0px" viewBox="0 0 100 100" style="enable-background:new 0 0 100 100;" xml:space="preserve"><g fill="#FFFFFF"><path d="M83.7,26.3c0-0.8-0.3-1.6-0.9-2.2L66,6.1c-0.6-0.7-1.5-1-2.4-1h-42c-2.9,0-5.3,2.4-5.3,5.3v79.3c0,2.9,2.4,5.3,5.3,5.3   h56.9c2.9,0,5.3-2.4,5.3-5.3L83.7,26.3z M50.8,74.8c0,0.8-0.4,1.2-1.2,1.2h-1c-0.8,0-1.2-0.4-1.2-1.2v-0.8c0-0.8,0.4-1.2,1.2-1.2h1   c0.8,0,1.2,0.4,1.2,1.2V74.8z M50.9,70.3l-0.1,0.3c-0.1,0.6-0.4,0.8-1.1,0.8h-1.2c-0.8,0-1.2-0.4-1.2-1.2v-0.2   c0-2.2,3.3-3.1,3.3-4.8c0-0.7-0.7-1.2-1.5-1.2c-0.4,0-0.8,0.1-1.1,0.3c-0.7,0.3-1.3,0.3-1.7-0.3l-0.5-0.8c-0.4-0.6-0.4-1.1,0.2-1.5   c0.7-0.5,1.9-1,3.5-1c2.4,0,4.9,1.4,4.9,4.1C54.4,67.9,51.3,68.6,50.9,70.3z M79.1,27.3h-11c-2.9,0-5.3-2.4-5.3-5.3V10.2   c0-0.3,0.4-0.4,0.6-0.2l16,16.7C79.5,26.9,79.4,27.3,79.1,27.3z"/></g></svg>