<?xml version="1.0" encoding="UTF-8"?>
<svg xmlns="http://www.w3.org/2000/svg" xmlns:xlink="http://www.w3.org/1999/xlink" version="1.1" id="imprt" x="0px" y="0px" viewBox="0 0 30 30" style="" width="18px" height="18px" xml:space="preserve">
<path fill="#1F8AEF" d="M14,12V6c0-1.105-0.895-2-2-2H6C4.895,4,4,4.895,4,6v6c0,1.105,0.895,2,2,2h6C13.105,14,14,13.105,14,12z"/>
<path fill="#1F8AEF" d="M18,14h6c1.105,0,2-0.895,2-2V6c0-1.105-0.895-2-2-2h-6c-1.105,0-2,0.895-2,2v6C16,13.105,16.895,14,18,14z"/>
<path fill="#1F8AEF" d="M12,16H6c-1.105,0-2,0.895-2,2v6c0,1.105,0.895,2,2,2h6c1.105,0,2-0.895,2-2v-6C14,16.895,13.105,16,12,16z"/>
<path fill="#1F8AEF" d="M16,18v6c0,1.105,0.895,2,2,2h6c1.105,0,2-0.895,2-2v-6c0-1.105-0.895-2-2-2h-6C16.895,16,16,16.895,16,18z"/>
</svg>