<!--?xml version="1.0"?-->
<svg xmlns="http://www.w3.org/2000/svg" viewBox="0 0 50 50">
    <path style="line-height:normal;text-indent:0;text-align:start;text-decoration-line:none;text-decoration-style:solid;text-decoration-color:#000;text-transform:none;block-progression:tb;isolation:auto;mix-blend-mode:normal;fill:#FFFFFF;" d="M 11 3 A 1.0001 1.0001 0 1 0 11 5 L 39 5 A 1.0001 1.0001 0 1 0 39 3 L 11 3 z M 10 7 A 1.0001 1.0001 0 1 0 10 9 L 40 9 A 1.0001 1.0001 0 1 0 40 7 L 10 7 z M 9 11 A 1.0001 1.0001 0 0 0 8 12 L 8 24 L 10 24 L 10 13 L 40 13 L 40 24 L 42 24 L 42 12 A 1.0001 1.0001 0 0 0 41 11 L 9 11 z M 19.970703 16 C 19.695703 16.009 19.436906 16.129938 19.253906 16.335938 L 12.439453 24 L 28.414062 24 L 20.707031 16.292969 C 20.513031 16.098969 20.240703 16.006 19.970703 16 z M 35.5 16 A 1.5 1.5 0 0 0 34 17.5 A 1.5 1.5 0 0 0 35.5 19 A 1.5 1.5 0 0 0 37 17.5 A 1.5 1.5 0 0 0 35.5 16 z M 31 18 C 30.74425 18 30.488469 18.097469 30.292969 18.292969 L 27.914062 20.671875 L 29.828125 22.585938 L 31.242188 24 L 34.585938 24 L 37.412109 24 L 31.707031 18.292969 C 31.511531 18.097469 31.25575 18 31 18 z M 6 26 C 5.447 26 5 26.447 5 27 L 5 46 C 5 46.553 5.447 47 6 47 L 44 47 C 44.553 47 45 46.553 45 46 L 45 27 C 45 26.447 44.553 26 44 26 L 6 26 z M 21 30 L 29 30 C 29.553 30 30 30.447 30 31 C 30 31.553 29.553 32 29 32 L 21 32 C 20.447 32 20 31.553 20 31 C 20 30.447 20.447 30 21 30 z" font-weight="400" font-family="sans-serif" white-space="normal" overflow="visible"></path>
</svg>