<?xml version="1.0" encoding="UTF-8"?>
<svg width="22px" height="30px" viewBox="0 0 22 30" version="1.1" xmlns="http://www.w3.org/2000/svg" xmlns:xlink="http://www.w3.org/1999/xlink">
    <!-- Generator: Sketch 47.1 (45422) - http://www.bohemiancoding.com/sketch -->
    <title>Shape</title>
    <desc>Created with Sketch.</desc>
    <defs></defs>
    <g id="Symbols" stroke="none" stroke-width="1" fill="none" fill-rule="evenodd">
        <g id="no_thumbnail_asset" transform="translate(-86.000000, -39.000000)" fill-rule="nonzero" fill="#FFFFFF">
            <g id="asset">
                <path d="M107.967407,45.9096296 C107.967407,45.6488889 107.86963,45.3881481 107.674074,45.1925926 L102.198519,39.3259259 C102.002963,39.0977778 101.70963,39 101.416296,39 L87.7274074,39 C86.7822222,39 86,39.7822222 86,40.7274074 L86,66.5733333 C86,67.5185185 86.7822222,68.3007407 87.7274074,68.3007407 L106.272593,68.3007407 C107.217778,68.3007407 108,67.5185185 108,66.5733333 L107.967407,45.9096296 Z M94.6696296,61.6192593 C94.8325926,61.88 94.7348148,62.0755556 94.4088889,62.0755556 L93.92,62.0755556 C93.7244444,62.0755556 93.5940741,61.9777778 93.4637037,61.8148148 L93.04,61.0651852 C92.877037,60.7718519 92.7466667,60.4459259 92.7466667,60.4459259 L92.7466667,60.4459259 C92.7466667,60.4459259 92.6162963,60.7392593 92.4533333,61.0651852 L92.0296296,61.8148148 C91.9318519,62.0103704 91.8014815,62.0755556 91.5733333,62.0755556 L91.0844444,62.0755556 C90.7911111,62.0755556 90.6607407,61.88 90.8237037,61.6192593 L92.0296296,59.6311111 L90.7911111,57.642963 C90.6281481,57.3822222 90.7585185,57.1866667 91.0518519,57.1866667 L91.5733333,57.1866667 C91.7688889,57.1866667 91.8992593,57.2844444 92.0296296,57.4474074 L92.4207407,58.197037 C92.5837037,58.4903704 92.7140741,58.8162963 92.7140741,58.8162963 L92.7140741,58.8162963 C92.7140741,58.8162963 92.8444444,58.4903704 93.0074074,58.197037 L93.3985185,57.4474074 C93.4962963,57.2518519 93.6266667,57.1866667 93.8548148,57.1866667 L94.3762963,57.1866667 C94.6696296,57.1866667 94.8,57.3822222 94.637037,57.642963 L93.3985185,59.6637037 L94.6696296,61.6192593 Z M99.0696296,61.717037 C99.0696296,61.9777778 98.9392593,62.1081481 98.6785185,62.1081481 L96.2340741,62.1081481 C95.9733333,62.1081481 95.842963,61.9777778 95.842963,61.717037 L95.842963,57.5777778 C95.842963,57.317037 95.9733333,57.1866667 96.2340741,57.1866667 L96.6903704,57.1866667 C96.9511111,57.1866667 97.0814815,57.317037 97.0814815,57.5777778 L97.0814815,61.0651852 L98.7111111,61.0651852 C98.9718519,61.0651852 99.1022222,61.1955556 99.1022222,61.4562963 L99.1022222,61.717037 L99.0696296,61.717037 Z M101.514074,62.1733333 C100.82963,62.1733333 100.21037,61.88 99.9496296,61.6844444 C99.8192593,61.5540741 99.6888889,61.4237037 99.8844444,61.162963 L100.112593,60.8696296 C100.242963,60.6740741 100.405926,60.6414815 100.634074,60.7718519 C100.797037,60.8696296 101.09037,61.0651852 101.514074,61.0651852 C101.872593,61.0651852 102.035556,60.9022222 102.035556,60.7392593 C102.035556,60.0548148 99.8844444,60.1525926 99.8844444,58.6207407 C99.8844444,57.7081481 100.634074,57.1214815 101.644444,57.1214815 C102.198519,57.1214815 102.72,57.317037 102.980741,57.48 C103.176296,57.6103704 103.208889,57.8059259 103.111111,58.0014815 L102.948148,58.3274074 C102.817778,58.5881481 102.622222,58.5555556 102.426667,58.4577778 C102.198519,58.36 101.97037,58.2296296 101.644444,58.2296296 C101.253333,58.2296296 101.122963,58.3925926 101.122963,58.5555556 C101.122963,59.2725926 103.274074,59.1096296 103.274074,60.6414815 C103.241481,61.4562963 102.622222,62.1733333 101.514074,62.1733333 Z M106.468148,46.2355556 L102.882963,46.2355556 C101.937778,46.2355556 101.155556,45.4533333 101.155556,44.5081481 L101.155556,40.6622222 C101.155556,40.5644444 101.285926,40.5318519 101.351111,40.597037 L106.565926,46.04 C106.598519,46.1051852 106.565926,46.2355556 106.468148,46.2355556 Z" id="Shape"></path>
            </g>
        </g>
    </g>
</svg>