<?xml version="1.0" encoding="UTF-8"?>
<svg width="26px" height="26px" viewBox="0 0 26 26" version="1.1" xmlns="http://www.w3.org/2000/svg" xmlns:xlink="http://www.w3.org/1999/xlink">
    <!-- Generator: Sketch 47.1 (45422) - http://www.bohemiancoding.com/sketch -->
    <title>note</title>
    <desc>Created with Sketch.</desc>
    <defs></defs>
    <g id="_assets" stroke="none" stroke-width="1" fill="none" fill-rule="evenodd">
        <g id="note">
            <g transform="translate(4.000000, 4.000000)" id="Shape">
                <path d="M0,16.2 L0,1.8 C0,0.8055 0.8055,0 1.8,0 L16.2,0 C17.1945,0 18,0.8055 18,1.8 L18,13.05 L13.05,18 L1.8,18 C0.8055,18 0,17.1945 0,16.2 Z" stroke="#000000" stroke-width="1.6" stroke-linecap="round" stroke-linejoin="round"></path>
                <path d="M18,12.6 L14.4,12.6 C13.4055,12.6 12.6,13.4055 12.6,14.4 L12.6,18 L18,12.6 Z" fill="#000000" fill-rule="nonzero"></path>
                <path d="M4.5,9 L11.7,9" stroke="#000000" stroke-width="2.2" stroke-linecap="round"></path>
                <path d="M4.5,5.625 L8.1,5.625" stroke="#000000" stroke-width="2.2" stroke-linecap="round"></path>
                <path d="M11.7,5.625 L13.5,5.625" stroke="#000000" stroke-width="2.2" stroke-linecap="round"></path>
            </g>
        </g>
    </g>
</svg>