<?xml version="1.0" encoding="UTF-8"?>
<svg width="18px" height="18px" viewBox="0 0 18 18" version="1.1" xmlns="http://www.w3.org/2000/svg" xmlns:xlink="http://www.w3.org/1999/xlink">
    <!-- Generator: Sketch 47.1 (45422) - http://www.bohemiancoding.com/sketch -->
    <title>note</title>
    <desc>Created with Sketch.</desc>
    <defs></defs>
    <g id="Upload" stroke="none" stroke-width="1" fill="none" fill-rule="evenodd">
        <g id="Upload-URL-Dashboard" transform="translate(-549.000000, -337.000000)">
            <g id="createText_filled" transform="translate(488.000000, 222.000000)">
                <g id="note" transform="translate(62.000000, 116.000000)">
                    <path d="M0,14.4 L0,1.6 C0,0.716 0.716,0 1.6,0 L14.4,0 C15.284,0 16,0.716 16,1.6 L16,11.6 L11.6,16 L1.6,16 C0.716,16 0,15.284 0,14.4 Z" id="Shape" stroke="#808C9B" stroke-width="1.6" stroke-linecap="round" stroke-linejoin="round"></path>
                    <path d="M16,11.2 L12.8,11.2 C11.916,11.2 11.2,11.916 11.2,12.8 L11.2,16 L16,11.2 Z" id="Shape" fill="#808C9B" fill-rule="nonzero"></path>
                    <path d="M4,8 L10.4,8" id="Shape" stroke="#808C9B" stroke-width="1.6" stroke-linecap="round"></path>
                    <path d="M4,5 L7.2,5" id="Shape" stroke="#808C9B" stroke-width="1.6" stroke-linecap="round"></path>
                    <path d="M10.4,5 L12,5" id="Shape" stroke="#808C9B" stroke-width="1.6" stroke-linecap="round"></path>
                </g>
            </g>
        </g>
    </g>
</svg>