<?xml version="1.0" encoding="UTF-8"?>
<svg width="26px" height="26px" viewBox="0 0 26 26" version="1.1" xmlns="http://www.w3.org/2000/svg" xmlns:xlink="http://www.w3.org/1999/xlink">
    <!-- Generator: Sketch 47.1 (45422) - http://www.bohemiancoding.com/sketch -->
    <title>notifications</title>
    <desc>Created with Sketch.</desc>
    <defs></defs>
    <g id="_assets" stroke="none" stroke-width="1" fill="none" fill-rule="evenodd">
        <g id="notifications" fill-rule="nonzero" fill="#000000">
            <g id="bell_icon" transform="translate(5.000000, 4.000000)">
                <path d="M1.25892857,14.5384615 L15.1875,14.5384615 C15.5721269,14.5384615 15.8839286,14.2285048 15.8839286,13.8461538 C15.8839286,13.4638029 15.5721269,13.1538462 15.1875,13.1538462 C13.8496607,11.8239231 13.0982143,10.0204615 13.0982143,8.13946154 L13.0982143,6.23076923 C13.0982143,4.0354428 11.6297893,2.18106302 9.61607143,1.58529975 L9.61607143,1.38461538 C9.61607143,0.619615385 8.99276786,0 8.22321429,0 C7.45366071,0 6.83035714,0.619615385 6.83035714,1.38461538 L6.83035714,1.58529975 C4.81663929,2.18106302 3.34821429,4.0354428 3.34821429,6.23076923 L3.34821429,8.13946154 C3.34821429,10.0204615 2.59676786,11.8239231 1.25892857,13.1538462 C0.874301692,13.1538462 0.5625,13.4638029 0.5625,13.8461538 C0.5625,14.2285048 0.874301692,14.5384615 1.25892857,14.5384615 Z M8.22321429,18 C7.06923214,18 6.13392857,17.0702308 6.13392857,15.9230769 L10.3125,15.9230769 C10.3125,17.0702308 9.37719643,18 8.22321429,18 Z" id="Combined-Shape"></path>
            </g>
        </g>
    </g>
</svg>