<?xml version="1.0" encoding="UTF-8"?>
<svg width="26px" height="26px" viewBox="0 0 26 26" version="1.1" xmlns="http://www.w3.org/2000/svg" xmlns:xlink="http://www.w3.org/1999/xlink">
    <!-- Generator: Sketch 47.1 (45422) - http://www.bohemiancoding.com/sketch -->
    <title>ok</title>
    <desc>Created with Sketch.</desc>
    <defs></defs>
    <g id="_assets" stroke="none" stroke-width="1" fill="none" fill-rule="evenodd">
        <g id="ok" fill-rule="nonzero" fill="#fff">
            <g transform="translate(4.000000, 4.000000)" id="Shape">
                <path d="M9,0 C4.02975,0 0,4.02975 0,9 C0,13.97025 4.02975,18 9,18 C13.97025,18 18,13.97025 18,9 C18,4.02975 13.97025,0 9,0 Z M13.7401873,6.62147716 L8.07018731,12.4732071 C7.92918731,12.6187263 7.73868731,12.7000003 7.53993731,12.7000003 C7.34118731,12.7000003 7.14993731,12.6187263 7.00968731,12.4732071 L4.41993731,9.80045264 C4.12668731,9.49780365 4.12668731,9.00861142 4.41993731,8.70596242 C4.71318731,8.40331343 5.18718731,8.40331343 5.48043731,8.70596242 L7.53993731,10.8314717 L12.6796873,5.52698694 C12.9729373,5.22433794 13.4469373,5.22433794 13.7401873,5.52698694 C14.0334373,5.82963593 14.0334373,6.31882816 13.7401873,6.62147716 Z"></path>
            </g>
        </g>
    </g>
</svg>