<?xml version="1.0" encoding="UTF-8"?>
<svg width="24px" height="12px" viewBox="0 0 24 12" version="1.1" xmlns="http://www.w3.org/2000/svg" xmlns:xlink="http://www.w3.org/1999/xlink">
    <!-- Generator: Sketch 47.1 (45422) - http://www.bohemiancoding.com/sketch -->
    <title>ppt_icon</title>
    <desc>Created with Sketch.</desc>
    <defs></defs>
    <g id="Asset-page" stroke="none" stroke-width="1" fill="none" fill-rule="evenodd">
        <g id="File-Uploaded-2" transform="translate(-88.000000, -394.000000)" fill-rule="nonzero" fill="#1F8AEF">
            <g id="asset_info" transform="translate(88.000000, 122.000000)">
                <g id="ppt_icon" transform="translate(0.000000, 272.000000)">
                    <path d="M6.982,4.402 L5.647,4.402 L5.647,6.393 L6.982,6.393 C7.518,6.393 7.942,5.921 7.942,5.425 C7.942,4.866 7.518,4.402 6.982,4.402 Z" id="Shape"></path>
                    <path d="M12.367,4.402 L11.032,4.402 L11.032,6.393 L12.367,6.393 C12.903,6.393 13.327,5.921 13.327,5.425 C13.327,4.866 12.903,4.402 12.367,4.402 Z" id="Shape"></path>
                    <path d="M23,0 L1,0 C0.45,0 0,0.45 0,1 L0,11 C0,11.55 0.45,12 1,12 L23,12 C23.551,12 24,11.55 24,11 L24,1 C24,0.45 23.551,0 23,0 Z M6.982,7.393 L5.647,7.393 L5.647,8.449 C5.647,8.801 5.423,9 5.135,9 C4.871,9 4.592,8.801 4.592,8.448 L4.592,3.947 C4.592,3.683 4.8,3.394 5.135,3.394 L6.982,3.394 C8.022,3.394 8.958,4.09 8.958,5.425 C8.958,6.689 8.022,7.393 6.982,7.393 Z M12.367,7.393 L11.032,7.393 L11.032,8.449 C11.032,8.802 10.808,9.001 10.52,9.001 C10.256,9.001 9.976,8.802 9.976,8.449 L9.976,3.948 C9.976,3.684 10.184,3.395 10.52,3.395 L12.367,3.395 C13.407,3.395 14.343,4.091 14.343,5.426 C14.342,6.689 13.407,7.393 12.367,7.393 Z M19.238,4.467 L17.912,4.467 L17.912,8.504 C17.912,9.199 16.855,9.216 16.855,8.504 L16.855,4.467 L15.457,4.467 C14.761,4.467 14.761,3.444 15.457,3.444 L19.238,3.444 C19.951,3.443 19.951,4.467 19.238,4.467 Z" id="Shape"></path>
                </g>
            </g>
        </g>
    </g>
</svg>