<?xml version="1.0" encoding="UTF-8"?>
<svg width="14px" height="14px" viewBox="0 0 14 14" version="1.1" xmlns="http://www.w3.org/2000/svg" xmlns:xlink="http://www.w3.org/1999/xlink">
    <!-- Generator: Sketch 47.1 (45422) - http://www.bohemiancoding.com/sketch -->
    <title>cancel</title>
    <desc>Created with Sketch.</desc>
    <defs></defs>
    <g id="Consolidated-Content" stroke="none" stroke-width="1" fill="none" fill-rule="evenodd">
        <g id="Consolidate-Content-All-Actions" transform="translate(-218.000000, -250.000000)" fill-rule="nonzero" fill="#1F8AEF">
            <g id="Title" transform="translate(88.000000, 120.000000)">
                <g id="reject_icon" transform="translate(121.000000, 121.000000)">
                    <g id="cancel" transform="translate(9.000000, 9.000000)">
                        <path d="M7,0 C3.13425,0 0,3.13425 0,7 C0,10.86575 3.13425,14 7,14 C10.86575,14 14,10.86575 14,7 C14,3.13425 10.86575,0 7,0 Z M7.82483333,7 C7.82483333,7 9.65591667,8.83108333 9.74575,8.92091667 C9.97383333,9.149 9.97383333,9.51825 9.74575,9.74575 C9.51766667,9.97383333 9.14841667,9.97383333 8.92091667,9.74575 C8.83108333,9.6565 7,7.82483333 7,7.82483333 C7,7.82483333 5.16891667,9.65591667 5.07908333,9.74575 C4.851,9.97383333 4.48175,9.97383333 4.25425,9.74575 C4.02616667,9.51766667 4.02616667,9.14841667 4.25425,8.92091667 C4.3435,8.83108333 6.17516667,7 6.17516667,7 C6.17516667,7 4.34408333,5.16891667 4.25425,5.07908333 C4.02616667,4.851 4.02616667,4.48175 4.25425,4.25425 C4.48233333,4.02616667 4.85158333,4.02616667 5.07908333,4.25425 C5.16891667,4.3435 7,6.17516667 7,6.17516667 C7,6.17516667 8.83108333,4.34408333 8.92091667,4.25425 C9.149,4.02616667 9.51825,4.02616667 9.74575,4.25425 C9.97383333,4.48233333 9.97383333,4.85158333 9.74575,5.07908333 C9.6565,5.16891667 7.82483333,7 7.82483333,7 Z" id="Shape"></path>
                    </g>
                </g>
            </g>
        </g>
    </g>
</svg>