<svg fill="#1F8AEF" xmlns:x="http://ns.adobe.com/Extensibility/1.0/" xmlns:i="http://ns.adobe.com/AdobeIllustrator/10.0/" xmlns:graph="http://ns.adobe.com/Graphs/1.0/" xmlns="http://www.w3.org/2000/svg" xmlns:xlink="http://www.w3.org/1999/xlink" version="1.1" x="0px" y="0px" viewBox="0 0 100 100" enable-background="new 0 0 100 100" width="16px" height="16px" xml:space="preserve"><metadata><sfw xmlns="http://ns.adobe.com/SaveForWeb/1.0/"><slices></slices><sliceSourceBounds width="1447.7" height="1447.2" x="1" y="-1448.3" bottomLeftOrigin="true"></sliceSourceBounds></sfw></metadata><path d="M22.1,36.7H28c0.9,0,1.4,0.9,0.9,1.7L14.5,60.5c-0.2,0.3,0,0.7,0.4,0.7h7h4.4h4.9c0.6,0,1.1,0.5,1.1,1.1  c0.5,9.3,8.2,16.6,17.7,16.6s17.1-7.4,17.7-16.6c0-0.6,0.5-1.1,1.1-1.1h4.9h5.1h6.3c0.3,0,0.5-0.4,0.4-0.7L71.1,38.3  c-0.5-0.7,0.1-1.7,0.9-1.7h5.9c1.9,0,3.6,1,4.7,2.5l13.3,20.6c0.6,0.9,0.9,2,0.9,3.1v28.7c0,2.8-2.3,5.1-5.1,5.1H50H8.3  c-2.8,0-5.1-2.3-5.1-5.1V62.9c0-1.1,0.3-2.2,0.9-3.1l13.3-20.6C18.5,37.6,20.2,36.7,22.1,36.7z M37.4,23.3h5v36.5  c0,0.8,0.7,1.5,1.5,1.5h12.3c0.8,0,1.5-0.7,1.5-1.5V23.3h5c1.6,0,2.6-1.9,1.5-3.2l-12.6-16c-0.8-1-2.3-1-3.1,0l-12.6,16  C34.8,21.5,35.7,23.3,37.4,23.3z"></path></svg>