<?xml version="1.0" encoding="UTF-8"?>
<svg width="14px" height="17px" viewBox="0 0 14 17" version="1.1" xmlns="http://www.w3.org/2000/svg" xmlns:xlink="http://www.w3.org/1999/xlink">
    <!-- Generator: Sketch 47.1 (45422) - http://www.bohemiancoding.com/sketch -->
    <title>download</title>
    <desc>Created with Sketch.</desc>
    <defs></defs>
    <g id="Asset-page" stroke="none" stroke-width="1" fill="none" fill-rule="evenodd">
        <g id="File-Approved-as-Admin" transform="translate(-574.000000, -30.000000)" fill-rule="nonzero" fill="#1F8AEF">
            <g id="top_bar" transform="translate(88.000000, 24.000000)">
                <g id="asset_actions" transform="translate(372.000000, 0.000000)">
                    <g id="download" transform="translate(105.000000, 0.000000)">
                        <g transform="translate(9.000000, 6.000000)" id="Shape">
                            <path d="M7,0 L7,0 C6.64872727,0 6.36363636,0.285090909 6.36363636,0.636363636 L6.36363636,3.18181818 L7.63636364,3.18181818 L7.63636364,0.636363636 C7.63636364,0.285090909 7.35127273,0 7,0 Z"></path>
                            <path d="M12.7272727,3.18181818 L7.63636364,3.18181818 L7.63636364,11.1910909 L9.09554545,9.73190909 C9.34436364,9.48309091 9.74654545,9.48309091 9.99536364,9.73190909 C10.2441818,9.98072727 10.2441818,10.3829091 9.99536364,10.6317273 L7.44990909,13.1771818 C7.32581818,13.3012727 7.16290909,13.3636364 7,13.3636364 C6.83709091,13.3636364 6.67418182,13.3012727 6.55009091,13.1771818 L4.00463636,10.6317273 C3.75581818,10.3829091 3.75581818,9.98072727 4.00463636,9.73190909 C4.25345455,9.48309091 4.65563636,9.48309091 4.90445455,9.73190909 L6.36363636,11.1910909 L6.36363636,3.18181818 L1.27272727,3.18181818 C0.569545455,3.18181818 0,3.75136364 0,4.45454545 L0,15.2727273 C0,15.9759091 0.569545455,16.5454545 1.27272727,16.5454545 L12.7272727,16.5454545 C13.4304545,16.5454545 14,15.9759091 14,15.2727273 L14,4.45454545 C14,3.75136364 13.4304545,3.18181818 12.7272727,3.18181818 Z"></path>
                        </g>
                    </g>
                </g>
            </g>
        </g>
    </g>
</svg>