<svg xmlns="http://www.w3.org/2000/svg" xmlns:xlink="http://www.w3.org/1999/xlink" version="1.1" x="0px" y="0px" viewBox="0 0 100 100" style="enable-background:new 0 0 100 100;" xml:space="preserve"><g fill="#FFFFFF"><path d="M83.7,26.3c0-0.8-0.3-1.6-0.9-2.2L66,6.1c-0.6-0.7-1.5-1-2.4-1h-42c-2.9,0-5.3,2.4-5.3,5.3v79.3c0,2.9,2.4,5.3,5.3,5.3   h56.9c2.9,0,5.3-2.4,5.3-5.3L83.7,26.3z M38.2,74.8c0.4,0.6,0.1,1.1-0.6,1.1h-1.2c-0.5,0-0.9-0.2-1.1-0.7l-1-1.9   c-0.4-0.8-0.7-1.5-0.7-1.5h0c0,0-0.3,0.7-0.7,1.5l-1,1.9c-0.3,0.5-0.6,0.7-1.1,0.7h-1.2c-0.8,0-1-0.5-0.6-1.1l3-4.9l-3-5   c-0.4-0.6-0.1-1.1,0.6-1.1h1.3c0.5,0,0.9,0.2,1.1,0.7l1,1.8c0.4,0.8,0.7,1.6,0.7,1.6h0c0,0,0.3-0.8,0.7-1.6l1-1.8   c0.3-0.5,0.6-0.7,1.1-0.7h1.3c0.7,0,1,0.5,0.6,1.1l-3,5L38.2,74.8z M49.2,75c0,0.6-0.3,0.9-0.9,0.9h-6.1c-0.6,0-0.9-0.3-0.9-0.9   V64.7c0-0.6,0.3-0.9,0.9-0.9h1.1c0.6,0,0.9,0.3,0.9,0.9v8.7h4c0.6,0,0.9,0.3,0.9,0.9V75z M55.2,76.1c-1.7,0-3.2-0.7-3.9-1.2   c-0.4-0.3-0.6-0.7-0.2-1.3l0.5-0.8c0.3-0.5,0.7-0.5,1.3-0.2c0.4,0.2,1.2,0.7,2.2,0.7c0.9,0,1.3-0.4,1.3-0.8c0-1.7-5.4-1.4-5.4-5.3   c0-2.2,1.9-3.7,4.3-3.7c1.4,0,2.7,0.5,3.3,0.9c0.5,0.4,0.5,0.8,0.3,1.3l-0.4,0.8c-0.3,0.7-0.8,0.6-1.3,0.3   c-0.6-0.3-1.1-0.6-1.9-0.6c-0.9,0-1.3,0.4-1.3,0.8c0,1.8,5.4,1.3,5.4,5.2C59.5,74.4,57.9,76.1,55.2,76.1z M71.4,74.8   c0.4,0.6,0.1,1.1-0.6,1.1h-1.2c-0.5,0-0.9-0.2-1.1-0.7l-1-1.9c-0.4-0.8-0.7-1.5-0.7-1.5h0c0,0-0.3,0.7-0.7,1.5l-1,1.9   c-0.3,0.5-0.6,0.7-1.1,0.7h-1.2c-0.8,0-1-0.5-0.6-1.1l3-4.9l-3-5c-0.4-0.6-0.1-1.1,0.6-1.1h1.3c0.5,0,0.9,0.2,1.1,0.7l1,1.8   c0.4,0.8,0.7,1.6,0.7,1.6h0c0,0,0.3-0.8,0.7-1.6l1-1.8c0.3-0.5,0.6-0.7,1.1-0.7h1.3c0.7,0,1,0.5,0.6,1.1l-3,5L71.4,74.8z    M79.1,27.3h-11c-2.9,0-5.3-2.4-5.3-5.3V10.2c0-0.3,0.4-0.4,0.6-0.2l16,16.7C79.5,26.9,79.4,27.3,79.1,27.3z"/></g></svg>