<svg xmlns="http://www.w3.org/2000/svg" xmlns:xlink="http://www.w3.org/1999/xlink" version="1.1" x="0px" y="0px" viewBox="0 0 100 100" style="enable-background:new 0 0 100 100;" xml:space="preserve"><g><g fill="#FFFFFF"><path d="M37.7,64.3c-0.3-0.1-0.8-0.2-1.4-0.2h-1.2v3.7h1.6c1.2,0,1.9-0.7,1.9-1.8C38.6,65.1,38.4,64.5,37.7,64.3z"/><path d="M83.7,26.3c0-0.8-0.3-1.6-0.9-2.2L66,6.1c-0.6-0.7-1.5-1-2.4-1h-42c-2.9,0-5.3,2.4-5.3,5.3v79.3c0,2.9,2.4,5.3,5.3,5.3    h56.9c2.9,0,5.3-2.4,5.3-5.3L83.7,26.3z M42,75.9h-1.6c-0.6,0-1-0.3-1.4-0.8l-2.2-4.2h-1.7v3.9c0,0.8-0.4,1.2-1.2,1.2h-1.4    c-0.8,0-1.2-0.4-1.2-1.2V62.1c0-0.8,0.4-1.2,1.2-1.2h4.1c1.5,0,2.3,0.1,2.9,0.4c1.7,0.7,2.8,2.2,2.8,4.4c0,1.6-0.8,3.3-2.2,4.1v0    c0,0,0.2,0.3,0.6,0.9l2.1,3.9C43.3,75.3,42.9,75.9,42,75.9z M57.5,62.9c0,0.8-0.4,1.2-1.2,1.2h-3.4v10.7c0,0.8-0.4,1.2-1.2,1.2    h-1.4c-0.8,0-1.2-0.4-1.2-1.2V64.1h-3.4c-0.8,0-1.2-0.4-1.2-1.2v-0.8c0-0.8,0.4-1.2,1.2-1.2h10.5c0.8,0,1.2,0.4,1.2,1.2V62.9z     M69.7,62.9c0,0.8-0.4,1.2-1.2,1.2h-4.4v3.1h3.4c0.8,0,1.2,0.4,1.2,1.2v0.8c0,0.8-0.4,1.2-1.2,1.2h-3.4v4.4c0,0.8-0.4,1.2-1.2,1.2    h-1.4c-0.8,0-1.2-0.4-1.2-1.2V62.1c0-0.8,0.4-1.2,1.2-1.2h6.9c0.8,0,1.2,0.4,1.2,1.2V62.9z M79.1,27.3h-11c-2.9,0-5.3-2.4-5.3-5.3    V10.2c0-0.3,0.4-0.4,0.6-0.2l16,16.7C79.5,26.9,79.4,27.3,79.1,27.3z"/></g></g></svg>