<svg xmlns="http://www.w3.org/2000/svg" xmlns:xlink="http://www.w3.org/1999/xlink" version="1.1" x="0px" y="0px" viewBox="0 0 100 100" style="enable-background:new 0 0 100 100;" xml:space="preserve"><g><g fill="#FFFFFF"><path d="M83.7,26.3c0-0.8-0.3-1.6-0.9-2.2L66,6.1c-0.6-0.7-1.5-1-2.4-1h-42c-2.9,0-5.3,2.4-5.3,5.3v79.3c0,2.9,2.4,5.3,5.3,5.3    h56.9c2.9,0,5.3-2.4,5.3-5.3L83.7,26.3z M28.9,75.9h-3.4c-0.6,0-0.9-0.3-0.9-0.9V64.7c0-0.6,0.3-0.9,0.9-0.9h3.4    c3.8,0,6.3,2.2,6.3,6.1S32.8,75.9,28.9,75.9z M43.9,76.1c-3.8,0-6.4-2.8-6.4-6.4c0-3.5,2.6-6.2,6.4-6.2s6.4,2.7,6.4,6.2    C50.2,73.3,47.7,76.1,43.9,76.1z M63.1,74.7c-0.8,0.6-2.2,1.4-4.2,1.4c-3.9,0-6.4-2.7-6.4-6.3c0-3.5,2.6-6.3,6.4-6.3    c1.9,0,3.2,0.7,3.9,1.2c0.5,0.3,0.5,0.8,0.2,1.3l-0.4,0.7c-0.3,0.5-0.7,0.6-1.3,0.3c-0.6-0.3-1.4-0.7-2.3-0.7    c-2.4,0-3.4,1.7-3.4,3.5c0,1.8,1.1,3.7,3.4,3.7c1,0,1.9-0.5,2.5-0.9c0.5-0.4,1-0.3,1.3,0.2l0.5,0.7C63.6,73.9,63.6,74.3,63.1,74.7    z M75.2,74.8c0.4,0.6,0.1,1.1-0.6,1.1h-1.2c-0.5,0-0.8-0.2-1.1-0.7l-1-1.9c-0.4-0.8-0.7-1.5-0.7-1.5h0c0,0-0.3,0.7-0.7,1.5l-1,1.9    c-0.3,0.5-0.6,0.7-1.1,0.7h-1.2c-0.8,0-1-0.5-0.6-1.1l3-4.9l-3-5c-0.4-0.6-0.1-1.1,0.6-1.1h1.3c0.5,0,0.9,0.2,1.1,0.7l1,1.8    c0.4,0.8,0.7,1.6,0.7,1.6h0c0,0,0.3-0.8,0.7-1.6l1-1.8c0.3-0.5,0.6-0.7,1.1-0.7h1.3c0.7,0,1,0.5,0.6,1.1l-3,5L75.2,74.8z     M79.1,27.3h-11c-2.9,0-5.3-2.4-5.3-5.3V10.2c0-0.3,0.4-0.4,0.6-0.2l16,16.7C79.5,26.9,79.4,27.3,79.1,27.3z"/><path d="M43.9,66.3c-1.9,0-3.3,1.5-3.3,3.5c0,2.1,1.4,3.6,3.3,3.6s3.3-1.6,3.3-3.6C47.2,67.8,45.8,66.3,43.9,66.3z"/><path d="M28.8,66.3h-1.2v7.1h1.2c2.1,0,3.3-1.2,3.3-3.6C32.1,67.5,30.8,66.3,28.8,66.3z"/></g></g></svg>