<?xml version="1.0" encoding="UTF-8"?>
<svg width="26px" height="26px" viewBox="0 0 26 26" version="1.1" xmlns="http://www.w3.org/2000/svg" xmlns:xlink="http://www.w3.org/1999/xlink">
    <!-- Generator: Sketch 47.1 (45422) - http://www.bohemiancoding.com/sketch -->
    <title>approve</title>
    <desc>Created with Sketch.</desc>
    <defs></defs>
    <g id="_assets" stroke="none" stroke-width="1" fill="none" fill-rule="evenodd">
        <g id="approve" fill="#000000" fill-rule="nonzero">
            <path d="M21.518463,12.1473575 L20.8891069,11.7700208 C20.6211632,11.609393 20.4397646,11.3442188 20.358066,11.0430418 C20.3566813,11.0375029 20.3552966,11.031964 20.3532195,11.0264251 C20.2694438,10.7224787 20.2943688,10.3984537 20.4473806,10.1222017 L20.8039465,9.48038311 C21.1681283,8.82402492 20.701477,8.0160397 19.9509578,8.0035772 L19.2101315,7.9911147 C18.896492,7.98557581 18.6057004,7.84641126 18.3841449,7.62485576 C18.3820679,7.62277868 18.3792984,7.62000923 18.3772213,7.61793215 C18.1549735,7.39637664 18.0158089,7.10558505 18.0109624,6.79194553 L17.9984999,6.05111932 C17.985345,5.29921532 17.1773598,4.83256404 16.5210016,5.19743826 L15.879183,5.55400415 C15.6036234,5.70701592 15.2795984,5.73194092 14.9749596,5.64816524 C14.9694207,5.64678052 14.9638818,5.6453958 14.9583429,5.64331872 C14.6571659,5.56092776 14.3919917,5.38022156 14.231364,5.11227787 L13.8540272,4.48292176 C13.4676898,3.83902608 12.5350796,3.83902608 12.1487422,4.48292176 L11.7727902,5.10950842 C11.6107778,5.37952919 11.3435264,5.56162012 11.0402723,5.64470344 C11.0368105,5.6453958 11.0340411,5.64678052 11.0305793,5.64747288 C10.7238634,5.73194092 10.3977614,5.70701592 10.1194323,5.55261943 L9.47969075,5.19743826 C8.82333256,4.83256404 8.01534733,5.29921532 8.00288484,6.04973459 L7.99042234,6.79056081 C7.98488345,7.10420032 7.8457189,7.39499192 7.6241634,7.61654743 C7.62208631,7.61862451 7.61931687,7.62139395 7.61723979,7.62347104 C7.39568428,7.8457189 7.10489268,7.98488345 6.79125317,7.98972998 L6.05042696,8.00219248 C5.29921532,8.01534733 4.83256404,8.82333256 5.19743826,9.47969075 L5.55400415,10.1215093 C5.70701592,10.3977614 5.73194092,10.7210939 5.64816524,11.0257327 C5.64678052,11.0312716 5.6453958,11.0368105 5.64331872,11.0423494 C5.56092776,11.3435264 5.38022156,11.6087007 5.11227787,11.7693284 L4.48292176,12.1466651 C3.83902608,12.5330025 3.83902608,13.4663051 4.48292176,13.8519502 L5.11227787,14.2299792 C5.38022156,14.390607 5.56162012,14.6557812 5.64331872,14.9569582 C5.64470344,14.9624971 5.64608816,14.968036 5.64816524,14.9735749 C5.73194092,15.2782137 5.70701592,15.6015463 5.55400415,15.8777983 L5.19743826,16.5210016 C4.8332564,17.1773598 5.29990769,17.985345 6.05042696,17.9978075 L6.79125317,18.01027 C7.10489268,18.0158089 7.39568428,18.1549735 7.61723979,18.376529 C7.61931687,18.378606 7.62208631,18.3813755 7.6241634,18.3834526 C7.84641126,18.6050081 7.98557581,18.8957997 7.99042234,19.2094392 L8.00288484,19.949573 C8.01534733,20.7000923 8.82333256,21.1667436 9.47969075,20.8025617 L10.1215093,20.4459958 C10.397069,20.2929841 10.7210939,20.2680591 11.0257327,20.3518348 C11.0312716,20.3532195 11.0368105,20.3546042 11.0423494,20.3566813 C11.3435264,20.4390722 11.6087007,20.6197784 11.7693284,20.8877221 L12.1466651,21.5170782 C12.5330025,22.1609739 13.4656127,22.1609739 13.8519502,21.5170782 L14.2292869,20.8877221 C14.3899146,20.6197784 14.6550889,20.4383799 14.9562659,20.3566813 C14.9618048,20.3552966 14.9673436,20.3539118 14.9728825,20.3518348 C15.276829,20.2680591 15.6008539,20.2929841 15.8771059,20.4459958 L16.5189245,20.8025617 C17.1752827,21.1667436 17.9832679,20.7000923 17.9957304,19.949573 L18.0081929,19.2094392 C18.0137318,18.8957997 18.1528964,18.6050081 18.3744519,18.3834526 C18.376529,18.3813755 18.3792984,18.378606 18.3813755,18.376529 C18.602931,18.1542811 18.8937226,18.0151165 19.2073621,18.01027 L19.9481883,17.9978075 C20.6987076,17.985345 21.1653589,17.1773598 20.801177,16.5210016 L20.4446111,15.879183 C20.2915994,15.602931 20.2666744,15.2795984 20.35045,14.9749596 C20.3518348,14.9694207 20.3532195,14.9638818 20.3552966,14.9583429 C20.4376875,14.6571659 20.6183937,14.3919917 20.8863374,14.231364 L21.5156935,13.8533349 C22.1616663,13.4669975 22.1616663,12.5336949 21.518463,12.1473575 Z M16.9516501,11.4127625 L12.4097623,15.9546504 C12.2795984,16.0848142 12.1037387,16.1575121 11.9202631,16.1575121 C11.7367874,16.1575121 11.5602354,16.0848142 11.4307639,15.9546504 L9.04004154,13.563928 C8.76932841,13.2932149 8.76932841,12.8556427 9.04004154,12.5849296 C9.31075467,12.3142165 9.74832679,12.3142165 10.0190399,12.5849296 L11.9202631,14.4861528 L15.9726517,10.4337641 C16.2433649,10.163051 16.680937,10.163051 16.9516501,10.4337641 C17.2223633,10.7044773 17.2223633,11.1420494 16.9516501,11.4127625 Z"></path>
        </g>
    </g>
</svg>