<?xml version="1.0" encoding="UTF-8"?>
<svg width="14px" height="12px" viewBox="0 0 14 12" version="1.1" xmlns="http://www.w3.org/2000/svg" xmlns:xlink="http://www.w3.org/1999/xlink">
    <!-- Generator: Sketch 47.1 (45422) - http://www.bohemiancoding.com/sketch -->
    <title>back_icon</title>
    <desc>Created with Sketch.</desc>
    <defs></defs>
    <g id="Asset-page" stroke="none" stroke-width="1" fill="none" fill-rule="evenodd">
        <g id="File" transform="translate(-97.000000, -34.000000)" fill="#BFCBD9">
            <g id="top_bar" transform="translate(88.000000, 24.000000)">
                <g id="back_btn">
                    <path d="M16.7361803,9.32514233 C16.3210626,8.88971953 15.6481767,8.89146985 15.2310743,9.33134372 L10.2660843,14.5673936 C9.45941389,15.4045819 10.6689918,16.6599205 11.4756622,15.8227322 L14.8443524,12.3236067 C15.0101728,12.1513659 15.1445967,12.211839 15.1445967,12.4560993 L15.1445967,22.1100921 C15.1445967,22.6015746 15.524292,23 16.0000266,23 C16.4724675,23 16.8554565,22.6024303 16.8554565,22.1100921 L16.8554565,12.4560993 C16.8554565,12.2106848 16.9903871,12.1518921 17.1557008,12.3236067 L20.5243911,15.8227322 C21.3306337,16.6599205 22.5406393,15.4045819 21.7339689,14.5673936 L16.7361803,9.32514233 Z" id="back_icon" transform="translate(16.000000, 16.000000) rotate(-90.000000) translate(-16.000000, -16.000000) "></path>
                </g>
            </g>
        </g>
    </g>
</svg>