<?xml version="1.0" encoding="UTF-8"?>
<svg width="26px" height="26px" viewBox="0 0 26 26" version="1.1" xmlns="http://www.w3.org/2000/svg" xmlns:xlink="http://www.w3.org/1999/xlink">
    <!-- Generator: Sketch 47.1 (45422) - http://www.bohemiancoding.com/sketch -->
    <title>cancel</title>
    <desc>Created with Sketch.</desc>
    <defs></defs>
    <g id="_assets" stroke="none" stroke-width="1" fill="none" fill-rule="evenodd">
        <g id="cancel" fill-rule="nonzero" fill="#000000">
            <g transform="translate(4.000000, 4.000000)" id="Shape">
                <path d="M9,0 C4.02975,0 0,4.02975 0,9 C0,13.97025 4.02975,18 9,18 C13.97025,18 18,13.97025 18,9 C18,4.02975 13.97025,0 9,0 Z M10.0605,9 C10.0605,9 12.41475,11.35425 12.53025,11.46975 C12.8235,11.763 12.8235,12.23775 12.53025,12.53025 C12.237,12.8235 11.76225,12.8235 11.46975,12.53025 C11.35425,12.4155 9,10.0605 9,10.0605 C9,10.0605 6.64575,12.41475 6.53025,12.53025 C6.237,12.8235 5.76225,12.8235 5.46975,12.53025 C5.1765,12.237 5.1765,11.76225 5.46975,11.46975 C5.5845,11.35425 7.9395,9 7.9395,9 C7.9395,9 5.58525,6.64575 5.46975,6.53025 C5.1765,6.237 5.1765,5.76225 5.46975,5.46975 C5.763,5.1765 6.23775,5.1765 6.53025,5.46975 C6.64575,5.5845 9,7.9395 9,7.9395 C9,7.9395 11.35425,5.58525 11.46975,5.46975 C11.763,5.1765 12.23775,5.1765 12.53025,5.46975 C12.8235,5.763 12.8235,6.23775 12.53025,6.53025 C12.4155,6.64575 10.0605,9 10.0605,9 Z"></path>
            </g>
        </g>
    </g>
</svg>