<?xml version="1.0" encoding="UTF-8"?>
<svg width="26px" height="26px" viewBox="0 0 26 26" version="1.1" xmlns="http://www.w3.org/2000/svg" xmlns:xlink="http://www.w3.org/1999/xlink">
    <!-- Generator: Sketch 47.1 (45422) - http://www.bohemiancoding.com/sketch -->
    <title>close</title>
    <desc>Created with Sketch.</desc>
    <defs></defs>
    <g id="_assets" stroke="none" stroke-width="1" fill="none" fill-rule="evenodd">
        <g id="close">
            <g id="close_icon" transform="translate(5.000000, 5.000000)">
                <rect id="icon_bg" x="0" y="0" width="16" height="16"></rect>
                <path d="M2.52083333,13.4791667 L2.52083333,13.4791667 L2.52083333,13.4791667 C2.80848164,13.766815 3.27485169,13.766815 3.5625,13.4791667 L8,9.04166667 L12.4375,13.4791667 L12.4375,13.4791667 C12.7251483,13.766815 13.1915184,13.766815 13.4791667,13.4791667 L13.4791667,13.4791667 L13.4791667,13.4791667 C13.766815,13.1915184 13.766815,12.7251483 13.4791667,12.4375 L9.04166667,8 L13.4791667,3.5625 L13.4791667,3.5625 C13.766815,3.27485169 13.766815,2.80848164 13.4791667,2.52083333 L13.4791667,2.52083333 L13.4791667,2.52083333 C13.1915184,2.23318503 12.7251483,2.23318503 12.4375,2.52083333 L8,6.95833333 L3.5625,2.52083333 L3.5625,2.52083333 C3.27485169,2.23318503 2.80848164,2.23318503 2.52083333,2.52083333 L2.52083333,2.52083333 L2.52083333,2.52083333 C2.23318503,2.80848164 2.23318503,3.27485169 2.52083333,3.5625 L6.95833333,8 L2.52083333,12.4375 L2.52083333,12.4375 C2.23318503,12.7251483 2.23318503,13.1915184 2.52083333,13.4791667 Z" fill="#000000" fill-rule="nonzero"></path>
            </g>
        </g>
    </g>
</svg>