<?xml version="1.0" encoding="UTF-8"?>
<svg width="26px" height="26px" viewBox="0 0 26 26" version="1.1" xmlns="http://www.w3.org/2000/svg" xmlns:xlink="http://www.w3.org/1999/xlink">
    <!-- Generator: Sketch 47.1 (45422) - http://www.bohemiancoding.com/sketch -->
    <title>content</title>
    <desc>Created with Sketch.</desc>
    <defs></defs>
    <g id="_assets" stroke="none" stroke-width="1" fill="none" fill-rule="evenodd">
        <g id="content" fill-rule="nonzero" fill="#000000">
            <g id="documents" transform="translate(4.000000, 4.000000)">
                <path d="M17.7602727,4.73972727 L13.2602727,0.239727273 C13.1064545,0.0859090909 12.8986364,0 12.6818182,0 L5.72727273,0 C4.82318182,0 4.09090909,0.732272727 4.09090909,1.63636364 L4.09090909,16.3636364 C4.09090909,17.2677273 4.82318182,18 5.72727273,18 L16.3636364,18 C17.2677273,18 18,17.2677273 18,16.3636364 L18,5.31818182 C18,5.10136364 17.9140909,4.89354545 17.7602727,4.73972727 Z M12.2727273,13.9090909 L8.18181818,13.9090909 C7.73018182,13.9090909 7.36363636,13.5425455 7.36363636,13.0909091 C7.36363636,12.6392727 7.73018182,12.2727273 8.18181818,12.2727273 L12.2727273,12.2727273 C12.7243636,12.2727273 13.0909091,12.6392727 13.0909091,13.0909091 C13.0909091,13.5425455 12.7243636,13.9090909 12.2727273,13.9090909 Z M13.9090909,10.6363636 L8.18181818,10.6363636 C7.73018182,10.6363636 7.36363636,10.2698182 7.36363636,9.81818182 C7.36363636,9.36654545 7.73018182,9 8.18181818,9 L13.9090909,9 C14.3607273,9 14.7272727,9.36654545 14.7272727,9.81818182 C14.7272727,10.2698182 14.3607273,10.6363636 13.9090909,10.6363636 Z M13.0909091,5.72727273 C12.6392727,5.72727273 12.2727273,5.36072727 12.2727273,4.90909091 L12.2727273,1.55781818 L16.4421818,5.72727273 L13.0909091,5.72727273 Z" id="Shape"></path>
                <path d="M2.45454545,16.3636364 L2.45454545,1.63636364 C2.45454545,1.03745455 2.628,0.483545455 2.90945455,0 L1.63636364,0 C0.732272727,0 0,0.732272727 0,1.63636364 L0,16.3636364 C0,17.2677273 0.732272727,18 1.63636364,18 L2.90945455,18 C2.628,17.5164545 2.45454545,16.9625455 2.45454545,16.3636364 Z" id="Shape"></path>
            </g>
        </g>
    </g>
</svg>