<?xml version="1.0" encoding="UTF-8"?>
<svg width="26px" height="26px" viewBox="0 0 26 26" version="1.1" xmlns="http://www.w3.org/2000/svg" xmlns:xlink="http://www.w3.org/1999/xlink">
    <!-- Generator: Sketch 47.1 (45422) - http://www.bohemiancoding.com/sketch -->
    <title>download</title>
    <desc>Created with Sketch.</desc>
    <defs></defs>
    <g id="_assets" stroke="none" stroke-width="1" fill="none" fill-rule="evenodd">
        <g id="download" fill-rule="nonzero" fill="#1F8AEF">
            <g transform="translate(5.500000, 3.500000)" id="Shape">
                <path d="M7.41176471,0 L7.41176471,0 C7.03982888,0 6.73796791,0.301860963 6.73796791,0.673796791 L6.73796791,3.36898396 L8.0855615,3.36898396 L8.0855615,0.673796791 C8.0855615,0.301860963 7.78370053,0 7.41176471,0 Z"></path>
                <path d="M13.4759358,3.36898396 L8.0855615,3.36898396 L8.0855615,11.8493904 L9.63057754,10.3043743 C9.89403209,10.0409198 10.3198717,10.0409198 10.5833262,10.3043743 C10.8467807,10.5678289 10.8467807,10.9936684 10.5833262,11.257123 L7.88813904,13.9523102 C7.75674866,14.0837005 7.58425668,14.1497326 7.41176471,14.1497326 C7.23927273,14.1497326 7.06678075,14.0837005 6.93539037,13.9523102 L4.24020321,11.257123 C3.97674866,10.9936684 3.97674866,10.5678289 4.24020321,10.3043743 C4.50365775,10.0409198 4.92949733,10.0409198 5.19295187,10.3043743 L6.73796791,11.8493904 L6.73796791,3.36898396 L1.34759358,3.36898396 C0.603048128,3.36898396 0,3.97203209 0,4.71657754 L0,16.171123 C0,16.9156684 0.603048128,17.5187166 1.34759358,17.5187166 L13.4759358,17.5187166 C14.2204813,17.5187166 14.8235294,16.9156684 14.8235294,16.171123 L14.8235294,4.71657754 C14.8235294,3.97203209 14.2204813,3.36898396 13.4759358,3.36898396 Z"></path>
            </g>
        </g>
    </g>
</svg>