
<svg width="26px" height="26px" viewBox="0 0 26 26" version="1.1" xmlns="http://www.w3.org/2000/svg" xmlns:xlink="http://www.w3.org/1999/xlink">
    <!-- Generator: Sketch 47.1 (45422) - http://www.bohemiancoding.com/sketch -->
    <desc>Created with Sketch.</desc>
    <defs>
        <rect id="path-1" x="0" y="0" width="24" height="24" rx="4"></rect>
        <filter x="-8.3%" y="-4.2%" width="116.7%" height="116.7%" filterUnits="objectBoundingBox" id="filter-2">
            <feOffset dx="0" dy="1" in="SourceAlpha" result="shadowOffsetOuter1"></feOffset>
            <feGaussianBlur stdDeviation="0.5" in="shadowOffsetOuter1" result="shadowBlurOuter1"></feGaussianBlur>
            <feComposite in="shadowBlurOuter1" in2="SourceAlpha" operator="out" result="shadowBlurOuter1"></feComposite>
            <feColorMatrix values="0 0 0 0 0   0 0 0 0 0   0 0 0 0 0  0 0 0 0.06 0" type="matrix" in="shadowBlurOuter1"></feColorMatrix>
        </filter>
    </defs>
    <g id="Company" stroke="none" stroke-width="1" fill="none" fill-rule="evenodd">
        <g id="Company-Sales-Funnel" transform="translate(-1035.000000, -566.000000)">
            <g id="Qualification" transform="translate(88.000000, 548.000000)">
                <g id="edit_title" transform="translate(948.000000, 18.000000)">
                    <g id="btn_bg">
                        <use fill="black" fill-opacity="1" filter="url(#filter-2)" xlink:href="#path-1"></use>
                        <use fill="#FFFFFF" fill-rule="evenodd" xlink:href="#path-1"></use>
                        <rect stroke="#E3EBEF" stroke-width="1" x="0.5" y="0.5" width="23" height="23" rx="4"></rect>
                    </g>
                    <g id="pencil" transform="translate(6.750000, 6.750000)" fill-rule="nonzero" fill="#1F8AEF">
                        <polygon id="Shape" points="0.5044375 8.8169375 0.016625 10.1976875 0.294 10.486875 1.6835 9.996"></polygon>
                        <path d="M9.625,3.0625 L10.243625,2.443875 C10.5853125,2.1021875 10.5853125,1.5483125 10.243625,1.206625 L9.293375,0.256375 C8.9516875,-0.0853125 8.3978125,-0.0853125 8.056125,0.256375 L7.4375,0.875 L9.625,3.0625 Z" id="Shape"></path>
                        <polygon id="Shape" points="6.5625 1.75 1.3125 7 1.96875 7.21875 2.1875 8.3125 3.28125 8.53125 3.5 9.1875 8.75 3.9375"></polygon>
                    </g>
                </g>
            </g>
        </g>
    </g>
</svg>