<?xml version="1.0" encoding="UTF-8"?>
<svg width="26px" height="26px" viewBox="0 0 26 26" version="1.1" xmlns="http://www.w3.org/2000/svg" xmlns:xlink="http://www.w3.org/1999/xlink">
    <!-- Generator: Sketch 47.1 (45422) - http://www.bohemiancoding.com/sketch -->
    <title>error</title>
    <desc>Created with Sketch.</desc>
    <defs></defs>
    <g id="_assets" stroke="none" stroke-width="1" fill="none" fill-rule="evenodd">
        <g id="error" fill-rule="nonzero" fill="#000000">
            <g transform="translate(4.000000, 5.000000)">
                <circle id="Oval" cx="16.6153846" cy="14.5384615" r="1.38461538"></circle>
                <path d="M10.3846154,1.38461538 C10.3846154,2.14961538 9.765,2.07692308 9,2.07692308 C8.235,2.07692308 7.61538462,2.14961538 7.61538462,1.38461538 C7.61538462,0.619615385 8.235,0 9,0 C9.765,0 10.3846154,0.619615385 10.3846154,1.38461538 Z" id="Shape"></path>
                <circle id="Oval" cx="1.38461538" cy="14.5384615" r="1.38461538"></circle>
                <path d="M10.2710769,0.837692308 L9,0.692307692 L7.72892308,0.837692308 L0.207692308,13.8101538 L1.48430769,15.9230769 L9,15.9230769 L16.5156923,15.9230769 L17.7923077,13.8101538 L10.2710769,0.837692308 Z M9.83907692,5.78769231 L9.70061538,10.269 L8.29938462,10.269 L8.16092308,5.78769231 L9.83907692,5.78769231 Z M9.00207692,13.2846923 C8.42884615,13.2846923 8.08615385,12.9793846 8.08615385,12.4663846 C8.08615385,11.9436923 8.42815385,11.6383846 9.00207692,11.6383846 C9.57115385,11.6383846 9.91315385,11.9436923 9.91315385,12.4663846 C9.91315385,12.9793846 9.57115385,13.2846923 9.00207692,13.2846923 Z" id="Shape"></path>
            </g>
        </g>
    </g>
</svg>