<?xml version="1.0" encoding="UTF-8"?>
<svg width="26px" height="26px" viewBox="0 0 26 26" version="1.1" xmlns="http://www.w3.org/2000/svg" xmlns:xlink="http://www.w3.org/1999/xlink">
    <!-- Generator: Sketch 47.1 (45422) - http://www.bohemiancoding.com/sketch -->
    <title>funnel</title>
    <desc>Created with Sketch.</desc>
    <defs></defs>
    <g id="_assets" stroke="none" stroke-width="1" fill="none" fill-rule="evenodd">
        <g id="funnel" fill-rule="nonzero" fill="#000000">
            <path d="M6,10 L6.5,10 L6.5,10 C7.6045695,10 8.5,10.8954305 8.5,12 L8.5,14 C8.5,15.1045695 7.6045695,16 6.5,16 L6,16 C4.8954305,16 4,15.1045695 4,14 L4,12 C4,10.8954305 4.8954305,10 6,10 L6,10 Z M12.6923077,7 L13.1923077,7 L13.1923077,7 C14.2968772,7 15.1923077,7.8954305 15.1923077,9 L15.1923077,17 C15.1923077,18.1045695 14.2968772,19 13.1923077,19 L12.6923077,19 C11.5877382,19 10.6923077,18.1045695 10.6923077,17 L10.6923077,9 L10.6923077,9 C10.6923077,7.8954305 11.5877382,7 12.6923077,7 L12.6923077,7 Z M19.3846154,4 L19.8846154,4 C20.9891849,4 21.8846154,4.8954305 21.8846154,6 L21.8846154,20 C21.8846154,21.1045695 20.9891849,22 19.8846154,22 L19.3846154,22 C18.2800459,22 17.3846154,21.1045695 17.3846154,20 L17.3846154,6 L17.3846154,6 C17.3846154,4.8954305 18.2800459,4 19.3846154,4 Z" id="funnel_icon" transform="translate(12.942308, 13.000000) rotate(-90.000000) translate(-12.942308, -13.000000) "></path>
        </g>
    </g>
</svg>