<?xml version="1.0" encoding="UTF-8"?>
<svg width="26px" height="26px" viewBox="0 0 26 26" version="1.1" xmlns="http://www.w3.org/2000/svg" xmlns:xlink="http://www.w3.org/1999/xlink">
    <!-- Generator: Sketch 47.1 (45422) - http://www.bohemiancoding.com/sketch -->
    <title>groups</title>
    <desc>Created with Sketch.</desc>
    <defs></defs>
    <g id="_assets" stroke="none" stroke-width="1" fill="none" fill-rule="evenodd">
        <g id="groups" fill-rule="nonzero" fill="#000000">
            <path d="M4,20 L4,16.5 C4,15.3954305 4.8954305,14.5 6,14.5 L9.5,14.5 C10.6045695,14.5 11.5,15.3954305 11.5,16.5 L11.5,20 C11.5,21.1045695 10.6045695,22 9.5,22 L6,22 L6,22 C4.8954305,22 4,21.1045695 4,20 L4,20 Z M4,9.5 L4,6 C4,4.8954305 4.8954305,4 6,4 L9.5,4 C10.6045695,4 11.5,4.8954305 11.5,6 L11.5,9.5 C11.5,10.6045695 10.6045695,11.5 9.5,11.5 L6,11.5 L6,11.5 C4.8954305,11.5 4,10.6045695 4,9.5 L4,9.5 Z M14.5,20 L14.5,16.5 C14.5,15.3954305 15.3954305,14.5 16.5,14.5 L20,14.5 C21.1045695,14.5 22,15.3954305 22,16.5 L22,20 C22,21.1045695 21.1045695,22 20,22 L16.5,22 C15.3954305,22 14.5,21.1045695 14.5,20 Z M14.5,9.5 L14.5,6 C14.5,4.8954305 15.3954305,4 16.5,4 L20,4 C21.1045695,4 22,4.8954305 22,6 L22,9.5 C22,10.6045695 21.1045695,11.5 20,11.5 L16.5,11.5 C15.3954305,11.5 14.5,10.6045695 14.5,9.5 Z" id="groups_icons"></path>
        </g>
    </g>
</svg>