<?xml version="1.0" encoding="UTF-8"?>
<svg width="26px" height="26px" viewBox="0 0 26 26" version="1.1" xmlns="http://www.w3.org/2000/svg" xmlns:xlink="http://www.w3.org/1999/xlink">
    <!-- Generator: Sketch 47.1 (45422) - http://www.bohemiancoding.com/sketch -->
    <title>move</title>
    <desc>Created with Sketch.</desc>
    <defs></defs>
    <g id="_assets" stroke="none" stroke-width="1" fill="none" fill-rule="evenodd">
        <g id="move" fill="#1F8AEF" fill-rule="nonzero">
            <path d="M21.8944049,12.7536917 L19.0135829,10.4075605 C18.7868023,10.1807442 18.4005666,10.3402245 18.4005666,10.6627289 L18.4005666,12.1051388 L13.9003896,12.1051388 L13.9003896,7.60425281 L15.3425723,7.60425281 C15.6614825,7.60425281 15.8209376,7.21795629 15.5977004,6.99113999 L13.2590257,4.10632014 C13.1172879,3.96455995 12.8905073,3.96455995 12.7523129,4.10632014 L10.4065513,6.98759598 C10.1797707,7.21441229 10.3392258,7.6007088 10.6616794,7.6007088 L12.1038622,7.6007088 L12.1038622,12.1015948 L7.60368511,12.1015948 L7.60368511,10.6591849 C7.60368511,10.3402245 7.21744944,10.1807442 6.99066886,10.4040165 L4.1063034,12.7430597 C3.96456553,12.8848198 3.96456553,13.1116361 4.1063034,13.2498523 L6.98712541,15.5959835 C7.21390599,15.8227998 7.60014166,15.6633196 7.60014166,15.3408151 L7.60014166,13.8984052 L12.1003187,13.8984052 L12.1003187,18.3992912 L10.658136,18.3992912 C10.3392258,18.3992912 10.1797707,18.7855877 10.4030079,19.012404 L12.7381391,21.8936799 C12.879877,22.03544 13.1066575,22.03544 13.244852,21.8936799 L15.5906136,19.012404 C15.8173941,18.7855877 15.657939,18.3992912 15.3354854,18.3992912 L13.8933027,18.3992912 L13.8933027,13.8984052 L18.3934797,13.8984052 L18.3934797,15.3408151 C18.3934797,15.6597755 18.7797154,15.8192558 19.006496,15.5959835 L21.887318,13.2604843 C22.0361428,13.1187242 22.0361428,12.8919079 21.8944049,12.7536917 Z"></path>
        </g>
    </g>
</svg>