<?xml version="1.0" encoding="UTF-8"?>
<svg width="26px" height="26px" viewBox="0 0 26 26" version="1.1" xmlns="http://www.w3.org/2000/svg" xmlns:xlink="http://www.w3.org/1999/xlink">
    <!-- Generator: Sketch 47.1 (45422) - http://www.bohemiancoding.com/sketch -->
    <title>save</title>
    <desc>Created with Sketch.</desc>
    <defs></defs>
    <g id="_assets" stroke="none" stroke-width="1" fill="none" fill-rule="evenodd">
        <g id="save" fill-rule="nonzero" fill="#000000">
            <g transform="translate(4.000000, 4.000000)">
                <path d="M14.7272727,0 L13.0909091,0 L13.0909091,4.90909091 C13.0909091,5.36072727 12.7243636,5.72727273 12.2727273,5.72727273 L4.90909091,5.72727273 C4.45745455,5.72727273 4.09090909,5.36072727 4.09090909,4.90909091 L4.09090909,0 L1.63636364,0 C0.732272727,0 0,0.732272727 0,1.63636364 L0,16.3636364 C0,17.2677273 0.732272727,18 1.63636364,18 L16.3636364,18 C17.2677273,18 18,17.2677273 18,16.3636364 L18,3.27272727 L14.7272727,0 Z M14.7272727,16.3636364 L3.27272727,16.3636364 L3.27272727,11.4545455 C3.27272727,10.5504545 4.005,9.81818182 4.90909091,9.81818182 L13.0909091,9.81818182 C13.995,9.81818182 14.7272727,10.5504545 14.7272727,11.4545455 L14.7272727,16.3636364 Z" id="Shape"></path>
                <rect id="Rectangle-path" x="9.81818182" y="0" width="1.63636364" height="4.09090909"></rect>
            </g>
        </g>
    </g>
</svg>