<?xml version="1.0" encoding="UTF-8"?>
<svg width="18px" height="18px" viewBox="0 0 18 18" version="1.1" xmlns="http://www.w3.org/2000/svg" xmlns:xlink="http://www.w3.org/1999/xlink">
    <!-- Generator: Sketch 47.1 (45422) - http://www.bohemiancoding.com/sketch -->
    <title>search_icon</title>
    <desc>Created with Sketch.</desc>
    <defs></defs>
    <g id="Company" stroke="none" stroke-width="1" fill="none" fill-rule="evenodd">
        <g id="Company-Activity" transform="translate(-87.000000, -313.000000)" stroke="#1F8AEF" stroke-width="0.6" fill="#1F8AEF" fill-rule="nonzero">
            <g id="Content-Types-Title" transform="translate(88.000000, 314.000000)">
                <path d="M16,15.2024065 L11.5643564,10.7743876 C13.7408523,8.18908466 13.63065,4.33863343 11.2061989,1.91834981 C8.64399483,-0.639449936 4.48385708,-0.639449936 1.92165303,1.91834981 C-0.640551012,4.47614955 -0.640551012,8.62913623 1.92165303,11.186936 C3.18897977,12.4520842 4.8971158,13.1121616 6.57770125,13.1121616 C8.09298321,13.1121616 9.58071459,12.5896003 10.8204907,11.5719811 L15.2561343,16 L16,15.2024065 Z M2.69306931,10.4168457 C0.571674559,8.29909755 0.571674559,4.83369145 2.69306931,2.71594327 C3.76754197,1.64331758 5.14507103,1.12075634 6.55015067,1.12075634 C7.95523031,1.12075634 9.36030994,1.64331758 10.407232,2.71594327 C12.5286268,4.83369145 12.5286268,8.29909755 10.407232,10.4168457 C8.28583728,12.5345939 4.81446406,12.5345939 2.69306931,10.4168457 Z" id="search_icon"></path>
            </g>
        </g>
    </g>
</svg>