<?xml version="1.0" encoding="UTF-8"?>
<svg width="95px" height="100px" viewBox="0 0 95 100" version="1.1" xmlns="http://www.w3.org/2000/svg" xmlns:xlink="http://www.w3.org/1999/xlink">
    <!-- Generator: Sketch 51 (57462) - http://www.bohemiancoding.com/sketch -->
    <title>approval-workflow</title>
    <desc>Created with Sketch.</desc>
    <defs></defs>
    <g id="Design" stroke="none" stroke-width="1" fill="none" fill-rule="evenodd">
        <g id="Features-Template-V2" transform="translate(-1170.000000, -1276.000000)" fill-rule="nonzero">
            <g id="Feature-Copy-3" transform="translate(730.000000, 1226.000000)">
                <g id="approval-workflow" transform="translate(440.000000, 50.000000)">
                    <polygon id="Shape" fill="#D7E9FF" points="90.4999531 77 90.4999531 78.5715128 92 83.2858547 89.0000938 88 86 83.2858547 87.5000469 78.5715128 87.5000469 77"></polygon>
                    <polygon id="Shape" fill="#FFFFFF" points="89.0000938 84.7688732 86.6664373 81 86 83.1534109 89.0000938 88 92 83.1534109 91.333375 81"></polygon>
                    <polygon id="Shape" fill="#94C1FF" points="92 68 92 77 90.4999531 77 87.5000469 77 86 77 86 68"></polygon>
                    <rect id="Rectangle-path" fill="#D7E9FF" x="86" y="65" width="6" height="3"></rect>
                    <path d="M94,26.2068564 L92.5001251,65 L86.5000625,65 L85,26.2068564 C85,22.7777322 86.18504,20 89.5,20 L89.6493496,20 C92.8459181,20.0923905 94,22.8245098 94,26.2068564 Z" id="Shape" fill="#94C1FF"></path>
                    <path d="M87.8604651,65.4595231 L86.4302326,26.2702385 C86.4302326,23.0921778 87.4023256,20.4960818 90,20.0841182 C89.8128801,20.0535298 89.6382826,20.0060785 89.4329159,20 L89.2905188,20 C86.1298748,20 85,22.8060974 85,26.2702385 L86.4302326,65.4595231 L86.4302326,68.5946423 L86.4302326,78 L87.8604651,78 L87.8604651,68.5946423 L87.8604651,65.4595231 Z" id="Shape" fill="#D7E9FF"></path>
                    <path d="M91.1397138,65.4595231 L92.5699463,26.2702385 C92.5699463,23.0921778 91.5976744,20.4960818 89,20.0841182 C89.1872987,20.0535298 89.3617174,20.0060785 89.5670841,20 L89.7096601,20 C92.8703041,20 94,22.8060974 94,26.2702385 L92.5699463,65.4595231 L92.5699463,68.5946423 L92.5699463,78 L91.1397138,78 L91.1397138,68.5946423 L91.1397138,65.4595231 Z" id="Shape" fill="#5C9EFF"></path>
                    <rect id="Rectangle-path" fill="#94C1FF" x="88" y="77" width="3" height="2"></rect>
                    <rect id="Rectangle-path" fill="#94C1FF" x="1" y="1" width="76" height="98"></rect>
                    <polygon id="Shape" fill="#FFFFFF" points="64.2092389 94 5 94 5 5 72 5 72 86.1929448"></polygon>
                    <polygon id="Shape" fill="#D7E9FF" points="54 1 24 1 28.1700903 7 49.895125 7"></polygon>
                    <polygon id="Shape" fill="#FFFFFF" points="24 1 28.3727951 7 30 7 25.6270014 1"></polygon>
                    <polygon id="Shape" fill="#94C1FF" points="55 1 50.6270014 7 49 7 53.3727951 1"></polygon>
                    <rect id="Rectangle-path" fill="#D7E9FF" x="1" y="1" width="2" height="98"></rect>
                    <rect id="Rectangle-path" fill="#5C9EFF" x="76" y="1" width="2" height="98"></rect>
                    <polygon id="Shape" fill="#94C1FF" points="64 95 73 95 73 86"></polygon>
                    <polygon id="Shape" fill="#94C1FF" points="49.895125 6.49990619 28.1700903 6.49990619 25.042474 2 24 2 28.1700903 8 49.895125 8 54 2 52.9726652 2"></polygon>
                    <path d="M23,49.5000938 C23,51.9858027 20.9858027,54 18.4999062,54 C16.0140096,54 14,51.9858027 14,49.5000938 C14,47.0141973 16.0141973,45 18.5000938,45 C20.9859904,45 23,47.0141973 23,49.5000938 Z" id="Shape" fill="#D7E9FF"></path>
                    <path d="M23,28.5 C23,30.9859484 20.9858447,33 18.5,33 C16.0141553,33 14,30.9859484 14,28.5 C14,26.0140516 16.0143429,24 18.5001876,24 C20.9860324,24 23,26.0140516 23,28.5 Z" id="Shape" fill="#D7E9FF"></path>
                    <path d="M23,72.5 C23,74.9859484 20.9858447,77 18.5,77 C16.0141553,77 14,74.9859484 14,72.5 C14,70.0140516 16.0141553,68 18.5,68 C20.9858447,68 23,70.0140516 23,72.5 Z" id="Shape" fill="#D7E9FF"></path>
                    <rect id="Rectangle-path" fill="#FFFFFF" x="86" y="65" width="2" height="3"></rect>
                    <rect id="Rectangle-path" fill="#94C1FF" x="91" y="65" width="2" height="3"></rect>
                    <g id="_x32_5_check_x2C__list_x2C__tablet_x2C__document_x2C__pen_x2C__work_x2C__office" fill="#116FFF">
                        <path d="M50.6153381,7.84101563 L27.2677254,7.84101563 C27.0078381,7.84101563 26.7646926,7.70996094 26.6202459,7.49335938 L23.5076332,2.80898438 C23.2689652,2.45078125 23.3663012,1.96582031 23.7235246,1.72636719 C24.0776332,1.48847656 24.5625615,1.58320313 24.8025922,1.94277344 L27.6841291,6.27949219 L50.1991291,6.27949219 L53.0773566,1.94296875 C53.3162193,1.58320313 53.8025102,1.48867188 54.1564242,1.7265625 C54.5136475,1.96601563 54.6109836,2.44941406 54.3723156,2.80917969 L51.262623,7.49355469 C51.1183709,7.71015625 50.8752254,7.84101563 50.6153381,7.84101563 Z" id="Shape"></path>
                        <path d="M22.598709,6.2796875 L5.4792418,6.2796875 C5.04901639,6.2796875 4.70094262,5.93046875 4.70094262,5.49902344 C4.70094262,5.06738281 5.04901639,4.71816406 5.4792418,4.71816406 L22.598709,4.71816406 C23.0287398,4.71816406 23.3770082,5.06738281 23.3770082,5.49902344 C23.3768135,5.93046875 23.0287398,6.2796875 22.598709,6.2796875 Z" id="Shape"></path>
                        <path d="M72.400707,6.2796875 L55.2812398,6.2796875 C54.851209,6.2796875 54.5031352,5.93046875 54.5031352,5.49902344 C54.5031352,5.06738281 54.851209,4.71816406 55.2812398,4.71816406 L72.400707,4.71816406 C72.8309324,4.71816406 73.1788115,5.06738281 73.1788115,5.49902344 C73.1788115,5.93046875 72.8309324,6.2796875 72.400707,6.2796875 Z" id="Shape"></path>
                        <path d="M44.3871926,4.71835937 L31.9365471,4.71835937 C31.5065164,4.71835937 31.1584426,4.36914062 31.1584426,3.9375 C31.1584426,3.50605469 31.5065164,3.15683594 31.9365471,3.15683594 L44.3871926,3.15683594 C44.8172234,3.15683594 45.1654918,3.50605469 45.1654918,3.9375 C45.1652971,4.36914062 44.8172234,4.71835937 44.3871926,4.71835937 Z" id="Shape"></path>
                        <g id="Group" transform="translate(62.100410, 84.179688)">
                            <path d="M7.18768443,1.73339844 L0.962264344,1.73339844 C0.532233607,1.73339844 0.184159836,1.38417969 0.184159836,0.952539063 C0.184159836,0.52109375 0.532233607,0.171875 0.962264344,0.171875 L7.18768443,0.171875 C7.61790984,0.171875 7.96598361,0.52109375 7.96598361,0.952539063 C7.96598361,1.38417969 7.61790984,1.73339844 7.18768443,1.73339844 Z" id="Shape"></path>
                            <path d="M0.962264344,7.97910156 C0.532233607,7.97910156 0.184159836,7.62988281 0.184159836,7.1984375 L0.184159836,0.952539063 C0.184159836,0.52109375 0.532233607,0.171875 0.962264344,0.171875 C1.39248975,0.171875 1.74056352,0.52109375 1.74056352,0.952539063 L1.74056352,7.1984375 C1.74056352,7.6296875 1.39248975,7.97910156 0.962264344,7.97910156 Z" id="Shape"></path>
                        </g>
                        <path d="M5.4792418,95.2816406 C5.04901639,95.2816406 4.70094262,94.9326172 4.70094262,94.5009766 L4.70094262,5.49902344 C4.70094262,5.06738281 5.04901639,4.71816406 5.4792418,4.71816406 C5.90927254,4.71816406 6.25734631,5.06738281 6.25734631,5.49902344 L6.25734631,94.5007813 C6.25734631,94.9326172 5.90927254,95.2816406 5.4792418,95.2816406 Z" id="Shape"></path>
                        <path d="M72.400707,87.4744141 C71.9706762,87.4744141 71.6226025,87.1251953 71.6226025,86.69375 L71.6226025,5.49902344 C71.6226025,5.06738281 71.9706762,4.71816406 72.400707,4.71816406 C72.8309324,4.71816406 73.1788115,5.06738281 73.1788115,5.49902344 L73.1788115,86.69375 C73.1788115,87.1251953 72.8309324,87.4744141 72.400707,87.4744141 Z" id="Shape"></path>
                        <path d="M64.6190779,95.2816406 C64.420123,95.2816406 64.2207787,95.2052734 64.0689344,95.0529297 C63.7648566,94.7478516 63.7648566,94.2539062 64.0689344,93.9490234 L71.8505635,86.1417969 C72.1546414,85.8367187 72.6469672,85.8367187 72.9508504,86.1417969 C73.2547336,86.446875 73.2549283,86.9408203 72.9508504,87.2457031 L65.1692213,95.0529297 C65.017377,95.2052734 64.8182275,95.2816406 64.6190779,95.2816406 Z" id="Shape"></path>
                        <path d="M64.6190779,95.2816406 L5.4792418,95.2816406 C5.04901639,95.2816406 4.70094262,94.9326172 4.70094262,94.5009766 C4.70094262,94.0693359 5.04901639,93.7203125 5.4792418,93.7203125 L64.6190779,93.7203125 C65.0493033,93.7203125 65.3971824,94.0693359 65.3971824,94.5009766 C65.3971824,94.9326172 65.0493033,95.2816406 64.6190779,95.2816406 Z" id="Shape"></path>
                        <path d="M77.0697234,99.9660156 C76.6396926,99.9660156 76.2916189,99.6167969 76.2916189,99.1851562 L76.2916189,0.814648438 C76.2916189,0.383203125 76.6396926,0.0337890625 77.0697234,0.0337890625 C77.4999488,0.0337890625 77.8480225,0.383007812 77.8480225,0.814648438 L77.8480225,99.1851562 C77.8480225,99.6167969 77.4997541,99.9660156 77.0697234,99.9660156 Z" id="Shape"></path>
                        <path d="M77.0697234,99.9660156 L0.81022541,99.9660156 C0.380194672,99.9660156 0.0319262295,99.6167969 0.0319262295,99.1851563 C0.0319262295,98.7537109 0.38,98.4044922 0.81022541,98.4044922 L77.0695287,98.4044922 C77.4997541,98.4044922 77.8478279,98.7537109 77.8478279,99.1851563 C77.8480225,99.6167969 77.4997541,99.9660156 77.0697234,99.9660156 Z" id="Shape"></path>
                        <path d="M0.81022541,99.9660156 C0.380194672,99.9660156 0.0319262295,99.6167969 0.0319262295,99.1851562 L0.0319262295,0.814648438 C0.0319262295,0.383203125 0.38,0.0337890625 0.81022541,0.0337890625 C1.24045082,0.0337890625 1.58852459,0.383007812 1.58852459,0.814648438 L1.58852459,99.1851562 C1.58852459,99.6167969 1.24045082,99.9660156 0.81022541,99.9660156 Z" id="Shape"></path>
                        <path d="M77.0697234,1.5953125 L0.81022541,1.5953125 C0.380194672,1.5953125 0.0319262295,1.24609375 0.0319262295,0.814648437 C0.0319262295,0.383203125 0.38,0.0337890625 0.81022541,0.0337890625 L77.0695287,0.0337890625 C77.4997541,0.0337890625 77.8478279,0.383007812 77.8478279,0.814648437 C77.8478279,1.24628906 77.4997541,1.5953125 77.0697234,1.5953125 Z" id="Shape"></path>
                        <g id="Group" transform="translate(83.903689, 18.750000)">
                            <path d="M5.61668033,70.2873047 C5.36594262,70.2873047 5.11968238,70.1654297 4.96920082,69.9398438 L1.85658811,65.2554688 C1.72284836,65.0558594 1.68955943,64.8041016 1.76548156,64.5755859 L3.28217213,60.0117188 L3.28217213,58.5767578 C3.28217213,58.1453125 3.6302459,57.7960938 4.06047131,57.7960938 C4.49050205,57.7960938 4.83838115,58.1453125 4.83838115,58.5767578 L4.83838115,60.1382813 C4.83838115,60.2220703 4.82494877,60.3058594 4.79905738,60.3853516 L3.36276639,64.7066406 L6.26415984,69.0738281 C6.50282787,69.4322266 6.4054918,69.9169922 6.04826844,70.1564453 C5.91608607,70.2445313 5.76540984,70.2873047 5.61668033,70.2873047 Z" id="Shape"></path>
                            <path d="M5.61668033,70.2873047 C5.46756148,70.2873047 5.31727459,70.2445313 5.18489754,70.15625 C4.82786885,69.9167969 4.73053279,69.4320313 4.96920082,69.0736328 L7.87059426,64.7064453 L6.43430328,60.3851563 C6.40841189,60.3058594 6.39478484,60.221875 6.39478484,60.1380859 L6.39478484,58.5765625 C6.39478484,58.1451172 6.74285861,57.7958984 7.17288934,57.7958984 C7.60311475,57.7958984 7.95118852,58.1451172 7.95118852,58.5765625 L7.95118852,60.0115234 L9.4678791,64.5753906 C9.5439959,64.8041016 9.5105123,65.0556641 9.37657787,65.2552734 L6.26415984,69.9396484 C6.11348361,70.1654297 5.86741803,70.2873047 5.61668033,70.2873047 Z" id="Shape"></path>
                            <path d="M8.72929303,46.8658203 L2.50387295,46.8658203 C2.07364754,46.8658203 1.72576844,46.5166016 1.72576844,46.0851563 C1.72576844,45.6535156 2.07364754,45.3044922 2.50387295,45.3044922 L8.72929303,45.3044922 C9.15932377,45.3044922 9.50739754,45.6535156 9.50739754,46.0851563 C9.50739754,46.5166016 9.15932377,46.8658203 8.72929303,46.8658203 Z" id="Shape"></path>
                            <path d="M2.50387295,46.8658203 C2.08727459,46.8658203 1.74251025,46.5363281 1.72576844,46.115625 L0.169364754,7.078125 C0.152817623,6.64824219 0.487069672,6.28515625 0.917295082,6.26699219 C1.36854508,6.29746094 1.70902664,6.58574219 1.72576844,7.0171875 L3.28197746,46.0546875 C3.29871926,46.4847656 2.96427254,46.8476563 2.5342418,46.8658203 C2.52528689,46.8658203 2.51457992,46.8658203 2.50387295,46.8658203 Z" id="Shape"></path>
                            <path d="M8.72929303,46.8658203 C8.71858607,46.8658203 8.70943648,46.8658203 8.69892418,46.8658203 C8.26869877,46.8474609 7.93444672,46.4847656 7.95118852,46.0546875 L9.50739754,7.0171875 C9.52569672,6.58574219 9.91309426,6.30214844 10.3158709,6.26699219 C10.7460963,6.28535156 11.0803484,6.64824219 11.0636066,7.078125 L9.50739754,46.115625 C9.49065574,46.5365234 9.14550205,46.8658203 8.72929303,46.8658203 Z" id="Shape"></path>
                            <path d="M10.285502,7.82851563 C9.85547131,7.82851563 9.50739754,7.47929687 9.50739754,7.04765625 C9.50739754,3.42167969 8.1986168,1.5828125 5.61668033,1.5828125 C3.03435451,1.5828125 1.72596311,3.42167969 1.72596311,7.04765625 C1.72596311,7.47929688 1.37788934,7.82851563 0.947663934,7.82851563 C0.517633197,7.82851563 0.169559426,7.47929687 0.169559426,7.04765625 C0.169559426,2.58300781 2.15443648,0.02109375 5.61668033,0.02109375 C9.07892418,0.02109375 11.0636066,2.5828125 11.0636066,7.04765625 C11.0636066,7.47929688 10.7157275,7.82851563 10.285502,7.82851563 Z" id="Shape"></path>
                            <path d="M7.17288934,1.5828125 L4.06047131,1.5828125 C3.6302459,1.5828125 3.28217213,1.23359375 3.28217213,0.801953125 C3.28217213,0.3703125 3.6302459,0.02109375 4.06047131,0.02109375 L7.17288934,0.02109375 C7.60311475,0.02109375 7.95118852,0.3703125 7.95118852,0.801953125 C7.95118852,1.23359375 7.60311475,1.5828125 7.17288934,1.5828125 Z" id="Shape"></path>
                            <path d="M5.61668033,28.1271484 C5.18645492,28.1271484 4.83838115,27.7779297 4.83838115,27.3464844 L4.83838115,3.92480469 C4.83838115,3.49335937 5.18645492,3.14414062 5.61668033,3.14414062 C6.04671107,3.14414062 6.39478484,3.49335937 6.39478484,3.92480469 L6.39478484,27.3464844 C6.39478484,27.7779297 6.04671107,28.1271484 5.61668033,28.1271484 Z" id="Shape"></path>
                            <path d="M8.72929303,49.9886719 L2.50387295,49.9886719 C2.07364754,49.9886719 1.72576844,49.6394531 1.72576844,49.2080078 C1.72576844,48.7763672 2.07364754,48.4271484 2.50387295,48.4271484 L8.72929303,48.4271484 C9.15932377,48.4271484 9.50739754,48.7763672 9.50739754,49.2080078 C9.50739754,49.6394531 9.15932377,49.9886719 8.72929303,49.9886719 Z" id="Shape"></path>
                            <path d="M8.72929303,49.9886719 C8.29906762,49.9886719 7.95118852,49.6394531 7.95118852,49.2080078 L7.95118852,46.0851563 C7.95118852,45.6535156 8.29906762,45.3044922 8.72929303,45.3044922 C9.15932377,45.3044922 9.50739754,45.6535156 9.50739754,46.0851563 L9.50739754,49.2080078 C9.50739754,49.6394531 9.15932377,49.9886719 8.72929303,49.9886719 Z" id="Shape"></path>
                            <path d="M2.50387295,49.9886719 C2.07364754,49.9886719 1.72576844,49.6394531 1.72576844,49.2080078 L1.72576844,46.0851563 C1.72576844,45.6535156 2.07364754,45.3044922 2.50387295,45.3044922 C2.93409836,45.3044922 3.28197746,45.6535156 3.28197746,46.0851563 L3.28197746,49.2080078 C3.28197746,49.6394531 2.93409836,49.9886719 2.50387295,49.9886719 Z" id="Shape"></path>
                            <path d="M8.72929303,59.3574219 L2.50387295,59.3574219 C2.07364754,59.3574219 1.72576844,59.0082031 1.72576844,58.5765625 C1.72576844,58.1451172 2.07364754,57.7958984 2.50387295,57.7958984 L8.72929303,57.7958984 C9.15932377,57.7958984 9.50739754,58.1451172 9.50739754,58.5765625 C9.50739754,59.0082031 9.15932377,59.3574219 8.72929303,59.3574219 Z" id="Shape"></path>
                            <path d="M8.72929303,59.3574219 C8.29906762,59.3574219 7.95118852,59.0082031 7.95118852,58.5765625 L7.95118852,49.2080078 C7.95118852,48.7763672 8.29906762,48.4271484 8.72929303,48.4271484 C9.15932377,48.4271484 9.50739754,48.7763672 9.50739754,49.2080078 L9.50739754,58.5765625 C9.50739754,59.0082031 9.15932377,59.3574219 8.72929303,59.3574219 Z" id="Shape"></path>
                            <path d="M2.50387295,59.3574219 C2.07364754,59.3574219 1.72576844,59.0082031 1.72576844,58.5765625 L1.72576844,49.2080078 C1.72576844,48.7763672 2.07364754,48.4271484 2.50387295,48.4271484 C2.93409836,48.4271484 3.28197746,48.7763672 3.28197746,49.2080078 L3.28197746,58.5765625 C3.28197746,59.0082031 2.93409836,59.3574219 2.50387295,59.3574219 Z" id="Shape"></path>
                        </g>
                        <path d="M17.9296926,31.2626953 C17.7307377,31.2626953 17.5315881,31.1863281 17.3795492,31.0339844 L14.2669365,27.9111328 C13.9630533,27.6060547 13.9630533,27.1121094 14.2669365,26.8070312 C14.5710143,26.5021484 15.0633402,26.5021484 15.367418,26.8070312 L18.4800307,29.9298828 C18.7841086,30.2347656 18.7841086,30.7289063 18.4800307,31.0337891 C18.3279918,31.1865234 18.1288422,31.2626953 17.9296926,31.2626953 Z" id="Shape"></path>
                        <path d="M17.9296926,31.2626953 C17.7307377,31.2626953 17.5315881,31.1863281 17.3795492,31.0339844 C17.0754713,30.7289063 17.0754713,30.2349609 17.3795492,29.9300781 L23.6049693,23.684375 C23.9090471,23.3792969 24.401373,23.3792969 24.7052561,23.684375 C25.0091393,23.9894531 25.009334,24.4833984 24.7052561,24.7882813 L18.4798361,31.0339844 C18.3279918,31.1865234 18.1288422,31.2626953 17.9296926,31.2626953 Z" id="Shape"></path>
                        <path d="M63.0626742,23.4554688 L31.9365471,23.4554688 C31.5065164,23.4554688 31.1584426,23.10625 31.1584426,22.6746094 C31.1584426,22.2431641 31.5065164,21.8939453 31.9365471,21.8939453 L63.0626742,21.8939453 C63.4928996,21.8939453 63.8409734,22.2431641 63.8409734,22.6746094 C63.8409734,23.1064453 63.4928996,23.4554688 63.0626742,23.4554688 Z" id="Shape"></path>
                        <path d="M63.0626742,28.1398437 L31.9365471,28.1398437 C31.5065164,28.1398437 31.1584426,27.790625 31.1584426,27.3591797 C31.1584426,26.9275391 31.5065164,26.5783203 31.9365471,26.5783203 L63.0626742,26.5783203 C63.4928996,26.5783203 63.8409734,26.9275391 63.8409734,27.3591797 C63.8409734,27.790625 63.4928996,28.1398437 63.0626742,28.1398437 Z" id="Shape"></path>
                        <path d="M47.4998053,32.8242188 L31.9367418,32.8242188 C31.5067111,32.8242188 31.1586373,32.475 31.1586373,32.0435547 C31.1586373,31.6121094 31.5067111,31.2628906 31.9367418,31.2628906 L47.4998053,31.2628906 C47.9298361,31.2628906 48.2781045,31.6121094 48.2781045,32.0435547 C48.2781045,32.475 47.9298361,32.8242188 47.4998053,32.8242188 Z" id="Shape"></path>
                        <path d="M14.8170799,54.6841797 C14.618125,54.6841797 14.4189754,54.6078125 14.2669365,54.4554688 C13.9630533,54.1503906 13.9630533,53.6564453 14.2669365,53.3515625 L22.0485656,45.5443359 C22.3526434,45.2392578 22.8449693,45.2392578 23.1488525,45.5443359 C23.4527357,45.8494141 23.4529303,46.3433594 23.1488525,46.6482422 L15.3672234,54.4554688 C15.2153791,54.6080078 15.0162295,54.6841797 14.8170799,54.6841797 Z" id="Shape"></path>
                        <path d="M22.598709,54.6841797 C22.3995594,54.6841797 22.2006045,54.6078125 22.0485656,54.4554688 L14.2669365,46.6484375 C13.9630533,46.3433594 13.9630533,45.8494141 14.2669365,45.5445313 C14.5710143,45.2394531 15.0633402,45.2394531 15.367418,45.5445313 L23.1490471,53.3517578 C23.453125,53.6568359 23.453125,54.1507813 23.1490471,54.4556641 C22.9968135,54.6080078 22.7978586,54.6841797 22.598709,54.6841797 Z" id="Shape"></path>
                        <path d="M63.0626742,45.315625 L31.9365471,45.315625 C31.5065164,45.315625 31.1584426,44.9664062 31.1584426,44.5347656 C31.1584426,44.1033203 31.5065164,43.7541016 31.9365471,43.7541016 L63.0626742,43.7541016 C63.4928996,43.7541016 63.8409734,44.1033203 63.8409734,44.5347656 C63.8409734,44.9666016 63.4928996,45.315625 63.0626742,45.315625 Z" id="Shape"></path>
                        <path d="M63.0626742,50 L31.9365471,50 C31.5065164,50 31.1584426,49.6507813 31.1584426,49.2191406 C31.1584426,48.7875 31.5065164,48.4384766 31.9365471,48.4384766 L63.0626742,48.4384766 C63.4928996,48.4384766 63.8409734,48.7876953 63.8409734,49.2191406 C63.8409734,49.6505859 63.4928996,50 63.0626742,50 Z" id="Shape"></path>
                        <path d="M47.4998053,54.6841797 L31.9367418,54.6841797 C31.5067111,54.6841797 31.1586373,54.3349609 31.1586373,53.9035156 C31.1586373,53.4720703 31.5067111,53.1228516 31.9367418,53.1228516 L47.4998053,53.1228516 C47.9298361,53.1228516 48.2781045,53.4720703 48.2781045,53.9035156 C48.2781045,54.3349609 47.9298361,54.6841797 47.4998053,54.6841797 Z" id="Shape"></path>
                        <path d="M17.9296926,74.9828125 C17.7307377,74.9828125 17.5315881,74.9066406 17.3795492,74.7542969 L14.2669365,71.63125 C13.9630533,71.3263672 13.9630533,70.8324219 14.2669365,70.5273438 C14.5710143,70.2224609 15.0633402,70.2224609 15.367418,70.5273438 L18.4800307,73.6503906 C18.7841086,73.9552734 18.7841086,74.4492188 18.4800307,74.7542969 C18.3279918,74.9066406 18.1288422,74.9828125 17.9296926,74.9828125 Z" id="Shape"></path>
                        <path d="M17.9296926,74.9828125 C17.7307377,74.9828125 17.5315881,74.9066406 17.3795492,74.7542969 C17.0754713,74.4492188 17.0754713,73.9550781 17.3795492,73.6503906 L23.6049693,67.4044922 C23.9090471,67.0994141 24.401373,67.0994141 24.7052561,67.4044922 C25.009334,67.709375 25.009334,68.2035156 24.7052561,68.5083984 L18.4798361,74.7542969 C18.3279918,74.9066406 18.1288422,74.9828125 17.9296926,74.9828125 Z" id="Shape"></path>
                        <path d="M63.0626742,67.1755859 L31.9365471,67.1755859 C31.5065164,67.1755859 31.1584426,66.8265625 31.1584426,66.3949219 C31.1584426,65.9634766 31.5065164,65.6142578 31.9365471,65.6142578 L63.0626742,65.6142578 C63.4928996,65.6142578 63.8409734,65.9634766 63.8409734,66.3949219 C63.8409734,66.8265625 63.4928996,67.1755859 63.0626742,67.1755859 Z" id="Shape"></path>
                        <path d="M63.0626742,71.8601562 L31.9365471,71.8601562 C31.5065164,71.8601562 31.1584426,71.5109375 31.1584426,71.0792969 C31.1584426,70.6478516 31.5065164,70.2986328 31.9365471,70.2986328 L63.0626742,70.2986328 C63.4928996,70.2986328 63.8409734,70.6478516 63.8409734,71.0792969 C63.8409734,71.5109375 63.4928996,71.8601562 63.0626742,71.8601562 Z" id="Shape"></path>
                        <path d="M47.4998053,76.5443359 L31.9367418,76.5443359 C31.5067111,76.5443359 31.1586373,76.1951172 31.1586373,75.7636719 C31.1586373,75.3322266 31.5067111,74.9828125 31.9367418,74.9828125 L47.4998053,74.9828125 C47.9298361,74.9828125 48.2781045,75.3322266 48.2781045,75.7636719 C48.2781045,76.1951172 47.9298361,76.5443359 47.4998053,76.5443359 Z" id="Shape"></path>
                    </g>
                </g>
            </g>
        </g>
    </g>
</svg>