<svg xmlns="http://www.w3.org/2000/svg" xmlns:xlink="http://www.w3.org/1999/xlink" width="100" height="100" viewBox="0 0 100 100"><g><g transform="translate(50 50) scale(0.69 0.69) rotate(0) translate(-50 -50)" style="fill:#5c9eff;"><svg fill="#5c9eff" xmlns="http://www.w3.org/2000/svg" xmlns:sodipodi="http://sodipodi.sourceforge.net/DTD/sodipodi-0.dtd" viewBox="0 0 100 100" x="0px" y="0px"><path d="m 27.769708,72.297866 c -0.354686,-3.5e-5 -0.709262,-0.125797 -0.960502,-0.37674 -0.502762,-0.502182 -0.50251,-1.418556 0,-1.921005 l 15.37616,-15.374295 c 0.502656,-0.502595 1.413227,-0.499033 1.91541,0.0037 0.501883,0.502467 0.50781,1.415124 0.0056,1.917274 L 28.730211,71.921126 c -0.251107,0.251076 -0.605816,0.376776 -0.960503,0.37674 z" color="#000"></path><path d="m 27.769707,25.956716 c -0.354686,3.5e-5 -0.709262,0.125798 -0.960502,0.376741 -0.502762,0.502181 -0.502509,1.418555 0,1.921004 l 15.37616,15.374292 c 0.502655,0.5026 1.413227,0.49904 1.91541,-0.004 0.501883,-0.50246 0.507811,-1.41512 0.0056,-1.91727 L 28.73021,26.333457 c -0.251107,-0.251076 -0.605816,-0.376776 -0.960503,-0.376741 z" color="#000"></path><path d="m 50.000007,44.15 c -2.616939,0 -4.998498,2.380234 -5.000006,4.997373 -0.0015,2.618632 2.380812,5.002627 5.000006,5.002627 2.618434,0 5.0015,-2.383995 4.999992,-5.002627 C 54.998499,46.530234 52.616932,44.15 50.000007,44.15 Z" color="#000"></path><path d="m 81.514432,5 c -1.607347,0 -3.070122,1.4618521 -3.071039,3.069197 -9.16e-4,1.608272 1.462307,3.072432 3.071039,3.072432 1.608264,0 3.071965,-1.46416 3.071039,-3.072432 C 84.584573,6.4618521 83.121779,5 81.514432,5 Z" color="#000"></path><path d="m 80.358335,29.251968 c -1.294644,0 -2.444037,-0.866616 -2.68537,-2.093252 L 75.406521,15.638955 c -0.03228,-0.163843 -0.04335,-0.333482 -0.04335,-0.505757 0,-1.530669 1.241074,-2.771284 2.771284,-2.771284 l 6.756389,0 c 1.530677,0 2.771283,1.241074 2.771283,2.771284 0,0.172275 -0.01127,0.342382 -0.04335,0.506225 l -2.266454,11.519771 c -0.240617,1.222987 -1.390268,2.093242 -2.68537,2.093242" color="#000"></path><path d="m 18.489261,5 c -1.607348,0 -3.070122,1.4618531 -3.071049,3.069197 -8.97e-4,1.608272 1.462317,3.072432 3.071049,3.072432 1.608264,0 3.071965,-1.46416 3.071038,-3.072432 C 21.559392,6.4618531 20.096599,5 18.489261,5 Z" color="#000"></path><path d="m 17.333174,29.251968 c -1.294644,0 -2.444047,-0.866607 -2.685371,-2.093242 L 12.38135,15.638955 C 12.34907,15.475112 12.338,15.305482 12.338,15.133198 c 0,-1.530669 1.241074,-2.771284 2.771284,-2.771284 l 6.756388,0 c 1.530678,0 2.771284,1.241074 2.771284,2.771284 0,0.172284 -0.01127,0.342382 -0.04335,0.506225 l -2.266434,11.519771 c -0.240636,1.222997 -1.390268,2.093242 -2.68538,2.093242" color="#000"></path><path d="m 81.514432,66.747564 c -1.607347,0 -3.070122,1.461858 -3.071039,3.069205 -9.16e-4,1.608264 1.462307,3.072424 3.071039,3.072424 1.608264,0 3.071965,-1.46416 3.071039,-3.072424 -8.98e-4,-1.607347 -1.463692,-3.069205 -3.071039,-3.069205 z" color="#000"></path><path d="m 80.358335,90.999532 c -1.294644,0 -2.444037,-0.866607 -2.68537,-2.093242 L 75.406521,77.386528 c -0.03228,-0.163852 -0.04335,-0.333482 -0.04335,-0.505757 0,-1.530678 1.241074,-2.771283 2.771284,-2.771283 l 6.756389,0 c 1.530677,0 2.771283,1.241064 2.771283,2.771283 0,0.172275 -0.01127,0.342373 -0.04335,0.506216 L 85.352318,88.906748 C 85.111701,90.129755 83.96205,91 82.666948,91" color="#000"></path><path d="m 18.489261,66.747564 c -1.607348,0 -3.070122,1.461858 -3.071049,3.069205 -8.97e-4,1.608264 1.462317,3.072424 3.071049,3.072424 1.608264,0 3.071965,-1.46416 3.071038,-3.072424 -9.07e-4,-1.607347 -1.4637,-3.069205 -3.071038,-3.069205 z" color="#000"></path><path d="m 17.333174,90.999542 c -1.294644,0 -2.444047,-0.866617 -2.685371,-2.093243 L 12.38135,77.386528 C 12.34907,77.222676 12.338,77.053046 12.338,76.880771 c 0,-1.530678 1.241074,-2.771283 2.771284,-2.771283 l 6.756388,0 c 1.530678,0 2.771284,1.241064 2.771284,2.771283 0,0.172275 -0.01127,0.342373 -0.04335,0.506216 l -2.26644,11.519771 C 22.08653,90.129764 20.936898,91 19.641786,91" color="#000"></path><path d="m 56.857216,54.292016 c -0.354686,3.5e-5 -0.709262,0.125798 -0.960502,0.376741 -0.502762,0.502181 -0.502509,1.418555 0,1.921004 l 15.37616,15.374296 c 0.502655,0.502595 1.413227,0.499032 1.91541,-0.0037 0.501883,-0.502466 0.507811,-1.415124 0.0056,-1.917274 L 57.817719,54.668757 c -0.251107,-0.251076 -0.605816,-0.376776 -0.960503,-0.376741 z" color="#000"></path><path d="m 56.857216,43.962546 c -0.354686,-3.5e-5 -0.709262,-0.125797 -0.960502,-0.37674 -0.502762,-0.502182 -0.50251,-1.418556 0,-1.921005 l 15.37616,-15.374295 c 0.502656,-0.502595 1.413227,-0.499033 1.91541,0.0037 0.501883,0.502467 0.50781,1.415124 0.0056,1.917274 L 57.817719,43.585806 c -0.251107,0.251076 -0.605816,0.376776 -0.960503,0.37674 z" color="#000"></path></svg></g></g></svg>