<svg xmlns="http://www.w3.org/2000/svg" xmlns:xlink="http://www.w3.org/1999/xlink" width="100" height="100" viewBox="0 0 100 100"><g><g style="fill:#5c9eff;"><svg fill="#5c9eff" xmlns="http://www.w3.org/2000/svg" xmlns:xlink="http://www.w3.org/1999/xlink" version="1.1" x="0px" y="0px" viewBox="6.648 0.468 38 37.487" enable-background="new 6.648 0.468 38 37.487" xml:space="preserve"><g><circle cx="25.648" cy="19.732" r="3.435"></circle><g><circle cx="25.648" cy="2.484" r="2.016"></circle><polygon points="28.194,8.692 25.648,5.956 23.104,8.692 23.561,9.115 25.204,8.235 25.204,14.842 26.092,14.842 26.092,8.234     27.736,9.115   "></polygon></g><g><circle cx="14.562" cy="6.52" r="2.015"></circle><polygon points="20.501,9.639 16.792,9.179 16.604,12.911 17.225,12.941 17.92,11.211 22.167,16.272 22.847,15.701 18.599,10.64     20.426,10.258   "></polygon></g><g><circle cx="8.663" cy="16.736" r="2.015"></circle><polygon points="15.218,15.309 12.082,17.34 14.333,20.321 14.831,19.944 14.25,18.172 20.757,19.321 20.912,18.445     14.404,17.296 15.558,15.831   "></polygon></g><g><path d="M9.705,26.609c0.963-0.556,2.196-0.226,2.752,0.738c0.559,0.966,0.229,2.196-0.737,2.756    c-0.964,0.556-2.196,0.224-2.753-0.742C8.409,28.4,8.739,27.165,9.705,26.609z"></path><polygon points="14.815,23.05 13.717,26.619 17.358,27.454 17.5,26.85 15.915,25.866 21.637,22.561 21.192,21.79 15.47,25.094     15.41,23.232   "></polygon></g><g><path d="M17.854,35.247c0.381-1.041,1.538-1.582,2.583-1.204c1.047,0.385,1.586,1.538,1.206,2.588    c-0.381,1.042-1.538,1.582-2.583,1.203C18.013,37.452,17.473,36.297,17.854,35.247z"></path><polygon points="19.481,29.235 20.937,32.678 24.262,30.973 23.979,30.42 22.135,30.685 24.396,24.478 23.559,24.173     21.298,30.381 20.054,28.993   "></polygon></g><g><path d="M29.651,36.63c-0.38-1.048,0.16-2.202,1.205-2.587c1.049-0.38,2.205,0.162,2.585,1.203    c0.379,1.05-0.157,2.205-1.204,2.587C31.188,38.212,30.033,37.675,29.651,36.63z"></path><polygon points="27.033,30.973 30.359,32.678 31.812,29.235 31.242,28.993 29.998,30.379 27.737,24.173 26.903,24.478     29.163,30.689 27.316,30.42   "></polygon></g><g><path d="M39.579,30.104c-0.968-0.56-1.298-1.79-0.741-2.756c0.559-0.964,1.789-1.294,2.757-0.738    c0.963,0.556,1.292,1.792,0.737,2.752C41.773,30.329,40.542,30.659,39.579,30.104z"></path><polygon points="33.936,27.454 37.579,26.619 36.481,23.05 35.887,23.232 35.825,25.094 30.104,21.79 29.659,22.561     35.383,25.866 33.799,26.851   "></polygon></g><g><path d="M42.986,18.722c-1.099,0.194-2.146-0.538-2.337-1.634c-0.192-1.096,0.54-2.142,1.634-2.335    c1.095-0.192,2.142,0.539,2.333,1.636C44.812,17.483,44.081,18.53,42.986,18.722z"></path><polygon points="36.963,20.321 39.218,17.341 36.078,15.311 35.74,15.831 36.892,17.297 30.384,18.445 30.542,19.321     37.044,18.172 36.467,19.945   "></polygon></g><g><path d="M38.278,7.814c-0.714,0.854-1.986,0.966-2.837,0.25c-0.858-0.716-0.968-1.989-0.252-2.84    c0.715-0.853,1.987-0.964,2.839-0.249C38.885,5.691,38.996,6.963,38.278,7.814z"></path><polygon points="34.693,12.911 34.505,9.179 30.797,9.639 30.874,10.258 32.696,10.641 28.452,15.701 29.13,16.272 33.377,11.211     34.072,12.941   "></polygon></g></g></svg></g></g></svg>