<svg xmlns="http://www.w3.org/2000/svg" xmlns:xlink="http://www.w3.org/1999/xlink" width="100" height="100" viewBox="0 0 100 100"><g><g transform="translate(50 50) scale(0.69 0.69) rotate(0) translate(-50 -50)" style="fill:#5c9eff;"><svg fill="#5c9eff" xmlns="http://www.w3.org/2000/svg" viewBox="0 0 100 100" x="0px" y="0px"><defs><style>.cls-1{fill:none;}</style></defs><title>Asset 159</title><g data-name="Layer 2"><g data-name="Layer 1"><path d="M49.86,100A49.64,49.64,0,0,1,.49,55.57a3.09,3.09,0,1,1,6.15-.66A43.47,43.47,0,1,0,45.3,7.12a43,43,0,0,0-17.37,5.69A3.1,3.1,0,0,1,24.8,7.46,49.67,49.67,0,0,1,88.48,81.57,49.32,49.32,0,0,1,55.09,99.72,48.23,48.23,0,0,1,49.86,100Z"></path><path d="M12.69,21.07l.18-18.92A2.17,2.17,0,0,1,16.59.65l18.74,19.1a2.17,2.17,0,0,1-1.57,3.69l-18.92-.18A2.17,2.17,0,0,1,12.69,21.07Z"></path><path d="M50,53.12A3.09,3.09,0,0,1,46.9,50V23.33a3.1,3.1,0,0,1,6.2,0V50A3.09,3.09,0,0,1,50,53.12Z"></path><path d="M73.85,65.11a3.11,3.11,0,0,1-1.38-.33l-23.86-12a3.1,3.1,0,1,1,2.78-5.54l23.86,12a3.1,3.1,0,0,1-1.4,5.86Z"></path><circle cx="50" cy="50.03" r="5.27"></circle><rect class="cls-1" width="100" height="100"></rect></g></g></svg></g></g></svg>