<?xml version="1.0" encoding="UTF-8"?>
<svg width="100px" height="70px" viewBox="0 0 100 70" version="1.1" xmlns="http://www.w3.org/2000/svg" xmlns:xlink="http://www.w3.org/1999/xlink">
    <!-- Generator: Sketch 51 (57462) - http://www.bohemiancoding.com/sketch -->
    <title>content-coverage</title>
    <desc>Created with Sketch.</desc>
    <defs></defs>
    <g id="Design" stroke="none" stroke-width="1" fill="none" fill-rule="evenodd">
        <g id="Features-Template-V2" transform="translate(-1165.000000, -2475.000000)" fill-rule="nonzero">
            <g id="Feature-Copy-4" transform="translate(730.000000, 2410.000000)">
                <g id="content-coverage" transform="translate(435.000000, 65.000000)">
                    <path d="M99.2066406,2.34130556 L99.2066406,3.89647222 L0.793359375,3.89647222 L0.793359375,2.34130556 C0.793359375,1.48633333 1.49667969,0.786138889 2.35546875,0.786138889 L97.6443359,0.786138889 C98.5035156,0.786138889 99.2066406,1.48633333 99.2066406,2.34130556 Z" id="Shape" fill="#D7E9FF"></path>
                    <path d="M81.6634766,28.8726667 C81.8980469,29.5720833 82.0232422,30.3345 82.0232422,31.1120833 C82.0232422,31.8274444 81.9134766,32.5274444 81.7107422,33.19575 C81.3673828,34.2848333 80.7585938,35.2803889 79.9609375,36.0579722 C78.6958984,37.3329444 76.93125,38.1105278 74.99375,38.1105278 C71.1035156,38.1105278 67.9640625,34.9850278 67.9640625,31.1122778 C67.9640625,27.2395278 71.1035156,24.1140278 74.99375,24.1140278 C75.7746094,24.1140278 76.540625,24.2386667 77.24375,24.4718056 C78.2736328,24.8293889 79.2117188,25.4049444 79.9609375,26.1665833 C80.7265625,26.9126667 81.3048828,27.846 81.6634766,28.8726667 Z" id="Shape" fill="#E6E9ED"></path>
                    <rect id="Rectangle-path" fill="#94C1FF" x="32.0357422" y="38.1103333" width="7.81054688" height="3.11033333"></rect>
                    <rect id="Rectangle-path" fill="#5C9EFF" x="32.0357422" y="41.2206667" width="7.81054688" height="3.11033333"></rect>
                    <rect id="Rectangle-path" fill="#94C1FF" x="21.1009766" y="17.8929722" width="7.81054687" height="6.23583333"></rect>
                    <rect id="Rectangle-path" fill="#5C9EFF" x="21.1009766" y="24.129" width="7.81054687" height="10.871"></rect>
                    <rect id="Rectangle-path" fill="#94C1FF" x="10.1660156" y="27.2241667" width="7.81054688" height="3.11033333"></rect>
                    <rect id="Rectangle-path" fill="#5C9EFF" x="10.1660156" y="30.3345" width="7.81054688" height="10.8861667"></rect>
                    <rect id="Rectangle-path" fill="#D7E9FF" x="10.1660156" y="41.2206667" width="7.81054688" height="7.77583333"></rect>
                    <rect id="Rectangle-path" fill="#D7E9FF" x="21.1009766" y="35" width="7.81054687" height="13.9965"></rect>
                    <rect id="Rectangle-path" fill="#D7E9FF" x="32.0357422" y="44.331" width="7.81054688" height="4.6655"></rect>
                    <path d="M92.4580078,26.9286111 C92.1925781,25.7934444 91.8019531,24.6891944 91.3181641,23.6475556 C90.8654297,22.6671667 90.334375,21.7346111 89.7087891,20.8636944 C89.115625,20.0079444 88.4273438,19.1990556 87.6939453,18.4687222 C86.9599609,17.7374167 86.1470703,17.0533611 85.2880859,16.4626389 C84.4140625,15.8408056 83.4605469,15.2961667 82.4765625,14.8604167 C81.4302734,14.3789722 80.3361328,13.9900833 79.2119141,13.72525 C77.8527344,13.3985833 76.4462891,13.2276667 74.9939453,13.2276667 L74.9939453,17.8931667 L74.9939453,22.2944167 L74.9939453,24.1138333 C75.7748047,24.1138333 76.5408203,24.2384722 77.2439453,24.4716111 C78.2738281,24.8291944 79.2119141,25.40475 79.9611328,26.1663889 C80.7267578,26.9128611 81.3050781,27.8461944 81.6636719,28.8728611 C81.8982422,29.5722778 82.0234375,30.3346944 82.0234375,31.1122778 C82.0234375,31.8276389 81.9136719,32.5276389 81.7109375,33.1959444 C81.3675781,34.2850278 80.7587891,35.2805833 79.9611328,36.0581667 L81.6177734,37.7066667 L83.8355469,39.9149722 L86.0384766,42.1079167 L87.69375,43.7558333 C89.8642578,41.5947778 91.4738281,38.9034722 92.3175781,35.8713056 C92.7398437,34.3624167 92.9580078,32.7609722 92.9580078,31.1122778 C92.9580078,31.0189444 92.9580078,30.9254167 92.9580078,30.8320833 C92.9427734,29.4946944 92.7703125,28.1886111 92.4580078,26.9286111 Z" id="Shape" fill="#D7E9FF"></path>
                    <path d="M86.0386719,42.1077222 L87.6939453,43.7556389 C84.4445313,46.9904167 79.9611328,48.9966944 74.9941406,48.9966944 C65.0751953,48.9966944 57.0294922,40.9869444 57.0294922,31.1120833 C57.0294922,21.2366389 65.075,13.2274722 74.9941406,13.2274722 L74.9941406,17.8929722 L74.9941406,22.2942222 L74.9941406,24.1136389 C71.1039063,24.1136389 67.9644531,27.2391389 67.9644531,31.1118889 C67.9644531,34.9846389 71.1039063,38.1101389 74.9941406,38.1101389 C76.9316406,38.1101389 78.6962891,37.3325556 79.9613281,36.0575833 L81.6179688,37.7060833 L83.8357422,39.9143889 L86.0386719,42.1077222 Z" id="Shape" fill="#5C9EFF"></path>
                    <path d="M60.1535156,31.1120833 C60.1535156,22.2996667 66.5667969,14.9908889 74.99375,13.5154444 L74.99375,13.2276667 C65.0748047,13.2276667 57.0291016,21.2366389 57.0291016,31.1122778 C57.0291016,40.9869444 65.0746094,48.9968889 74.99375,48.9968889 C75.5216797,48.9968889 76.0400391,48.9634444 76.5558594,48.9179444 C67.3695313,48.1279167 60.1535156,40.4613611 60.1535156,31.1120833 Z" id="Shape" fill="#94C1FF"></path>
                    <path d="M17.9767578,48.9965 L17.9767578,41.2206667 L17.9767578,30.3345 L17.9767578,27.2241667 L10.1660156,27.2241667 L10.1660156,30.3345 L10.1660156,41.2206667 L10.1660156,48.9965 L17.9767578,48.9965 Z M28.9115234,48.9965 L28.9115234,35 L28.9115234,24.129 L28.9115234,17.8931667 L21.1009766,17.8931667 L21.1009766,24.129 L21.1009766,35 L21.1009766,48.9965 L28.9115234,48.9965 Z M39.8462891,48.9965 L39.8462891,44.331 L39.8462891,41.2206667 L39.8462891,38.1103333 L32.0357422,38.1103333 L32.0357422,41.2206667 L32.0357422,44.331 L32.0357422,48.9965 L39.8462891,48.9965 Z M89.7087891,20.8636944 C89.115625,20.0079444 88.4273438,19.1990556 87.6939453,18.4687222 C86.9599609,17.7374167 86.1470703,17.0533611 85.2880859,16.4626389 C84.4140625,15.8408056 83.4605469,15.2961667 82.4765625,14.8604167 C81.4302734,14.3789722 80.3361328,13.9900833 79.2119141,13.72525 C77.8527344,13.3985833 76.4462891,13.2276667 74.9939453,13.2276667 C65.075,13.2276667 57.0292969,21.2366389 57.0292969,31.1122778 C57.0292969,40.9869444 65.0748047,48.9968889 74.9939453,48.9968889 C79.9611328,48.9968889 84.4445313,46.9906111 87.69375,43.7558333 C89.8642578,41.5947778 91.4738281,38.9034722 92.3175781,35.8713056 C92.7398438,34.3624167 92.9580078,32.7609722 92.9580078,31.1122778 C92.9580078,31.0189444 92.9580078,30.9254167 92.9580078,30.8320833 C92.9427734,29.4948889 92.7703125,28.1888056 92.4578125,26.929 C92.1923828,25.7938333 91.8017578,24.6895833 91.3179688,23.6479444 C90.8652344,22.6671667 90.334375,21.7346111 89.7087891,20.8636944 Z M99.2066406,3.89647222 L99.2066406,69.2138611 L0.793359375,69.2138611 L0.793359375,3.89647222 L99.2066406,3.89647222 Z" id="Shape" fill="#FFFFFF"></path>
                    <path d="M3.91757812,0.786138889 L2.35546875,0.786138889 C1.49667969,0.786138889 0.793359375,1.48633333 0.793359375,2.34130556 L0.793359375,3.89647222 L2.35546875,3.89647222 L2.35546875,2.34130556 C2.35546875,1.48633333 3.05878906,0.786138889 3.91757812,0.786138889 Z" id="Shape" fill="#FFFFFF"></path>
                    <path d="M96.0822266,0.786138889 L97.6443359,0.786138889 C98.5033203,0.786138889 99.2064453,1.48633333 99.2064453,2.34130556 L99.2064453,3.89647222 L97.6443359,3.89647222 L97.6443359,2.34130556 C97.6443359,1.48633333 96.9414062,0.786138889 96.0822266,0.786138889 Z" id="Shape" fill="#94C1FF"></path>
                    <rect id="Rectangle-path" fill="#D7E9FF" x="10.1660156" y="27.2241667" width="1.56210937" height="3.11033333"></rect>
                    <rect id="Rectangle-path" fill="#94C1FF" x="10.1660156" y="30.3345" width="1.56210937" height="10.8861667"></rect>
                    <rect id="Rectangle-path" fill="#5C9EFF" x="16.4144531" y="27.2241667" width="1.56210937" height="3.11033333"></rect>
                    <rect id="Rectangle-path" fill="#D7E9FF" x="32.0357422" y="38.1103333" width="1.56210938" height="3.11033333"></rect>
                    <rect id="Rectangle-path" fill="#5C9EFF" x="38.2841797" y="38.1103333" width="1.56210938" height="3.11033333"></rect>
                    <rect id="Rectangle-path" fill="#FFFFFF" x="10.1660156" y="41.2206667" width="1.56210937" height="7.72722222"></rect>
                    <rect id="Rectangle-path" fill="#94C1FF" x="16.4144531" y="41.2206667" width="1.56210937" height="7.72722222"></rect>
                    <rect id="Rectangle-path" fill="#FFFFFF" x="32.0357422" y="44.331" width="1.56210938" height="4.6655"></rect>
                    <rect id="Rectangle-path" fill="#94C1FF" x="38.2841797" y="44.331" width="1.56210938" height="4.6655"></rect>
                    <rect id="Rectangle-path" fill="#FFFFFF" x="21.1009766" y="35" width="1.56210938" height="13.9965"></rect>
                    <rect id="Rectangle-path" fill="#94C1FF" x="27.3494141" y="35" width="1.56210938" height="13.9965"></rect>
                    <rect id="Rectangle-path" fill="#116FFF" x="16.4144531" y="30.3345" width="1.56210937" height="10.8861667"></rect>
                    <rect id="Rectangle-path" fill="#94C1FF" x="21.1009766" y="24.1214167" width="1.56210938" height="10.8861667"></rect>
                    <rect id="Rectangle-path" fill="#116FFF" x="27.3494141" y="24.1214167" width="1.56210938" height="10.8861667"></rect>
                    <rect id="Rectangle-path" fill="#94C1FF" x="32.0357422" y="41.2206667" width="1.56210938" height="3.11033333"></rect>
                    <rect id="Rectangle-path" fill="#116FFF" x="38.2841797" y="41.2206667" width="1.56210938" height="3.11033333"></rect>
                    <rect id="Rectangle-path" fill="#D7E9FF" x="21.1009766" y="17.8929722" width="1.56210938" height="6.23583333"></rect>
                    <rect id="Rectangle-path" fill="#5C9EFF" x="27.3494141" y="17.8929722" width="1.56210938" height="6.23583333"></rect>
                    <g id="Group" fill="#116FFF">
                        <path d="M3.9640625,3.11888889 C3.53300781,3.11888889 3.17539062,2.77122222 3.17539062,2.34130556 C3.17539062,1.91158333 3.5171875,1.56372222 3.94882813,1.56372222 L3.9640625,1.56372222 C4.39570313,1.56372222 4.74511719,1.91158333 4.74511719,2.34130556 C4.74511719,2.77122222 4.39589844,3.11888889 3.9640625,3.11888889 Z" id="Shape"></path>
                        <path d="M7.08828125,3.11888889 C6.65722656,3.11888889 6.29960938,2.77122222 6.29960938,2.34130556 C6.29960938,1.91158333 6.64140625,1.56372222 7.07304688,1.56372222 L7.08828125,1.56372222 C7.51992188,1.56372222 7.86933594,1.91158333 7.86933594,2.34130556 C7.86953125,2.77122222 7.51992188,3.11888889 7.08828125,3.11888889 Z" id="Shape"></path>
                        <path d="M10.2126953,3.11888889 C9.78164063,3.11888889 9.42402344,2.77122222 9.42402344,2.34130556 C9.42402344,1.91158333 9.76582031,1.56372222 10.1974609,1.56372222 L10.2126953,1.56372222 C10.6443359,1.56372222 10.99375,1.91158333 10.99375,2.34130556 C10.99375,2.77122222 10.6443359,3.11888889 10.2126953,3.11888889 Z" id="Shape"></path>
                        <g id="Shape">
                            <path d="M99.2066406,4.67405556 C98.7751953,4.67405556 98.4257813,4.32638889 98.4257813,3.89647222 L98.4257813,2.34130556 C98.4257813,1.91236111 98.0748047,1.56372222 97.6445313,1.56372222 L2.35546875,1.56372222 C1.92441406,1.56372222 1.57441406,1.91236111 1.57441406,2.34130556 L1.57441406,3.89647222 C1.57441406,4.32638889 1.225,4.67405556 0.793359375,4.67405556 C0.36171875,4.67405556 0.0123046875,4.32638889 0.0123046875,3.89647222 L0.0123046875,2.34130556 C0.0123046875,1.05505556 1.06347656,0.00855555556 2.35546875,0.00855555556 L97.6443359,0.00855555556 C98.9363281,0.00855555556 99.9876953,1.05505556 99.9876953,2.34130556 L99.9876953,3.89647222 C99.9878906,4.32638889 99.6382813,4.67405556 99.2066406,4.67405556 Z"></path>
                            <path d="M99.2066406,69.9914444 L0.793359375,69.9914444 C0.36171875,69.9914444 0.0123046875,69.6435833 0.0123046875,69.2138611 L0.0123046875,3.89647222 C0.0123046875,3.46675 0.36171875,3.11888889 0.793359375,3.11888889 L99.2064453,3.11888889 C99.6382813,3.11888889 99.9876953,3.46675 99.9876953,3.89647222 L99.9876953,69.2138611 C99.9878906,69.6435833 99.6382813,69.9914444 99.2066406,69.9914444 Z M1.57441406,68.4362778 L98.4255859,68.4362778 L98.4255859,4.67405556 L1.57441406,4.67405556 L1.57441406,68.4362778 Z"></path>
                            <path d="M50,63.7707778 C49.5683594,63.7707778 49.2189453,63.4229167 49.2189453,62.9931944 L49.2189453,10.1171389 C49.2189453,9.68741667 49.5683594,9.33955556 50,9.33955556 C50.4318359,9.33955556 50.7808594,9.68741667 50.7808594,10.1171389 L50.7808594,62.9931944 C50.7808594,63.4229167 50.4318359,63.7707778 50,63.7707778 Z"></path>
                            <path d="M10.1660156,49.7740833 L7.04179688,49.7740833 C6.61015625,49.7740833 6.26074219,49.4264167 6.26074219,48.9965 C6.26074219,48.5665833 6.61015625,48.2189167 7.04179688,48.2189167 L10.1660156,48.2189167 C10.5976562,48.2189167 10.9470703,48.5665833 10.9470703,48.9965 C10.9470703,49.4264167 10.5978516,49.7740833 10.1660156,49.7740833 Z"></path>
                            <path d="M21.1009766,49.7740833 L17.9767578,49.7740833 C17.5451172,49.7740833 17.1957031,49.4264167 17.1957031,48.9965 C17.1957031,48.5665833 17.5451172,48.2189167 17.9767578,48.2189167 L21.1009766,48.2189167 C21.5326172,48.2189167 21.8820313,48.5665833 21.8820313,48.9965 C21.8820313,49.4264167 21.5326172,49.7740833 21.1009766,49.7740833 Z"></path>
                            <path d="M32.0357422,49.7740833 L28.9115234,49.7740833 C28.4796875,49.7740833 28.1304687,49.4264167 28.1304687,48.9965 C28.1304687,48.5665833 28.4796875,48.2189167 28.9115234,48.2189167 L32.0357422,48.2189167 C32.4673828,48.2189167 32.8167969,48.5665833 32.8167969,48.9965 C32.8167969,49.4264167 32.4673828,49.7740833 32.0357422,49.7740833 Z"></path>
                            <path d="M42.9705078,49.7740833 L39.8462891,49.7740833 C39.4144531,49.7740833 39.0652344,49.4264167 39.0652344,48.9965 C39.0652344,48.5665833 39.4144531,48.2189167 39.8462891,48.2189167 L42.9705078,48.2189167 C43.4021484,48.2189167 43.7515625,48.5665833 43.7515625,48.9965 C43.7515625,49.4264167 43.4021484,49.7740833 42.9705078,49.7740833 Z"></path>
                            <path d="M7.04179688,49.7740833 C6.61015625,49.7740833 6.26074219,49.4264167 6.26074219,48.9965 L6.26074219,13.2274722 C6.26074219,12.79775 6.61015625,12.4498889 7.04179688,12.4498889 C7.4734375,12.4498889 7.82285156,12.79775 7.82285156,13.2274722 L7.82285156,48.9965 C7.82285156,49.4264167 7.47363281,49.7740833 7.04179688,49.7740833 Z"></path>
                            <path d="M17.9767578,49.7740833 L10.1660156,49.7740833 C9.734375,49.7740833 9.38496094,49.4264167 9.38496094,48.9965 L9.38496094,27.2241667 C9.38496094,26.7944444 9.734375,26.4465833 10.1660156,26.4465833 L17.9765625,26.4465833 C18.4082031,26.4465833 18.7576172,26.7944444 18.7576172,27.2241667 L18.7576172,48.9966944 C18.7578125,49.4264167 18.4082031,49.7740833 17.9767578,49.7740833 Z M10.9470703,48.2189167 L17.1955078,48.2189167 L17.1955078,28.00175 L10.9470703,28.00175 L10.9470703,48.2189167 Z"></path>
                            <path d="M28.9115234,49.7740833 L21.1009766,49.7740833 C20.6693359,49.7740833 20.3199219,49.4264167 20.3199219,48.9965 L20.3199219,17.8929722 C20.3199219,17.46325 20.6693359,17.1153889 21.1009766,17.1153889 L28.9115234,17.1153889 C29.3431641,17.1153889 29.6925781,17.46325 29.6925781,17.8929722 L29.6925781,48.9965 C29.6925781,49.4264167 29.3431641,49.7740833 28.9115234,49.7740833 Z M21.8820313,48.2189167 L28.1304687,48.2189167 L28.1304687,18.67075 L21.8820313,18.67075 L21.8820313,48.2189167 Z"></path>
                            <path d="M39.8462891,49.7740833 L32.0357422,49.7740833 C31.6039062,49.7740833 31.2546875,49.4264167 31.2546875,48.9965 L31.2546875,38.1103333 C31.2546875,37.6804167 31.6039063,37.33275 32.0357422,37.33275 L39.8462891,37.33275 C40.2779297,37.33275 40.6273438,37.6804167 40.6273438,38.1103333 L40.6273438,48.9965 C40.6273438,49.4264167 40.2779297,49.7740833 39.8462891,49.7740833 Z M32.8167969,48.2189167 L39.0652344,48.2189167 L39.0652344,38.8879167 L32.8167969,38.8879167 L32.8167969,48.2189167 Z"></path>
                            <path d="M40.6273438,57.5501111 L9.38496094,57.5501111 C8.95332031,57.5501111 8.60390625,57.20225 8.60390625,56.7725278 C8.60390625,56.3426111 8.95332031,55.9949444 9.38496094,55.9949444 L40.6273438,55.9949444 C41.0589844,55.9949444 41.4083984,56.3426111 41.4083984,56.7725278 C41.4083984,57.20225 41.0589844,57.5501111 40.6273438,57.5501111 Z"></path>
                            <path d="M34.3789062,60.6604444 L15.6333984,60.6604444 C15.2017578,60.6604444 14.8523437,60.3125833 14.8523437,59.8828611 C14.8523437,59.4529444 15.2017578,59.1052778 15.6333984,59.1052778 L34.3789062,59.1052778 C34.8105469,59.1052778 35.1599609,59.4529444 35.1599609,59.8828611 C35.1599609,60.3125833 34.8105469,60.6604444 34.3789062,60.6604444 Z"></path>
                            <path d="M90.6150391,57.5501111 L59.3726563,57.5501111 C58.9408203,57.5501111 58.5914063,57.20225 58.5914063,56.7725278 C58.5914063,56.3426111 58.9408203,55.9949444 59.3726563,55.9949444 L90.6150391,55.9949444 C91.046875,55.9949444 91.3958984,56.3426111 91.3958984,56.7725278 C91.3958984,57.20225 91.046875,57.5501111 90.6150391,57.5501111 Z"></path>
                            <path d="M84.3666016,60.6604444 L65.6210938,60.6604444 C65.1892578,60.6604444 64.8398438,60.3125833 64.8398438,59.8828611 C64.8398438,59.4529444 65.1892578,59.1052778 65.6210938,59.1052778 L84.3666016,59.1052778 C84.7984375,59.1052778 85.1474609,59.4529444 85.1474609,59.8828611 C85.1474609,60.3125833 84.7984375,60.6604444 84.3666016,60.6604444 Z"></path>
                            <path d="M74.9939453,49.7740833 C64.6572266,49.7740833 56.2484375,41.4028611 56.2484375,31.1118889 C56.2484375,20.8216944 64.6572266,12.4496944 74.9939453,12.4496944 C76.48125,12.4496944 77.9609375,12.6243056 79.3949219,12.9690556 C80.5267578,13.2356389 81.6757813,13.6344444 82.8044922,14.1538056 C83.825,14.6062778 84.8183594,15.1721111 85.7425781,15.8297222 C86.6119141,16.42725 87.4572266,17.1326944 88.2457031,17.9186389 C89.0390625,18.7076944 89.746875,19.5498333 90.3509766,20.4215278 C90.9736328,21.2879722 91.5408203,22.2673889 92.0275391,23.32225 C92.5478516,24.4416667 92.9472656,25.5956944 93.2189453,26.7524444 C93.5470703,28.0773889 93.7240234,29.4503611 93.7392578,30.8225556 L93.7392578,31.1118889 C93.7392578,32.8220278 93.5134766,34.4934722 93.0693359,36.07975 C92.2076172,39.1764722 90.5402344,42.021 88.2457031,44.3051389 C84.7039063,47.8317778 79.9976563,49.7740833 74.9939453,49.7740833 Z M74.9939453,14.0050556 C65.5189453,14.0050556 57.8105469,21.6791944 57.8105469,31.1120833 C57.8105469,40.5449722 65.5189453,48.2191111 74.9939453,48.2191111 C79.5796875,48.2191111 83.8935547,46.4391667 87.1414063,43.2059444 C89.2451172,41.1115833 90.7751953,38.5025278 91.5652344,35.6638333 C91.9710937,34.2119167 92.1771484,32.6810556 92.1771484,31.1122778 L92.1771484,30.8320833 C92.1634766,29.5884167 92.0017578,28.3346389 91.6996094,27.1158611 C91.4509766,26.0520556 91.0847656,24.99875 90.6089844,23.9744167 C90.1619141,23.0068611 89.6460938,22.1133889 89.0728516,21.31675 C88.5144531,20.5109722 87.8677734,19.74175 87.1414062,19.019 C86.4185547,18.2991667 85.6464844,17.6541944 84.8441406,17.1023611 C83.9941406,16.4988056 83.0943359,15.9854722 82.1589844,15.5715 C81.1140625,15.0908333 80.0662109,14.7254722 79.0316406,14.4818333 C77.7152344,14.1654722 76.3576172,14.0050556 74.9939453,14.0050556 Z"></path>
                            <path d="M74.9939453,38.8879167 C70.6875,38.8879167 67.1833984,35.3995833 67.1833984,31.1120833 C67.1833984,26.8247778 70.6875,23.33625 74.9939453,23.33625 C75.8541016,23.33625 76.6949219,23.4700278 77.4910156,23.7335 C78.6583984,24.1389167 79.7015625,24.7910833 80.5191406,25.6227222 C81.3447266,26.4269444 81.9988281,27.4664444 82.4017578,28.6175556 C82.6703125,29.4171111 82.8044922,30.2532222 82.8044922,31.1120833 C82.8044922,31.8873333 82.6884766,32.6641389 82.4582031,33.4205278 C82.0736328,34.6422222 81.3996094,35.7441389 80.5070313,36.6129167 C79.05625,38.0768889 77.0947266,38.8879167 74.9939453,38.8879167 Z M74.9939453,24.8914167 C71.5476563,24.8914167 68.7455078,27.6820833 68.7455078,31.1120833 C68.7455078,34.5420833 71.5478516,37.33275 74.9939453,37.33275 C76.6736328,37.33275 78.2402344,36.6858333 79.4056641,35.5119722 C80.1228516,34.8115833 80.6595703,33.9330833 80.9646484,32.9628056 C81.1478516,32.3604167 81.2423828,31.7348889 81.2423828,31.1120833 C81.2423828,30.4309444 81.1326172,29.7422222 80.921875,29.1196111 C80.6029297,28.203 80.0798828,27.3707778 79.4146484,26.7223056 C78.7523438,26.0495278 77.9166016,25.5284167 76.9861328,25.2058333 C76.3607422,24.9983611 75.6863281,24.8914167 74.9939453,24.8914167 Z"></path>
                            <path d="M74.9939453,24.899 C74.5621094,24.899 74.2126953,24.5587222 74.2126953,24.129 L74.2126953,13.2276667 C74.2126953,12.7979444 74.5621094,12.4500833 74.9939453,12.4500833 C75.4257812,12.4500833 75.7748047,12.7979444 75.7748047,13.2276667 L75.7748047,24.1138333 C75.7748047,24.54375 75.4257812,24.899 74.9939453,24.899 Z"></path>
                            <path d="M87.69375,44.5330278 C87.4939453,44.5330278 87.2939453,44.457 87.1414063,44.3051389 L79.4085938,36.6066944 C79.1035156,36.3035556 79.1035156,35.8116111 79.4085938,35.5080833 C79.7136719,35.2043611 80.2082031,35.2043611 80.5128906,35.5080833 L88.2457031,43.20575 C88.5507812,43.5094722 88.5507812,44.0014167 88.2457031,44.3051389 C88.0931641,44.4571944 87.89375,44.5330278 87.69375,44.5330278 Z"></path>
                            <path d="M75.0091797,18.67075 C74.809375,18.67075 74.6078125,18.5947222 74.4552734,18.4420833 C74.1515625,18.1377778 74.1515625,17.6454444 74.4583984,17.3426944 L78.6615234,13.1743889 C78.9664063,12.8706667 79.4607422,12.8706667 79.7658203,13.1759444 C80.0695313,13.4804444 80.0695313,13.9725833 79.7626953,14.2755278 L75.5599609,18.4436389 C75.4074219,18.5955 75.2089844,18.67075 75.0091797,18.67075 Z"></path>
                            <path d="M75.0091797,23.0718056 C74.809375,23.0718056 74.609375,22.9959722 74.4568359,22.8441111 C74.1517578,22.5403889 74.1517578,22.04825 74.4568359,21.7445278 L81.8478516,14.3871389 C82.1529297,14.0803056 82.6871094,14.0460833 82.9892578,14.3476667 C83.2943359,14.6498333 83.3337891,15.1025 83.0320313,15.4068056 L75.5617188,22.8441111 C75.4089844,22.9961667 75.2089844,23.0718056 75.0091797,23.0718056 Z"></path>
                            <path d="M77.7960937,25.0213056 L76.6871094,23.9246389 L76.7039062,23.9086944 L84.7357422,15.91275 C85.040625,15.6090278 85.5349609,15.6090278 85.8400391,15.91275 C86.1451172,16.2164722 86.1451172,16.7086111 85.8400391,17.0121389 L77.7960937,25.0213056 Z"></path>
                            <path d="M79.9609375,26.9437778 C79.7611328,26.9437778 79.5611328,26.86775 79.4085938,26.7160833 C79.1035156,26.4123611 79.1035156,25.9202222 79.4085938,25.6165 L87.1414063,17.9188333 C87.4464844,17.6151111 87.9410156,17.6151111 88.2457031,17.9188333 C88.5507813,18.2225556 88.5507813,18.7146944 88.2457031,19.0184167 L80.5128906,26.7160833 C80.3603516,26.8679444 80.1609375,26.9437778 79.9609375,26.9437778 Z"></path>
                            <path d="M81.6527344,29.6541389 C81.4529297,29.6541389 81.2544922,29.5804444 81.1035156,29.4301389 C80.7984375,29.1264167 80.790625,28.6418611 81.0958984,28.3383333 L89.1566406,20.314 C89.4587891,20.0131944 89.9542969,20.0019167 90.2625,20.2996111 C90.5675781,20.5965278 90.584375,21.0756389 90.2900391,21.3840278 L82.2154297,29.4225556 C82.0613281,29.5765556 81.8554688,29.6541389 81.6527344,29.6541389 Z"></path>
                            <path d="M81.7261719,33.9733333 C81.5263672,33.9733333 81.3263672,33.8973056 81.1738281,33.7456389 C80.86875,33.4419167 80.86875,32.9497778 81.1738281,32.6460556 L90.7662109,23.0978611 C91.0712891,22.7941389 91.5654297,22.7941389 91.8705078,23.0978611 C92.1755859,23.4015833 92.1755859,23.8937222 91.8705078,24.1974444 L82.278125,33.7456389 C82.1253906,33.8973056 81.9255859,33.9733333 81.7261719,33.9733333 Z"></path>
                            <path d="M81.6482422,38.4537222 C81.4484375,38.4537222 81.2484375,38.3776944 81.0958984,38.2258333 C80.7908203,37.9205556 80.7908203,37.4284167 81.0958984,37.1246944 L91.9056641,26.3781389 C92.2107422,26.0759722 92.7048828,26.0751944 93.0099609,26.3789167 C93.3150391,26.6834167 93.3150391,27.1755556 93.0099609,27.4792778 L82.2001953,38.2258333 C82.0476563,38.3776944 81.8478516,38.4537222 81.6482422,38.4537222 Z"></path>
                            <path d="M83.8355469,40.6921667 C83.6357422,40.6921667 83.4357422,40.6161389 83.2835937,40.4642778 C82.9785156,40.1605556 82.9785156,39.6684167 83.2835937,39.3646944 L92.4060547,30.282 C92.7109375,29.9782778 93.2052734,29.9782778 93.5103516,30.282 C93.8154297,30.5857222 93.8154297,31.0778611 93.5103516,31.3815833 L84.3878906,40.4642778 C84.2353516,40.6163333 84.0355469,40.6921667 83.8355469,40.6921667 Z"></path>
                            <path d="M86.0386719,42.8853056 C85.8388672,42.8853056 85.6388672,42.8092778 85.4863281,42.6574167 C85.18125,42.3536944 85.18125,41.8615556 85.4863281,41.5580278 L91.75,35.3214167 C92.0550781,35.0176944 92.5496094,35.0176944 92.8542969,35.3214167 C93.159375,35.6251389 93.159375,36.1172778 92.8542969,36.4208056 L86.590625,42.6574167 C86.4378906,42.8092778 86.2384766,42.8853056 86.0386719,42.8853056 Z"></path>
                            <path d="M17.9767578,31.1120833 L10.1660156,31.1120833 C9.734375,31.1120833 9.38496094,30.7642222 9.38496094,30.3345 C9.38496094,29.9047778 9.734375,29.5569167 10.1660156,29.5569167 L17.9765625,29.5569167 C18.4082031,29.5569167 18.7576172,29.9047778 18.7576172,30.3345 C18.7576172,30.7642222 18.4082031,31.1120833 17.9767578,31.1120833 Z"></path>
                            <path d="M17.9767578,41.99825 L10.1660156,41.99825 C9.734375,41.99825 9.38496094,41.6505833 9.38496094,41.2206667 C9.38496094,40.79075 9.734375,40.4430833 10.1660156,40.4430833 L17.9765625,40.4430833 C18.4082031,40.4430833 18.7576172,40.79075 18.7576172,41.2206667 C18.7576172,41.6505833 18.4082031,41.99825 17.9767578,41.99825 Z"></path>
                            <path d="M28.9115234,24.9065833 L21.1009766,24.9065833 C20.6693359,24.9065833 20.3199219,24.5587222 20.3199219,24.129 C20.3199219,23.6992778 20.6693359,23.3514167 21.1009766,23.3514167 L28.9115234,23.3514167 C29.3431641,23.3514167 29.6925781,23.6992778 29.6925781,24.129 C29.6925781,24.5587222 29.3431641,24.9065833 28.9115234,24.9065833 Z"></path>
                            <path d="M28.9115234,35.7775833 L21.1009766,35.7775833 C20.6693359,35.7775833 20.3199219,35.4299167 20.3199219,35 C20.3199219,34.5702778 20.6693359,34.2224167 21.1009766,34.2224167 L28.9115234,34.2224167 C29.3431641,34.2224167 29.6925781,34.5702778 29.6925781,35 C29.6925781,35.4299167 29.3431641,35.7775833 28.9115234,35.7775833 Z"></path>
                            <path d="M39.8462891,41.99825 L32.0357422,41.99825 C31.6039062,41.99825 31.2546875,41.6505833 31.2546875,41.2206667 C31.2546875,40.79075 31.6039063,40.4430833 32.0357422,40.4430833 L39.8462891,40.4430833 C40.2779297,40.4430833 40.6273438,40.79075 40.6273438,41.2206667 C40.6273438,41.6505833 40.2779297,41.99825 39.8462891,41.99825 Z"></path>
                            <path d="M39.8462891,45.1085833 L32.0357422,45.1085833 C31.6039062,45.1085833 31.2546875,44.7609167 31.2546875,44.331 C31.2546875,43.9010833 31.6039063,43.5534167 32.0357422,43.5534167 L39.8462891,43.5534167 C40.2779297,43.5534167 40.6273438,43.9010833 40.6273438,44.331 C40.6273438,44.7609167 40.2779297,45.1085833 39.8462891,45.1085833 Z"></path>
                        </g>
                    </g>
                </g>
            </g>
        </g>
    </g>
</svg>