<?xml version="1.0" encoding="UTF-8"?>
<svg width="100px" height="90px" viewBox="0 0 100 90" version="1.1" xmlns="http://www.w3.org/2000/svg" xmlns:xlink="http://www.w3.org/1999/xlink">
    <!-- Generator: Sketch 51 (57462) - http://www.bohemiancoding.com/sketch -->
    <title>content-privacy</title>
    <desc>Created with Sketch.</desc>
    <defs></defs>
    <g id="Design" stroke="none" stroke-width="1" fill="none" fill-rule="evenodd">
        <g id="Features-Template-V2" transform="translate(-1165.000000, -689.000000)" fill-rule="nonzero">
            <g id="Feature-Copy" transform="translate(730.000000, 634.000000)">
                <g id="content-privacy" transform="translate(435.000000, 55.000000)">
                    <polygon id="Shape" fill="#D7E9FF" points="36.7277344 3.90743534 88.2552734 3.90743534 88.2552734 8.55931034 88.2552734 10.1098707 30.4820312 10.1098707 27.3591797 10.1098707 11.7447266 10.1098707 11.7447266 8.55931034 11.7447266 3.90743534 16.4291016 3.90743534 16.4291016 0.805926724 32.0433594 0.805926724"></polygon>
                    <polygon id="Shape" fill="#D7E9FF" points="27.3591797 10.1098707 88.2552734 10.1098707 88.2552734 13.2111853 88.2552734 14.7619397 32.0433594 14.7619397 28.9205078 11.660625"></polygon>
                    <polygon id="Shape" fill="#D7E9FF" points="32.0433594 14.7619397 88.2552734 14.7619397 92.9394531 14.7619397 92.9394531 19.4140086 92.9394531 20.964569 7.06035156 20.964569 7.06035156 19.4140086 7.06035156 14.7619397 11.7447266 14.7619397 11.7447266 10.1098707 27.3591797 10.1098707 28.9205078 11.660625"></polygon>
                    <path d="M99.1851562,30.2687069 L99.1851562,86.0927586 C99.1851562,87.7979095 97.7794922,89.1940733 96.0625,89.1940733 L3.93769531,89.1940733 C2.21992187,89.1940733 0.81484375,87.7979095 0.81484375,86.0927586 L0.81484375,30.2687069 C0.81484375,28.5627802 2.21992187,27.1673922 3.93769531,27.1673922 L7.06054688,27.1673922 L92.9394531,27.1673922 L96.0625,27.1673922 C97.7794922,27.1671983 99.1851562,28.5627802 99.1851562,30.2687069 Z M68.7375,62.0571336 L68.7375,57.4052586 C68.7375,56.1181034 67.6912109,55.0794181 66.3953125,55.0794181 C65.0990234,55.0794181 64.053125,56.1181034 64.053125,57.4052586 L64.053125,59.7312931 L35.9470703,59.7312931 L35.9470703,57.4052586 C35.9470703,56.1181034 34.9009766,55.0794181 33.6048828,55.0794181 C32.3087891,55.0794181 31.2626953,56.1181034 31.2626953,57.4052586 L31.2626953,62.0571336 C31.2626953,63.3444828 32.3087891,64.3831681 33.6048828,64.3831681 L35.9470703,64.3831681 L64.0529297,64.3831681 L66.3951172,64.3831681 C67.6910156,64.3833621 68.7375,63.3444828 68.7375,62.0571336 Z" id="Shape" fill="#5C9EFF"></path>
                    <path d="M3.93769531,86.0925647 L3.93769531,30.2687069 C3.93769531,28.5627802 5.34277344,27.1673922 7.06054688,27.1673922 L3.93769531,27.1673922 C2.21992187,27.1673922 0.81484375,28.5627802 0.81484375,30.2687069 L0.81484375,86.0927586 C0.81484375,87.7979095 2.21992187,89.1940733 3.93769531,89.1940733 L7.06054688,89.1940733 C5.34277344,89.1940733 3.93769531,87.7977155 3.93769531,86.0925647 Z" id="Shape" fill="#94C1FF"></path>
                    <path d="M96.0625,30.2687069 L96.0625,86.0927586 C96.0625,87.7979095 94.6564453,89.1940733 92.9394531,89.1940733 L96.0625,89.1940733 C97.7794922,89.1940733 99.1851562,87.7979095 99.1851562,86.0927586 L99.1851562,30.2687069 C99.1851562,28.5627802 97.7794922,27.1673922 96.0625,27.1673922 L92.9394531,27.1673922 C94.6564453,27.1671983 96.0625,28.5627802 96.0625,30.2687069 Z" id="Shape" fill="#2287FF"></path>
                    <polygon id="Shape" fill="#D7E9FF" points="92.9394531 25.6166379 92.9394531 27.1671983 7.06035156 27.1671983 7.06035156 25.6166379 7.06035156 20.964569 92.9394531 20.964569"></polygon>
                    <path d="M68.7375,57.4052586 L68.7375,62.0571336 C68.7375,63.3444828 67.6912109,64.3831681 66.3953125,64.3831681 L64.053125,64.3831681 L35.9470703,64.3831681 L33.6048828,64.3831681 C32.3087891,64.3831681 31.2626953,63.3444828 31.2626953,62.0571336 L31.2626953,57.4052586 C31.2626953,56.1181034 32.3087891,55.0794181 33.6048828,55.0794181 C34.9009766,55.0794181 35.9470703,56.1181034 35.9470703,57.4052586 L35.9470703,59.7312931 L64.0529297,59.7312931 L64.0529297,57.4052586 C64.0529297,56.1181034 65.0988281,55.0794181 66.3951172,55.0794181 C67.6910156,55.0794181 68.7375,56.1181034 68.7375,57.4052586 Z" id="Shape" fill="#FFFFFF"></path>
                    <path d="M66.3951172,64.3833621 L64.0529297,64.3833621 L35.9470703,64.3833621 L33.6048828,64.3833621 C32.3087891,64.3833621 31.2626953,63.3446767 31.2626953,62.0573276 L31.2626953,63.6080819 C31.2626953,64.8952371 32.3087891,65.9339224 33.6048828,65.9339224 L35.9470703,65.9339224 L64.0529297,65.9339224 L66.3951172,65.9339224 C67.6910156,65.9339224 68.7373047,64.8952371 68.7373047,63.6080819 L68.7373047,62.0573276 C68.7375,63.3444828 67.6910156,64.3833621 66.3951172,64.3833621 Z" id="Shape" fill="#5C9EFF"></path>
                    <rect id="Rectangle-path" fill="#FFFFFF" x="11.7447266" y="17.8632543" width="76.5105469" height="3.10131466"></rect>
                    <rect id="Rectangle-path" fill="#FFFFFF" x="16.4291016" y="7.00875" width="67.1417969" height="3.10112069"></rect>
                    <rect id="Rectangle-path" fill="#94C1FF" x="7.06035156" y="25.6166379" width="85.8789062" height="1.55056034"></rect>
                    <rect id="Rectangle-path" fill="#FFFFFF" x="7.06035156" y="14.7619397" width="1.56152344" height="10.8546983"></rect>
                    <g id="Group" opacity="0.5" transform="translate(11.718750, 3.879310)" fill="#FFFFFF">
                        <g id="Rectangle-path">
                            <rect x="0.0259765625" y="0.028125" width="1.56132812" height="6.20262931"></rect>
                        </g>
                    </g>
                    <rect id="Rectangle-path" fill="#94C1FF" x="91.3779297" y="14.7619397" width="1.56132812" height="10.8546983"></rect>
                    <g id="Group" opacity="0.3" transform="translate(86.523438, 3.879310)" fill="#000000">
                        <g id="Rectangle-path">
                            <rect x="0.170117187" y="0.028125" width="1.56171875" height="9.30394397"></rect>
                        </g>
                    </g>
                    <g id="Group" fill="#116FFF">
                        <path d="M96.0625,89.9693534 L3.93769531,89.9693534 C1.78535156,89.9693534 0.0341796875,88.2308405 0.0341796875,86.0927586 L0.0341796875,30.2687069 C0.0341796875,28.1312069 1.78535156,26.3921121 3.93769531,26.3921121 L96.0625,26.3921121 C98.2154297,26.3921121 99.9660156,28.1314009 99.9660156,30.2687069 L99.9660156,86.0927586 C99.9660156,88.2308405 98.2154297,89.9693534 96.0625,89.9693534 Z M3.93769531,27.9426724 C2.64609375,27.9426724 1.59550781,28.9862069 1.59550781,30.2687069 L1.59550781,86.0927586 C1.59550781,87.3754526 2.64609375,88.4187931 3.93769531,88.4187931 L96.0625,88.4187931 C97.3537109,88.4187931 98.4046875,87.3754526 98.4046875,86.0927586 L98.4046875,30.2687069 C98.4046875,28.9862069 97.3537109,27.9426724 96.0625,27.9426724 L3.93769531,27.9426724 Z" id="Shape"></path>
                        <path d="M66.3951172,65.1586422 L33.6048828,65.1586422 C31.8826172,65.1586422 30.4820312,63.7684914 30.4820312,62.0573276 L30.4820312,57.4054526 C30.4820312,55.6942888 31.8826172,54.3041379 33.6048828,54.3041379 C35.3271484,54.3041379 36.7277344,55.6942888 36.7277344,57.4054526 L36.7277344,58.9562069 L63.2720703,58.9562069 L63.2720703,57.4054526 C63.2720703,55.6942888 64.6720703,54.3041379 66.3951172,54.3041379 C68.1181641,54.3041379 69.5177734,55.6942888 69.5177734,57.4054526 L69.5177734,62.0573276 C69.5179688,63.7684914 68.1183594,65.1586422 66.3951172,65.1586422 Z M33.6048828,55.8546983 C32.7441406,55.8546983 32.0433594,56.5512284 32.0433594,57.4052586 L32.0433594,62.0571336 C32.0433594,62.9113578 32.7439453,63.6078879 33.6048828,63.6078879 L66.3951172,63.6078879 C67.2548828,63.6078879 67.9564453,62.9113578 67.9564453,62.0571336 L67.9564453,57.4052586 C67.9564453,56.5512284 67.2548828,55.8546983 66.3951172,55.8546983 C65.5349609,55.8546983 64.8333984,56.5512284 64.8333984,57.4052586 L64.8333984,59.7312931 C64.8333984,60.1597629 64.484375,60.5065733 64.0529297,60.5065733 L35.9470703,60.5065733 C35.515625,60.5065733 35.1662109,60.1597629 35.1662109,59.7312931 L35.1662109,57.4052586 C35.1662109,56.5512284 34.465625,55.8546983 33.6048828,55.8546983 Z" id="Shape"></path>
                        <path d="M7.06035156,26.3919181 C6.62890625,26.3919181 6.2796875,26.0451078 6.2796875,25.6166379 L6.2796875,20.964569 C6.2796875,20.5360991 6.62890625,20.1892888 7.06035156,20.1892888 C7.49179688,20.1892888 7.84121094,20.5360991 7.84121094,20.964569 L7.84121094,25.6166379 C7.84121094,26.0451078 7.49199219,26.3919181 7.06035156,26.3919181 Z" id="Shape"></path>
                        <path d="M92.9394531,21.7400431 L7.06054688,21.7400431 C6.62910156,21.7400431 6.27988281,21.3932328 6.27988281,20.964569 C6.27988281,20.5360991 6.62910156,20.1892888 7.06054688,20.1892888 L92.9394531,20.1892888 C93.3712891,20.1892888 93.7203125,20.5360991 93.7203125,20.964569 C93.7203125,21.3932328 93.3712891,21.7400431 92.9394531,21.7400431 Z" id="Shape"></path>
                        <path d="M92.9394531,26.3919181 C92.5080078,26.3919181 92.1589844,26.0451078 92.1589844,25.6166379 L92.1589844,20.964569 C92.1589844,20.5360991 92.5080078,20.1892888 92.9394531,20.1892888 C93.3712891,20.1892888 93.7203125,20.5360991 93.7203125,20.964569 L93.7203125,25.6166379 C93.7203125,26.0451078 93.3712891,26.3919181 92.9394531,26.3919181 Z" id="Shape"></path>
                        <path d="M92.9394531,15.5374138 L32.0433594,15.5374138 C31.8359375,15.5374138 31.6376953,15.4555603 31.4914063,15.3102802 L27.0357422,10.8853448 L12.5253906,10.8853448 L12.5253906,14.7619397 C12.5253906,15.1904095 12.1761719,15.5372198 11.7447266,15.5372198 L7.06035156,15.5372198 C6.62890625,15.5372198 6.2796875,15.1904095 6.2796875,14.7619397 C6.2796875,14.3332759 6.62890625,13.9864655 7.06035156,13.9864655 L10.9640625,13.9864655 L10.9640625,10.1098707 C10.9640625,9.68140086 11.3132812,9.33459052 11.7447266,9.33459052 L27.3589844,9.33459052 C27.5664062,9.33459052 27.7646484,9.41644397 27.9109375,9.56172414 L32.3664062,13.9864655 L92.9394531,13.9864655 C93.3712891,13.9864655 93.7203125,14.3332759 93.7203125,14.7619397 C93.7203125,15.1904095 93.3712891,15.5374138 92.9394531,15.5374138 Z" id="Shape"></path>
                        <path d="M92.9394531,20.1892888 C92.5080078,20.1892888 92.1589844,19.8424784 92.1589844,19.4140086 L92.1589844,14.7621336 C92.1589844,14.3334698 92.5080078,13.9866595 92.9394531,13.9866595 C93.3712891,13.9866595 93.7203125,14.3334698 93.7203125,14.7621336 L93.7203125,19.4140086 C93.7203125,19.8424784 93.3712891,20.1892888 92.9394531,20.1892888 Z" id="Shape"></path>
                        <path d="M7.06035156,20.1892888 C6.62890625,20.1892888 6.2796875,19.8424784 6.2796875,19.4140086 L6.2796875,14.7621336 C6.2796875,14.3334698 6.62890625,13.9866595 7.06035156,13.9866595 C7.49179688,13.9866595 7.84121094,14.3334698 7.84121094,14.7621336 L7.84121094,19.4140086 C7.84121094,19.8424784 7.49199219,20.1892888 7.06035156,20.1892888 Z" id="Shape"></path>
                        <path d="M88.2552734,18.6387284 L11.7447266,18.6387284 C11.3132812,18.6387284 10.9640625,18.2919181 10.9640625,17.8632543 C10.9640625,17.4347845 11.3132812,17.0879741 11.7447266,17.0879741 L88.2552734,17.0879741 C88.6867187,17.0879741 89.0357422,17.4347845 89.0357422,17.8632543 C89.0357422,18.2919181 88.6867188,18.6387284 88.2552734,18.6387284 Z" id="Shape"></path>
                        <path d="M88.2552734,10.8853448 L30.4820312,10.8853448 C30.0505859,10.8853448 29.7013672,10.5385345 29.7013672,10.1098707 C29.7013672,9.68140086 30.0505859,9.33459052 30.4820313,9.33459052 L88.2552734,9.33459052 C88.6867188,9.33459052 89.0357422,9.68140086 89.0357422,10.1098707 C89.0357422,10.5385345 88.6867188,10.8853448 88.2552734,10.8853448 Z" id="Shape"></path>
                        <path d="M88.2552734,13.9864655 C87.8234375,13.9864655 87.4744141,13.6398491 87.4744141,13.2111853 L87.4744141,10.1098707 C87.4744141,9.68140086 87.8234375,9.33459052 88.2552734,9.33459052 C88.6867188,9.33459052 89.0357422,9.68140086 89.0357422,10.1098707 L89.0357422,13.2111853 C89.0357422,13.6398491 88.6867188,13.9864655 88.2552734,13.9864655 Z" id="Shape"></path>
                        <path d="M88.2552734,4.68271552 L36.7277344,4.68271552 C36.5736328,4.68271552 36.4226563,4.63732759 36.2945313,4.55237069 L31.8068359,1.58140086 L17.2097656,1.58140086 L17.2097656,3.90743534 C17.2097656,4.33590517 16.8605469,4.68271552 16.4291016,4.68271552 L11.7447266,4.68271552 C11.3132812,4.68271552 10.9640625,4.33590517 10.9640625,3.90743534 C10.9640625,3.47877155 11.3132812,3.13196121 11.7447266,3.13196121 L15.6484375,3.13196121 L15.6484375,0.805926724 C15.6484375,0.377262931 15.9976563,0.0306465517 16.4291016,0.0306465517 L32.0435547,0.0306465517 C32.1976562,0.0306465517 32.3484375,0.0758405172 32.4765625,0.160797414 L36.9642578,3.13176724 L88.2554687,3.13176724 C88.6869141,3.13176724 89.0359375,3.47857759 89.0359375,3.90724138 C89.0357422,4.33590517 88.6867187,4.68271552 88.2552734,4.68271552 Z" id="Shape"></path>
                        <path d="M88.2552734,9.33459052 C87.8234375,9.33459052 87.4744141,8.98778017 87.4744141,8.55931034 L87.4744141,3.90743534 C87.4744141,3.47877155 87.8234375,3.13196121 88.2552734,3.13196121 C88.6867188,3.13196121 89.0357422,3.47877155 89.0357422,3.90743534 L89.0357422,8.55931034 C89.0357422,8.98778017 88.6867188,9.33459052 88.2552734,9.33459052 Z" id="Shape"></path>
                        <path d="M11.7447266,9.33459052 C11.3132812,9.33459052 10.9640625,8.98778017 10.9640625,8.55931034 L10.9640625,3.90743534 C10.9640625,3.47877155 11.3132812,3.13196121 11.7447266,3.13196121 C12.1761719,3.13196121 12.5253906,3.47877155 12.5253906,3.90743534 L12.5253906,8.55931034 C12.5253906,8.98778017 12.1761719,9.33459052 11.7447266,9.33459052 Z" id="Shape"></path>
                        <path d="M83.5708984,7.78403017 L16.4291016,7.78403017 C15.9976562,7.78403017 15.6484375,7.43721983 15.6484375,7.00875 C15.6484375,6.58008621 15.9976562,6.23327586 16.4291016,6.23327586 L83.5708984,6.23327586 C84.0023438,6.23327586 84.3517578,6.58008621 84.3517578,7.00875 C84.3517578,7.43721983 84.0023438,7.78403017 83.5708984,7.78403017 Z" id="Shape"></path>
                        <path d="M7.06035156,82.2159698 C6.62890625,82.2159698 6.2796875,81.8691595 6.2796875,81.4406897 L6.2796875,34.9205819 C6.2796875,34.4921121 6.62890625,34.1453017 7.06035156,34.1453017 C7.49179688,34.1453017 7.84121094,34.4921121 7.84121094,34.9205819 L7.84121094,81.4406897 C7.84121094,81.8691595 7.49199219,82.2159698 7.06035156,82.2159698 Z" id="Shape"></path>
                        <path d="M92.9394531,82.2159698 C92.5080078,82.2159698 92.1589844,81.8691595 92.1589844,81.4406897 L92.1589844,34.9205819 C92.1589844,34.4921121 92.5080078,34.1453017 92.9394531,34.1453017 C93.3712891,34.1453017 93.7203125,34.4921121 93.7203125,34.9205819 L93.7203125,81.4406897 C93.7203125,81.8691595 93.3712891,82.2159698 92.9394531,82.2159698 Z" id="Shape"></path>
                    </g>
                </g>
            </g>
        </g>
    </g>
</svg>