<?xml version="1.0" encoding="UTF-8"?>
<svg width="96px" height="100px" viewBox="0 0 96 100" version="1.1" xmlns="http://www.w3.org/2000/svg" xmlns:xlink="http://www.w3.org/1999/xlink">
    <!-- Generator: Sketch 51 (57462) - http://www.bohemiancoding.com/sketch -->
    <title>CRM-integration</title>
    <desc>Created with Sketch.</desc>
    <defs></defs>
    <g id="Design" stroke="none" stroke-width="1" fill="none" fill-rule="evenodd">
        <g id="Features-Template-V2" transform="translate(-574.000000, -904.000000)" fill-rule="nonzero">
            <g id="Feature-Copy-8" transform="translate(135.000000, 854.000000)">
                <g id="CRM-integration" transform="translate(439.000000, 50.000000)">
                    <polygon id="Shape" fill="#FFFFFF" points="48.0030968 68.1140625 30.1962581 57.1757812 30.1962581 61.8644531 34.3964516 75.1816406 48.0015484 69.6765625 61.6081935 75.1816406 65.8083871 61.8644531 65.8083871 57.1757812"></polygon>
                    <path d="M72.5247097,14.8458984 C76.4889677,23.7519531 75.0950323,33.5947266 75.0950323,33.5947266 C75.0950323,33.5947266 74.4917419,24.6574219 68.9487097,21.0955078 L72.5247097,14.8458984 Z" id="Shape" fill="#94C1FF"></path>
                    <path d="M72.5247097,14.8458984 L68.9487097,21.0955078 C54.9975484,12.1429687 43.4941935,36.2824219 21.912,29.8451172 C21.044129,29.5796875 20.1609677,29.2667969 19.2642581,28.9076172 C19.2642581,28.9076172 20.9049677,0.784375 48,0.784375 C62.3518065,0.784375 69.2587742,7.48710938 72.5247097,14.8458984 Z" id="Shape" fill="#94C1FF"></path>
                    <path d="M72.5247097,14.8458984 C69.2587742,7.48710938 62.3518065,0.784375 48,0.784375 C47.4950323,0.784375 47.0171613,0.81328125 46.5288387,0.832421875 C59.7692903,1.32597656 66.2891613,7.77402344 69.4279355,14.8458984 C70.8112258,17.953125 71.5325806,21.1664062 71.8985806,24.0441406 C74.7139355,28.1310547 75.0950323,33.5947266 75.0950323,33.5947266 C75.0950323,33.5947266 76.4889677,23.7519531 72.5247097,14.8458984 Z" id="Shape" fill="#5C9EFF"></path>
                    <path d="M22.2882581,29.9542969 C22.2882581,29.9542969 23.9591613,1.84160156 49.6254194,0.832421875 C49.0887097,0.8125 48.5593548,0.784375 48,0.784375 C20.9049677,0.784375 19.2642581,28.9076172 19.2642581,28.9076172 C20.1609677,29.2667969 22.2882581,29.9542969 22.2882581,29.9542969 Z" id="Shape" fill="#D7E9FF"></path>
                    <g id="Group" opacity="0.2" transform="translate(30.193548, 57.031250)" fill="#000000">
                        <path d="M17.8064516,12.4988281 C23.0893548,12.4988281 30.0611613,8.15332031 35.6148387,1.52832031 L35.6148387,0.14453125 L17.8095484,11.0828125 L0.00270967742,0.14453125 L0.00270967742,1.55273438 C5.55464516,8.17167969 12.5266452,12.4988281 17.8064516,12.4988281 Z" id="Shape"></path>
                    </g>
                    <path d="M75.0950323,33.5947266 L74.924129,36.7195312 C73.1597419,53.3597656 57.7070323,67.9675781 48,67.9675781 C37.688129,67.9675781 20.9049677,51.4845703 20.9049677,33.5947266 L20.9049677,29.5177734 C43.5969677,36.6707031 54.9977419,12.1429687 68.9489032,21.0953125 C74.4917419,24.6574219 75.0950323,33.5947266 75.0950323,33.5947266 Z" id="Shape" fill="#D7E9FF"></path>
                    <path d="M68.9487097,21.0955078 C66.2043871,19.3347656 63.5599355,18.8816406 60.9079355,19.2150391 C62.5347097,19.4371094 64.1752258,20.0191406 65.852129,21.0955078 C71.3951613,24.6574219 71.9984516,33.5947266 71.9984516,33.5947266 L71.8275484,36.7195313 C70.1508387,52.5328125 56.1209032,66.484375 46.3987742,67.8333984 C46.9459355,67.9158203 47.4828387,67.9677734 47.9998065,67.9677734 C57.7068387,67.9677734 73.1595484,53.3599609 74.9239355,36.7197266 L75.0948387,33.5949219 C75.0950323,33.5947266 74.4917419,24.6574219 68.9487097,21.0955078 Z" id="Shape" fill="#94C1FF"></path>
                    <path d="M24.0015484,33.5947266 L24.0015484,30.2974609 C22.989871,30.0953125 21.9634839,29.8519531 20.9049677,29.5177734 L20.9049677,33.5947266 C20.9049677,51.4847656 37.688129,67.9675781 48,67.9675781 C48.4823226,67.9675781 48.9874839,67.9035156 49.4955484,67.8332031 C39.1397419,66.3 24.0015484,50.5875 24.0015484,33.5947266 Z" id="Shape" fill="#FFFFFF"></path>
                    <path d="M95.2227097,83.5916016 C95.2227097,89.8412109 95.2227097,99.215625 95.2227097,99.215625 L57.2897419,99.215625 L59.5033548,96.0908203 L67.353871,85.1539062 L65.8054839,80.4667969 L73.5470323,69.5300781 L70.2251613,66.1794922 C73.7239355,67.7265625 83.6727097,71.8111328 85.9333548,72.6546875 C92.1263226,74.9832031 95.2227097,77.3419922 95.2227097,83.5916016 Z" id="Shape" fill="#94C1FF"></path>
                    <polygon id="Shape" fill="#5D9CEC" points="57.2897419 99.215625 53.967871 99.215625 61.6565806 74.8734375 65.8052903 61.7179687 73.5468387 69.5300781 65.8052903 80.4667969 67.3536774 85.1539063"></polygon>
                    <polygon id="Shape" fill="#D7E9FF" points="57.2897419 99.215625 53.967871 99.215625 61.6565806 74.8734375 65.8052903 61.7179687 73.5468387 69.5300781 65.8052903 80.4667969 67.3536774 85.1539063"></polygon>
                    <path d="M0.777096774,83.5916016 C0.777096774,89.8412109 0.777096774,99.215625 0.777096774,99.215625 L38.7102581,99.215625 L36.4966452,96.0908203 L28.646129,85.1539062 L30.1945161,80.4667969 L22.4529677,69.5300781 L25.7748387,66.1794922 C22.2760645,67.7265625 12.3272903,71.8111328 10.0666452,72.6546875 C3.87367742,74.9832031 0.777096774,77.3419922 0.777096774,83.5916016 Z" id="Shape" fill="#94C1FF"></path>
                    <polygon id="Shape" fill="#5D9CEC" points="38.7102581 99.215625 42.032129 99.215625 34.3434194 74.8734375 30.1947097 61.7179687 22.4531613 69.5300781 30.1947097 80.4667969 28.6463226 85.1539063"></polygon>
                    <polygon id="Shape" fill="#D7E9FF" points="38.7102581 99.215625 42.032129 99.215625 34.3434194 74.8734375 30.1947097 61.7179687 22.4531613 69.5300781 30.1947097 80.4667969 28.6463226 85.1539063"></polygon>
                    <path d="M28.6463226,85.1539063 L30.1947097,80.4667969 L22.4531613,69.5300781 L25.7750323,66.1794922 C25.0887097,66.4814453 24.1511613,66.8841797 23.0761935,67.3390625 L20.9049677,69.5302734 L28.6463226,80.4669922 L27.098129,85.1541016 L37.1620645,99.2158203 L38.7102581,99.2158203 L36.4966452,96.0910156 L28.6463226,85.1539063 Z" id="Shape" fill="#5C9EFF"></path>
                    <path d="M20.9049677,69.5300781 L23.0761935,67.3388672 C18.6673548,69.2035156 11.8844516,71.9773438 10.0668387,72.6546875 C3.87367742,74.9832031 0.777096774,77.3419922 0.777096774,83.5916016 C0.777096774,89.8412109 0.777096774,99.215625 0.777096774,99.215625 L3.87367742,99.215625 C3.87367742,95.9291016 3.87367742,90.6941406 3.87367742,86.7164063 C3.87367742,80.4667969 6.97025806,78.1080078 13.1634194,75.7796875 C14.5364516,75.2669922 18.7412903,73.5611328 22.6194194,71.9513672 L20.9049677,69.5300781 Z" id="Shape" fill="#D7E9FF"></path>
                    <path d="M67.3536774,85.1539063 L65.8052903,80.4667969 L73.5468387,69.5300781 L70.2249677,66.1794922 C70.9112903,66.4814453 71.8488387,66.8841797 72.9238065,67.3390625 L75.0950323,69.5302734 L67.3536774,80.4669922 L68.901871,85.1541016 L58.8379355,99.2158203 L57.2897419,99.2158203 L59.5033548,96.0910156 L67.3536774,85.1539063 Z" id="Shape" fill="#5C9EFF"></path>
                    <path d="M75.0950323,69.5300781 L72.9238065,67.3388672 C77.3326452,69.2035156 84.1155484,71.9773438 85.9331613,72.6546875 C92.1263226,74.9832031 95.2227097,77.3419922 95.2227097,83.5916016 C95.2227097,89.8412109 95.2227097,99.215625 95.2227097,99.215625 L92.1263226,99.215625 C92.1263226,95.9291016 92.1263226,90.6941406 92.1263226,86.7164063 C92.1263226,80.4667969 89.0295484,78.1080078 82.8363871,75.7796875 C81.4635484,75.2669922 77.2587097,73.5611328 73.3805806,71.9513672 L75.0950323,69.5300781 Z" id="Shape" fill="#5C9EFF"></path>
                    <polygon id="Shape" fill="#FFFFFF" points="48 69.5300781 61.6081935 75.0259766 54.9673548 96.0908203 53.967871 99.215625 42.032129 99.215625 41.0326452 96.0908203 34.3949032 75.0351562"></polygon>
                    <polygon id="Shape" fill="#94C1FF" points="51.8707742 77.3419922 44.1292258 77.3419922 41.5981935 72.1148438 48 69.5300781 54.4033548 72.1148438"></polygon>
                    <polygon id="Shape" fill="#94C1FF" points="53.4189677 98.9714844 42.5810323 98.9714844 42.5810323 85.1539063 45.6776129 77.3419922 50.3223871 77.3419922 53.4189677 85.1539063"></polygon>
                    <g id="Group" fill="#116FFF">
                        <path d="M95.2227097,99.996875 L0.777096774,99.996875 C0.349354839,99.996875 0.00309677419,99.6474609 0.00309677419,99.215625 L0.00309677419,83.5916016 C0.00309677419,76.878125 3.4443871,74.3117187 9.79645161,71.9224609 C12.1989677,71.0328125 15.1730323,69.8458984 17.7555484,68.7472656 L19.0511613,68.1720703 C19.4427097,68.0011719 19.8979355,68.1841797 20.0688387,68.5810547 C20.2366452,68.9777344 20.0552903,69.4371094 19.662,69.6064453 L18.3617419,70.1861328 C15.7534839,71.2939453 12.7536774,72.4916016 10.3343226,73.3873047 C4.38464516,75.6242187 1.55109677,77.7236328 1.55109677,83.5917969 L1.55109677,98.4345703 L94.4487097,98.4345703 L94.4487097,83.5917969 C94.4487097,77.7236328 91.6151613,75.6242188 85.6623871,73.3873047 C83.8025806,72.6916016 80.1133548,71.2755859 76.3333548,69.6050781 C75.9418065,69.4326172 75.7633548,68.971875 75.9342581,68.5751953 C76.1067097,68.1814453 76.5706452,68.0029297 76.9532903,68.1738281 C80.6986452,69.8294922 84.3545806,71.2330078 86.2023871,71.9226562 C92.5556129,74.3119141 95.9969032,76.8783203 95.9969032,83.5917969 L95.9969032,99.2158203 C95.9969032,99.6474609 95.6506452,99.996875 95.2227097,99.996875 Z" id="Shape"></path>
                        <path d="M48,68.7488281 C37.5005806,68.7488281 20.1307742,52.3191406 20.1307742,33.5947266 C20.1307742,33.1628906 20.4770323,32.8134766 20.9049677,32.8134766 C21.3329032,32.8134766 21.6791613,33.1628906 21.6791613,33.5947266 C21.6791613,50.9164063 38.0994194,67.1863281 48,67.1863281 C56.8391613,67.1863281 72.3977419,53.2041016 74.1545806,36.6363281 C74.199871,36.2060547 74.6127097,35.9039063 75.0058065,35.9429688 C75.4321935,35.9886719 75.7391613,36.3740234 75.693871,36.8027344 C73.9490323,53.2560547 58.6126452,68.7488281 48,68.7488281 Z" id="Shape"></path>
                        <path d="M75.0950323,34.3759766 C75.0859355,34.3759766 75.0768387,34.3751953 75.0663871,34.3751953 C74.6717419,34.3607422 74.3496774,34.0470703 74.3223871,33.6480469 C74.3163871,33.5625 73.6753548,25.0585938 68.5329677,21.7544922 C66.5461935,20.4796875 64.538129,19.8603516 62.3957419,19.8603516 C58.1771613,19.8603516 53.8258065,22.3083984 49.2203226,24.9 C43.5274839,28.1025391 37.0743871,31.7324219 29.2875484,31.7324219 C26.7807097,31.7324219 24.2254839,31.3494141 21.6929032,30.5941406 C20.8037419,30.3224609 19.8919355,30 18.9789677,29.6337891 C18.6689032,29.509375 18.4724516,29.1982422 18.492,28.8617187 C18.5084516,28.5734375 20.4936774,0.003125 48,0.003125 C60.4649032,0.003125 68.9549032,4.88945313 73.2307742,14.5263672 C77.2405161,23.5345703 75.9191613,33.2941406 75.8616774,33.7054688 C75.8072903,34.0914062 75.4792258,34.3759766 75.0950323,34.3759766 Z M20.0883871,28.3917969 C20.7793548,28.6558594 21.4674194,28.8929688 22.1370968,29.0974609 C24.5216129,29.8091797 26.9287742,30.1699219 29.2873548,30.1699219 C36.672,30.1699219 42.9377419,26.6455078 48.4656774,23.5351563 C53.2525161,20.8419922 57.7751613,18.2978516 62.3957419,18.2978516 C64.8421935,18.2978516 67.1223871,18.9974609 69.3646452,20.4363281 C71.9924516,22.1253906 73.5696774,24.8931641 74.5099355,27.4517578 C74.3527742,23.9646484 73.7192903,19.4353516 71.8186452,15.1662109 C67.8133548,6.14121094 59.7996774,1.56542969 48,1.56542969 C37.0879355,1.56542969 29.0727097,6.14355469 24.1769032,15.1730469 C21.0985161,20.8505859 20.2774839,26.6066406 20.0883871,28.3917969 Z" id="Shape"></path>
                        <path d="M68.9487097,21.8767578 C68.8170968,21.8767578 68.684129,21.8431641 68.5616129,21.7722656 C68.1911613,21.5564453 68.0641935,21.0787109 68.2788387,20.7050781 L71.8548387,14.4554688 C72.068129,14.0816406 72.5429032,13.9556641 72.9118065,14.1693359 C73.2822581,14.3851563 73.4092258,14.8626953 73.1945806,15.2365234 L69.6185806,21.4861328 C69.4765161,21.7363281 69.2148387,21.8767578 68.9487097,21.8767578 Z" id="Shape"></path>
                        <path d="M51.8707742,78.1232422 L44.1292258,78.1232422 C43.8358065,78.1232422 43.5683226,77.9554688 43.4369032,77.6914062 L41.8885161,74.5666016 C41.6980645,74.1804688 41.852129,73.7105469 42.2347742,73.5183594 C42.6187742,73.3275391 43.0815484,73.4816406 43.2735484,73.8677734 L44.6070968,76.5607422 L51.3930968,76.5607422 L52.7266452,73.8677734 C52.9186452,73.4816406 53.3843226,73.3291016 53.7654194,73.5183594 C54.1480645,73.7105469 54.302129,74.1806641 54.1116774,74.5666016 L52.5632903,77.6914062 C52.4314839,77.9554688 52.164,78.1232422 51.8707742,78.1232422 Z" id="Shape"></path>
                        <path d="M42.5810323,85.9351563 C42.4858065,85.9351563 42.3874839,85.9167969 42.2938065,85.8802734 C41.8960645,85.7185547 41.7040645,85.2638672 41.8627742,84.8640625 L44.9593548,77.0521484 C45.1180645,76.6507813 45.5686452,76.4570312 45.9648387,76.6158203 C46.3625806,76.7775391 46.5545806,77.2322266 46.395871,77.6320313 L43.2992903,85.4439453 C43.1783226,85.7490234 42.888,85.9351563 42.5810323,85.9351563 Z" id="Shape"></path>
                        <path d="M53.4189677,85.9351563 C53.112,85.9351563 52.8216774,85.7490234 52.7007097,85.44375 L49.6043226,77.6318359 C49.4456129,77.2320312 49.6374194,76.7773437 50.0351613,76.615625 C50.4298065,76.4554687 50.8819355,76.6507812 51.0406452,77.0519531 L54.1372258,84.8638672 C54.2959355,85.2636719 54.1039355,85.7183594 53.7061935,85.8800781 C53.6125161,85.9169922 53.5141935,85.9351563 53.4189677,85.9351563 Z" id="Shape"></path>
                        <path d="M59.5033548,96.8720703 C59.3446452,96.8720703 59.1857419,96.8232422 59.0496774,96.7224609 C58.7034194,96.4707031 58.6248387,95.9808594 58.875871,95.6330078 L66.4933548,85.0195312 L65.0703871,80.7138672 C64.9918065,80.4757812 65.0310968,80.2164062 65.1747097,80.0119141 L72.5351613,69.6154297 L65.2577419,62.2703125 C64.9554194,61.9652344 64.9554194,61.4707031 65.2577419,61.165625 C65.5600645,60.8605469 66.050129,60.8605469 66.3524516,61.165625 L74.094,68.9777344 C74.3614839,69.2478516 74.3963226,69.6734375 74.1770323,69.9847656 L66.6640645,80.5980469 L68.0881935,84.9068359 C68.1667742,85.1449219 68.1259355,85.4072266 67.9809677,85.6117187 L60.1304516,96.5486328 C59.9796774,96.7591797 59.7421935,96.8720703 59.5033548,96.8720703 Z" id="Shape"></path>
                        <path d="M54.9673548,96.8720703 C54.8903226,96.8720703 54.8101935,96.8599609 54.7329677,96.8353516 C54.3247742,96.7041016 54.0994839,96.2646484 54.2293548,95.8542969 L65.0672903,61.4798828 C65.1958065,61.0708984 65.6359355,60.8390625 66.0394839,60.9732422 C66.4476774,61.1044922 66.6729677,61.5439453 66.5430968,61.9558594 L55.7051613,96.3271484 C55.6008387,96.6599609 55.2954194,96.8720703 54.9673548,96.8720703 Z" id="Shape"></path>
                        <path d="M59.612129,74.9984375 C59.5169032,74.9984375 59.4185806,74.9800781 59.3249032,74.9435547 L47.7127742,70.25625 C47.3150323,70.0947266 47.1230323,69.6400391 47.2817419,69.2402344 C47.4404516,68.8388672 47.8925806,68.6421875 48.2872258,68.8039062 L59.8993548,73.4910156 C60.2970968,73.6527344 60.4890968,74.1074219 60.3303871,74.5072266 C60.2094194,74.8123047 59.9190968,74.9984375 59.612129,74.9984375 Z" id="Shape"></path>
                        <path d="M36.4966452,96.8720703 C36.2578065,96.8720703 36.0203226,96.7591797 35.8691613,96.5486328 L28.0188387,85.6117188 C27.8736774,85.4072266 27.8328387,85.1447266 27.9114194,84.9068359 L29.3355484,80.5980469 L21.8225806,69.9847656 C21.6032903,69.6734375 21.638129,69.2478516 21.9058065,68.9777344 L29.6471613,61.165625 C29.9494839,60.8605469 30.4395484,60.8605469 30.741871,61.165625 C31.0441935,61.4707031 31.0441935,61.9652344 30.741871,62.2703125 L23.4644516,69.6154297 L30.8249032,80.0119141 C30.9685161,80.2164063 31.0078065,80.4757813 30.9292258,80.7138672 L29.5062581,85.0195313 L37.1237419,95.6330078 C37.3747742,95.9808594 37.2961935,96.4707031 36.9499355,96.7224609 C36.8142581,96.8232422 36.6555484,96.8720703 36.4966452,96.8720703 Z" id="Shape"></path>
                        <path d="M41.0326452,96.8720703 C40.7045806,96.8720703 40.3993548,96.6599609 40.2948387,96.3273438 L29.4567097,61.9560547 C29.3266452,61.5441406 29.5519355,61.1046875 29.9603226,60.9734375 C30.3656129,60.8390625 30.804,61.0710938 30.9325161,61.4800781 L41.7704516,95.8544922 C41.9005161,96.2650391 41.6752258,96.7044922 41.2668387,96.8355469 C41.1898065,96.8599609 41.1096774,96.8720703 41.0326452,96.8720703 Z" id="Shape"></path>
                        <path d="M36.387871,74.9984375 C36.0809032,74.9984375 35.7905806,74.8123047 35.6696129,74.5070313 C35.5109032,74.1072266 35.7029032,73.6525391 36.1006452,73.4908203 L47.7127742,68.8037109 C48.1089677,68.6419922 48.5595484,68.8388672 48.7182581,69.2400391 C48.8769677,69.6398438 48.6849677,70.0945313 48.2872258,70.2560547 L36.6750968,74.9433594 C36.5814194,74.9800781 36.4830968,74.9984375 36.387871,74.9984375 Z" id="Shape"></path>
                        <path d="M48,96.8720703 C47.5720645,96.8720703 47.2258065,96.5226562 47.2258065,96.0908203 L47.2258065,82.0292969 C47.2258065,81.5974609 47.5720645,81.2480469 48,81.2480469 C48.4279355,81.2480469 48.7741935,81.5974609 48.7741935,82.0292969 L48.7741935,96.0908203 C48.7741935,96.5226562 48.4279355,96.8720703 48,96.8720703 Z" id="Shape"></path>
                    </g>
                </g>
            </g>
        </g>
    </g>
</svg>