<svg xmlns="http://www.w3.org/2000/svg" xmlns:xlink="http://www.w3.org/1999/xlink" width="100" height="100" viewBox="0 0 100 100"><g><g style="fill:#5c9eff;"><svg fill="#5c9eff" xmlns="http://www.w3.org/2000/svg" xmlns:xlink="http://www.w3.org/1999/xlink" version="1.1" x="0px" y="0px" viewBox="0 0 100 100" enable-background="new 0 0 100 100" xml:space="preserve"><path d="M50,4.4C24.8,4.4,4.4,24.8,4.4,50c0,25.2,20.4,45.6,45.6,45.6c25.2,0,45.6-20.4,45.6-45.6C95.6,24.8,75.2,4.4,50,4.4z   M63.1,68c-2,2.4-4.6,4-7.6,4.9c-1.3,0.4-1.9,1.1-1.8,2.4c0.1,1.3,0,2.7,0,4c0,1.2-0.6,1.8-1.8,1.9c-0.8,0-1.5,0-2.3,0  c-0.7,0-1.4,0-2,0c-1.3,0-1.9-0.7-1.9-2c0-1,0-2,0-3c0-2.2-0.1-2.3-2.2-2.6c-2.7-0.4-5.3-1-7.7-2.2c-1.9-0.9-2.1-1.4-1.6-3.4  c0.4-1.5,0.8-3,1.3-4.5c0.3-1.1,0.7-1.6,1.2-1.6c0.3,0,0.8,0.2,1.3,0.5c2.7,1.4,5.6,2.2,8.6,2.6c0.5,0.1,1,0.1,1.5,0.1  c1.4,0,2.8-0.3,4.1-0.8c3.3-1.5,3.9-5.3,1-7.7c-1-0.8-2.1-1.4-3.2-1.9c-2.9-1.3-6-2.3-8.8-3.9c-4.5-2.7-7.4-6.4-7-11.9  c0.4-6.2,3.9-10.1,9.6-12.1c2.3-0.9,2.4-0.8,2.4-3.3c0-0.8,0-1.7,0-2.5c0-1.8,0.4-2.2,2.2-2.2c0.2,0,0.4,0,0.6,0c0.4,0,0.7,0,1.1,0  c0.1,0,0.3,0,0.4,0c3.5,0,3.5,0.1,3.5,3.9c0,2.8,0,2.8,2.8,3.2c2.1,0.3,4.1,1,6.1,1.8c1.1,0.5,1.5,1.2,1.2,2.4  c-0.5,1.7-0.9,3.4-1.5,5.1c-0.3,1-0.7,1.5-1.3,1.5c-0.3,0-0.7-0.1-1.3-0.4c-2.7-1.3-5.5-1.9-8.5-1.9c-0.4,0-0.8,0-1.1,0  c-0.9,0-1.8,0.2-2.6,0.5c-2.9,1.3-3.4,4.5-0.9,6.5c1.3,1,2.7,1.7,4.2,2.4c2.6,1.1,5.2,2.1,7.6,3.5C66.5,51.5,68.6,61.3,63.1,68z"></path></svg></g></g></svg>