<?xml version="1.0" encoding="UTF-8"?>
<svg width="100px" height="92px" viewBox="0 0 100 92" version="1.1" xmlns="http://www.w3.org/2000/svg" xmlns:xlink="http://www.w3.org/1999/xlink">
    <!-- Generator: Sketch 51 (57462) - http://www.bohemiancoding.com/sketch -->
    <title>easy-to-share</title>
    <desc>Created with Sketch.</desc>
    <defs></defs>
    <g id="Design" stroke="none" stroke-width="1" fill="none" fill-rule="evenodd">
        <g id="Features-Template-V2" transform="translate(-570.000000, -1872.000000)" fill-rule="nonzero">
            <g id="Feature-Copy-9" transform="translate(135.000000, 1818.000000)">
                <g id="easy-to-share" transform="translate(435.000000, 54.000000)">
                    <polygon id="Shape" fill="#FFFFFF" points="25.7976562 8.60180508 25.7976562 83.3981949 24.2361328 83.3981949 0.814648437 83.3981949 0.814648437 16.6892288 7.06035156 8.60180508 24.2361328 8.60180508"></polygon>
                    <rect id="Rectangle-path" fill="#FFFFFF" x="35.1662109" y="44.4418475" width="46.8431641" height="6.23319492"></rect>
                    <path d="M91.3779297,33.534 L88.2552734,28.8591525 L88.2552734,0.810457627 L94.5011719,0.810457627 L94.5011719,7.04345763 L99.1851562,7.04345763 L99.1851562,28.8591525 L94.5011719,33.534 L94.5011719,91.1895424 L28.9205078,91.1895424 C27.1875,91.1895424 25.7976563,89.7867373 25.7976563,88.0732373 C25.7976563,86.3597373 27.1875,84.9565424 28.9205078,84.9565424 L91.3779297,84.9565424 L91.3779297,33.534 Z" id="Shape" fill="#94C1FF"></path>
                    <path d="M27.3591797,88.0732373 C27.3591797,86.3597373 28.7490234,84.9565424 30.4820313,84.9565424 L28.9205078,84.9565424 C27.1875,84.9565424 25.7976562,86.3597373 25.7976562,88.0732373 C25.7976562,89.7867373 27.1875,91.1895424 28.9205078,91.1895424 L30.4820313,91.1895424 C28.7490234,91.1895424 27.3591797,89.7867373 27.3591797,88.0732373 Z" id="Shape" fill="#5C9EFF"></path>
                    <path d="M28.9205078,84.9563475 C27.1875,84.9563475 25.7976562,86.3595424 25.7976562,88.0730424 L25.7976562,83.3981949 L25.7976562,8.60180508 L25.7976562,3.92695763 C25.7976562,2.21287288 27.1875,0.810457627 28.9205078,0.810457627 L88.2552734,0.810457627 L88.2552734,28.8591525 L91.3779297,33.534 L91.3779297,84.9563475 L28.9205078,84.9563475 Z M82.0095703,50.6748475 L82.0095703,44.4416525 L35.1662109,44.4416525 L35.1662109,50.6748475 L82.0095703,50.6748475 Z" id="Shape" fill="#D7E9FF"></path>
                    <path d="M30.4820312,83.3981949 L30.4820312,8.60180508 L30.4820312,3.92695763 C30.4820312,2.21287288 31.871875,0.810457627 33.6048828,0.810457627 L28.9205078,0.810457627 C27.1875,0.810457627 25.7976562,2.21267797 25.7976562,3.92695763 L25.7976562,8.60180508 L25.7976562,83.3981949 L25.7976562,88.0730424 C25.7976562,86.3595424 27.1875,84.9563475 28.9205078,84.9563475 L30.4820312,84.9563475 L30.4820312,83.3981949 Z" id="Shape" fill="#FFFFFF"></path>
                    <rect id="Rectangle-path" fill="#FFFFFF" x="32.0433594" y="84.9563475" width="56.2119141" height="3.11669492"></rect>
                    <rect id="Rectangle-path" fill="#D7E9FF" x="22.6878906" y="8.60180508" width="3.10996094" height="74.7963898"></rect>
                    <g id="Group" fill="#116FFF">
                        <path d="M25.7976562,88.8521186 C25.3660156,88.8521186 25.0167969,88.5038051 25.0167969,88.0732373 L25.0167969,3.92695763 C25.0167969,3.49638983 25.3660156,3.14788136 25.7976562,3.14788136 C26.2291016,3.14788136 26.5783203,3.49638983 26.5783203,3.92695763 L26.5783203,88.0732373 C26.5785156,88.5036102 26.2291016,88.8521186 25.7976562,88.8521186 Z" id="Shape"></path>
                        <path d="M88.2552734,1.58972881 L28.9205078,1.58972881 C28.4890625,1.58972881 28.1396484,1.24122034 28.1396484,0.810457627 C28.1396484,0.379694915 28.4888672,0.0311864407 28.9205078,0.0311864407 L88.2552734,0.0311864407 C88.6867188,0.0311864407 89.0357422,0.379694915 89.0357422,0.810457627 C89.0357422,1.24122034 88.6867188,1.58972881 88.2552734,1.58972881 Z" id="Shape"></path>
                        <path d="M94.5011719,91.9688136 C94.0693359,91.9688136 93.7203125,91.6201102 93.7203125,91.1895424 L93.7203125,33.534 C93.7203125,33.327 93.8027344,33.129161 93.9492188,32.9831695 L98.4046875,28.5365678 L98.4046875,7.82272881 L94.5011719,7.82272881 C94.0693359,7.82272881 93.7203125,7.47422034 93.7203125,7.04345763 L93.7203125,0.810457627 C93.7203125,0.379889831 94.0693359,0.0311864407 94.5011719,0.0311864407 C94.9326172,0.0311864407 95.2816406,0.379694915 95.2816406,0.810457627 L95.2816406,6.26438136 L99.1851563,6.26438136 C99.6166016,6.26438136 99.9660156,6.61288983 99.9660156,7.04345763 L99.9660156,28.8591525 C99.9660156,29.0661525 99.8835938,29.2639915 99.7371094,29.4099831 L95.2816406,33.8563898 L95.2816406,91.1893475 C95.2816406,91.6201102 94.9326172,91.9688136 94.5011719,91.9688136 Z" id="Shape"></path>
                        <path d="M94.5011719,91.9688136 L28.9205078,91.9688136 C28.4890625,91.9688136 28.1396484,91.6201102 28.1396484,91.1895424 C28.1396484,90.7589746 28.4888672,90.410661 28.9205078,90.410661 L94.5009766,90.410661 C94.9324219,90.410661 95.2814453,90.7589746 95.2814453,91.1895424 C95.2814453,91.6201102 94.9326172,91.9688136 94.5011719,91.9688136 Z" id="Shape"></path>
                        <path d="M91.3779297,85.7356186 L28.9205078,85.7356186 C28.4890625,85.7356186 28.1396484,85.3873051 28.1396484,84.9563475 C28.1396484,84.5257797 28.4888672,84.1774661 28.9205078,84.1774661 L91.3779297,84.1774661 C91.809375,84.1774661 92.1587891,84.5257797 92.1587891,84.9563475 C92.1589844,85.3873051 91.809375,85.7356186 91.3779297,85.7356186 Z" id="Shape"></path>
                        <path d="M88.2552734,88.8521186 L32.0433594,88.8521186 C31.6119141,88.8521186 31.2625,88.5038051 31.2625,88.0732373 C31.2625,87.6426695 31.6117188,87.2939661 32.0433594,87.2939661 L88.2552734,87.2939661 C88.6867188,87.2939661 89.0357422,87.6426695 89.0357422,88.0732373 C89.0357422,88.5038051 88.6867188,88.8521186 88.2552734,88.8521186 Z" id="Shape"></path>
                        <path d="M28.9205078,91.9688136 C26.7681641,91.9688136 25.0169922,90.2217881 25.0169922,88.0732373 C25.0169922,85.9246864 26.7681641,84.177661 28.9205078,84.177661 C29.3519531,84.177661 29.7013672,84.5259746 29.7013672,84.9565424 C29.7013672,85.3875 29.3521484,85.7358136 28.9205078,85.7358136 C27.6289062,85.7358136 26.5783203,86.7842627 26.5783203,88.0732373 C26.5783203,89.3622119 27.6289062,90.410661 28.9205078,90.410661 C29.3519531,90.410661 29.7013672,90.7589746 29.7013672,91.1895424 C29.7013672,91.6201102 29.3521484,91.9688136 28.9205078,91.9688136 Z" id="Shape"></path>
                        <path d="M25.7976562,4.70622881 C25.3660156,4.70622881 25.0167969,4.35772034 25.0167969,3.92695763 C25.0167969,1.77899153 26.7679688,0.0313813559 28.9203125,0.0313813559 C29.3517578,0.0313813559 29.7011719,0.379889831 29.7011719,0.810652542 C29.7011719,1.24141525 29.3519531,1.58992373 28.9203125,1.58992373 C27.6287109,1.58992373 26.578125,2.63837288 26.578125,3.92715254 C26.5785156,4.35772034 26.2291016,4.70622881 25.7976562,4.70622881 Z" id="Shape"></path>
                        <path d="M96.0625,26.5217288 C95.6310547,26.5217288 95.2816406,26.1732203 95.2816406,25.7424576 L95.2816406,11.7183051 C95.2816406,11.2877373 95.6310547,10.9390339 96.0625,10.9390339 C96.4939453,10.9390339 96.8429687,11.2875424 96.8429687,11.7183051 L96.8429687,25.7426525 C96.8429688,26.1734153 96.4939453,26.5217288 96.0625,26.5217288 Z" id="Shape"></path>
                        <path d="M91.3779297,85.7356186 C90.9464844,85.7356186 90.5974609,85.3873051 90.5974609,84.9563475 L90.5974609,33.7698475 L87.6056641,29.2912797 C87.5201172,29.1634153 87.4744141,29.0127458 87.4744141,28.8591525 L87.4744141,0.810457627 C87.4744141,0.379889831 87.8234375,0.0311864407 88.2552734,0.0311864407 C88.6867187,0.0311864407 89.0357422,0.379694915 89.0357422,0.810457627 L89.0357422,28.6233051 L92.0275391,33.1018729 C92.1130859,33.2297373 92.1587891,33.3804068 92.1587891,33.534 L92.1587891,84.9563475 C92.1589844,85.3873051 91.809375,85.7356186 91.3779297,85.7356186 Z" id="Shape"></path>
                        <path d="M94.5011719,1.58972881 L88.2552734,1.58972881 C87.8234375,1.58972881 87.4744141,1.24122034 87.4744141,0.810457627 C87.4744141,0.379694915 87.8234375,0.0311864407 88.2552734,0.0311864407 L94.5011719,0.0311864407 C94.9326172,0.0311864407 95.2816406,0.379694915 95.2816406,0.810457627 C95.2816406,1.24122034 94.9326172,1.58972881 94.5011719,1.58972881 Z" id="Shape"></path>
                        <path d="M24.2361328,84.1774661 L0.814648438,84.1774661 C0.383203125,84.1774661 0.033984375,83.8287627 0.033984375,83.3981949 L0.033984375,14.8348051 C0.033984375,14.6278051 0.116210938,14.430161 0.262695313,14.2839746 L6.50839844,8.05097458 C6.65488281,7.90478814 6.85292969,7.82272881 7.06035156,7.82272881 L24.2361328,7.82272881 C24.6677734,7.82272881 25.0169922,8.17123729 25.0169922,8.60180508 C25.0169922,9.03237288 24.6677734,9.38107627 24.2361328,9.38107627 L7.38378906,9.38107627 L1.5953125,15.1573898 L1.5953125,82.6193136 L24.2361328,82.6193136 C24.6677734,82.6193136 25.0169922,82.9676271 25.0169922,83.3981949 C25.0169922,83.8287627 24.6677734,84.1774661 24.2361328,84.1774661 Z" id="Shape"></path>
                        <path d="M8.621875,17.1722288 C8.19042969,17.1722288 7.84121094,16.8237203 7.84121094,16.3931525 L7.84121094,11.7183051 C7.84121094,11.2877373 8.19042969,10.9390339 8.621875,10.9390339 C9.05332031,10.9390339 9.40253906,11.2875424 9.40253906,11.7183051 L9.40253906,16.3931525 C9.40253906,16.8237203 9.05351562,17.1722288 8.621875,17.1722288 Z" id="Shape"></path>
                        <path d="M8.621875,17.1722288 L3.93769531,17.1722288 C3.50605469,17.1722288 3.15683594,16.8237203 3.15683594,16.3931525 C3.15683594,15.9623898 3.50605469,15.6138814 3.93769531,15.6138814 L8.621875,15.6138814 C9.05332031,15.6138814 9.40253906,15.9623898 9.40253906,16.3931525 C9.40253906,16.8237203 9.05351562,17.1722288 8.621875,17.1722288 Z" id="Shape"></path>
                        <path d="M24.2361328,35.8714237 L10.1833984,35.8714237 C9.75195312,35.8714237 9.40253906,35.5229153 9.40253906,35.0923475 C9.40253906,34.6615847 9.75175781,34.3130763 10.1833984,34.3130763 L24.2363281,34.3130763 C24.6679688,34.3130763 25.0171875,34.6615847 25.0171875,35.0923475 C25.0169922,35.5229153 24.6677734,35.8714237 24.2361328,35.8714237 Z" id="Shape"></path>
                        <path d="M24.2361328,42.1044237 L10.1833984,42.1044237 C9.75195312,42.1044237 9.40253906,41.7559153 9.40253906,41.3251525 C9.40253906,40.8943898 9.75175781,40.5458814 10.1833984,40.5458814 L24.2363281,40.5458814 C24.6679688,40.5458814 25.0171875,40.8943898 25.0171875,41.3251525 C25.0171875,41.7559153 24.6677734,42.1044237 24.2361328,42.1044237 Z" id="Shape"></path>
                        <path d="M24.2361328,48.3374237 L10.1833984,48.3374237 C9.75195312,48.3374237 9.40253906,47.9891102 9.40253906,47.5581525 C9.40253906,47.1275847 9.75175781,46.7792712 10.1833984,46.7792712 L24.2363281,46.7792712 C24.6679688,46.7792712 25.0171875,47.1275847 25.0171875,47.5581525 C25.0169922,47.9891102 24.6677734,48.3374237 24.2361328,48.3374237 Z" id="Shape"></path>
                        <path d="M24.2361328,54.5706186 L10.1833984,54.5706186 C9.75195312,54.5706186 9.40253906,54.2219153 9.40253906,53.7913475 C9.40253906,53.3607797 9.75175781,53.0124661 10.1833984,53.0124661 L24.2363281,53.0124661 C24.6679688,53.0124661 25.0171875,53.3607797 25.0171875,53.7913475 C25.0171875,54.2219153 24.6677734,54.5706186 24.2361328,54.5706186 Z" id="Shape"></path>
                        <path d="M24.2361328,60.8036186 L10.1833984,60.8036186 C9.75195312,60.8036186 9.40253906,60.4549153 9.40253906,60.0243475 C9.40253906,59.5937797 9.75175781,59.2450763 10.1833984,59.2450763 L24.2363281,59.2450763 C24.6679688,59.2450763 25.0171875,59.5937797 25.0171875,60.0243475 C25.0171875,60.4549153 24.6677734,60.8036186 24.2361328,60.8036186 Z" id="Shape"></path>
                        <path d="M82.0095703,51.4537288 L35.1662109,51.4537288 C34.7347656,51.4537288 34.3855469,51.1054153 34.3855469,50.6748475 L34.3855469,44.4416525 C34.3855469,44.0110847 34.7347656,43.6623814 35.1662109,43.6623814 L82.009375,43.6623814 C82.4408203,43.6623814 82.7898437,44.0108898 82.7898437,44.4416525 L82.7898437,50.6748475 C82.7900391,51.1054153 82.4410156,51.4537288 82.0095703,51.4537288 Z M35.9470703,49.8955763 L81.2287109,49.8955763 L81.2287109,45.2209237 L35.9470703,45.2209237 L35.9470703,49.8955763 Z" id="Shape"></path>
                        <path d="M78.8863281,48.3374237 L38.2892578,48.3374237 C37.8578125,48.3374237 37.5085938,47.9891102 37.5085938,47.5581525 C37.5085938,47.1275847 37.8578125,46.7792712 38.2892578,46.7792712 L78.8865234,46.7792712 C79.3183594,46.7792712 79.6673828,47.1275847 79.6673828,47.5581525 C79.6671875,47.9891102 79.3181641,48.3374237 78.8863281,48.3374237 Z" id="Shape"></path>
                    </g>
                </g>
            </g>
        </g>
    </g>
</svg>