<?xml version="1.0" encoding="UTF-8"?>
<svg width="100px" height="92px" viewBox="0 0 100 92" version="1.1" xmlns="http://www.w3.org/2000/svg" xmlns:xlink="http://www.w3.org/1999/xlink">
    <!-- Generator: Sketch 51 (57462) - http://www.bohemiancoding.com/sketch -->
    <title>measure-engagement</title>
    <desc>Created with Sketch.</desc>
    <defs></defs>
    <g id="Design" stroke="none" stroke-width="1" fill="none" fill-rule="evenodd">
        <g id="Features-Template-V2" transform="translate(-570.000000, -2464.000000)" fill-rule="nonzero">
            <g id="Feature" transform="translate(135.000000, 2410.000000)">
                <g id="measure-engagement" transform="translate(435.000000, 54.000000)">
                    <g id="Group" transform="translate(0.996419, 1.001980)">
                        <path d="M97.6370291,61.7111053 L97.6370291,68.0563368 C97.6370291,70.6596655 95.5459059,72.7909892 92.9882372,72.7909892 L48.8245207,72.7909892 L48.8245207,69.6021927 C50.1108144,69.6021927 51.1487229,68.5451145 51.1487229,67.2350638 C51.1487229,65.9250131 50.1108144,64.8675403 48.8245207,64.8675403 L48.8245207,61.7111053 L97.6370291,61.7111053 Z" id="Shape" fill="#FFFFFF"></path>
                        <path d="M48.8245207,64.8675403 C50.1108144,64.8675403 51.1487229,65.9250131 51.1487229,67.2350638 C51.1487229,68.5451145 50.1108144,69.6021927 48.8245207,69.6021927 C47.5382271,69.6021927 46.5001248,68.5451145 46.5001248,67.2350638 C46.5001248,65.9250131 47.5382271,64.8675403 48.8245207,64.8675403 Z" id="Shape" fill="#94C1FF"></path>
                        <path d="M97.6370291,68.0565341 L97.6370291,71.1806075 C97.6370291,73.8486593 95.606549,75.9152599 92.9882372,75.9152599 C91.8896855,75.9152599 76.5177114,75.9152599 58.8817908,75.9152599 C52.2811806,75.9152599 45.3682484,75.9152599 38.7674445,75.9152599 C21.1346238,75.9152599 5.76264969,75.9152599 4.660998,75.9152599 C2.0430737,75.9152599 0.0122061302,73.8486593 0.0122061302,71.1806075 L0.0122061302,68.0565341 C0.0122061302,70.6598628 2.10507309,72.7911865 4.660998,72.7911865 L48.8245207,72.7911865 L92.9880435,72.7911865 C95.5459059,72.7911865 97.6370291,70.6598628 97.6370291,68.0565341 Z" id="Shape" fill="#D7E9FF"></path>
                        <path d="M58.881597,75.9152599 L61.9807916,90.1192172 L35.6680561,90.1192172 L38.7672507,75.9152599 C45.3682484,75.9152599 52.2809868,75.9152599 58.881597,75.9152599 Z" id="Shape" fill="#D7E9FF"></path>
                        <path d="M1.60094054,71.5874948 C0.635493762,70.7184688 0.0120123821,69.4634721 0.0120123821,68.0563368 L0.0120123821,71.1804102 C0.0120123821,73.848462 2.04287995,75.9150626 4.66080425,75.9150626 C4.83479004,75.9150626 5.37205352,75.9150626 6.21040154,75.9150626 C3.72868215,75.9152599 1.79933859,74.0517083 1.60094054,71.5874948 Z" id="Shape" fill="#FFFFFF"></path>
                        <path d="M96.0479072,71.5874948 C95.8510591,74.0517083 93.9205531,75.9152599 91.4384462,75.9152599 C92.276988,75.9152599 92.8154139,75.9152599 92.9880435,75.9152599 C95.6063553,75.9152599 97.6368354,73.8486593 97.6368354,71.1806075 L97.6368354,68.0565341 C97.6370291,69.4634721 97.0137415,70.7184688 96.0479072,71.5874948 Z" id="Shape" fill="#94C1FF"></path>
                        <path d="M48.8245207,69.60239 L48.8245207,72.7911865 L4.66080425,72.7911865 C2.10487934,72.7911865 0.0120123821,70.6598628 0.0120123821,68.0565341 L0.0120123821,68.0241725 L0.0120123821,61.7113026 L48.8245207,61.7113026 L48.8245207,64.8677376 C47.5382271,64.8677376 46.5001248,65.9252104 46.5001248,67.2352611 C46.5001248,68.5453119 47.5382271,69.60239 48.8245207,69.60239 Z" id="Shape" fill="#FFFFFF"></path>
                        <path d="M97.6370291,4.92763776 L97.6370291,61.7113026 L48.8245207,61.7113026 L0.0120123821,61.7113026 L0.0120123821,4.92763776 C0.0120123821,2.32292775 2.10487934,0.192985333 4.66080425,0.192985333 L92.9880435,0.192985333 C95.5459059,0.192985333 97.6370291,2.32292775 97.6370291,4.92763776 Z M92.9880435,56.9764529 L92.9880435,8.05171116 L92.9880435,4.89527621 L89.8888489,4.89527621 L86.7896543,4.89527621 L82.1408625,4.89527621 L79.0416679,4.89527621 L75.9424733,4.89527621 L72.8432787,4.89527621 L69.7440842,4.89527621 L35.6529438,4.89527621 L29.4545546,4.89527621 L23.2561655,4.89527621 L17.0577763,4.89527621 L10.8591934,4.89527621 L4.66080425,4.89527621 L4.66080425,8.05171116 L4.66080425,56.9764529 L92.9880435,56.9764529 Z" id="Shape" fill="#94C1FF"></path>
                        <path d="M6.21040154,0.192985333 L4.66080425,0.192985333 C2.10487934,0.192985333 0.0120123821,2.32292775 0.0120123821,4.92763776 L0.0120123821,61.7113026 L1.56160967,61.7113026 L1.56160967,4.92763776 C1.56160967,2.32292775 3.65447663,0.192985333 6.21040154,0.192985333 Z" id="Shape" fill="#D7E9FF"></path>
                        <path d="M92.9880435,0.192985333 L91.4384462,0.192985333 C93.9961149,0.192985333 96.0872381,2.32292775 96.0872381,4.92763776 L96.0872381,61.7113026 L97.6368354,61.7113026 L97.6368354,4.92763776 C97.6370291,2.32292775 95.5459059,0.192985333 92.9880435,0.192985333 Z" id="Shape" fill="#5C9EFF"></path>
                        <path d="M59.2266624,77.4934774 L58.881597,75.9152599 C52.2809868,75.9152599 45.3680547,75.9152599 38.7672507,75.9152599 L38.4221854,77.4934774 C45.3289176,77.4934774 52.3203177,77.4934774 59.2266624,77.4934774 Z" id="Shape" fill="#94C1FF"></path>
                        <path d="M57.6770651,77.4934774 L60.4311943,90.1192172 L61.9807916,90.1192172 L59.2266624,77.4934774 C58.7095487,77.4934774 58.1918538,77.4934774 57.6770651,77.4934774 Z" id="Shape" fill="#94C1FF"></path>
                        <path d="M39.9748826,77.4934774 L37.2178472,90.1192172 L35.6682499,90.1192172 L38.4252853,77.4934774 C38.9396865,77.4934774 39.4573814,77.4934774 39.9748826,77.4934774 Z" id="Shape" fill="#FFFFFF"></path>
                    </g>
                    <rect id="Rectangle-path" fill="#FFFFFF" x="8.96776912" y="5.00990099" width="40.8531704" height="52.1029703"></rect>
                    <g id="Group" opacity="0.3" transform="translate(49.820940, 5.009901)" fill="#FFFFFF">
                        <rect id="Rectangle-path" x="-2.84217094e-14" y="0.191109763" width="2.84577207" height="51.763023"></rect>
                    </g>
                    <rect id="Rectangle-path" fill="#D7E9FF" x="4.98209395" y="5.00990099" width="2.98925637" height="52.1029703"></rect>
                    <path d="M88.3666138,48.6414226 L89.9399066,48.6414226 L89.9399066,28.1160879 L55.3272677,28.1160879 L55.3272677,48.6414226 L61.620439,48.6414226 L67.9136103,48.6414226 L88.3666138,48.6414226 Z M49.8209395,6.01188119 L94.6597851,6.01188119 L94.6597851,58.1148515 L49.8209395,58.1148515 L49.8209395,23.3794722 L49.8209395,10.7484969 L49.8209395,6.01188119 Z" id="Shape" fill="#FFFFFF"></path>
                    <polygon id="Shape" fill="#94C1FF" points="51.8137771 23.0455446 51.8137771 10.019802 51.8137771 10.019802 88.6812724 10.019802 88.6812724 23.0455446"></polygon>
                    <polygon id="Shape" fill="#D7E9FF" points="70.7457341 42.5240246 67.7869676 47.0930693 61.777965 47.0930693 67.7869676 38.0752475"></polygon>
                    <polygon id="Shape" fill="#D7E9FF" points="77.7208574 32.0633663 87.6848536 48.0950495 67.7564778 48.0950495 70.7758067 43.2214018"></polygon>
                    <path d="M64.0425007,33.2194973 C64.0425007,31.5093447 62.6725997,30.1364813 60.9626783,30.1364813 C59.253142,30.1364813 57.8828559,31.5095375 57.8828559,33.2194973 C57.8828559,34.9161584 59.253142,36.3025133 60.9626783,36.3025133 C62.6725997,36.3025133 64.0425007,34.9161584 64.0425007,33.2194973 Z M54.8030335,27.0534653 L88.6812724,27.0534653 L88.6812724,47.0930693 L87.1413612,47.0930693 L77.1321309,31.6779893 L70.1555515,42.4068696 L67.1223231,37.8440213 L60.9626783,47.0930693 L54.8030335,47.0930693 L54.8030335,27.0534653 Z" id="Shape" fill="#94C1FF"></path>
                    <path d="M61.777965,31.0613861 C63.4376041,31.0613861 64.7672214,32.4001159 64.7672214,34.0673267 C64.7672214,35.7215712 63.4376041,37.0732673 61.777965,37.0732673 C60.1186998,37.0732673 58.7887087,35.7215712 58.7887087,34.0673267 C58.7887087,32.4001159 60.1186998,31.0613861 61.777965,31.0613861 Z" id="Shape" fill="#FFFFFF"></path>
                    <rect id="Rectangle-path" fill="#D7E9FF" x="47.828102" y="5.00990099" width="1.99283758" height="52.1029703"></rect>
                    <g id="Group" opacity="0.3" transform="translate(54.803033, 27.053465)" fill="#FFFFFF">
                        <rect id="Rectangle-path" x="0.219654987" y="0.020039604" width="1.77096833" height="20.8359778"></rect>
                    </g>
                    <rect id="Rectangle-path" fill="#5C9EFF" x="87.6848536" y="27.0534653" width="1.99283758" height="20.039604"></rect>
                    <rect id="Rectangle-path" fill="#5C9EFF" x="87.6848536" y="10.019802" width="1.99283758" height="13.0257426"></rect>
                    <g id="Group" fill="#116FFF">
                        <path d="M98.8513609,62.8632443 L0.790518189,62.8632443 C0.360423359,62.8632443 0.0122606218,62.5116896 0.0122606218,62.0772081 C0.0122606218,61.6431196 0.360423359,61.2915649 0.790518189,61.2915649 L98.8511663,61.2915649 C99.2814557,61.2915649 99.6296185,61.6431196 99.6296185,62.0772081 C99.6298131,62.5116896 99.2814557,62.8632443 98.8513609,62.8632443 Z" id="Shape"></path>
                        <path d="M49.8209395,70.7218376 C48.1048417,70.7218376 46.7079093,69.3112957 46.7079093,67.5784789 C46.7079093,65.84409 48.1048417,64.4351202 49.8209395,64.4351202 C51.5370374,64.4351202 52.9339698,65.84409 52.9339698,67.5784789 C52.9339698,69.3112957 51.5370374,70.7218376 49.8209395,70.7218376 Z M49.8209395,66.006603 C48.9621122,66.006603 48.2644244,66.7108914 48.2644244,67.5782824 C48.2644244,68.4437082 48.9621122,69.1499617 49.8209395,69.1499617 C50.6795723,69.1499617 51.3774547,68.4437082 51.3774547,67.5782824 C51.3774547,66.7108914 50.6795723,66.006603 49.8209395,66.006603 Z" id="Shape"></path>
                        <path d="M36.6057407,91.1536693 C36.5510544,91.1536693 36.4932544,91.1475775 36.4370112,91.1351974 C36.0174255,91.0400871 35.7529464,90.6209333 35.8457768,90.1972598 L38.958807,76.0521455 C39.0514429,75.6304371 39.4634387,75.3663289 39.8875005,75.4553475 C40.3070862,75.5490823 40.5715653,75.9692187 40.4789295,76.3928922 L37.3657047,90.5380065 C37.2851349,90.9035133 36.9628557,91.1536693 36.6057407,91.1536693 Z" id="Shape"></path>
                        <path d="M63.0359438,91.1536693 C62.6790234,91.1536693 62.3567442,90.9035133 62.2761744,90.5380065 L59.1631442,76.3928922 C59.0703137,75.9692187 59.3349875,75.5488858 59.7545732,75.4553475 C60.1799973,75.3663289 60.5904362,75.6304371 60.683072,76.0521455 L63.7961023,90.1972598 C63.8889327,90.6209333 63.624259,91.0400871 63.2046733,91.1351974 C63.1484301,91.1475775 63.0908246,91.1536693 63.0359438,91.1536693 Z" id="Shape"></path>
                        <path d="M65.3860909,91.1536693 L34.2557882,91.1536693 C33.8254988,91.1536693 33.4775306,90.8021146 33.4775306,90.3676331 C33.4775306,89.9331516 33.8254988,89.5819899 34.2557882,89.5819899 L65.3860909,89.5819899 C65.8163803,89.5819899 66.1641538,89.9331516 66.1641538,90.3676331 C66.1641538,90.8021146 65.8163803,91.1536693 65.3860909,91.1536693 Z" id="Shape"></path>
                        <path d="M94.1816209,58.1788616 L5.46006359,58.1788616 C5.02996876,58.1788616 4.68180603,57.8273069 4.68180603,57.3928254 L4.68180603,5.52740649 C4.68180603,5.09312149 5.02996876,4.74156681 5.46006359,4.74156681 L94.1816209,4.74156681 C94.6119103,4.74156681 94.9600731,5.09312149 94.9600731,5.52740649 L94.9600731,57.3930219 C94.9600731,57.8273069 94.6119103,58.1788616 94.1816209,58.1788616 Z M6.23832116,56.6071822 L93.4035579,56.6071822 L93.4035579,6.31324617 L6.23832116,6.31324617 L6.23832116,56.6071822 Z" id="Shape"></path>
                        <path d="M94.1816209,73.8958517 L5.46006359,73.8958517 C2.45640586,73.8958517 0.0122606218,71.4275016 0.0122606218,68.3947775 C0.0122606218,68.3902578 0.0122606218,68.3839695 0.0122606218,68.3794498 C0.0122606218,68.37493 0.0122606218,68.3686418 0.0122606218,68.364122 L0.0122606218,5.52740649 C0.0122606218,2.49448585 2.45660047,0.0265287214 5.46006359,0.0265287214 L94.1816209,0.0265287214 C97.1852786,0.0265287214 99.6296185,2.49448585 99.6296185,5.52740649 L99.6296185,68.3947775 C99.6298131,71.4275016 97.1852786,73.8958517 94.1816209,73.8958517 Z M1.56877576,68.3794498 C1.56877576,68.3839695 1.56877576,68.3902578 1.56877576,68.3947775 C1.56877576,70.5620757 3.31387093,72.3241724 5.46006359,72.3241724 L94.1816209,72.3241724 C96.3280081,72.3241724 98.0731033,70.5620757 98.0731033,68.3947775 L98.0731033,5.52740649 C98.0731033,3.36168027 96.3280081,1.59820808 94.1816209,1.59820808 L5.46006359,1.59820808 C3.31387093,1.59820808 1.56877576,3.36168027 1.56877576,5.52740649 L1.56877576,68.364122 C1.56877576,68.3686418 1.56877576,68.3747335 1.56877576,68.3794498 Z" id="Shape"></path>
                        <path d="M94.1816209,77.008555 L5.46006359,77.008555 C2.4048334,77.008555 0.0122606218,74.5909042 0.0122606218,71.5074808 L0.0122606218,68.3947775 C0.0122606218,67.960689 0.360423359,67.5938066 0.790518189,67.5938066 C1.22061302,67.5938066 1.56877576,67.9300336 1.56877576,68.364122 L1.56877576,71.5074808 C1.56877576,73.7468979 3.24244794,75.4368757 5.46006359,75.4368757 L94.1816209,75.4368757 C96.3994311,75.4368757 98.0731033,73.7468979 98.0731033,71.5074808 L98.0731033,68.3947775 C98.0731033,67.960689 98.4212661,67.6091343 98.8511663,67.6091343 C99.2814557,67.6091343 99.6296185,67.960689 99.6296185,68.3947775 L99.6296185,71.5074808 C99.6298131,74.5909042 97.2370457,77.008555 94.1816209,77.008555 Z" id="Shape"></path>
                        <path d="M8.57309386,58.1788616 C8.14299903,58.1788616 7.79483629,57.8273069 7.79483629,57.3928254 L7.79483629,5.52740649 C7.79483629,5.09312149 8.14299903,4.74156681 8.57309386,4.74156681 C9.00318869,4.74156681 9.35135143,5.09312149 9.35135143,5.52740649 L9.35135143,57.3930219 C9.35135143,57.8273069 9.0033833,58.1788616 8.57309386,58.1788616 Z" id="Shape"></path>
                        <path d="M7.01657873,11.0282843 L5.46006359,11.0282843 C5.02996876,11.0282843 4.68180603,10.6767296 4.68180603,10.2424446 C4.68180603,9.80815958 5.02996876,9.45660489 5.46006359,9.45660489 L7.01657873,9.45660489 C7.44667356,9.45660489 7.79483629,9.80815958 7.79483629,10.2424446 C7.79483629,10.6767296 7.44686817,11.0282843 7.01657873,11.0282843 Z" id="Shape"></path>
                        <path d="M7.01657873,15.7433223 L5.46006359,15.7433223 C5.02996876,15.7433223 4.68180603,15.3919642 4.68180603,14.9574827 C4.68180603,14.5231977 5.02996876,14.171643 5.46006359,14.171643 L7.01657873,14.171643 C7.44667356,14.171643 7.79483629,14.5231977 7.79483629,14.9574827 C7.79483629,15.3919642 7.44686817,15.7433223 7.01657873,15.7433223 Z" id="Shape"></path>
                        <path d="M7.01657873,20.4583604 L5.46006359,20.4583604 C5.02996876,20.4583604 4.68180603,20.1070022 4.68180603,19.6725207 C4.68180603,19.2382357 5.02996876,18.8866811 5.46006359,18.8866811 L7.01657873,18.8866811 C7.44667356,18.8866811 7.79483629,19.2382357 7.79483629,19.6725207 C7.79483629,20.1070022 7.44686817,20.4583604 7.01657873,20.4583604 Z" id="Shape"></path>
                        <path d="M7.01657873,25.1733985 L5.46006359,25.1733985 C5.02996876,25.1733985 4.68180603,24.8220403 4.68180603,24.3875588 C4.68180603,23.9532738 5.02996876,23.6017191 5.46006359,23.6017191 L7.01657873,23.6017191 C7.44667356,23.6017191 7.79483629,23.9532738 7.79483629,24.3875588 C7.79483629,24.8220403 7.44686817,25.1733985 7.01657873,25.1733985 Z" id="Shape"></path>
                        <path d="M7.01657873,29.8884366 L5.46006359,29.8884366 C5.02996876,29.8884366 4.68180603,29.5370784 4.68180603,29.1025969 C4.68180603,28.6683119 5.02996876,28.3167572 5.46006359,28.3167572 L7.01657873,28.3167572 C7.44667356,28.3167572 7.79483629,28.6683119 7.79483629,29.1025969 C7.79483629,29.5370784 7.44686817,29.8884366 7.01657873,29.8884366 Z" id="Shape"></path>
                        <path d="M7.01657873,34.6034747 L5.46006359,34.6034747 C5.02996876,34.6034747 4.68180603,34.25192 4.68180603,33.817635 C4.68180603,33.38335 5.02996876,33.0317953 5.46006359,33.0317953 L7.01657873,33.0317953 C7.44667356,33.0317953 7.79483629,33.38335 7.79483629,33.817635 C7.79483629,34.2521165 7.44686817,34.6034747 7.01657873,34.6034747 Z" id="Shape"></path>
                        <path d="M7.01657873,39.3185128 L5.46006359,39.3185128 C5.02996876,39.3185128 4.68180603,38.9669581 4.68180603,38.5326731 C4.68180603,38.0983881 5.02996876,37.7468334 5.46006359,37.7468334 L7.01657873,37.7468334 C7.44667356,37.7468334 7.79483629,38.0983881 7.79483629,38.5326731 C7.79483629,38.9671546 7.44686817,39.3185128 7.01657873,39.3185128 Z" id="Shape"></path>
                        <path d="M7.01657873,44.0337474 L5.46006359,44.0337474 C5.02996876,44.0337474 4.68180603,43.6821927 4.68180603,43.2479077 C4.68180603,42.8136227 5.02996876,42.462068 5.46006359,42.462068 L7.01657873,42.462068 C7.44667356,42.462068 7.79483629,42.8136227 7.79483629,43.2479077 C7.79483629,43.6821927 7.44686817,44.0337474 7.01657873,44.0337474 Z" id="Shape"></path>
                        <path d="M7.01657873,48.7487854 L5.46006359,48.7487854 C5.02996876,48.7487854 4.68180603,48.3972308 4.68180603,47.9627492 C4.68180603,47.5286608 5.02996876,47.1771061 5.46006359,47.1771061 L7.01657873,47.1771061 C7.44667356,47.1771061 7.79483629,47.5286608 7.79483629,47.9627492 C7.79483629,48.3972308 7.44686817,48.7487854 7.01657873,48.7487854 Z" id="Shape"></path>
                        <path d="M7.01657873,53.4638235 L5.46006359,53.4638235 C5.02996876,53.4638235 4.68180603,53.1122688 4.68180603,52.6777873 C4.68180603,52.2436988 5.02996876,51.8921442 5.46006359,51.8921442 L7.01657873,51.8921442 C7.44667356,51.8921442 7.79483629,52.2436988 7.79483629,52.6777873 C7.79483629,53.1122688 7.44686817,53.4638235 7.01657873,53.4638235 Z" id="Shape"></path>
                        <path d="M19.4688944,11.0282843 L13.2426393,11.0282843 C12.8125444,11.0282843 12.4643817,10.6767296 12.4643817,10.2424446 C12.4643817,9.80815958 12.8125444,9.45660489 13.2426393,9.45660489 L19.4686998,9.45660489 C19.8987946,9.45660489 20.2469574,9.80815958 20.2469574,10.2424446 C20.2469574,10.6767296 19.8989892,11.0282843 19.4688944,11.0282843 Z" id="Shape"></path>
                        <path d="M44.3731366,15.7433223 L25.6947603,15.7433223 C25.2644709,15.7433223 24.9165028,15.3919642 24.9165028,14.9574827 C24.9165028,14.5231977 25.2644709,14.171643 25.6947603,14.171643 L44.3731366,14.171643 C44.8032314,14.171643 45.1513941,14.5231977 45.1513941,14.9574827 C45.1513941,15.3919642 44.8032314,15.7433223 44.3731366,15.7433223 Z" id="Shape"></path>
                        <path d="M22.5819247,15.7433223 L14.799349,15.7433223 C14.3692542,15.7433223 14.0210914,15.3919642 14.0210914,14.9574827 C14.0210914,14.5231977 14.3692542,14.171643 14.799349,14.171643 L22.5819247,14.171643 C23.0120195,14.171643 23.3601823,14.5231977 23.3601823,14.9574827 C23.3601823,15.3919642 23.0120195,15.7433223 22.5819247,15.7433223 Z" id="Shape"></path>
                        <path d="M44.3731366,20.4583604 L42.8166214,20.4583604 C42.386332,20.4583604 42.0383639,20.1070022 42.0383639,19.6725207 C42.0383639,19.2382357 42.386332,18.8866811 42.8166214,18.8866811 L44.3731366,18.8866811 C44.8032314,18.8866811 45.1513941,19.2382357 45.1513941,19.6725207 C45.1513941,20.1070022 44.8032314,20.4583604 44.3731366,20.4583604 Z" id="Shape"></path>
                        <path d="M39.7035912,20.4583604 L16.3556695,20.4583604 C15.9255747,20.4583604 15.577412,20.1070022 15.577412,19.6725207 C15.577412,19.2382357 15.9255747,18.8866811 16.3556695,18.8866811 L39.7035912,18.8866811 C40.133686,18.8866811 40.4818487,19.2382357 40.4818487,19.6725207 C40.4818487,20.1070022 40.133686,20.4583604 39.7035912,20.4583604 Z" id="Shape"></path>
                        <path d="M21.0254096,29.8884366 L16.3556695,29.8884366 C15.9255747,29.8884366 15.577412,29.5370784 15.577412,29.1025969 C15.577412,28.6683119 15.9255747,28.3167572 16.3556695,28.3167572 L21.0252149,28.3167572 C21.4553098,28.3167572 21.8034725,28.6683119 21.8034725,29.1025969 C21.8036671,29.5370784 21.4555044,29.8884366 21.0254096,29.8884366 Z" id="Shape"></path>
                        <path d="M44.3731366,29.8884366 L24.1384398,29.8884366 C23.708345,29.8884366 23.3601823,29.5370784 23.3601823,29.1025969 C23.3601823,28.6683119 23.708345,28.3167572 24.1384398,28.3167572 L44.3733312,28.3167572 C44.803426,28.3167572 45.1515888,28.6683119 45.1515888,29.1025969 C45.1513941,29.5370784 44.8032314,29.8884366 44.3731366,29.8884366 Z" id="Shape"></path>
                        <path d="M44.3731366,25.1733985 L17.9123793,25.1733985 C17.4822845,25.1733985 17.1341217,24.8220403 17.1341217,24.3875588 C17.1341217,23.9532738 17.4822845,23.6017191 17.9123793,23.6017191 L44.3733312,23.6017191 C44.803426,23.6017191 45.1515888,23.9532738 45.1515888,24.3875588 C45.1513941,24.8220403 44.8032314,25.1733985 44.3731366,25.1733985 Z" id="Shape"></path>
                        <path d="M44.3731366,34.6034747 L38.147076,34.6034747 C37.7167866,34.6034747 37.3688185,34.25192 37.3688185,33.817635 C37.3688185,33.38335 37.7167866,33.0317953 38.147076,33.0317953 L44.3731366,33.0317953 C44.8032314,33.0317953 45.1513941,33.38335 45.1513941,33.817635 C45.1513941,34.2521165 44.8032314,34.6034747 44.3731366,34.6034747 Z" id="Shape"></path>
                        <path d="M39.7035912,39.3185128 L14.7991544,39.3185128 C14.3690596,39.3185128 14.0208968,38.9669581 14.0208968,38.5326731 C14.0208968,38.0983881 14.3690596,37.7468334 14.7991544,37.7468334 L39.7035912,37.7468334 C40.133686,37.7468334 40.4818487,38.0983881 40.4818487,38.5326731 C40.4818487,38.9671546 40.133686,39.3185128 39.7035912,39.3185128 Z" id="Shape"></path>
                        <path d="M27.2514701,48.7487854 L14.7991544,48.7487854 C14.3690596,48.7487854 14.0208968,48.3972308 14.0208968,47.9627492 C14.0208968,47.5286608 14.3690596,47.1771061 14.7991544,47.1771061 L27.2512755,47.1771061 C27.6813703,47.1771061 28.029533,47.5286608 28.029533,47.9627492 C28.0297277,48.3972308 27.6815649,48.7487854 27.2514701,48.7487854 Z" id="Shape"></path>
                        <path d="M44.3731366,44.0337474 L36.5905609,44.0337474 C36.1602715,44.0337474 35.8123033,43.6821927 35.8123033,43.2479077 C35.8123033,42.8136227 36.1602715,42.462068 36.5905609,42.462068 L44.3731366,42.462068 C44.8032314,42.462068 45.1513941,42.8136227 45.1513941,43.2479077 C45.1513941,43.6821927 44.8032314,44.0337474 44.3731366,44.0337474 Z" id="Shape"></path>
                        <path d="M33.4775306,44.0337474 L16.3556695,44.0337474 C15.9255747,44.0337474 15.577412,43.6821927 15.577412,43.2479077 C15.577412,42.8136227 15.9255747,42.462068 16.3556695,42.462068 L33.4775306,42.462068 C33.9076255,42.462068 34.2557882,42.8136227 34.2557882,43.2479077 C34.2557882,43.6821927 33.9076255,44.0337474 33.4775306,44.0337474 Z" id="Shape"></path>
                        <path d="M19.4688944,53.4638235 L13.2426393,53.4638235 C12.8125444,53.4638235 12.4643817,53.1122688 12.4643817,52.6777873 C12.4643817,52.2436988 12.8125444,51.8921442 13.2426393,51.8921442 L19.4686998,51.8921442 C19.8987946,51.8921442 20.2469574,52.2436988 20.2469574,52.6777873 C20.247152,53.1122688 19.8989892,53.4638235 19.4688944,53.4638235 Z" id="Shape"></path>
                        <path d="M44.3731366,39.3185128 L42.8166214,39.3185128 C42.386332,39.3185128 42.0383639,38.9669581 42.0383639,38.5326731 C42.0383639,38.0983881 42.386332,37.7468334 42.8166214,37.7468334 L44.3731366,37.7468334 C44.8032314,37.7468334 45.1513941,38.0983881 45.1513941,38.5326731 C45.1513941,38.9671546 44.8032314,39.3185128 44.3731366,39.3185128 Z" id="Shape"></path>
                        <path d="M35.0340458,34.6034747 L16.3556695,34.6034747 C15.9255747,34.6034747 15.577412,34.25192 15.577412,33.817635 C15.577412,33.38335 15.9255747,33.0317953 16.3556695,33.0317953 L35.0340458,33.0317953 C35.4641406,33.0317953 35.8123033,33.38335 35.8123033,33.817635 C35.8123033,34.2521165 35.4641406,34.6034747 35.0340458,34.6034747 Z" id="Shape"></path>
                        <path d="M49.8209395,58.1788616 C49.3908447,58.1788616 49.042682,57.8273069 49.042682,57.3928254 L49.042682,5.52740649 C49.042682,5.09312149 49.3908447,4.74156681 49.8209395,4.74156681 C50.251229,4.74156681 50.5990025,5.09312149 50.5990025,5.52740649 L50.5990025,57.3930219 C50.5990025,57.8273069 50.251229,58.1788616 49.8209395,58.1788616 Z" id="Shape"></path>
                        <path d="M67.7208636,48.7487854 C67.5749038,48.7487854 67.4293332,48.7088941 67.2985533,48.6228231 C66.9367676,48.3864228 66.8347904,47.8996698 67.067353,47.5363246 L77.1860636,31.8177624 C77.3289096,31.5951177 77.5752897,31.460116 77.8384066,31.460116 C78.1015234,31.460116 78.3477089,31.5953142 78.4903603,31.8177624 L88.6079033,47.5347525 C88.8420228,47.8982943 88.7402401,48.3848507 88.3798168,48.6228231 C88.0225072,48.8592235 87.5379207,48.7564493 87.3038012,48.3909425 L77.8384066,33.6869565 L68.3745688,48.3909425 C68.2254952,48.6230196 67.974639,48.7487854 67.7208636,48.7487854 Z" id="Shape"></path>
                        <path d="M61.4946084,48.7487854 C61.3459241,48.7487854 61.1954882,48.70575 61.0631513,48.6167314 C60.7058418,48.3756148 60.6085352,47.8890584 60.8473254,47.5270887 L67.073386,38.096816 C67.2177889,37.8788875 67.4610552,37.7468334 67.720669,37.7468334 C67.980672,37.7468334 68.2239383,37.8788875 68.3683412,38.0983881 L71.4342751,42.7505433 C71.6730653,43.1111374 71.5757588,43.5992659 71.2184492,43.8386139 C70.8595828,44.0781584 70.3765532,43.9844236 70.1393199,43.6206853 L67.720669,39.9508789 L62.1422807,48.3988028 C61.9918448,48.6259673 61.7454647,48.7487854 61.4946084,48.7487854 Z" id="Shape"></path>
                        <path d="M61.4946084,37.7468334 C59.3486104,37.7468334 57.6035152,35.9849333 57.6035152,33.817635 C57.6035152,31.6519088 59.3486104,29.8884366 61.4946084,29.8884366 C63.6409957,29.8884366 65.3860909,31.6521053 65.3860909,33.817635 C65.3860909,35.9849333 63.6411903,37.7468334 61.4946084,37.7468334 Z M61.4946084,31.460116 C60.2072431,31.460116 59.1600303,32.5177276 59.1600303,33.817635 C59.1600303,35.1177389 60.2072431,36.175154 61.4946084,36.175154 C62.782363,36.175154 63.8295758,35.1177389 63.8295758,33.817635 C63.8295758,32.5177276 62.7825576,31.460116 61.4946084,31.460116 Z" id="Shape"></path>
                        <path d="M89.5120755,48.7487854 L55.2685479,48.7487854 C54.8386477,48.7487854 54.4904849,48.3972308 54.4904849,47.9627492 L54.4904849,27.5309175 C54.4904849,27.0966326 54.8386477,26.7450779 55.2685479,26.7450779 L89.5120755,26.7450779 C89.9423649,26.7450779 90.2905277,27.0966326 90.2905277,27.5309175 L90.2905277,47.9627492 C90.2905277,48.3972308 89.9423649,48.7487854 89.5120755,48.7487854 Z M56.0470001,47.1771061 L88.7340125,47.1771061 L88.7340125,28.3167572 L56.0470001,28.3167572 L56.0470001,47.1771061 Z" id="Shape"></path>
                        <path d="M89.5120755,11.0282843 L52.1555176,11.0282843 C51.7256174,11.0282843 51.3774547,10.6767296 51.3774547,10.2424446 C51.3774547,9.80815958 51.7256174,9.45660489 52.1555176,9.45660489 L89.5120755,9.45660489 C89.9423649,9.45660489 90.2905277,9.80815958 90.2905277,10.2424446 C90.2905277,10.6767296 89.9423649,11.0282843 89.5120755,11.0282843 Z" id="Shape"></path>
                        <path d="M89.5120755,23.6017191 C89.0821753,23.6017191 88.7340125,23.250361 88.7340125,22.8158795 L88.7340125,10.2424446 C88.7340125,9.80815958 89.0821753,9.45660489 89.5120755,9.45660489 C89.9423649,9.45660489 90.2905277,9.80815958 90.2905277,10.2424446 L90.2905277,22.8158795 C90.2905277,23.250361 89.9423649,23.6017191 89.5120755,23.6017191 Z" id="Shape"></path>
                        <path d="M89.5120755,23.6017191 L52.1555176,23.6017191 C51.7256174,23.6017191 51.3774547,23.250361 51.3774547,22.8158795 C51.3774547,22.3815945 51.7256174,22.0300398 52.1555176,22.0300398 L89.5120755,22.0300398 C89.9423649,22.0300398 90.2905277,22.3815945 90.2905277,22.8158795 C90.2905277,23.250361 89.9423649,23.6017191 89.5120755,23.6017191 Z" id="Shape"></path>
                        <path d="M84.8425301,17.3150017 L52.1555176,17.3150017 C51.7256174,17.3150017 51.3774547,16.9636435 51.3774547,16.529162 C51.3774547,16.094877 51.7256174,15.7433223 52.1555176,15.7433223 L84.8425301,15.7433223 C85.2728195,15.7433223 85.6209822,16.094877 85.6209822,16.529162 C85.6209822,16.9636435 85.2728195,17.3150017 84.8425301,17.3150017 Z" id="Shape"></path>
                        <path d="M89.5120755,53.4638235 L55.2685479,53.4638235 C54.8386477,53.4638235 54.4904849,53.1122688 54.4904849,52.6777873 C54.4904849,52.2436988 54.8386477,51.8921442 55.2685479,51.8921442 L89.5120755,51.8921442 C89.9423649,51.8921442 90.2905277,52.2436988 90.2905277,52.6777873 C90.2905277,53.1122688 89.9423649,53.4638235 89.5120755,53.4638235 Z" id="Shape"></path>
                    </g>
                </g>
            </g>
        </g>
    </g>
</svg>