<?xml version="1.0" encoding="UTF-8"?>
<svg width="100px" height="96px" viewBox="0 0 100 96" version="1.1" xmlns="http://www.w3.org/2000/svg" xmlns:xlink="http://www.w3.org/1999/xlink">
    <!-- Generator: Sketch 51 (57462) - http://www.bohemiancoding.com/sketch -->
    <title>metadata-management</title>
    <desc>Created with Sketch.</desc>
    <defs></defs>
    <g id="Design" stroke="none" stroke-width="1" fill="none" fill-rule="evenodd">
        <g id="Features-Template-V2" transform="translate(-570.000000, -1496.000000)" fill-rule="nonzero">
            <g id="Feature-Copy-6" transform="translate(135.000000, 1446.000000)">
                <g id="metadata-management" transform="translate(435.000000, 50.000000)">
                    <path d="M99.2066406,70.4475484 L99.2066406,71.9955484 L72.6505859,71.9955484 L72.6505859,70.4475484 C72.6505859,69.5965161 73.3541016,68.8995484 74.2126953,68.8995484 L97.6445312,68.8995484 C98.5035156,68.8993548 99.2066406,69.5963226 99.2066406,70.4475484 Z" id="Shape" fill="#D7E9FF"></path>
                    <path d="M84.3666016,87.4755484 L84.3666016,82.8315484 L75.7748047,82.8315484 L75.7748047,87.4755484 L84.3666016,87.4755484 Z M96.0822266,79.7355484 L96.0822266,75.0915484 L75.7748047,75.0915484 L75.7748047,79.7355484 L96.0822266,79.7355484 Z M99.2066406,71.9955484 L99.2066406,90.5717419 L72.6505859,90.5717419 L72.6505859,71.9955484 L99.2066406,71.9955484 Z" id="Shape" fill="#FFFFFF"></path>
                    <rect id="Rectangle-path" fill="#94C1FF" x="75.7748047" y="82.8315484" width="8.59179688" height="4.644"></rect>
                    <rect id="Rectangle-path" fill="#94C1FF" x="75.7748047" y="75.0915484" width="20.3076172" height="4.644"></rect>
                    <path d="M63.2777344,76.6395484 L36.7220703,76.6395484 L36.7220703,75.0915484 C36.7220703,74.2405161 37.4253906,73.5435484 38.2841797,73.5435484 L61.715625,73.5435484 C62.5746094,73.5435484 63.2777344,74.2405161 63.2777344,75.0915484 L63.2777344,76.6395484 Z" id="Shape" fill="#D7E9FF"></path>
                    <rect id="Rectangle-path" fill="#94C1FF" x="39.8462891" y="87.4755484" width="8.59160156" height="4.644"></rect>
                    <path d="M48.4378906,92.1195484 L48.4378906,87.4755484 L39.8462891,87.4755484 L39.8462891,92.1195484 L48.4378906,92.1195484 Z M60.1535156,84.3795484 L60.1535156,79.7355484 L39.8462891,79.7355484 L39.8462891,84.3795484 L60.1535156,84.3795484 Z M63.2777344,95.2155484 L36.7220703,95.2155484 L36.7220703,76.6393548 L63.2777344,76.6393548 L63.2777344,95.2155484 Z" id="Shape" fill="#FFFFFF"></path>
                    <rect id="Rectangle-path" fill="#94C1FF" x="39.8462891" y="79.7355484" width="20.3072266" height="4.644"></rect>
                    <path d="M2.35546875,68.8993548 L25.7873047,68.8993548 C26.6460937,68.8993548 27.3494141,69.5963226 27.3494141,70.4473548 L27.3494141,71.9953548 L0.793359375,71.9953548 L0.793359375,70.4473548 C0.793359375,69.5963226 1.49667969,68.8993548 2.35546875,68.8993548 Z" id="Shape" fill="#D7E9FF"></path>
                    <path d="M12.5091797,87.4755484 L12.5091797,82.8315484 L3.91757812,82.8315484 L3.91757812,87.4755484 L12.5091797,87.4755484 Z M24.2251953,79.7355484 L24.2251953,75.0915484 L3.91757813,75.0915484 L3.91757813,79.7355484 L24.2251953,79.7355484 Z M27.3494141,90.5715484 L0.793359375,90.5715484 L0.793359375,71.9953548 L27.3494141,71.9953548 L27.3494141,90.5715484 Z" id="Shape" fill="#FFFFFF"></path>
                    <g id="Group" opacity="0.5" transform="translate(36.718750, 73.354839)" fill="#FFFFFF">
                        <g id="Shape">
                            <path d="M3.12753906,14.1207097 L3.12753906,11.0247097 L3.12753906,6.38070968 L3.12753906,3.28470968 L3.12753906,1.73670968 C3.12753906,0.885677419 3.83085938,0.188709677 4.68964844,0.188709677 L1.56542969,0.188709677 C0.706640625,0.188709677 0.0033203125,0.885677419 0.0033203125,1.73670968 L0.0033203125,3.28470968 L0.0033203125,21.8609032 L3.12753906,21.8609032 L3.12753906,18.7649032 L3.12753906,14.1207097 Z"></path>
                        </g>
                    </g>
                    <rect id="Rectangle-path" fill="#94C1FF" x="3.91757812" y="82.8315484" width="8.59160156" height="4.644"></rect>
                    <rect id="Rectangle-path" fill="#94C1FF" x="3.91757813" y="75.0915484" width="20.3076172" height="4.644"></rect>
                    <path d="M33.5978516,33.2945806 C34.4566406,33.2945806 35.1599609,33.9915484 35.1599609,34.8425806 C35.1599609,35.6936129 34.4566406,36.3905806 33.5978516,36.3905806 C32.7390625,36.3905806 32.0357422,35.6936129 32.0357422,34.8425806 C32.0357422,33.9915484 32.7390625,33.2945806 33.5978516,33.2945806 Z" id="Shape" fill="#FFFFFF"></path>
                    <polygon id="Shape" fill="#D7E9FF" points="36.7220703 39.4865806 39.0339844 42.9077419 38.2841797 44.1305806 33.5978516 44.1305806"></polygon>
                    <polygon id="Shape" fill="#D7E9FF" points="39.0339844 42.9077419 42.9705078 36.3905806 47.6568359 44.1305806 38.2841797 44.1305806"></polygon>
                    <path d="M33.5978516,36.3905806 C34.4566406,36.3905806 35.1599609,35.6936129 35.1599609,34.8425806 C35.1599609,33.9915484 34.4566406,33.2945806 33.5978516,33.2945806 C32.7390625,33.2945806 32.0357422,33.9915484 32.0357422,34.8425806 C32.0357422,35.6936129 32.7390625,36.3905806 33.5978516,36.3905806 Z M36.7220703,39.4865806 L33.5978516,44.1305806 L28.9115234,44.1305806 L28.9115234,30.1985806 L49.2189453,30.1985806 L49.2189453,44.1305806 L47.6568359,44.1305806 L42.9705078,36.3905806 L39.0339844,42.9077419 L36.7220703,39.4865806 Z" id="Shape" fill="#94C1FF"></path>
                    <rect id="Rectangle-path" fill="#94C1FF" x="28.9115234" y="17.8145806" width="43.7390625" height="9.288"></rect>
                    <path d="M25.7873047,14.7185806 L75.7748047,14.7185806 L75.7748047,47.2265806 L25.7873047,47.2265806 L25.7873047,14.7185806 Z M49.2189453,30.1985806 L28.9115234,30.1985806 L28.9115234,44.1305806 L33.5978516,44.1305806 L38.2841797,44.1305806 L47.6568359,44.1305806 L49.2189453,44.1305806 L49.2189453,30.1985806 Z M72.6505859,17.8145806 L28.9115234,17.8145806 L28.9115234,27.1025806 L72.6505859,27.1025806 L72.6505859,17.8145806 Z" id="Shape" fill="#FFFFFF"></path>
                    <path d="M27.3494141,11.6225806 L74.2126953,11.6225806 C75.0716797,11.6225806 75.7748047,12.3195484 75.7748047,13.1705806 L75.7748047,14.7185806 L25.7873047,14.7185806 L25.7873047,13.1705806 C25.7873047,12.3193548 26.4904297,11.6225806 27.3494141,11.6225806 Z" id="Shape" fill="#D7E9FF"></path>
                    <polygon id="Shape" fill="#94C1FF" points="56.2484375 3.88258065 56.2484375 8.52658065 45.3136719 8.52658065 45.3136719 3.88258065 48.4378906 5.43058065 50.7347656 0.786387097 53.1242187 5.43058065"></polygon>
                    <polygon id="Shape" fill="#D7E9FF" points="45.3136719 3.88258065 45.3136719 8.52658065 46.8757812 8.52658065 46.8757812 4.65658065"></polygon>
                    <polygon id="Shape" fill="#5C9EFF" points="54.6863281 4.65658065 54.6863281 8.52658065 56.2484375 8.52658065 56.2484375 3.88258065"></polygon>
                    <path d="M28.9115234,11.6225806 L27.3494141,11.6225806 C26.490625,11.6225806 25.7873047,12.3195484 25.7873047,13.1705806 L25.7873047,14.7185806 L27.3494141,14.7185806 L27.3494141,13.1705806 C27.3494141,12.3193548 28.0525391,11.6225806 28.9115234,11.6225806 Z" id="Shape" fill="#FFFFFF"></path>
                    <path d="M72.6505859,11.6225806 L74.2126953,11.6225806 C75.0716797,11.6225806 75.7748047,12.3195484 75.7748047,13.1705806 L75.7748047,14.7185806 L74.2126953,14.7185806 L74.2126953,13.1705806 C74.2126953,12.3193548 73.5095703,11.6225806 72.6505859,11.6225806 Z" id="Shape" fill="#94C1FF"></path>
                    <rect id="Rectangle-path" fill="#D7E9FF" x="28.9115234" y="17.8145806" width="1.56210938" height="9.288"></rect>
                    <rect id="Rectangle-path" fill="#D7E9FF" x="3.91757812" y="75.0915484" width="1.56210937" height="4.644"></rect>
                    <rect id="Rectangle-path" fill="#5C9EFF" x="22.6630859" y="75.0915484" width="1.56210937" height="4.644"></rect>
                    <rect id="Rectangle-path" fill="#5C9EFF" x="10.9470703" y="82.8315484" width="1.56210937" height="4.644"></rect>
                    <rect id="Rectangle-path" fill="#D7E9FF" x="3.91757812" y="82.8315484" width="1.56210937" height="4.644"></rect>
                    <rect id="Rectangle-path" fill="#D7E9FF" x="28.9115234" y="30.1985806" width="1.56210938" height="13.932"></rect>
                    <rect id="Rectangle-path" fill="#5C9EFF" x="71.0884766" y="17.8145806" width="1.56210937" height="9.288"></rect>
                    <rect id="Rectangle-path" fill="#5C9EFF" x="47.6568359" y="30.1985806" width="1.56210938" height="13.932"></rect>
                    <path d="M25.7873047,68.8993548 L24.2251953,68.8993548 C25.0839844,68.8993548 25.7873047,69.5963226 25.7873047,70.4473548 L25.7873047,71.9953548 L27.3494141,71.9953548 L27.3494141,70.4473548 C27.3494141,69.5963226 26.6460937,68.8993548 25.7873047,68.8993548 Z" id="Shape" fill="#94C1FF"></path>
                    <path d="M2.35546875,68.8993548 L3.91757812,68.8993548 C3.05878906,68.8993548 2.35546875,69.5963226 2.35546875,70.4473548 L2.35546875,71.9953548 L0.793359375,71.9953548 L0.793359375,70.4473548 C0.793359375,69.5963226 1.49667969,68.8993548 2.35546875,68.8993548 Z" id="Shape" fill="#FFFFFF"></path>
                    <rect id="Rectangle-path" fill="#D7E9FF" x="75.7748047" y="75.0915484" width="1.56210938" height="4.644"></rect>
                    <rect id="Rectangle-path" fill="#5C9EFF" x="94.5201172" y="75.0915484" width="1.56210938" height="4.644"></rect>
                    <rect id="Rectangle-path" fill="#5C9EFF" x="82.8044922" y="82.8315484" width="1.56210938" height="4.644"></rect>
                    <rect id="Rectangle-path" fill="#D7E9FF" x="75.7748047" y="82.8315484" width="1.56210938" height="4.644"></rect>
                    <path d="M97.6443359,68.8993548 L96.0822266,68.8993548 C96.9412109,68.8993548 97.6443359,69.5963226 97.6443359,70.4473548 L97.6443359,71.9953548 L99.2064454,71.9953548 L99.2064453,70.4473548 C99.2066406,69.5963226 98.5035156,68.8993548 97.6443359,68.8993548 Z" id="Shape" fill="#94C1FF"></path>
                    <path d="M74.2126953,68.8993548 L75.7748047,68.8993548 C74.9162109,68.8993548 74.2126953,69.5963226 74.2126953,70.4473548 L74.2126953,71.9953548 L72.6505859,71.9953548 L72.6505859,70.4473548 C72.6505859,69.5963226 73.3539062,68.8993548 74.2126953,68.8993548 Z" id="Shape" fill="#FFFFFF"></path>
                    <rect id="Rectangle-path" fill="#D7E9FF" x="39.8462891" y="79.7355484" width="1.56210938" height="4.644"></rect>
                    <rect id="Rectangle-path" fill="#5C9EFF" x="58.5914062" y="79.7355484" width="1.56210938" height="4.644"></rect>
                    <rect id="Rectangle-path" fill="#5C9EFF" x="46.8757813" y="87.4755484" width="1.56210938" height="4.644"></rect>
                    <rect id="Rectangle-path" fill="#D7E9FF" x="39.8462891" y="87.4755484" width="1.56210938" height="4.644"></rect>
                    <path d="M61.715625,73.5435484 L60.1535156,73.5435484 C61.0125,73.5435484 61.715625,74.2405161 61.715625,75.0915484 L61.715625,76.6395484 L63.2777344,76.6395484 L63.2777344,75.0915484 C63.2777344,74.2403226 62.5748047,73.5435484 61.715625,73.5435484 Z" id="Shape" fill="#94C1FF"></path>
                    <path d="M38.2841797,73.5435484 L39.8462891,73.5435484 C38.9875,73.5435484 38.2841797,74.2405161 38.2841797,75.0915484 L38.2841797,76.6395484 L36.7220703,76.6395484 L36.7220703,75.0915484 C36.7220703,74.2403226 37.4253906,73.5435484 38.2841797,73.5435484 Z" id="Shape" fill="#FFFFFF"></path>
                    <g id="Group" fill="#116FFF">
                        <path d="M32.0822266,13.9445806 C31.6511719,13.9445806 31.2935547,13.5983226 31.2935547,13.1705806 C31.2935547,12.7428387 31.6351562,12.3965806 32.0669922,12.3965806 L32.0822266,12.3965806 C32.5138672,12.3965806 32.8632812,12.7428387 32.8632812,13.1705806 C32.8632812,13.5983226 32.5138672,13.9445806 32.0822266,13.9445806 Z" id="Shape"></path>
                        <path d="M28.9580078,13.9445806 C28.5269531,13.9445806 28.1693359,13.5983226 28.1693359,13.1705806 C28.1693359,12.7428387 28.5109375,12.3965806 28.9427734,12.3965806 L28.9580078,12.3965806 C29.3896484,12.3965806 29.7390625,12.7428387 29.7390625,13.1705806 C29.7390625,13.5983226 29.3896484,13.9445806 28.9580078,13.9445806 Z" id="Shape"></path>
                        <path d="M35.2064453,13.9445806 C34.7753906,13.9445806 34.4177734,13.5983226 34.4177734,13.1705806 C34.4177734,12.7428387 34.759375,12.3965806 35.1912109,12.3965806 L35.2064453,12.3965806 C35.6380859,12.3965806 35.9875,12.7428387 35.9875,13.1705806 C35.9875,13.5983226 35.6380859,13.9445806 35.2064453,13.9445806 Z" id="Shape"></path>
                        <path d="M4.74511719,71.2215484 C4.3140625,71.2215484 3.95644531,70.8752903 3.95644531,70.4475484 C3.95644531,70.0198065 4.29824219,69.6735484 4.72988281,69.6735484 L4.74511719,69.6735484 C5.17675781,69.6735484 5.52617188,70.0198065 5.52617188,70.4475484 C5.52617188,70.8752903 5.17695312,71.2215484 4.74511719,71.2215484 Z" id="Shape"></path>
                        <path d="M7.86953125,71.2215484 C7.43847656,71.2215484 7.08085938,70.8752903 7.08085938,70.4475484 C7.08085938,70.0198065 7.42265625,69.6735484 7.85429688,69.6735484 L7.86953125,69.6735484 C8.30117188,69.6735484 8.65058594,70.0198065 8.65058594,70.4475484 C8.65058594,70.8752903 8.30097656,71.2215484 7.86953125,71.2215484 Z" id="Shape"></path>
                        <path d="M10.99375,71.2215484 C10.5626953,71.2215484 10.2050781,70.8752903 10.2050781,70.4475484 C10.2050781,70.0198065 10.546875,69.6735484 10.9785156,69.6735484 L10.99375,69.6735484 C11.4253906,69.6735484 11.7748047,70.0198065 11.7748047,70.4475484 C11.7748047,70.8752903 11.4253906,71.2215484 10.99375,71.2215484 Z" id="Shape"></path>
                        <path d="M76.6017578,71.2215484 C76.1714844,71.2215484 75.8144531,70.8752903 75.8144531,70.4475484 C75.8144531,70.0198065 76.15625,69.6735484 76.5865234,69.6735484 L76.6017578,69.6735484 C77.0351562,69.6735484 77.3826172,70.0198065 77.3826172,70.4475484 C77.3826172,70.8752903 77.0351562,71.2215484 76.6017578,71.2215484 Z" id="Shape"></path>
                        <path d="M79.7259766,71.2215484 C79.2957031,71.2215484 78.9386719,70.8752903 78.9386719,70.4475484 C78.9386719,70.0198065 79.2804687,69.6735484 79.7107422,69.6735484 L79.7259766,69.6735484 C80.159375,69.6735484 80.5068359,70.0198065 80.5068359,70.4475484 C80.5068359,70.8752903 80.159375,71.2215484 79.7259766,71.2215484 Z" id="Shape"></path>
                        <path d="M82.8501953,71.2215484 C82.4199219,71.2215484 82.0628906,70.8752903 82.0628906,70.4475484 C82.0628906,70.0198065 82.4046875,69.6735484 82.8349609,69.6735484 L82.8501953,69.6735484 C83.2835937,69.6735484 83.6310547,70.0198065 83.6310547,70.4475484 C83.6310547,70.8752903 83.2835937,71.2215484 82.8501953,71.2215484 Z" id="Shape"></path>
                        <path d="M40.6738281,75.8655484 C40.2427734,75.8655484 39.8851562,75.5192903 39.8851562,75.0915484 C39.8851562,74.6638065 40.2267578,74.3175484 40.6585937,74.3175484 L40.6738281,74.3175484 C41.1054687,74.3175484 41.4548828,74.6638065 41.4548828,75.0915484 C41.4548828,75.5192903 41.1054687,75.8655484 40.6738281,75.8655484 Z" id="Shape"></path>
                        <path d="M43.7980469,75.8655484 C43.3669922,75.8655484 43.009375,75.5192903 43.009375,75.0915484 C43.009375,74.6638065 43.3511719,74.3175484 43.7828125,74.3175484 L43.7980469,74.3175484 C44.2296875,74.3175484 44.5791016,74.6638065 44.5791016,75.0915484 C44.5791016,75.5192903 44.2298828,75.8655484 43.7980469,75.8655484 Z" id="Shape"></path>
                        <path d="M46.9222656,75.8655484 C46.4912109,75.8655484 46.1335938,75.5192903 46.1335938,75.0915484 C46.1335938,74.6638065 46.4753906,74.3175484 46.9070313,74.3175484 L46.9222656,74.3175484 C47.3539063,74.3175484 47.7033203,74.6638065 47.7033203,75.0915484 C47.7033203,75.5192903 47.3541016,75.8655484 46.9222656,75.8655484 Z" id="Shape"></path>
                        <g id="Shape">
                            <path d="M75.7748047,15.4925806 C75.3433594,15.4925806 74.9939453,15.1463226 74.9939453,14.7185806 L74.9939453,13.1705806 C74.9939453,12.7434194 74.6429687,12.3965806 74.2126953,12.3965806 L27.3494141,12.3965806 C26.9183594,12.3965806 26.5683594,12.7434194 26.5683594,13.1705806 L26.5683594,14.7185806 C26.5683594,15.1463226 26.2189453,15.4925806 25.7873047,15.4925806 C25.3554687,15.4925806 25.00625,15.1463226 25.00625,14.7185806 L25.00625,13.1705806 C25.00625,11.8900645 26.0572266,10.8485806 27.3494141,10.8485806 L74.2126953,10.8485806 C75.5050781,10.8485806 76.5560547,11.8900645 76.5560547,13.1705806 L76.5560547,14.7185806 C76.5560547,15.1463226 76.2066406,15.4925806 75.7748047,15.4925806 Z"></path>
                            <path d="M75.7748047,48.0005806 L25.7873047,48.0005806 C25.3554687,48.0005806 25.00625,47.6543226 25.00625,47.2265806 L25.00625,14.7185806 C25.00625,14.2908387 25.3554688,13.9445806 25.7873047,13.9445806 L75.7748047,13.9445806 C76.2066406,13.9445806 76.5560547,14.2908387 76.5560547,14.7185806 L76.5560547,47.2265806 C76.5560547,47.6545161 76.2066406,48.0005806 75.7748047,48.0005806 Z M26.5683594,46.4525806 L74.9939453,46.4525806 L74.9939453,15.4925806 L26.5683594,15.4925806 L26.5683594,46.4525806 Z"></path>
                            <path d="M72.6505859,27.8765806 L28.9115234,27.8765806 C28.4796875,27.8765806 28.1304687,27.5305161 28.1304687,27.1025806 L28.1304687,17.8145806 C28.1304687,17.3868387 28.4796875,17.0405806 28.9115234,17.0405806 L72.6505859,17.0405806 C73.0824219,17.0405806 73.4318359,17.3868387 73.4318359,17.8145806 L73.4318359,27.1025806 C73.4318359,27.5305161 73.0824219,27.8765806 72.6505859,27.8765806 Z M29.6925781,26.3285806 L71.8697266,26.3285806 L71.8697266,18.5885806 L29.6925781,18.5885806 L29.6925781,26.3285806 Z"></path>
                            <path d="M67.9642578,23.2325806 L33.5978516,23.2325806 C33.1660156,23.2325806 32.8167969,22.8865161 32.8167969,22.4585806 C32.8167969,22.0308387 33.1660156,21.6845806 33.5978516,21.6845806 L67.9642578,21.6845806 C68.3960938,21.6845806 68.7455078,22.0308387 68.7455078,22.4585806 C68.7455078,22.8865161 68.3960938,23.2325806 67.9642578,23.2325806 Z"></path>
                            <path d="M72.6505859,32.5205806 L52.3429687,32.5205806 C51.9115234,32.5205806 51.5621094,32.1745161 51.5621094,31.7465806 C51.5621094,31.3188387 51.9115234,30.9725806 52.3429687,30.9725806 L72.6505859,30.9725806 C73.0824219,30.9725806 73.4318359,31.3188387 73.4318359,31.7465806 C73.4318359,32.1745161 73.0824219,32.5205806 72.6505859,32.5205806 Z"></path>
                            <path d="M72.6505859,35.6165806 L52.3429687,35.6165806 C51.9115234,35.6165806 51.5621094,35.2705161 51.5621094,34.8425806 C51.5621094,34.4148387 51.9115234,34.0685806 52.3429687,34.0685806 L72.6505859,34.0685806 C73.0824219,34.0685806 73.4318359,34.4148387 73.4318359,34.8425806 C73.4318359,35.2705161 73.0824219,35.6165806 72.6505859,35.6165806 Z"></path>
                            <path d="M72.6505859,38.7125806 L52.3429687,38.7125806 C51.9115234,38.7125806 51.5621094,38.3663226 51.5621094,37.9385806 C51.5621094,37.5108387 51.9115234,37.1645806 52.3429687,37.1645806 L72.6505859,37.1645806 C73.0824219,37.1645806 73.4318359,37.5108387 73.4318359,37.9385806 C73.4318359,38.3665161 73.0824219,38.7125806 72.6505859,38.7125806 Z"></path>
                            <path d="M62.496875,41.8085806 L52.3429687,41.8085806 C51.9115234,41.8085806 51.5621094,41.4623226 51.5621094,41.0345806 C51.5621094,40.6068387 51.9115234,40.2605806 52.3429687,40.2605806 L62.496875,40.2605806 C62.9287109,40.2605806 63.2777344,40.6068387 63.2777344,41.0345806 C63.2777344,41.4625161 62.9287109,41.8085806 62.496875,41.8085806 Z"></path>
                            <path d="M49.2189453,44.9045806 L28.9115234,44.9045806 C28.4796875,44.9045806 28.1304687,44.5583226 28.1304687,44.1305806 L28.1304687,30.1985806 C28.1304687,29.7708387 28.4796875,29.4245806 28.9115234,29.4245806 L49.2189453,29.4245806 C49.6505859,29.4245806 50,29.7708387 50,30.1985806 L50,44.1305806 C50,44.5585161 49.6505859,44.9045806 49.2189453,44.9045806 Z M29.6925781,43.3565806 L48.4378906,43.3565806 L48.4378906,30.9725806 L29.6925781,30.9725806 L29.6925781,43.3565806 Z"></path>
                            <path d="M47.6576172,44.9045806 C47.3921875,44.9045806 47.1335938,44.7708387 46.9871094,44.5289032 L42.9712891,37.8961935 L38.9515625,44.5327742 C38.7265625,44.8970323 38.246875,45.0143226 37.8783203,44.7919355 C37.5099609,44.5705161 37.3925781,44.0943871 37.6167969,43.7285806 L42.3001953,35.9930323 C42.4412109,35.7594194 42.6960938,35.6165806 42.9699219,35.6165806 C42.9707031,35.6165806 42.9707031,35.6165806 42.9707031,35.6165806 C43.2451172,35.6165806 43.4992188,35.7594194 43.6404297,35.9922581 L48.3267578,43.7322581 C48.5486328,44.0988387 48.4289063,44.5741935 48.0589844,44.7940645 C47.9330078,44.8691613 47.7941406,44.9045806 47.6576172,44.9045806 Z"></path>
                            <path d="M33.5970703,44.9045806 C33.4482422,44.9045806 33.2980469,44.8621935 33.1644531,44.7745161 C32.8052734,44.5372258 32.7083984,44.0572258 32.9478516,43.7012903 L36.0720703,39.0572903 C36.2169922,38.841871 36.4603516,38.7125806 36.7212891,38.7125806 L36.7220703,38.7125806 C36.9828125,38.7125806 37.2261719,38.8410968 37.3710938,39.0557419 L39.6830078,42.4767097 L39.0964844,43.0006452 L38.4464844,43.4299355 L36.7234375,40.8795484 L34.2474609,44.559871 C34.0974609,44.7836129 33.8496094,44.9045806 33.5970703,44.9045806 Z"></path>
                            <path d="M33.5978516,37.1645806 C32.3056641,37.1645806 31.2546875,36.1230968 31.2546875,34.8425806 C31.2546875,33.5622581 32.3056641,32.5205806 33.5978516,32.5205806 C34.8898438,32.5205806 35.9410156,33.5622581 35.9410156,34.8425806 C35.9410156,36.1230968 34.8898437,37.1645806 33.5978516,37.1645806 Z M33.5978516,34.0685806 C33.1667969,34.0685806 32.8167969,34.4156129 32.8167969,34.8425806 C32.8167969,35.2697419 33.1667969,35.6165806 33.5978516,35.6165806 C34.0287109,35.6165806 34.3789062,35.2697419 34.3789062,34.8425806 C34.3789062,34.4156129 34.0287109,34.0685806 33.5978516,34.0685806 Z"></path>
                            <path d="M27.3494141,72.7695484 C26.9175781,72.7695484 26.5683594,72.4232903 26.5683594,71.9955484 L26.5683594,70.4475484 C26.5683594,70.0198065 26.2181641,69.6735484 25.7873047,69.6735484 L2.35546875,69.6735484 C1.92441406,69.6735484 1.57441406,70.0198065 1.57441406,70.4475484 L1.57441406,71.9955484 C1.57441406,72.4232903 1.225,72.7695484 0.793359375,72.7695484 C0.36171875,72.7695484 0.0123046875,72.4232903 0.0123046875,71.9955484 L0.0123046875,70.4475484 C0.0123046875,69.1670323 1.06347656,68.1255484 2.35546875,68.1255484 L25.7873047,68.1255484 C27.0792969,68.1255484 28.1304688,69.1670323 28.1304688,70.4475484 L28.1304688,71.9955484 C28.1304688,72.4232903 27.7810547,72.7695484 27.3494141,72.7695484 Z"></path>
                            <path d="M27.3494141,91.3455484 L0.793359375,91.3455484 C0.36171875,91.3455484 0.0123046875,90.9992903 0.0123046875,90.5715484 L0.0123046875,71.9953548 C0.0123046875,71.5676129 0.36171875,71.2213548 0.793359375,71.2213548 L27.3494141,71.2213548 C27.7810547,71.2213548 28.1304688,71.5676129 28.1304688,71.9953548 L28.1304688,90.5715484 C28.1304688,90.9992903 27.7810547,91.3455484 27.3494141,91.3455484 Z M1.57441406,89.7975484 L26.5683594,89.7975484 L26.5683594,72.7693548 L1.57441406,72.7693548 L1.57441406,89.7975484 Z"></path>
                            <path d="M24.2251953,80.5095484 L3.91757812,80.5095484 C3.4859375,80.5095484 3.13652344,80.1632903 3.13652344,79.7355484 L3.13652344,75.0915484 C3.13652344,74.6638065 3.4859375,74.3175484 3.91757812,74.3175484 L24.2251953,74.3175484 C24.6568359,74.3175484 25.00625,74.6638065 25.00625,75.0915484 L25.00625,79.7355484 C25.00625,80.1632903 24.6568359,80.5095484 24.2251953,80.5095484 Z M4.69863281,78.9615484 L23.4441406,78.9615484 L23.4441406,75.8655484 L4.69863281,75.8655484 L4.69863281,78.9615484 Z"></path>
                            <path d="M12.5091797,88.2495484 L3.91757812,88.2495484 C3.4859375,88.2495484 3.13652344,87.9032903 3.13652344,87.4755484 L3.13652344,82.8315484 C3.13652344,82.4036129 3.4859375,82.0575484 3.91757812,82.0575484 L12.5091797,82.0575484 C12.9408203,82.0575484 13.2902344,82.4036129 13.2902344,82.8315484 L13.2902344,87.4755484 C13.2902344,87.9032903 12.9408203,88.2495484 12.5091797,88.2495484 Z M4.69863281,86.7015484 L11.728125,86.7015484 L11.728125,83.6055484 L4.69863281,83.6055484 L4.69863281,86.7015484 Z"></path>
                            <path d="M24.2251953,83.6055484 L15.6333984,83.6055484 C15.2017578,83.6055484 14.8523437,83.2592903 14.8523437,82.8315484 C14.8523437,82.4036129 15.2017578,82.0575484 15.6333984,82.0575484 L24.225,82.0575484 C24.6566406,82.0575484 25.0060547,82.4036129 25.0060547,82.8315484 C25.00625,83.2592903 24.6568359,83.6055484 24.2251953,83.6055484 Z"></path>
                            <path d="M24.2251953,86.7015484 L15.6333984,86.7015484 C15.2017578,86.7015484 14.8523437,86.3552903 14.8523437,85.9275484 C14.8523437,85.4996129 15.2017578,85.1535484 15.6333984,85.1535484 L24.225,85.1535484 C24.6566406,85.1535484 25.0060547,85.4996129 25.0060547,85.9275484 C25.00625,86.3552903 24.6568359,86.7015484 24.2251953,86.7015484 Z"></path>
                            <path d="M99.2066406,72.7695484 C98.7751953,72.7695484 98.4257812,72.4232903 98.4257812,71.9955484 L98.4257812,70.4475484 C98.4257812,70.0198065 98.0748047,69.6735484 97.6445312,69.6735484 L74.2126953,69.6735484 C73.7828125,69.6735484 73.4318359,70.0198065 73.4318359,70.4475484 L73.4318359,71.9955484 C73.4318359,72.4232903 73.0824219,72.7695484 72.6505859,72.7695484 C72.2191406,72.7695484 71.8697266,72.4232903 71.8697266,71.9955484 L71.8697266,70.4475484 C71.8697266,69.1670323 72.9207031,68.1255484 74.2126953,68.1255484 L97.6445312,68.1255484 C98.9365234,68.1255484 99.9878906,69.1670323 99.9878906,70.4475484 L99.9878906,71.9955484 C99.9878906,72.4232903 99.6382813,72.7695484 99.2066406,72.7695484 Z"></path>
                            <path d="M99.2066406,91.3455484 L72.6505859,91.3455484 C72.2191406,91.3455484 71.8697266,90.9992903 71.8697266,90.5715484 L71.8697266,71.9953548 C71.8697266,71.5676129 72.2191406,71.2213548 72.6505859,71.2213548 L99.2066406,71.2213548 C99.6384766,71.2213548 99.9878906,71.5676129 99.9878906,71.9953548 L99.9878906,90.5715484 C99.9878906,90.9992903 99.6382813,91.3455484 99.2066406,91.3455484 Z M73.4318359,89.7975484 L98.4257812,89.7975484 L98.4257812,72.7693548 L73.4318359,72.7693548 L73.4318359,89.7975484 Z"></path>
                            <path d="M96.0822266,80.5095484 L75.7748047,80.5095484 C75.3433594,80.5095484 74.9939453,80.1632903 74.9939453,79.7355484 L74.9939453,75.0915484 C74.9939453,74.6638065 75.3433594,74.3175484 75.7748047,74.3175484 L96.0824219,74.3175484 C96.5142578,74.3175484 96.8636719,74.6638065 96.8636719,75.0915484 L96.8636719,79.7355484 C96.8634766,80.1632903 96.5140625,80.5095484 96.0822266,80.5095484 Z M76.5560547,78.9615484 L95.3015625,78.9615484 L95.3015625,75.8655484 L76.5560547,75.8655484 L76.5560547,78.9615484 Z"></path>
                            <path d="M84.3666016,88.2495484 L75.7748047,88.2495484 C75.3433594,88.2495484 74.9939453,87.9032903 74.9939453,87.4755484 L74.9939453,82.8315484 C74.9939453,82.4036129 75.3433594,82.0575484 75.7748047,82.0575484 L84.3666016,82.0575484 C84.7984375,82.0575484 85.1474609,82.4036129 85.1474609,82.8315484 L85.1474609,87.4755484 C85.1474609,87.9032903 84.7984375,88.2495484 84.3666016,88.2495484 Z M76.5560547,86.7015484 L83.5853516,86.7015484 L83.5853516,83.6055484 L76.5560547,83.6055484 L76.5560547,86.7015484 Z"></path>
                            <path d="M96.0822266,83.6055484 L87.4908203,83.6055484 C87.0589844,83.6055484 86.7095703,83.2592903 86.7095703,82.8315484 C86.7095703,82.4036129 87.0589844,82.0575484 87.4908203,82.0575484 L96.0822266,82.0575484 C96.5140625,82.0575484 96.8634766,82.4036129 96.8634766,82.8315484 C96.8634766,83.2592903 96.5140625,83.6055484 96.0822266,83.6055484 Z"></path>
                            <path d="M96.0822266,86.7015484 L87.4908203,86.7015484 C87.0589844,86.7015484 86.7095703,86.3552903 86.7095703,85.9275484 C86.7095703,85.4996129 87.0589844,85.1535484 87.4908203,85.1535484 L96.0822266,85.1535484 C96.5140625,85.1535484 96.8634766,85.4996129 96.8634766,85.9275484 C96.8634766,86.3552903 96.5140625,86.7015484 96.0822266,86.7015484 Z"></path>
                            <path d="M63.2777344,77.4135484 C62.8462891,77.4135484 62.496875,77.0672903 62.496875,76.6395484 L62.496875,75.0915484 C62.496875,74.6638065 62.1458984,74.3175484 61.715625,74.3175484 L38.2841797,74.3175484 C37.853125,74.3175484 37.503125,74.6638065 37.503125,75.0915484 L37.503125,76.6395484 C37.503125,77.0672903 37.1537109,77.4135484 36.7220703,77.4135484 C36.2902344,77.4135484 35.9410156,77.0672903 35.9410156,76.6395484 L35.9410156,75.0915484 C35.9410156,73.8110323 36.9919922,72.7695484 38.2841797,72.7695484 L61.715625,72.7695484 C63.0080078,72.7695484 64.0589844,73.8110323 64.0589844,75.0915484 L64.0589844,76.6395484 C64.0589844,77.0672903 63.7095703,77.4135484 63.2777344,77.4135484 Z"></path>
                            <path d="M63.2777344,95.9895484 L36.7220703,95.9895484 C36.2902344,95.9895484 35.9410156,95.6432903 35.9410156,95.2155484 L35.9410156,76.6393548 C35.9410156,76.2116129 36.2902344,75.8653548 36.7220703,75.8653548 L63.2777344,75.8653548 C63.7095703,75.8653548 64.0589844,76.2116129 64.0589844,76.6393548 L64.0589844,95.2155484 C64.0589844,95.6432903 63.7095703,95.9895484 63.2777344,95.9895484 Z M37.503125,94.4415484 L62.496875,94.4415484 L62.496875,77.4135484 L37.503125,77.4135484 L37.503125,94.4415484 Z"></path>
                            <path d="M60.1535156,85.1535484 L39.8462891,85.1535484 C39.4144531,85.1535484 39.0652344,84.8072903 39.0652344,84.3795484 L39.0652344,79.7355484 C39.0652344,79.3076129 39.4144531,78.9615484 39.8462891,78.9615484 L60.1535156,78.9615484 C60.5853516,78.9615484 60.9347656,79.3076129 60.9347656,79.7355484 L60.9347656,84.3795484 C60.9347656,84.8072903 60.5853516,85.1535484 60.1535156,85.1535484 Z M40.6273438,83.6055484 L59.3726563,83.6055484 L59.3726563,80.5095484 L40.6273438,80.5095484 L40.6273438,83.6055484 Z"></path>
                            <path d="M48.4378906,92.8935484 L39.8462891,92.8935484 C39.4144531,92.8935484 39.0652344,92.5472903 39.0652344,92.1195484 L39.0652344,87.4755484 C39.0652344,87.0476129 39.4144531,86.7015484 39.8462891,86.7015484 L48.4378906,86.7015484 C48.8695313,86.7015484 49.2189453,87.0476129 49.2189453,87.4755484 L49.2189453,92.1195484 C49.2189453,92.5472903 48.8695313,92.8935484 48.4378906,92.8935484 Z M40.6273438,91.3455484 L47.6568359,91.3455484 L47.6568359,88.2495484 L40.6273438,88.2495484 L40.6273438,91.3455484 Z"></path>
                            <path d="M60.1535156,88.2495484 L51.5621094,88.2495484 C51.1302734,88.2495484 50.7808594,87.9032903 50.7808594,87.4755484 C50.7808594,87.0476129 51.1302734,86.7015484 51.5621094,86.7015484 L60.1535156,86.7015484 C60.5853516,86.7015484 60.9347656,87.0476129 60.9347656,87.4755484 C60.9347656,87.9032903 60.5853516,88.2495484 60.1535156,88.2495484 Z"></path>
                            <path d="M60.1535156,91.3455484 L51.5621094,91.3455484 C51.1302734,91.3455484 50.7808594,90.9992903 50.7808594,90.5715484 C50.7808594,90.1436129 51.1302734,89.7975484 51.5621094,89.7975484 L60.1535156,89.7975484 C60.5853516,89.7975484 60.9347656,90.1436129 60.9347656,90.5715484 C60.9347656,90.9992903 60.5853516,91.3455484 60.1535156,91.3455484 Z"></path>
                            <path d="M56.2484375,9.30058065 L45.3136719,9.30058065 C44.8818359,9.30058065 44.5326172,8.95432258 44.5326172,8.52658065 L44.5326172,3.88258065 C44.5326172,3.61432258 44.6728516,3.3656129 44.903125,3.22412903 C45.1328125,3.08283871 45.4203125,3.07141935 45.6628906,3.19025806 L48.0832031,4.38909677 L50.0328125,0.445741935 C50.1632813,0.182709677 50.4324219,0.0149032258 50.7285156,0.0125806452 C51.0828125,-0.0116129032 51.2949219,0.173612903 51.4300781,0.435096774 L53.4689453,4.39509677 L55.8988281,3.19025806 C56.1414063,3.07083871 56.4283203,3.08148387 56.6587891,3.22412903 C56.8892578,3.36541935 57.0291016,3.61432258 57.0291016,3.88258065 L57.0291016,8.52658065 C57.0292969,8.95432258 56.6802734,9.30058065 56.2484375,9.30058065 Z M46.0947266,7.75258065 L55.4671875,7.75258065 L55.4671875,5.13503226 L53.4736328,6.12290323 C53.090625,6.31180645 52.6236328,6.16141935 52.4283203,5.78206452 L50.7478516,2.51748387 L49.1394531,5.77141935 C49.0470703,5.95664516 48.8845703,6.09793548 48.6878906,6.16374194 C48.4896484,6.22954839 48.2761719,6.21522581 48.0884766,6.12290323 L46.0947266,5.13503226 L46.0947266,7.75258065 Z"></path>
                            <path d="M50.7808594,66.5773548 C50.3494141,66.5773548 50,66.2310968 50,65.8033548 L50,54.9673548 C50,54.5396129 50.3494141,54.1933548 50.7808594,54.1933548 C51.2126953,54.1933548 51.5621094,54.5396129 51.5621094,54.9673548 L51.5621094,65.8033548 C51.5621094,66.2310968 51.2126953,66.5773548 50.7808594,66.5773548 Z"></path>
                            <path d="M50.7808594,66.5773548 C50.5814453,66.5773548 50.3814453,66.5016774 50.2289062,66.3505161 C49.9238281,66.0481935 49.9238281,65.5583226 50.2289062,65.2561935 L51.7910156,63.7081935 C52.0960937,63.405871 52.5902344,63.405871 52.8953125,63.7081935 C53.2003906,64.0105161 53.2003906,64.5001935 52.8953125,64.8025161 L51.3332031,66.3505161 C51.1806641,66.501871 50.9806641,66.5773548 50.7808594,66.5773548 Z"></path>
                            <path d="M50.7808594,66.5773548 C50.5814453,66.5773548 50.3814453,66.5016774 50.2289063,66.3505161 L48.6666016,64.8025161 C48.3615234,64.5001935 48.3615234,64.0103226 48.6666016,63.7081935 C48.9716797,63.405871 49.4660156,63.405871 49.7710938,63.7081935 L51.3332031,65.2561935 C51.6382812,65.5585161 51.6382812,66.0481935 51.3332031,66.3505161 C51.1806641,66.501871 50.9806641,66.5773548 50.7808594,66.5773548 Z"></path>
                            <path d="M16.4144531,61.9333548 C16.2146484,61.9333548 16.0148437,61.8576774 15.8621094,61.7065161 C15.5570312,61.4041935 15.5570312,60.9143226 15.8621094,60.6121935 L23.6726562,52.8721935 C23.9777344,52.569871 24.4720703,52.569871 24.7771484,52.8721935 C25.0822266,53.1745161 25.0822266,53.6643871 24.7771484,53.9665161 L16.9666016,61.7065161 C16.8142578,61.857871 16.6144531,61.9333548 16.4144531,61.9333548 Z"></path>
                            <path d="M18.6173828,61.9333548 L16.4144531,61.9333548 C15.9828125,61.9333548 15.6333984,61.5870968 15.6333984,61.1593548 C15.6333984,60.7316129 15.9828125,60.3853548 16.4144531,60.3853548 L18.6171875,60.3853548 C19.0488281,60.3853548 19.3982422,60.7316129 19.3982422,61.1593548 C19.3982422,61.5870968 19.0490234,61.9333548 18.6173828,61.9333548 Z"></path>
                            <path d="M16.4144531,61.9333548 C15.9828125,61.9333548 15.6333984,61.5870968 15.6333984,61.1593548 L15.6333984,58.9765161 C15.6333984,58.5485806 15.9828125,58.2025161 16.4144531,58.2025161 C16.8460937,58.2025161 17.1955078,58.5485806 17.1955078,58.9765161 L17.1955078,61.1593548 C17.1957031,61.5870968 16.8460937,61.9333548 16.4144531,61.9333548 Z"></path>
                            <path d="M85.1474609,61.9333548 C84.9476562,61.9333548 84.7480469,61.8576774 84.5955078,61.7065161 L76.7849609,53.9665161 C76.4798828,53.6641935 76.4798828,53.1743226 76.7849609,52.8721935 C77.0900391,52.569871 77.5841797,52.569871 77.8892578,52.8721935 L85.6998047,60.6121935 C86.0048828,60.9145161 86.0048828,61.4043871 85.6998047,61.7065161 C85.5472656,61.857871 85.3474609,61.9333548 85.1474609,61.9333548 Z"></path>
                            <path d="M85.1474609,61.9333548 L82.9449219,61.9333548 C82.5130859,61.9333548 82.1636719,61.5870968 82.1636719,61.1593548 C82.1636719,60.7316129 82.5130859,60.3853548 82.9449219,60.3853548 L85.1474609,60.3853548 C85.5792969,60.3853548 85.9287109,60.7316129 85.9287109,61.1593548 C85.9287109,61.5870968 85.5792969,61.9333548 85.1474609,61.9333548 Z"></path>
                            <path d="M85.1474609,61.9333548 C84.7160156,61.9333548 84.3666016,61.5870968 84.3666016,61.1593548 L84.3666016,58.9765161 C84.3666016,58.5485806 84.7160156,58.2025161 85.1474609,58.2025161 C85.5792969,58.2025161 85.9287109,58.5485806 85.9287109,58.9765161 L85.9287109,61.1593548 C85.9287109,61.5870968 85.5792969,61.9333548 85.1474609,61.9333548 Z"></path>
                        </g>
                    </g>
                </g>
            </g>
        </g>
    </g>
</svg>