<?xml version="1.0" encoding="UTF-8"?>
<svg width="100px" height="100px" viewBox="0 0 100 100" version="1.1" xmlns="http://www.w3.org/2000/svg" xmlns:xlink="http://www.w3.org/1999/xlink">
    <!-- Generator: Sketch 51 (57462) - http://www.bohemiancoding.com/sketch -->
    <title>multiple-sources</title>
    <desc>Created with Sketch.</desc>
    <defs></defs>
    <g id="Design" stroke="none" stroke-width="1" fill="none" fill-rule="evenodd">
        <g id="Features-Template-V2" transform="translate(-570.000000, -684.000000)" fill-rule="nonzero">
            <g id="Feature-Copy-7" transform="translate(135.000000, 634.000000)">
                <g id="multiple-sources" transform="translate(435.000000, 50.000000)">
                    <rect id="Rectangle-path" fill="#94C1FF" x="55.4658203" y="0.793359375" width="43.7392578" height="39.0529297"></rect>
                    <polygon id="Shape" fill="#D7E9FF" points="49.2173828 41.4083984 47.6552734 42.9705078 46.0931641 41.4083984 46.0931641 8.60390625 49.2173828 8.60390625"></polygon>
                    <rect id="Rectangle-path" fill="#94C1FF" x="30.4720703" y="3.91757812" width="9.37265625" height="4.68632812"></rect>
                    <path d="M16.4128906,7.82285156 L13.2886719,7.82285156 C12.8570312,7.82285156 12.5076172,7.4734375 12.5076172,7.04179687 L12.5076172,3.91757812 C12.5076172,3.4859375 12.8570312,3.13652344 13.2886719,3.13652344 L16.4128906,3.13652344 C16.8445312,3.13652344 17.1939453,3.4859375 17.1939453,3.91757812 L17.1939453,7.04179687 C17.1939453,7.4734375 16.8447266,7.82285156 16.4128906,7.82285156 Z M14.0697266,6.26074219 L15.6318359,6.26074219 L15.6318359,4.69863281 L14.0697266,4.69863281 L14.0697266,6.26074219 Z" id="Shape" fill="#116FFF"></path>
                    <rect id="Rectangle-path" fill="#94C1FF" x="0.791796875" y="2.35546875" width="12.496875" height="6.2484375"></rect>
                    <rect id="Rectangle-path" fill="#94C1FF" x="91.3945313" y="78.8992188" width="6.2484375" height="6.2484375"></rect>
                    <rect id="Rectangle-path" fill="#94C1FF" x="91.3945313" y="85.1476562" width="6.2484375" height="14.0589844"></rect>
                    <rect id="Rectangle-path" fill="#94C1FF" x="46.0931641" y="78.8992188" width="39.0529297" height="20.3076172"></rect>
                    <path d="M86.7082031,50.7794922 C80.66875,50.7794922 75.771875,55.6763672 75.771875,61.7158203 C75.771875,67.7552734 80.66875,72.6521484 86.7082031,72.6521484 C92.7476563,72.6521484 97.6445313,67.7552734 97.6445313,61.7158203 C97.6445313,55.6763672 92.7476563,50.7794922 86.7082031,50.7794922 Z M86.7082031,63.2779297 C85.8462891,63.2779297 85.1460938,62.5777344 85.1460938,61.7158203 C85.1460938,60.8539062 85.8462891,60.1537109 86.7082031,60.1537109 C87.5701172,60.1537109 88.2703125,60.8539062 88.2703125,61.7158203 C88.2703125,62.5777344 87.5701172,63.2779297 86.7082031,63.2779297 Z" id="Shape" fill="#D7E9FF"></path>
                    <path d="M86.7082031,50.7794922 C80.66875,50.7794922 75.771875,55.6763672 75.771875,61.7158203 C75.771875,67.7552734 80.66875,72.6521484 86.7082031,72.6521484 C92.7476563,72.6521484 97.6445313,67.7552734 97.6445313,61.7158203 C97.6445313,55.6763672 92.7476563,50.7794922 86.7082031,50.7794922 Z M86.7082031,71.0886719 C81.5337891,71.0886719 77.3355469,66.8904297 77.3355469,61.7160156 C77.3355469,56.5416016 81.5337891,52.3433594 86.7082031,52.3433594 C91.8826172,52.3433594 96.0808594,56.5416016 96.0808594,61.7160156 C96.0808594,66.8904297 91.8826172,71.0886719 86.7082031,71.0886719 Z" id="Shape" fill="#FFFFFF"></path>
                    <rect id="Rectangle-path" fill="#94C1FF" x="46.0931641" y="49.2189453" width="23.4318359" height="23.4318359"></rect>
                    <polygon id="Shape" fill="#FFFFFF" points="39.8447266 72.6507812 0.791796875 72.6507812 0.791796875 14.8523437 35.1583984 14.8523437 39.8447266 19.5402344"></polygon>
                    <rect id="Rectangle-path" fill="#FFFFFF" x="0.791796875" y="78.8992188" width="39.0529297" height="20.3076172"></rect>
                    <g id="Group" transform="translate(52.148438, 55.273438)">
                        <path d="M11.128125,5.66132812 C11.128125,8.68183594 8.6796875,11.1287109 5.66074219,11.1287109 C2.64023438,11.1287109 0.193359375,8.68183594 0.193359375,5.66132812 C0.193359375,2.64082031 2.64023438,0.193945312 5.66074219,0.193945312 C8.67949219,0.193945312 11.128125,2.64082031 11.128125,5.66132812 Z" id="Shape" fill="#FFFFFF"></path>
                        <path d="M2.06953125,9.75429688 C3.03066406,10.5994141 4.27871094,11.1287109 5.66074219,11.1287109 C7.06113281,11.1287109 8.32421875,10.5873047 9.29140625,9.72226562 L5.66074219,4.88027344 L2.06953125,9.75429688 Z" id="Shape" fill="#94C1FF"></path>
                    </g>
                    <g id="Group" transform="translate(59.960938, 83.398438)">
                        <path d="M11.1261719,5.65449219 C11.1261719,8.675 8.67773438,11.121875 5.65878906,11.121875 C2.63828125,11.121875 0.19140625,8.675 0.19140625,5.65449219 C0.19140625,2.63398438 2.63828125,0.187109375 5.65878906,0.187109375 C8.67773438,0.187109375 11.1261719,2.63398437 11.1261719,5.65449219 Z" id="Shape" fill="#FFFFFF"></path>
                        <path d="M2.06757813,9.74746094 C3.02871094,10.5925781 4.27675781,11.121875 5.65878906,11.121875 C7.05917969,11.121875 8.32226563,10.5804687 9.28945313,9.71542969 L5.65878906,4.8734375 L2.06757813,9.74746094 Z" id="Shape" fill="#94C1FF"></path>
                    </g>
                    <g id="Group" transform="translate(71.679688, 11.718750)">
                        <path d="M11.1248047,5.47675781 C11.1248047,8.49726563 8.67636719,10.9441406 5.65742188,10.9441406 C2.63691406,10.9441406 0.190039063,8.49726562 0.190039063,5.47675781 C0.190039063,2.45625 2.63691406,0.009375 5.65742188,0.009375 C8.67636719,0.009375 11.1248047,2.45625 11.1248047,5.47675781 Z" id="Shape" fill="#FFFFFF"></path>
                        <path d="M2.06640625,9.56972656 C3.02734375,10.4148437 4.27539062,10.9441406 5.65742188,10.9441406 C7.0578125,10.9441406 8.32109375,10.4027344 9.28808594,9.53769531 L5.65742188,4.69570313 L2.06640625,9.56972656 Z" id="Shape" fill="#94C1FF"></path>
                    </g>
                    <path d="M7.04023437,94.5203125 C7.04023437,95.3837891 6.34160156,96.0824219 5.478125,96.0824219 C4.61464844,96.0824219 3.91601562,95.3837891 3.91601562,94.5203125 C3.91601562,93.6568359 4.61464844,92.9582031 5.478125,92.9582031 C6.34160156,92.9582031 7.04023437,93.6568359 7.04023437,94.5203125 Z" id="Shape" fill="#D7E9FF"></path>
                    <path d="M10.1644531,24.225 C10.1644531,25.0884766 9.46582031,25.7871094 8.60234375,25.7871094 C7.73886719,25.7871094 7.04023438,25.0884766 7.04023438,24.225 C7.04023438,23.3615234 7.73886719,22.6628906 8.60234375,22.6628906 C9.46582031,22.6628906 10.1644531,23.3615234 10.1644531,24.225 Z" id="Shape" fill="#D7E9FF"></path>
                    <path d="M8.60234375,5.4796875 C8.60234375,6.34316406 7.90371094,7.04179687 7.04023438,7.04179687 C6.17675781,7.04179687 5.478125,6.34316406 5.478125,5.4796875 C5.478125,4.61621094 6.17675781,3.91757812 7.04023438,3.91757812 C7.90371094,3.91757812 8.60234375,4.61621094 8.60234375,5.4796875 Z" id="Shape" fill="#FFFFFF"></path>
                    <path d="M96.0810547,92.9582031 C96.0810547,93.8216797 95.3824219,94.5203125 94.5189453,94.5203125 C93.6554687,94.5203125 92.9568359,93.8216797 92.9568359,92.9582031 C92.9568359,92.0947266 93.6554687,91.3960938 94.5189453,91.3960938 C95.3824219,91.3960938 96.0810547,92.0947266 96.0810547,92.9582031 Z" id="Shape" fill="#FFFFFF"></path>
                    <rect id="Rectangle-path" fill="#94C1FF" x="33.5962891" y="82.0234375" width="3.12421875" height="3.12421875"></rect>
                    <rect id="Rectangle-path" fill="#D7E9FF" x="19.5371094" y="92.9582031" width="17.1833984" height="3.12421875"></rect>
                    <polygon id="Shape" fill="#FFFFFF" points="35.1583984 14.8539062 35.1583984 19.5386719 39.8447266 19.5386719"></polygon>
                    <path d="M33.5962891,64.0589844 C33.5962891,65.3525391 32.5451172,66.4021484 31.253125,66.4021484 C29.9580078,66.4021484 28.9099609,65.3525391 28.9099609,64.0589844 C28.9099609,62.7654297 29.9580078,61.7158203 31.253125,61.7158203 C32.5451172,61.7158203 33.5962891,62.7654297 33.5962891,64.0589844 Z" id="Shape" fill="#94C1FF"></path>
                    <path d="M90.8927734,51.6125 L87.3046875,60.2742187 C87.6861328,60.4328125 87.9912109,60.7363281 88.1498047,61.1177734 L96.8117187,57.53125 C95.7027344,54.8587891 93.5654297,52.7214844 90.8927734,51.6125 Z" id="Shape" fill="#FFFFFF"></path>
                    <rect id="Rectangle-path" fill="#D7E9FF" x="46.0931641" y="78.8992188" width="1.56367188" height="20.3076172"></rect>
                    <rect id="Rectangle-path" fill="#5C9EFF" x="83.5810547" y="78.8992188" width="1.56367188" height="20.3076172"></rect>
                    <rect id="Rectangle-path" fill="#94C1FF" x="19.5371094" y="2.35546875" width="6.2484375" height="6.2484375"></rect>
                    <rect id="Rectangle-path" fill="#FFFFFF" x="33.5962891" y="3.91757812" width="3.12421875" height="4.68632812"></rect>
                    <rect id="Rectangle-path" fill="#94C1FF" x="46.0931641" y="5.4796875" width="3.12421875" height="3.12421875"></rect>
                    <rect id="Rectangle-path" fill="#D7E9FF" x="46.0931641" y="2.35546875" width="3.12421875" height="3.12421875"></rect>
                    <rect id="Rectangle-path" fill="#D7E9FF" x="46.0931641" y="49.2189453" width="1.56367188" height="23.4318359"></rect>
                    <rect id="Rectangle-path" fill="#5C9EFF" x="67.9628906" y="49.2189453" width="1.56367188" height="23.4318359"></rect>
                    <rect id="Rectangle-path" fill="#E6E9ED" x="55.4658203" y="39.8462891" width="42.1771484" height="3.12421875"></rect>
                    <rect id="Rectangle-path" fill="#D7E9FF" x="55.4658203" y="0.793359375" width="1.56367188" height="39.0529297"></rect>
                    <rect id="Rectangle-path" fill="#5C9EFF" x="97.6431641" y="0.793359375" width="1.56367187" height="39.0529297"></rect>
                    <g id="_x32_5._brand_x2C__identity_x2C__design_x2C__advertising_x2C__brand_x2C__print__x0A_" fill="#116FFF">
                        <path d="M47.7025391,26.5681641 C47.2708984,26.5681641 46.9138672,26.21875 46.9138672,25.7871094 C46.9138672,25.3554688 47.2556641,25.0060547 47.6857422,25.0060547 L47.7025391,25.0060547 C48.1326172,25.0060547 48.4835938,25.3554688 48.4835938,25.7871094 C48.4835938,26.21875 48.1326172,26.5681641 47.7025391,26.5681641 Z" id="Shape"></path>
                        <path d="M39.8447266,73.4318359 L0.791796875,73.4318359 C0.36015625,73.4318359 0.0107421875,73.0824219 0.0107421875,72.6507812 L0.0107421875,14.8523437 C0.0107421875,14.4207031 0.36015625,14.0712891 0.791796875,14.0712891 L35.1583984,14.0712891 C35.5900391,14.0712891 35.9394531,14.4207031 35.9394531,14.8523437 C35.9394531,15.2839844 35.5900391,15.6333984 35.1583984,15.6333984 L1.57285156,15.6333984 L1.57285156,71.8697266 L39.0636719,71.8697266 L39.0636719,19.5386719 C39.0636719,19.1070312 39.4130859,18.7576172 39.8447266,18.7576172 C40.2763672,18.7576172 40.6257813,19.1070312 40.6257813,19.5386719 L40.6257813,72.6507813 C40.6257813,73.0824219 40.2763672,73.4318359 39.8447266,73.4318359 Z" id="Shape"></path>
                        <path d="M69.525,73.4318359 L46.0931641,73.4318359 C45.6615234,73.4318359 45.3121094,73.0824219 45.3121094,72.6507812 L45.3121094,49.2189453 C45.3121094,48.7873047 45.6615234,48.4378906 46.0931641,48.4378906 L69.525,48.4378906 C69.9566406,48.4378906 70.3060547,48.7873047 70.3060547,49.2189453 L70.3060547,72.6507812 C70.3060547,73.0824219 69.9566406,73.4318359 69.525,73.4318359 Z M46.8742188,71.8697266 L68.7439453,71.8697266 L68.7439453,50 L46.8742188,50 L46.8742188,71.8697266 Z" id="Shape"></path>
                        <path d="M39.8447266,99.9878906 L0.791796875,99.9878906 C0.36015625,99.9878906 0.0107421875,99.6384766 0.0107421875,99.2068359 L0.0107421875,78.8992188 C0.0107421875,78.4675781 0.36015625,78.1181641 0.791796875,78.1181641 L39.8447266,78.1181641 C40.2763672,78.1181641 40.6257813,78.4675781 40.6257813,78.8992188 L40.6257813,99.2068359 C40.6257813,99.6382813 40.2763672,99.9878906 39.8447266,99.9878906 Z M1.57285156,98.4255859 L39.0636719,98.4255859 L39.0636719,79.6800781 L1.57285156,79.6800781 L1.57285156,98.4255859 Z" id="Shape"></path>
                        <path d="M85.1460938,99.9878906 L46.0931641,99.9878906 C45.6615234,99.9878906 45.3121094,99.6384766 45.3121094,99.2068359 L45.3121094,78.8992188 C45.3121094,78.4675781 45.6615234,78.1181641 46.0931641,78.1181641 L85.1460938,78.1181641 C85.5777344,78.1181641 85.9271484,78.4675781 85.9271484,78.8992188 L85.9271484,99.2068359 C85.9271484,99.6382813 85.5777344,99.9878906 85.1460938,99.9878906 Z M46.8742188,98.4255859 L84.3650391,98.4255859 L84.3650391,79.6800781 L46.8742188,79.6800781 L46.8742188,98.4255859 Z" id="Shape"></path>
                        <path d="M99.2052734,40.6273438 L55.4658203,40.6273438 C55.0341797,40.6273438 54.6847656,40.2779297 54.6847656,39.8462891 L54.6847656,0.793359375 C54.6847656,0.36171875 55.0341797,0.0123046875 55.4658203,0.0123046875 L99.2050781,0.0123046875 C99.6367188,0.0123046875 99.9861328,0.36171875 99.9861328,0.793359375 L99.9861328,39.8462891 C99.9863281,40.2779297 99.6369141,40.6273438 99.2052734,40.6273438 Z M56.246875,39.0652344 L98.4240234,39.0652344 L98.4240234,1.57441406 L56.246875,1.57441406 L56.246875,39.0652344 Z" id="Shape"></path>
                        <path d="M13.2886719,9.38496094 L0.791796875,9.38496094 C0.36015625,9.38496094 0.0107421875,9.03554687 0.0107421875,8.60390625 L0.0107421875,2.35546875 C0.0107421875,1.92382813 0.36015625,1.57441406 0.791796875,1.57441406 L13.2886719,1.57441406 C13.7203125,1.57441406 14.0697266,1.92382812 14.0697266,2.35546875 L14.0697266,8.60390625 C14.0697266,9.03554687 13.7205078,9.38496094 13.2886719,9.38496094 Z M1.57285156,7.82285156 L12.5076172,7.82285156 L12.5076172,3.13652344 L1.57285156,3.13652344 L1.57285156,7.82285156 Z" id="Shape"></path>
                        <path d="M25.7855469,9.38496094 L19.5371094,9.38496094 C19.1054688,9.38496094 18.7560547,9.03554687 18.7560547,8.60390625 L18.7560547,2.35546875 C18.7560547,1.92382813 19.1054688,1.57441406 19.5371094,1.57441406 L25.7855469,1.57441406 C26.2171875,1.57441406 26.5666016,1.92382812 26.5666016,2.35546875 L26.5666016,8.60390625 C26.5666016,9.03554687 26.2173828,9.38496094 25.7855469,9.38496094 Z M20.3181641,7.82285156 L25.0044922,7.82285156 L25.0044922,3.13652344 L20.3181641,3.13652344 L20.3181641,7.82285156 Z" id="Shape"></path>
                        <path d="M47.6552734,43.7515625 C47.4554688,43.7515625 47.2556641,43.6751953 47.103125,43.5226562 L45.5410156,41.9605469 C45.3945313,41.8140625 45.3121094,41.6158203 45.3121094,41.4083984 L45.3121094,2.35546875 C45.3121094,1.92382813 45.6615234,1.57441406 46.0931641,1.57441406 L49.2173828,1.57441406 C49.6490234,1.57441406 49.9984375,1.92382812 49.9984375,2.35546875 L49.9984375,41.4083984 C49.9984375,41.6158203 49.9160156,41.8142578 49.7695313,41.9605469 L48.2074219,43.5226562 C48.0550781,43.6751953 47.8552734,43.7515625 47.6552734,43.7515625 Z M46.8742188,41.0847656 L47.6552734,41.8658203 L48.4363281,41.0847656 L48.4363281,3.13652344 L46.8742188,3.13652344 L46.8742188,41.0847656 Z" id="Shape"></path>
                        <path d="M39.8447266,20.3197266 C39.6449219,20.3197266 39.4451172,20.2433594 39.2925781,20.0908203 L34.60625,15.4044922 C34.3011719,15.0994141 34.3011719,14.6050781 34.60625,14.3001953 C34.9113281,13.9951172 35.4056641,13.9951172 35.7105469,14.3001953 L40.396875,18.9865234 C40.7019531,19.2916016 40.7019531,19.7857422 40.396875,20.0908203 C40.2443359,20.2433594 40.0445312,20.3197266 39.8447266,20.3197266 Z" id="Shape"></path>
                        <path d="M38.2826172,20.3197266 L35.1583984,20.3197266 C34.7267578,20.3197266 34.3773438,19.9703125 34.3773438,19.5386719 C34.3773438,19.1070312 34.7267578,18.7576172 35.1583984,18.7576172 L38.2826172,18.7576172 C38.7142578,18.7576172 39.0636719,19.1070312 39.0636719,19.5386719 C39.0636719,19.9703125 38.7142578,20.3197266 38.2826172,20.3197266 Z" id="Shape"></path>
                        <path d="M35.1583984,20.3197266 C34.7267578,20.3197266 34.3773438,19.9703125 34.3773438,19.5386719 L34.3773438,16.4144531 C34.3773438,15.9828125 34.7267578,15.6333984 35.1583984,15.6333984 C35.5900391,15.6333984 35.9394531,15.9828125 35.9394531,16.4144531 L35.9394531,19.5386719 C35.9394531,19.9705078 35.5900391,20.3197266 35.1583984,20.3197266 Z" id="Shape"></path>
                        <g id="Group" transform="translate(51.367188, 54.492188)">
                            <path d="M6.44335937,12.6912109 C2.99707031,12.6912109 0.193359375,9.88886719 0.193359375,6.44277344 C0.193359375,2.99667969 2.99707031,0.194335937 6.44335937,0.194335937 C9.88964844,0.194335937 12.6917969,2.99667969 12.6917969,6.44277344 C12.6917969,9.88886719 9.88964844,12.6912109 6.44335937,12.6912109 Z M6.44335938,1.75625 C3.85917969,1.75625 1.75546875,3.85839844 1.75546875,6.44257812 C1.75546875,9.02675781 3.85917969,11.1289063 6.44335938,11.1289063 C9.02753906,11.1289063 11.1296875,9.02675781 11.1296875,6.44257812 C11.1296875,3.85839844 9.02773437,1.75625 6.44335938,1.75625 Z" id="Shape"></path>
                            <path d="M4.10019531,9.56679688 C3.93691406,9.56679688 3.77207031,9.51640625 3.63203125,9.41113281 C3.28710938,9.15175781 3.21699219,8.66210938 3.47480469,8.31738281 L5.81796875,5.19316406 C6.08027344,4.84824219 6.57011719,4.778125 6.91171875,5.0359375 C7.25664063,5.2953125 7.32675781,5.78496094 7.06894531,6.1296875 L4.72578125,9.25390625 C4.57148438,9.45859375 4.33671875,9.56679688 4.10019531,9.56679688 Z" id="Shape"></path>
                            <path d="M8.78652344,9.56679688 C8.55,9.56679688 8.31523438,9.45839844 8.16113281,9.25390625 L5.81796875,6.1296875 C5.56015625,5.78496094 5.63027344,5.29550781 5.975,5.0359375 C6.31835938,4.778125 6.80820313,4.84824219 7.06894531,5.19316406 L9.41210938,8.31738281 C9.66992188,8.66210938 9.59980469,9.1515625 9.25488281,9.41113281 C9.11445313,9.51660156 8.94980469,9.56679688 8.78652344,9.56679688 Z" id="Shape"></path>
                        </g>
                        <g id="Group" transform="translate(59.179688, 82.617188)">
                            <path d="M6.44140625,12.6841797 C2.99511719,12.6841797 0.19140625,9.88183594 0.19140625,6.43574219 C0.19140625,2.98964844 2.99511719,0.187304687 6.44140625,0.187304687 C9.88769531,0.187304687 12.6898438,2.98964844 12.6898438,6.43574219 C12.6898438,9.88183594 9.88769531,12.6841797 6.44140625,12.6841797 Z M6.44140625,1.74941406 C3.85722656,1.74941406 1.75351563,3.8515625 1.75351563,6.43574219 C1.75351563,9.01992188 3.85722656,11.1220703 6.44140625,11.1220703 C9.02558594,11.1220703 11.1277344,9.01992188 11.1277344,6.43574219 C11.1277344,3.8515625 9.02578125,1.74941406 6.44140625,1.74941406 Z" id="Shape"></path>
                            <path d="M4.09824219,9.55996094 C3.93496094,9.55996094 3.77011719,9.50957031 3.63007813,9.40429688 C3.28515625,9.14492188 3.21503906,8.65527344 3.47285156,8.31054688 L5.81601563,5.18632813 C6.07832031,4.84140625 6.56816406,4.77128906 6.90976563,5.02910156 C7.2546875,5.28847656 7.32480469,5.778125 7.06699219,6.12285156 L4.72382813,9.24707031 C4.56953125,9.45175781 4.33476563,9.55996094 4.09824219,9.55996094 Z" id="Shape"></path>
                            <path d="M8.78476563,9.55996094 C8.54824219,9.55996094 8.31347656,9.4515625 8.159375,9.24707031 L5.81621094,6.12285156 C5.55839844,5.778125 5.62851563,5.28867188 5.97324219,5.02910156 C6.31660156,4.77128906 6.80644531,4.83984375 7.0671875,5.18632813 L9.41035156,8.31054688 C9.66816406,8.65527344 9.59804688,9.14472656 9.253125,9.40429688 C9.1125,9.50957031 8.94785156,9.55996094 8.78476563,9.55996094 Z" id="Shape"></path>
                        </g>
                        <g id="Group" transform="translate(70.898438, 10.937500)">
                            <path d="M6.43867187,12.5064453 C2.99238281,12.5064453 0.188671875,9.70410156 0.188671875,6.25800781 C0.188671875,2.81171875 2.99238281,0.0095703125 6.43867187,0.0095703125 C9.88476562,0.0095703125 12.6871094,2.81191406 12.6871094,6.25800781 C12.6871094,9.70410156 9.88457031,12.5064453 6.43867187,12.5064453 Z M6.43867188,1.57167969 C3.85449219,1.57167969 1.75078125,3.67382813 1.75078125,6.25800781 C1.75078125,8.8421875 3.85449219,10.9443359 6.43867188,10.9443359 C9.02285156,10.9443359 11.125,8.8421875 11.125,6.25800781 C11.125,3.67382813 9.02285156,1.57167969 6.43867188,1.57167969 Z" id="Shape"></path>
                            <path d="M4.09550781,9.38222656 C3.93222656,9.38222656 3.76738281,9.33183594 3.62714844,9.2265625 C3.28242187,8.9671875 3.21230469,8.47753906 3.47011719,8.1328125 L5.81328125,5.00859375 C6.07421875,4.66542969 6.56542969,4.59511719 6.90703125,4.8515625 C7.25195313,5.1109375 7.32207031,5.60058594 7.06425781,5.9453125 L4.72109375,9.06953125 C4.56679687,9.27382813 4.33203125,9.38222656 4.09550781,9.38222656 Z" id="Shape"></path>
                            <path d="M8.78183594,9.38222656 C8.5453125,9.38222656 8.31035156,9.27382813 8.15644531,9.06933594 L5.81328125,5.94511719 C5.55546875,5.60039063 5.62558594,5.11074219 5.97050781,4.85136719 C6.31367188,4.59355469 6.80332031,4.66367188 7.06425781,5.00839844 L9.40742188,8.13261719 C9.66523438,8.47734375 9.59511719,8.96699219 9.25019531,9.22636719 C9.10996094,9.33183594 8.94511719,9.38222656 8.78183594,9.38222656 Z" id="Shape"></path>
                        </g>
                        <path d="M8.60234375,26.5681641 C7.31015625,26.5681641 6.25917969,25.5169922 6.25917969,24.225 C6.25917969,22.9328125 7.31015625,21.8818359 8.60234375,21.8818359 C9.89433594,21.8818359 10.9455078,22.9328125 10.9455078,24.225 C10.9455078,25.5169922 9.89433594,26.5681641 8.60234375,26.5681641 Z M8.60234375,23.4439453 C8.17207031,23.4439453 7.82128906,23.7947266 7.82128906,24.225 C7.82128906,24.6552734 8.17207031,25.0060547 8.60234375,25.0060547 C9.03261719,25.0060547 9.38339844,24.6552734 9.38339844,24.225 C9.38339844,23.7947266 9.03261719,23.4439453 8.60234375,23.4439453 Z" id="Shape"></path>
                        <path d="M22.6613281,23.4439453 L13.2886719,23.4439453 C12.8570313,23.4439453 12.5076172,23.0945312 12.5076172,22.6628906 C12.5076172,22.23125 12.8570313,21.8818359 13.2886719,21.8818359 L22.6613281,21.8818359 C23.0929687,21.8818359 23.4423828,22.23125 23.4423828,22.6628906 C23.4423828,23.0945312 23.0931641,23.4439453 22.6613281,23.4439453 Z" id="Shape"></path>
                        <path d="M17.975,26.5681641 L13.2886719,26.5681641 C12.8570312,26.5681641 12.5076172,26.21875 12.5076172,25.7871094 C12.5076172,25.3554688 12.8570312,25.0060547 13.2886719,25.0060547 L17.975,25.0060547 C18.4066406,25.0060547 18.7560547,25.3554688 18.7560547,25.7871094 C18.7560547,26.21875 18.4068359,26.5681641 17.975,26.5681641 Z" id="Shape"></path>
                        <path d="M33.5962891,37.503125 L7.04023437,37.503125 C6.60859375,37.503125 6.25917969,37.1537109 6.25917969,36.7220703 C6.25917969,36.2904297 6.60859375,35.9410156 7.04023437,35.9410156 L33.5962891,35.9410156 C34.0279297,35.9410156 34.3773438,36.2904297 34.3773438,36.7220703 C34.3773438,37.1537109 34.0279297,37.503125 33.5962891,37.503125 Z" id="Shape"></path>
                        <path d="M33.5962891,42.1894531 L7.04023437,42.1894531 C6.60859375,42.1894531 6.25917969,41.8400391 6.25917969,41.4083984 C6.25917969,40.9767578 6.60859375,40.6273438 7.04023437,40.6273438 L33.5962891,40.6273438 C34.0279297,40.6273438 34.3773438,40.9767578 34.3773438,41.4083984 C34.3773438,41.8400391 34.0279297,42.1894531 33.5962891,42.1894531 Z" id="Shape"></path>
                        <path d="M33.5962891,46.8757812 L7.04023437,46.8757812 C6.60859375,46.8757812 6.25917969,46.5263672 6.25917969,46.0947266 C6.25917969,45.6630859 6.60859375,45.3136719 7.04023437,45.3136719 L33.5962891,45.3136719 C34.0279297,45.3136719 34.3773438,45.6630859 34.3773438,46.0947266 C34.3773438,46.5263672 34.0279297,46.8757812 33.5962891,46.8757812 Z" id="Shape"></path>
                        <path d="M33.5962891,51.5621094 L7.04023437,51.5621094 C6.60859375,51.5621094 6.25917969,51.2126953 6.25917969,50.7810547 C6.25917969,50.3494141 6.60839844,50 7.04023437,50 L33.5962891,50 C34.0279297,50 34.3773438,50.3494141 34.3773438,50.7810547 C34.3773438,51.2126953 34.0279297,51.5621094 33.5962891,51.5621094 Z" id="Shape"></path>
                        <path d="M19.5371094,56.2484375 L7.04023437,56.2484375 C6.60859375,56.2484375 6.25917969,55.8990234 6.25917969,55.4673828 C6.25917969,55.0357422 6.60859375,54.6863281 7.04023437,54.6863281 L19.5371094,54.6863281 C19.96875,54.6863281 20.3181641,55.0357422 20.3181641,55.4673828 C20.3181641,55.8990234 19.9689453,56.2484375 19.5371094,56.2484375 Z" id="Shape"></path>
                        <path d="M31.253125,67.1833984 C29.5308594,67.1833984 28.1289062,65.7814453 28.1289062,64.0591797 C28.1289062,62.3369141 29.5308594,60.9349609 31.253125,60.9349609 C32.9753906,60.9349609 34.3773438,62.3369141 34.3773438,64.0591797 C34.3773438,65.7814453 32.9753906,67.1833984 31.253125,67.1833984 Z M31.253125,62.496875 C30.3912109,62.496875 29.6910156,63.1970703 29.6910156,64.0589844 C29.6910156,64.9208984 30.3912109,65.6210938 31.253125,65.6210938 C32.1150391,65.6210938 32.8152344,64.9208984 32.8152344,64.0589844 C32.8152344,63.1970703 32.1150391,62.496875 31.253125,62.496875 Z" id="Shape"></path>
                        <path d="M16.4128906,4.69863281 L14.8507812,4.69863281 C14.4191406,4.69863281 14.0697266,4.34921875 14.0697266,3.91757812 C14.0697266,3.4859375 14.4191406,3.13652344 14.8507812,3.13652344 L16.4128906,3.13652344 C16.8445312,3.13652344 17.1939453,3.4859375 17.1939453,3.91757812 C17.1939453,4.34921875 16.8447266,4.69863281 16.4128906,4.69863281 Z" id="Shape"></path>
                        <path d="M16.4128906,7.82285156 L14.8507812,7.82285156 C14.4191406,7.82285156 14.0697266,7.4734375 14.0697266,7.04179687 C14.0697266,6.61015625 14.4191406,6.26074219 14.8507812,6.26074219 L16.4128906,6.26074219 C16.8445312,6.26074219 17.1939453,6.61015625 17.1939453,7.04179687 C17.1939453,7.4734375 16.8447266,7.82285156 16.4128906,7.82285156 Z" id="Shape"></path>
                        <path d="M16.4128906,7.82285156 C15.98125,7.82285156 15.6318359,7.4734375 15.6318359,7.04179687 L15.6318359,3.91757812 C15.6318359,3.4859375 15.98125,3.13652344 16.4128906,3.13652344 C16.8445312,3.13652344 17.1939453,3.4859375 17.1939453,3.91757812 L17.1939453,7.04179688 C17.1939453,7.4734375 16.8447266,7.82285156 16.4128906,7.82285156 Z" id="Shape"></path>
                        <path d="M7.04023438,7.82285156 C5.74804688,7.82285156 4.69707031,6.77167969 4.69707031,5.4796875 C4.69707031,4.1875 5.74804688,3.13652344 7.04023438,3.13652344 C8.33222656,3.13652344 9.38339844,4.1875 9.38339844,5.4796875 C9.38339844,6.77167969 8.33222656,7.82285156 7.04023438,7.82285156 Z M7.04023437,4.69863281 C6.60996094,4.69863281 6.25917969,5.04941406 6.25917969,5.4796875 C6.25917969,5.90996094 6.60996094,6.26074219 7.04023437,6.26074219 C7.47050781,6.26074219 7.82128906,5.90996094 7.82128906,5.4796875 C7.82128906,5.04941406 7.47050781,4.69863281 7.04023437,4.69863281 Z" id="Shape"></path>
                        <path d="M49.2173828,9.38496094 L46.0931641,9.38496094 C45.6615234,9.38496094 45.3121094,9.03554687 45.3121094,8.60390625 C45.3121094,8.17226562 45.6615234,7.82285156 46.0931641,7.82285156 L49.2173828,7.82285156 C49.6490234,7.82285156 49.9984375,8.17226562 49.9984375,8.60390625 C49.9984375,9.03554687 49.6492188,9.38496094 49.2173828,9.38496094 Z" id="Shape"></path>
                        <path d="M49.2173828,6.26074219 L46.0931641,6.26074219 C45.6615234,6.26074219 45.3121094,5.91132813 45.3121094,5.4796875 C45.3121094,5.04804688 45.6615234,4.69863281 46.0931641,4.69863281 L49.2173828,4.69863281 C49.6490234,4.69863281 49.9984375,5.04804688 49.9984375,5.4796875 C49.9984375,5.91132813 49.6492188,6.26074219 49.2173828,6.26074219 Z" id="Shape"></path>
                        <path d="M39.8447266,9.38496094 L30.4720703,9.38496094 C30.0404297,9.38496094 29.6910156,9.03554688 29.6910156,8.60390625 L29.6910156,3.91757813 C29.6910156,3.4859375 30.0404297,3.13652344 30.4720703,3.13652344 L39.8447266,3.13652344 C40.2763672,3.13652344 40.6257813,3.4859375 40.6257813,3.91757813 L40.6257813,8.60390625 C40.6257813,9.03554688 40.2763672,9.38496094 39.8447266,9.38496094 Z M31.253125,7.82285156 L39.0636719,7.82285156 L39.0636719,4.69863281 L31.253125,4.69863281 L31.253125,7.82285156 Z" id="Shape"></path>
                        <path d="M33.5962891,9.38496094 C33.1646484,9.38496094 32.8152344,9.03554688 32.8152344,8.60390625 L32.8152344,3.91757813 C32.8152344,3.4859375 33.1646484,3.13652344 33.5962891,3.13652344 C34.0279297,3.13652344 34.3773438,3.4859375 34.3773438,3.91757813 L34.3773438,8.60390625 C34.3773438,9.03554688 34.0279297,9.38496094 33.5962891,9.38496094 Z" id="Shape"></path>
                        <path d="M36.7205078,9.38496094 C36.2888672,9.38496094 35.9394531,9.03554688 35.9394531,8.60390625 L35.9394531,3.91757813 C35.9394531,3.4859375 36.2888672,3.13652344 36.7205078,3.13652344 C37.1521484,3.13652344 37.5015625,3.4859375 37.5015625,3.91757813 L37.5015625,8.60390625 C37.5015625,9.03554688 37.1521484,9.38496094 36.7205078,9.38496094 Z" id="Shape"></path>
                        <path d="M86.7021484,73.4347656 C85.1644531,73.4347656 83.6572266,73.1341797 82.2232422,72.5408203 C76.2568359,70.0664062 73.4119141,63.1986328 75.8816406,57.2308594 C77.7044922,52.8357422 81.95625,49.996875 86.7126953,49.996875 C88.2519531,49.996875 89.7591797,50.2974609 91.1916016,50.8908203 C97.1580078,53.3636719 100.00293,60.2314453 97.5332031,66.1992188 C95.7119141,70.5958984 91.4601563,73.4347656 86.7021484,73.4347656 Z M86.7128906,51.5589844 C82.5894531,51.5589844 78.9039063,54.0197266 77.325,57.8289063 C75.1847656,63.0017578 77.6498047,68.9544922 82.8214844,71.0978516 C84.0646484,71.6119141 85.3707031,71.8728516 86.7023437,71.8728516 C90.8257813,71.8728516 94.5113281,69.4121094 96.0902344,65.6015625 C98.2304688,60.4298828 95.7652344,54.4775391 90.59375,52.3341797 C89.3519531,51.8199219 88.0460937,51.5589844 86.7128906,51.5589844 Z" id="Shape"></path>
                        <path d="M86.7066406,64.0589844 C86.3984375,64.0589844 86.0964844,63.9994141 85.8095703,63.8804687 C85.2330078,63.6408203 84.7814453,63.1910156 84.5419922,62.6113281 C84.3023437,62.0330078 84.3023437,61.3953125 84.5419922,60.8171875 C85.0224609,59.6564453 86.4320312,59.0658203 87.6052734,59.5511719 C88.1818359,59.7892578 88.6318359,60.240625 88.8728516,60.81875 C89.1125,61.396875 89.1125,62.0345703 88.8728516,62.6128906 C88.5099609,63.4916016 87.6585937,64.0589844 86.7066406,64.0589844 Z M86.7082031,60.9347656 C86.3908203,60.9347656 86.1072266,61.1240234 85.9851563,61.4167969 C85.9058594,61.6089844 85.9058594,61.8210938 85.9851563,62.0132812 C86.0644531,62.2070312 86.215625,62.3566406 86.4076172,62.4375 C86.8166016,62.6023438 87.2695313,62.4007813 87.4296875,62.0148438 C87.5089844,61.8228516 87.5089844,61.6107422 87.4296875,61.4167969 C87.3488281,61.2248047 87.1992188,61.0736328 87.0070313,60.9943359 C86.9097656,60.9546875 86.8105469,60.9347656 86.7082031,60.9347656 Z" id="Shape"></path>
                        <path d="M55.4658203,43.7515625 C55.0341797,43.7515625 54.6847656,43.4021484 54.6847656,42.9705078 L54.6847656,39.8462891 C54.6847656,39.4146484 55.0341797,39.0652344 55.4658203,39.0652344 C55.8974609,39.0652344 56.246875,39.4146484 56.246875,39.8462891 L56.246875,42.9705078 C56.246875,43.4021484 55.8974609,43.7515625 55.4658203,43.7515625 Z" id="Shape"></path>
                        <path d="M99.2082031,43.7515625 L55.4658203,43.7515625 C55.0341797,43.7515625 54.6847656,43.4021484 54.6847656,42.9705078 C54.6847656,42.5388672 55.0341797,42.1894531 55.4658203,42.1894531 L99.2082031,42.1894531 C99.6398438,42.1894531 99.9892578,42.5388672 99.9892578,42.9705078 C99.9892578,43.4021484 99.6398438,43.7515625 99.2082031,43.7515625 Z" id="Shape"></path>
                        <path d="M97.6431641,43.7515625 C97.2115234,43.7515625 96.8621094,43.4021484 96.8621094,42.9705078 L96.8621094,39.8462891 C96.8621094,39.4146484 97.2115234,39.0652344 97.6431641,39.0652344 C98.0748047,39.0652344 98.4242188,39.4146484 98.4242188,39.8462891 L98.4242188,42.9705078 C98.4242188,43.4021484 98.0748047,43.7515625 97.6431641,43.7515625 Z" id="Shape"></path>
                        <path d="M89.8324219,28.1302734 L64.8386719,28.1302734 C64.4070313,28.1302734 64.0576172,27.7808594 64.0576172,27.3492187 C64.0576172,26.9175781 64.4070313,26.5681641 64.8386719,26.5681641 L89.8326172,26.5681641 C90.2642578,26.5681641 90.6136719,26.9175781 90.6136719,27.3492187 C90.6136719,27.7808594 90.2640625,28.1302734 89.8324219,28.1302734 Z" id="Shape"></path>
                        <path d="M85.1460937,31.2544922 L69.525,31.2544922 C69.0933594,31.2544922 68.7439453,30.9050781 68.7439453,30.4734375 C68.7439453,30.0417969 69.0933594,29.6923828 69.525,29.6923828 L85.1460937,29.6923828 C85.5777344,29.6923828 85.9271484,30.0417969 85.9271484,30.4734375 C85.9271484,30.9050781 85.5777344,31.2544922 85.1460937,31.2544922 Z" id="Shape"></path>
                        <path d="M5.478125,96.8634766 C4.1859375,96.8634766 3.13496094,95.8123047 3.13496094,94.5203125 C3.13496094,93.228125 4.1859375,92.1771484 5.478125,92.1771484 C6.77011719,92.1771484 7.82128906,93.228125 7.82128906,94.5203125 C7.82128906,95.8125 6.77011719,96.8634766 5.478125,96.8634766 Z M5.478125,93.7392578 C5.04785156,93.7392578 4.69707031,94.0902344 4.69707031,94.5203125 C4.69707031,94.9503906 5.04785156,95.3013672 5.478125,95.3013672 C5.90839844,95.3013672 6.25917969,94.9503906 6.25917969,94.5203125 C6.25917969,94.0902344 5.90820312,93.7392578 5.478125,93.7392578 Z" id="Shape"></path>
                        <path d="M36.7205078,96.8634766 L19.5371094,96.8634766 C19.1054688,96.8634766 18.7560547,96.5140625 18.7560547,96.0824219 L18.7560547,92.9582031 C18.7560547,92.5265625 19.1054688,92.1771484 19.5371094,92.1771484 L36.7205078,92.1771484 C37.1521484,92.1771484 37.5015625,92.5265625 37.5015625,92.9582031 L37.5015625,96.0824219 C37.5015625,96.5140625 37.1521484,96.8634766 36.7205078,96.8634766 Z M20.3181641,95.3013672 L35.9392578,95.3013672 L35.9392578,93.7392578 L20.3181641,93.7392578 L20.3181641,95.3013672 Z" id="Shape"></path>
                        <path d="M36.7205078,85.9287109 L33.5962891,85.9287109 C33.1646484,85.9287109 32.8152344,85.5792969 32.8152344,85.1476562 L32.8152344,82.0234375 C32.8152344,81.5917969 33.1646484,81.2423828 33.5962891,81.2423828 L36.7205078,81.2423828 C37.1521484,81.2423828 37.5015625,81.5917969 37.5015625,82.0234375 L37.5015625,85.1476562 C37.5015625,85.5792969 37.1521484,85.9287109 36.7205078,85.9287109 Z M34.3773438,84.3666016 L35.9394531,84.3666016 L35.9394531,82.8044922 L34.3773438,82.8044922 L34.3773438,84.3666016 Z" id="Shape"></path>
                        <path d="M13.2886719,95.3013672 L10.1644531,95.3013672 C9.7328125,95.3013672 9.38339844,94.9519531 9.38339844,94.5203125 C9.38339844,94.0886719 9.7328125,93.7392578 10.1644531,93.7392578 L13.2886719,93.7392578 C13.7203125,93.7392578 14.0697266,94.0886719 14.0697266,94.5203125 C14.0697266,94.9519531 13.7205078,95.3013672 13.2886719,95.3013672 Z" id="Shape"></path>
                        <path d="M11.7265625,82.8044922 L3.91601562,82.8044922 C3.484375,82.8044922 3.13496094,82.4550781 3.13496094,82.0234375 C3.13496094,81.5917969 3.484375,81.2423828 3.91601562,81.2423828 L11.7265625,81.2423828 C12.1582031,81.2423828 12.5076172,81.5917969 12.5076172,82.0234375 C12.5076172,82.4550781 12.1582031,82.8044922 11.7265625,82.8044922 Z" id="Shape"></path>
                        <path d="M55.4658203,92.1771484 L50.7794922,92.1771484 C50.3478516,92.1771484 49.9984375,91.8277344 49.9984375,91.3960937 C49.9984375,90.9644531 50.3478516,90.6150391 50.7794922,90.6150391 L55.4658203,90.6150391 C55.8974609,90.6150391 56.246875,90.9644531 56.246875,91.3960937 C56.246875,91.8277344 55.8974609,92.1771484 55.4658203,92.1771484 Z" id="Shape"></path>
                        <path d="M55.4658203,87.4908203 L50.7794922,87.4908203 C50.3478516,87.4908203 49.9984375,87.1414062 49.9984375,86.7097656 C49.9984375,86.278125 50.3478516,85.9287109 50.7794922,85.9287109 L55.4658203,85.9287109 C55.8974609,85.9287109 56.246875,86.278125 56.246875,86.7097656 C56.246875,87.1414062 55.8974609,87.4908203 55.4658203,87.4908203 Z" id="Shape"></path>
                        <path d="M80.4597656,92.1771484 L75.7734375,92.1771484 C75.3417969,92.1771484 74.9923828,91.8277344 74.9923828,91.3960937 C74.9923828,90.9644531 75.3417969,90.6150391 75.7734375,90.6150391 L80.4597656,90.6150391 C80.8914062,90.6150391 81.2408203,90.9644531 81.2408203,91.3960937 C81.2408203,91.8277344 80.8914062,92.1771484 80.4597656,92.1771484 Z" id="Shape"></path>
                        <path d="M80.4597656,87.4908203 L75.7734375,87.4908203 C75.3417969,87.4908203 74.9923828,87.1414062 74.9923828,86.7097656 C74.9923828,86.278125 75.3417969,85.9287109 75.7734375,85.9287109 L80.4597656,85.9287109 C80.8914062,85.9287109 81.2408203,86.278125 81.2408203,86.7097656 C81.2408203,87.1414062 80.8914062,87.4908203 80.4597656,87.4908203 Z" id="Shape"></path>
                        <path d="M97.6431641,99.9878906 L91.3945312,99.9878906 C90.9628906,99.9878906 90.6134766,99.6384766 90.6134766,99.2068359 L90.6134766,86.7099609 C90.6134766,86.2783203 90.9628906,85.9289062 91.3945312,85.9289062 C91.8261719,85.9289062 92.1755859,86.2783203 92.1755859,86.7099609 L92.1755859,98.4257812 L96.8619141,98.4257812 L96.8619141,86.7099609 C96.8619141,86.2783203 97.2113281,85.9289062 97.6429688,85.9289062 C98.0746094,85.9289062 98.4240234,86.2783203 98.4240234,86.7099609 L98.4240234,99.2068359 C98.4242188,99.6382812 98.0748047,99.9878906 97.6431641,99.9878906 Z" id="Shape"></path>
                        <path d="M97.6431641,85.9287109 L91.3945312,85.9287109 C90.9628906,85.9287109 90.6134766,85.5792969 90.6134766,85.1476562 L90.6134766,78.8992187 C90.6134766,78.4675781 90.9628906,78.1181641 91.3945312,78.1181641 L97.6429688,78.1181641 C98.0746094,78.1181641 98.4240234,78.4675781 98.4240234,78.8992187 L98.4240234,85.1476562 C98.4242188,85.5792969 98.0748047,85.9287109 97.6431641,85.9287109 Z M92.1755859,84.3666016 L96.8619141,84.3666016 L96.8619141,79.6802734 L92.1755859,79.6802734 L92.1755859,84.3666016 Z" id="Shape"></path>
                        <path d="M96.0810547,85.9287109 L92.9568359,85.9287109 C92.5251953,85.9287109 92.1757812,85.5792969 92.1757812,85.1476562 C92.1757812,84.7160156 92.5251953,84.3666016 92.9568359,84.3666016 L96.0810547,84.3666016 C96.5126953,84.3666016 96.8621094,84.7160156 96.8621094,85.1476562 C96.8621094,85.5792969 96.5126953,85.9287109 96.0810547,85.9287109 Z" id="Shape"></path>
                        <path d="M94.5189453,95.3013672 C93.2267578,95.3013672 92.1757812,94.2501953 92.1757812,92.9582031 C92.1757812,91.6660156 93.2267578,90.6150391 94.5189453,90.6150391 C95.8109375,90.6150391 96.8621094,91.6660156 96.8621094,92.9582031 C96.8621094,94.2503906 95.8109375,95.3013672 94.5189453,95.3013672 Z M94.5189453,92.1771484 C94.0888672,92.1771484 93.7378906,92.528125 93.7378906,92.9582031 C93.7378906,93.3882813 94.0888672,93.7392578 94.5189453,93.7392578 C94.9490234,93.7392578 95.3,93.3882813 95.3,92.9582031 C95.3,92.528125 94.9490234,92.1771484 94.5189453,92.1771484 Z" id="Shape"></path>
                    </g>
                </g>
            </g>
        </g>
    </g>
</svg>