<?xml version="1.0" encoding="UTF-8"?>
<svg width="96px" height="100px" viewBox="0 0 96 100" version="1.1" xmlns="http://www.w3.org/2000/svg" xmlns:xlink="http://www.w3.org/1999/xlink">
    <!-- Generator: Sketch 51 (57462) - http://www.bohemiancoding.com/sketch -->
    <title>powerful-search</title>
    <desc>Created with Sketch.</desc>
    <defs></defs>
    <g id="Design" stroke="none" stroke-width="1" fill="none" fill-rule="evenodd">
        <g id="Features-Template-V2" transform="translate(-1169.000000, -1868.000000)" fill-rule="nonzero">
            <g id="Feature-Copy-5" transform="translate(730.000000, 1818.000000)">
                <g id="powerful-search" transform="translate(439.000000, 50.000000)">
                    <path d="M72.022439,64.3583984 L64.3004878,72.0880859 L85.7754146,93.5839844 L85.7861463,93.5748047 C85.8197073,93.6099609 85.8425366,93.6511719 85.8776585,93.6845703 C88.0109268,95.8199219 91.4680976,95.8199219 93.5996098,93.6861328 C95.7313171,91.5523437 95.7313171,88.0916016 93.5996098,85.9566406 C93.5644878,85.9214844 93.5235122,85.8970703 93.4870244,85.8650391 L93.4977561,85.8542969 L72.022439,64.3583984 Z" id="Shape" fill="#94C1FF"></path>
                    <path d="M88.0839024,91.4775391 C88.0487805,91.4423828 88.0259512,91.4011719 87.9908293,91.3646484 L87.9816585,91.3753906 L66.5069268,69.8794922 L64.3004878,72.0880859 L85.7754146,93.5839844 L85.7861463,93.5748047 C85.8197073,93.6099609 85.8425366,93.6511719 85.8776585,93.6845703 C88.0109268,95.8199219 91.4680976,95.8199219 93.5996098,93.6861328 C93.9853659,93.3001953 94.2778537,92.8609375 94.5229268,92.4035156 C92.4552195,93.5167969 89.8300488,93.2253906 88.0839024,91.4775391 Z" id="Shape" fill="#D7E9FF"></path>
                    <polygon id="Shape" fill="#94C1FF" points="66.0193171 87.0591797 68.225561 89.2677734 70.4349268 87.0591797 71.5381463 88.1632813 70.4013659 91.4439453 71.5381463 92.5804688 72.6411707 91.4759766 74.8476098 93.6845703 73.7441951 94.7886719 78.158439 99.2087891 84.776 92.5833984 80.3617561 88.1632813 78.1555122 85.9566406 72.6382439 80.4337891"></polygon>
                    <polygon id="Shape" fill="#D7E9FF" points="70.9194146 65.4626953 65.4050732 70.9808594 56.4825366 62.0523438 61.9964878 56.5310547"></polygon>
                    <polygon id="Shape" fill="#FFFFFF" points="66.5114146 69.8734375 65.4050732 70.9808594 56.4825366 62.0523437 57.5886829 60.9435547"></polygon>
                    <path d="M69.4505366,35.1511719 C69.4520976,54.1275391 54.0827317,69.5134766 35.124878,69.5119141 C16.1670244,69.5119141 0.797658537,54.1273437 0.797658537,35.1511719 C0.797658537,16.175 16.1670244,0.791992187 35.1233171,0.791210937 C54.0827317,0.791992187 69.4519024,16.1748047 69.4505366,35.1511719 Z" id="Shape" fill="#FFFFFF"></path>
                    <path d="M66.3299512,35.1519531 C66.3299512,52.4025391 52.3578537,66.3867188 35.1246829,66.3867188 C17.8901463,66.3867188 3.91941463,52.4023437 3.91941463,35.1519531 C3.91785366,17.9013672 17.8901463,3.91699219 35.1246829,3.91699219 C52.3578537,3.91699219 66.3299512,17.9013672 66.3299512,35.1519531 Z" id="Shape" fill="#5C9EFF"></path>
                    <path d="M8.59882927,35.1527344 C8.59882927,18.6921875 21.3276098,5.23769531 37.4649756,4.03515625 C36.6893659,3.97792969 35.9139512,3.91699219 35.1246829,3.91699219 C17.8901463,3.91699219 3.91785366,17.9015625 3.91941463,35.1519531 C3.91941463,52.4025391 17.8901463,66.3867188 35.1246829,66.3867188 C35.9139512,66.3867188 36.688,66.3257813 37.4620488,66.2679688 C21.3262439,65.0662109 8.59882927,51.6109375 8.59882927,35.1527344 Z" id="Shape" fill="#94C1FF"></path>
                    <polygon id="Shape" fill="#5C9EFF" points="83.6893659 93.7013672 84.7912195 92.5986328 72.6382439 80.4337891 71.5365854 81.5380859"></polygon>
                    <g id="_x37__magnifier_x2C__search_x2C__key_x2C__word_x2C__seo_x2C__promotion_x2C__marketing" fill="#116FFF">
                        <path d="M35.124878,70.2914062 C25.7465366,70.2914062 16.9305366,66.6371094 10.300878,59.9996094 C3.66985366,53.3621094 0.0173658537,44.5373047 0.0173658537,35.1513672 C0.0173658537,25.7654297 3.66809756,16.9414062 10.2993171,10.3039062 C16.9305366,3.66621094 25.7465366,0.0103515625 35.1233171,0.0103515625 C44.5000976,0.0103515625 53.3160976,3.66621094 59.9457561,10.3037109 C66.5785366,16.9404297 70.2308293,25.7644531 70.2308293,35.1511719 C70.2323902,44.5378906 66.5800976,53.3619141 59.948878,59.9994141 C53.3176585,66.6371094 44.5016585,70.2914062 35.124878,70.2914062 Z M35.1233171,1.57207031 C26.1639024,1.57207031 17.7395122,5.06542969 11.4025366,11.4080078 C5.06692683,17.7503906 1.5777561,26.1824219 1.5777561,35.1511719 C1.5777561,44.1199219 5.06692683,52.5535156 11.4040976,58.8951172 C17.7397073,65.2369141 26.1640976,68.7296875 35.124878,68.7296875 C44.0856585,68.7296875 52.5102439,65.2369141 58.8456585,58.8951172 C65.1828293,52.5535156 68.6718049,44.1207031 68.670439,35.1511719 C68.670439,26.1824219 65.1797073,17.7496094 58.8427317,11.4080078 C52.507122,5.06542969 44.0840976,1.57207031 35.1233171,1.57207031 Z" id="Shape"></path>
                        <path d="M35.1233171,67.1662109 C26.5785366,67.1662109 18.547122,63.8367188 12.507122,57.7910156 C6.46731707,51.7453125 3.1395122,43.7052734 3.1395122,35.1527344 C3.14107317,26.5996094 6.46731707,18.559375 12.507122,12.5128906 C18.547122,6.46621094 26.5800976,3.1359375 35.124878,3.1359375 C43.6682927,3.1359375 51.6995122,6.46542969 57.7395122,12.5113281 C70.2078049,24.9941406 70.2093659,45.3064453 57.7426341,57.7908203 C51.7010732,63.8367188 43.6680976,67.1662109 35.1233171,67.1662109 Z M35.124878,4.69785156 C26.9974634,4.69785156 19.3562927,7.865625 13.6103415,13.6171875 C7.86439024,19.3685547 4.70126829,27.0166016 4.69970732,35.1527344 C4.69970732,43.2880859 7.86439024,50.9361328 13.6103415,56.6867187 C19.3560976,62.4365234 26.9959024,65.6042969 35.1233171,65.6042969 C43.2507317,65.6042969 50.8919024,62.4365234 56.6394146,56.6867187 C68.4969756,44.8115234 68.4969756,25.4898437 56.6362927,13.615625 C50.8919024,7.86503906 43.2520976,4.69785156 35.124878,4.69785156 Z" id="Shape"></path>
                        <path d="M65.4035122,71.7617187 C65.2040976,71.7617187 65.0042927,71.6853516 64.8520976,71.5328125 L57.742439,64.4162109 C57.4376585,64.1111328 57.4376585,63.6169922 57.742439,63.3121094 C58.0472195,63.0070312 58.540878,63.0070312 58.8454634,63.3121094 L65.955122,70.4287109 C66.2599024,70.7337891 66.2599024,71.2279297 65.955122,71.5328125 C65.8027317,71.6853516 65.6033171,71.7617187 65.4035122,71.7617187 Z" id="Shape"></path>
                        <path d="M70.9194146,66.2435547 C70.72,66.2435547 70.5201951,66.1671875 70.3678049,66.0146484 L63.2583415,58.8951172 C62.953561,58.5900391 62.953561,58.0958984 63.2583415,57.7910156 C63.563122,57.4859375 64.0567805,57.4859375 64.3613659,57.7910156 L71.4710244,64.9105469 C71.7758049,65.215625 71.7758049,65.7097656 71.4710244,66.0146484 C71.3186341,66.1671875 71.1188293,66.2435547 70.9194146,66.2435547 Z" id="Shape"></path>
                        <path d="M64.3004878,72.8689453 C64.100878,72.8689453 63.9012683,72.7925781 63.748878,72.6402344 C63.4440976,72.3351562 63.4440976,71.8408203 63.748878,71.5359375 L71.4710244,63.8064453 C71.7758049,63.5013672 72.2694634,63.5013672 72.5740488,63.8064453 C72.8786341,64.1115234 72.8788293,64.6056641 72.5740488,64.9105469 L64.8520976,72.6402344 C64.6997073,72.7925781 64.4999024,72.8689453 64.3004878,72.8689453 Z" id="Shape"></path>
                        <path d="M93.497561,86.6351563 C93.2979512,86.6351563 93.0983415,86.5587891 92.9459512,86.40625 L71.4710244,64.9105469 C71.1662439,64.6054688 71.1662439,64.1113281 71.4710244,63.8064453 C71.7758049,63.5013672 72.2694634,63.5013672 72.5740488,63.8064453 L94.0491707,85.3023438 C94.3539512,85.6074219 94.3539512,86.1015625 94.0491707,86.4064453 C93.8967805,86.5589844 93.6969756,86.6351563 93.497561,86.6351563 Z" id="Shape"></path>
                        <path d="M85.8774634,94.4654297 C85.6780488,94.4654297 85.4782439,94.3890625 85.3258537,94.2367188 L63.748878,72.6402344 C63.4440976,72.3351563 63.4440976,71.8408203 63.748878,71.5359375 C64.0536585,71.2308594 64.5473171,71.2308594 64.8520976,71.5359375 L86.4290732,93.1324219 C86.7338537,93.4375 86.7338537,93.9316406 86.4290732,94.2367188 C86.2766829,94.3890625 86.0770732,94.4654297 85.8774634,94.4654297 Z" id="Shape"></path>
                        <path d="M89.7432195,96.0699219 C88.0747317,96.0699219 86.5069268,95.41875 85.3258537,94.2367188 C85.0210732,93.9316406 85.0210732,93.4375 85.3258537,93.1324219 C85.6306341,92.8273438 86.1242927,92.8273438 86.4290732,93.1324219 C87.3143415,94.0201172 88.4920976,94.5082031 89.7430244,94.5082031 C89.7445854,94.5082031 89.7445854,94.5082031 89.7461463,94.5082031 C90.9941463,94.5066406 92.1672195,94.0201172 93.048,93.1369141 C93.9348293,92.2507813 94.4222439,91.0734375 94.4222439,89.8226563 C94.4222439,88.571875 93.9348293,87.3945312 93.049561,86.5068359 C92.7447805,86.2017578 92.7447805,85.7076172 93.049561,85.4027344 C93.3543415,85.0976562 93.848,85.0976562 94.1525854,85.4027344 C95.3319024,86.5847656 95.9826341,88.1541016 95.9826341,89.8226563 C95.9826341,91.4912109 95.3334634,93.0589844 94.1525854,94.2396484 C92.9777561,95.4185547 91.4115122,96.0681641 89.7461463,96.0697266 C89.7445854,96.0699219 89.7445854,96.0699219 89.7432195,96.0699219 Z" id="Shape"></path>
                        <path d="M78.1570732,99.9896484 C77.9574634,99.9896484 77.7576585,99.9132813 77.6054634,99.7607422 C77.3006829,99.4556641 77.3006829,98.9615234 77.6054634,98.6566406 L83.1213659,93.1324219 C83.4261463,92.8273438 83.9198049,92.8273438 84.2243902,93.1324219 C84.5291707,93.4375 84.5291707,93.9316406 84.2243902,94.2367188 L78.7084878,99.7607422 C78.5562927,99.9134766 78.3564878,99.9896484 78.1570732,99.9896484 Z" id="Shape"></path>
                        <path d="M78.1570732,99.9896484 C77.9574634,99.9896484 77.7576585,99.9132812 77.6054634,99.7607422 L73.1929756,95.3408203 C72.8881951,95.0357422 72.8881951,94.5416016 73.1929756,94.2367187 L73.7443902,93.6845703 L72.6413659,92.5804687 L72.0897561,93.1324219 C71.7849756,93.4375 71.2913171,93.4375 70.9867317,93.1324219 L69.8821463,92.0283203 C69.6733659,91.8179687 69.6001951,91.5097656 69.6946341,91.2291016 L70.6454634,88.3740234 L70.435122,88.1634766 L68.7773659,89.8197266 C68.4725854,90.1248047 67.9789268,90.1248047 67.6743415,89.8197266 L65.4679024,87.6113281 C65.163122,87.3076172 65.163122,86.8121094 65.4679024,86.5070312 C65.7726829,86.2019531 66.2663415,86.2019531 66.571122,86.5070312 L68.2257561,88.1632812 L69.8835122,86.5070312 C70.1882927,86.2035156 70.6819512,86.2035156 70.9865366,86.5070312 L72.089561,87.6113281 C72.2983415,87.8201172 72.3715122,88.1296875 72.2786341,88.4105469 L71.3262439,91.2640625 L71.5381463,91.4759766 L72.089561,90.9240234 C72.3943415,90.6189453 72.888,90.6189453 73.1927805,90.9240234 L75.3990244,93.1324219 C75.7038049,93.4375 75.7038049,93.9316406 75.3990244,94.2367187 L74.8476098,94.7886719 L78.7084878,98.6566406 C79.0132683,98.9617187 79.0132683,99.4574219 78.7084878,99.7607422 C78.5562927,99.9134766 78.3564878,99.9896484 78.1570732,99.9896484 Z" id="Shape"></path>
                        <path d="M66.0193171,87.8400391 C65.8197073,87.8400391 65.6200976,87.7636719 65.4677073,87.6113281 C65.1629268,87.30625 65.1629268,86.8121094 65.4677073,86.5070313 L70.9865366,80.9859375 C71.2913171,80.6808594 71.7849756,80.6808594 72.089561,80.9859375 C72.3943415,81.2910156 72.3943415,81.7851563 72.089561,82.0900391 L66.5709268,87.6113281 C66.4185366,87.7638672 66.2187317,87.8400391 66.0193171,87.8400391 Z" id="Shape"></path>
                        <path d="M75.9490732,97.78125 C75.7494634,97.78125 75.5498537,97.7048828 75.3974634,97.5525391 C75.0926829,97.2474609 75.0926829,96.7517578 75.3990244,96.4482422 L75.9521951,95.8962891 C76.2569756,95.5912109 76.7506341,95.5912109 77.0552195,95.8962891 C77.3586341,96.2013672 77.3586341,96.6970703 77.0536585,97.0003906 L76.5006829,97.5525391 C76.3482927,97.7048828 76.1486829,97.78125 75.9490732,97.78125 Z" id="Shape"></path>
                    </g>
                </g>
            </g>
        </g>
    </g>
</svg>