<svg xmlns="http://www.w3.org/2000/svg" xmlns:xlink="http://www.w3.org/1999/xlink" width="100" height="100" viewBox="0 0 100 100"><g><g transform="translate(50 50) scale(0.69 0.69) rotate(0) translate(-50 -50)" style="fill:#5c9eff;"><svg fill="#5c9eff" xmlns="http://www.w3.org/2000/svg" xmlns:xlink="http://www.w3.org/1999/xlink" version="1.1" x="0px" y="0px" viewBox="0 0 48 48" enable-background="new 0 0 48 48" xml:space="preserve"><g><circle cx="24.2" cy="6.7" r="3"></circle><circle cx="9.1" cy="36.5" r="3"></circle><circle cx="38.9" cy="36.5" r="3"></circle><path d="M44.4,31.6c0.4-1.5,0.6-3.2,0.6-4.8c0-8.2-4.8-15.3-11.7-18.6c-0.5-4.6-4.3-8.2-9-8.2c-4.7,0-8.6,3.6-9,8.2   C8.2,11.5,3.4,18.6,3.4,26.8c0,1.6,0.2,3.1,0.5,4.6c-2.4,1.6-4,4.4-4,7.5c0,5,4.1,9.1,9.1,9.1c2.4,0,4.6-0.9,6.2-2.4   c2.7,1.3,5.7,2,8.9,2c3.1,0,6-0.7,8.6-1.9c1.6,1.4,3.7,2.3,6.1,2.3c5,0,9.1-4.1,9.1-9.1C48,35.9,46.6,33.3,44.4,31.6z M24.2,1.3   c4.3,0,7.7,3.5,7.7,7.7c0,2-0.8,3.9-2.1,5.3c-1.2-1.9-3.3-3.1-5.7-3.1c-2.4,0-4.5,1.3-5.7,3.1c-1.3-1.4-2.1-3.2-2.1-5.3   C16.5,4.8,19.9,1.3,24.2,1.3z M14.7,44.2c-1.2-1.9-3.3-3.1-5.7-3.1c-2.4,0-4.5,1.3-5.7,3.1c-1.3-1.4-2.1-3.2-2.1-5.3   c0-4.3,3.5-7.7,7.7-7.7s7.7,3.5,7.7,7.7C16.8,40.9,16,42.8,14.7,44.2z M24.2,45c-2.6,0-5-0.6-7.2-1.5c0.8-1.3,1.2-2.9,1.2-4.6   c0-5-4.1-9.1-9.1-9.1c-1,0-1.9,0.1-2.7,0.4C6.2,29.1,6,28,6,26.8C6,20,9.8,14.1,15.3,11c0.9,4.1,4.5,7.2,8.9,7.2   c4.4,0,8-3.1,8.9-7.2c5.5,3.1,9.3,9,9.3,15.8c0,1.2-0.1,2.4-0.4,3.5c-1-0.4-2-0.6-3.1-0.6c-5,0-9.1,4.1-9.1,9.1   c0,1.7,0.5,3.3,1.3,4.7C29,44.5,26.7,45,24.2,45z M44.6,44.2c-1.2-1.9-3.3-3.1-5.7-3.1c-2.4,0-4.5,1.3-5.7,3.1   c-1.3-1.4-2.1-3.2-2.1-5.3c0-4.3,3.5-7.7,7.7-7.7c4.3,0,7.7,3.5,7.7,7.7C46.7,40.9,45.9,42.8,44.6,44.2z"></path></g></svg></g></g></svg>