<?xml version="1.0" encoding="UTF-8"?>
<svg width="90px" height="100px" viewBox="0 0 90 100" version="1.1" xmlns="http://www.w3.org/2000/svg" xmlns:xlink="http://www.w3.org/1999/xlink">
    <!-- Generator: Sketch 51 (57462) - http://www.bohemiancoding.com/sketch -->
    <title>smart-recommendations</title>
    <desc>Created with Sketch.</desc>
    <defs></defs>
    <g id="Design" stroke="none" stroke-width="1" fill="none" fill-rule="evenodd">
        <g id="Features-Template-V2" transform="translate(-580.000000, -2088.000000)" fill-rule="nonzero">
            <g id="Feature-Copy-11" transform="translate(135.000000, 2038.000000)">
                <g id="smart-recommendations" transform="translate(445.000000, 50.000000)">
                    <polygon id="Shape" fill="#D7E9FF" points="85.9285161 77.3394531 85.9285161 78.9017578 87.4767097 83.5884766 84.3803226 88.2751953 81.284129 83.5884766 82.8323226 78.9017578 82.8323226 77.3394531"></polygon>
                    <polygon id="Shape" fill="#FFFFFF" points="84.3803226 85.1505859 81.972 81.5060547 81.284129 83.5884766 84.3803226 88.2751953 87.4767097 83.5884766 86.7886452 81.5060547"></polygon>
                    <polygon id="Shape" fill="#5C9EFF" points="87.4767097 67.9658203 87.4767097 77.3394531 85.9285161 77.3394531 82.8323226 77.3394531 81.284129 77.3394531 81.284129 67.9658203"></polygon>
                    <rect id="Rectangle-path" fill="#94C1FF" x="81.284129" y="64.8414062" width="6.19258065" height="3.12441406"></rect>
                    <path d="M89.0249032,25.7851563 L87.4767097,64.8414063 L81.284129,64.8414063 L79.7359355,25.7851563 C79.7359355,22.3326172 80.9591613,19.5361328 84.3803226,19.5361328 L84.5345806,19.5361328 C87.8336129,19.6292969 89.0249032,22.3798828 89.0249032,25.7851563 Z" id="Shape" fill="#5C9EFF"></path>
                    <path d="M82.8323226,64.8414062 L81.284129,25.7851562 C81.284129,22.6179687 82.3364516,20.0304688 85.1485161,19.6201172 C84.945871,19.5896484 84.7569677,19.5423828 84.5345806,19.5361328 L84.3803226,19.5361328 C80.9591613,19.5361328 79.7359355,22.3326172 79.7359355,25.7851562 L81.284129,64.8414062 L81.284129,67.9658203 L81.284129,77.3392578 L82.8323226,77.3392578 L82.8323226,67.9658203 L82.8323226,64.8414062 Z" id="Shape" fill="#94C1FF"></path>
                    <path d="M85.917871,64.8414062 L87.4660645,25.7851562 C87.4660645,22.6179687 86.4137419,20.0304688 83.6016774,19.6201172 C83.8043226,19.5896484 83.9932258,19.5423828 84.2156129,19.5361328 L84.369871,19.5361328 C87.7912258,19.5361328 89.0142581,22.3326172 89.0142581,25.7851562 L87.4660645,64.8414062 L87.4660645,67.9658203 L87.4660645,77.3392578 L85.917871,77.3392578 L85.917871,67.9658203 L85.917871,64.8414062 Z" id="Shape" fill="#2287FF"></path>
                    <rect id="Rectangle-path" fill="#94C1FF" x="82.8323226" y="77.3394531" width="3.09619355" height="1.56230469"></rect>
                    <rect id="Rectangle-path" fill="#FFFFFF" x="0.780967742" y="7.03808594" width="69.666" height="85.9238281"></rect>
                    <path d="M20.1327097,33.5964844 C20.1327097,36.1855469 18.0538065,38.2832031 15.488129,38.2832031 C12.9226452,38.2832031 10.8437419,36.1855469 10.8437419,33.5964844 C10.8437419,31.0074219 12.9226452,28.9097656 15.488129,28.9097656 C18.0538065,28.9097656 20.1327097,31.0074219 20.1327097,33.5964844 Z" id="Shape" fill="#D7E9FF"></path>
                    <path d="M20.1327097,53.9056641 C20.1327097,56.4945313 18.0538065,58.5923828 15.488129,58.5923828 C12.9226452,58.5923828 10.8437419,56.4945313 10.8437419,53.9056641 C10.8437419,51.3166016 12.9226452,49.2189453 15.488129,49.2189453 C18.0538065,49.2189453 20.1327097,51.3166016 20.1327097,53.9056641 Z" id="Shape" fill="#D7E9FF"></path>
                    <path d="M20.1327097,74.2148438 C20.1327097,76.8039062 18.0538065,78.9015625 15.488129,78.9015625 C12.9226452,78.9015625 10.8437419,76.8039062 10.8437419,74.2148438 C10.8437419,71.6257813 12.9226452,69.528125 15.488129,69.528125 C18.0538065,69.528125 20.1327097,71.6259766 20.1327097,74.2148438 Z" id="Shape" fill="#D7E9FF"></path>
                    <rect id="Rectangle-path" fill="#D7E9FF" x="0.780967742" y="92.9619141" width="69.666" height="6.24882813"></rect>
                    <path d="M8.52154839,0.789257813 C7.66741935,0.789257813 6.97335484,1.48886719 6.97335484,2.3515625 L6.97335484,11.725 C6.97335484,12.5876953 7.66722581,13.2873047 8.52154839,13.2873047 C9.37722581,13.2873047 10.0697419,12.5876953 10.0697419,11.725 L10.0697419,2.35136719 C10.0697419,1.48867188 9.37741935,0.789257813 8.52154839,0.789257813 Z" id="Shape" fill="#5C9EFF"></path>
                    <path d="M8.52154839,11.7248047 C7.66741935,11.7248047 6.97335484,11.0253906 6.97335484,10.1626953 L6.97335484,11.7248047 C6.97335484,12.5875 7.66722581,13.2871094 8.52154839,13.2871094 C9.37722581,13.2871094 10.0697419,12.5875 10.0697419,11.7248047 L10.0697419,10.1626953 C10.0697419,11.0253906 9.37741935,11.7248047 8.52154839,11.7248047 Z" id="Shape" fill="#2287FF"></path>
                    <path d="M19.3587097,0.789257813 C18.5045806,0.789257813 17.8105161,1.48886719 17.8105161,2.3515625 L17.8105161,11.725 C17.8105161,12.5876953 18.5045806,13.2873047 19.3587097,13.2873047 C20.2143871,13.2873047 20.9069032,12.5876953 20.9069032,11.725 L20.9069032,2.35136719 C20.9069032,1.48867188 20.2141935,0.789257813 19.3587097,0.789257813 Z" id="Shape" fill="#5C9EFF"></path>
                    <path d="M30.1956774,0.789257813 C29.3413548,0.789257813 28.6474839,1.48886719 28.6474839,2.3515625 L28.6474839,11.725 C28.6474839,12.5876953 29.3413548,13.2873047 30.1956774,13.2873047 C31.0513548,13.2873047 31.743871,12.5876953 31.743871,11.725 L31.743871,2.35136719 C31.7436774,1.48867188 31.0513548,0.789257813 30.1956774,0.789257813 Z" id="Shape" fill="#5C9EFF"></path>
                    <path d="M41.0324516,0.789257813 C40.178129,0.789257813 39.4842581,1.48886719 39.4842581,2.3515625 L39.4842581,11.725 C39.4842581,12.5876953 40.178129,13.2873047 41.0324516,13.2873047 C41.888129,13.2873047 42.5806452,12.5876953 42.5806452,11.725 L42.5806452,2.35136719 C42.5806452,1.48867188 41.8883226,0.789257813 41.0324516,0.789257813 Z" id="Shape" fill="#5C9EFF"></path>
                    <path d="M51.8694194,0.789257813 C51.0152903,0.789257813 50.3214194,1.48886719 50.3214194,2.3515625 L50.3214194,11.725 C50.3214194,12.5876953 51.0152903,13.2873047 51.8694194,13.2873047 C52.7252903,13.2873047 53.4176129,12.5876953 53.4176129,11.725 L53.4176129,2.35136719 C53.4176129,1.48867188 52.7252903,0.789257813 51.8694194,0.789257813 Z" id="Shape" fill="#5C9EFF"></path>
                    <path d="M62.7063871,0.789257813 C61.8522581,0.789257813 61.1581935,1.48886719 61.1581935,2.3515625 L61.1581935,11.725 C61.1581935,12.5876953 61.8522581,13.2873047 62.7063871,13.2873047 C63.5620645,13.2873047 64.2545806,12.5876953 64.2545806,11.725 L64.2545806,2.35136719 C64.2545806,1.48867188 63.5620645,0.789257813 62.7063871,0.789257813 Z" id="Shape" fill="#5C9EFF"></path>
                    <path d="M19.3587097,11.7248047 C18.5045806,11.7248047 17.8105161,11.0253906 17.8105161,10.1626953 L17.8105161,11.7248047 C17.8105161,12.5875 18.5045806,13.2871094 19.3587097,13.2871094 C20.2143871,13.2871094 20.9069032,12.5875 20.9069032,11.7248047 L20.9069032,10.1626953 C20.9069032,11.0253906 20.2141935,11.7248047 19.3587097,11.7248047 Z" id="Shape" fill="#2287FF"></path>
                    <path d="M30.1956774,11.7248047 C29.3413548,11.7248047 28.6474839,11.0253906 28.6474839,10.1626953 L28.6474839,11.7248047 C28.6474839,12.5875 29.3413548,13.2871094 30.1956774,13.2871094 C31.0513548,13.2871094 31.743871,12.5875 31.743871,11.7248047 L31.743871,10.1626953 C31.7436774,11.0253906 31.0513548,11.7248047 30.1956774,11.7248047 Z" id="Shape" fill="#2287FF"></path>
                    <path d="M41.0324516,11.7248047 C40.178129,11.7248047 39.4842581,11.0253906 39.4842581,10.1626953 L39.4842581,11.7248047 C39.4842581,12.5875 40.178129,13.2871094 41.0324516,13.2871094 C41.888129,13.2871094 42.5806452,12.5875 42.5806452,11.7248047 L42.5806452,10.1626953 C42.5806452,11.0253906 41.8883226,11.7248047 41.0324516,11.7248047 Z" id="Shape" fill="#2287FF"></path>
                    <path d="M51.8694194,11.7248047 C51.0152903,11.7248047 50.3214194,11.0253906 50.3214194,10.1626953 L50.3214194,11.7248047 C50.3214194,12.5875 51.0152903,13.2871094 51.8694194,13.2871094 C52.7252903,13.2871094 53.4176129,12.5875 53.4176129,11.7248047 L53.4176129,10.1626953 C53.4176129,11.0253906 52.7252903,11.7248047 51.8694194,11.7248047 Z" id="Shape" fill="#2287FF"></path>
                    <path d="M62.7063871,11.7248047 C61.8522581,11.7248047 61.1581935,11.0253906 61.1581935,10.1626953 L61.1581935,11.7248047 C61.1581935,12.5875 61.8522581,13.2871094 62.7063871,13.2871094 C63.5620645,13.2871094 64.2545806,12.5875 64.2545806,11.7248047 L64.2545806,10.1626953 C64.2545806,11.0253906 63.5620645,11.7248047 62.7063871,11.7248047 Z" id="Shape" fill="#2287FF"></path>
                    <path d="M8.52154839,2.35136719 C9.37722581,2.35136719 10.0697419,3.05097656 10.0697419,3.91367187 L10.0697419,2.35136719 C10.0697419,1.48867188 9.37722581,0.7890625 8.52154839,0.7890625 C7.66741935,0.7890625 6.97335484,1.48867188 6.97335484,2.35136719 L6.97335484,3.91367187 C6.97354839,3.05097656 7.66741935,2.35136719 8.52154839,2.35136719 Z" id="Shape" fill="#94C1FF"></path>
                    <path d="M19.3587097,2.35136719 C20.2143871,2.35136719 20.9069032,3.05097656 20.9069032,3.91367187 L20.9069032,2.35136719 C20.9069032,1.48867188 20.2143871,0.7890625 19.3587097,0.7890625 C18.5045806,0.7890625 17.8105161,1.48867188 17.8105161,2.35136719 L17.8105161,3.91367187 C17.8105161,3.05097656 18.5043871,2.35136719 19.3587097,2.35136719 Z" id="Shape" fill="#94C1FF"></path>
                    <path d="M30.1956774,2.35136719 C31.0513548,2.35136719 31.743871,3.05097656 31.743871,3.91367187 L31.743871,2.35136719 C31.743871,1.48867188 31.0513548,0.7890625 30.1956774,0.7890625 C29.3413548,0.7890625 28.6474839,1.48867188 28.6474839,2.35136719 L28.6474839,3.91367187 C28.6474839,3.05097656 29.3413548,2.35136719 30.1956774,2.35136719 Z" id="Shape" fill="#94C1FF"></path>
                    <path d="M41.0324516,2.35136719 C41.888129,2.35136719 42.5806452,3.05097656 42.5806452,3.91367187 L42.5806452,2.35136719 C42.5806452,1.48867188 41.8883226,0.7890625 41.0324516,0.7890625 C40.178129,0.7890625 39.4842581,1.48867188 39.4842581,2.35136719 L39.4842581,3.91367187 C39.4844516,3.05097656 40.1783226,2.35136719 41.0324516,2.35136719 Z" id="Shape" fill="#94C1FF"></path>
                    <path d="M51.8694194,2.35136719 C52.7252903,2.35136719 53.4176129,3.05097656 53.4176129,3.91367187 L53.4176129,2.35136719 C53.4176129,1.48867188 52.7252903,0.7890625 51.8694194,0.7890625 C51.0152903,0.7890625 50.3214194,1.48867188 50.3214194,2.35136719 L50.3214194,3.91367187 C50.3214194,3.05097656 51.0152903,2.35136719 51.8694194,2.35136719 Z" id="Shape" fill="#94C1FF"></path>
                    <path d="M62.7063871,2.35136719 C63.5620645,2.35136719 64.2545806,3.05097656 64.2545806,3.91367187 L64.2545806,2.35136719 C64.2545806,1.48867188 63.5620645,0.7890625 62.7063871,0.7890625 C61.8522581,0.7890625 61.1581935,1.48867188 61.1581935,2.35136719 L61.1581935,3.91367187 C61.1581935,3.05097656 61.8522581,2.35136719 62.7063871,2.35136719 Z" id="Shape" fill="#94C1FF"></path>
                    <rect id="Rectangle-path" fill="#D7E9FF" x="81.284129" y="64.8414062" width="1.54819355" height="3.12441406"></rect>
                    <rect id="Rectangle-path" fill="#5C9EFF" x="85.9285161" y="64.8414062" width="1.54819355" height="3.12441406"></rect>
                    <g id="_x31__list_x2C__check_x2C__notebook_x2C__pen_x2C__shop_x2C__shopping_x2C__commerce" fill="#116FFF">
                        <path d="M70.4471613,93.7429688 L0.780967742,93.7429688 C0.353032258,93.7429688 0.00677419355,93.3935547 0.00677419355,92.9619141 L0.00677419355,7.03808594 C0.00677419355,6.60644531 0.353032258,6.25703125 0.780967742,6.25703125 L5.42535484,6.25703125 C5.85309677,6.25703125 6.19935484,6.60644531 6.19935484,7.03808594 C6.19935484,7.46992187 5.85309677,7.81933594 5.42535484,7.81933594 L1.55496774,7.81933594 L1.55496774,92.1806641 L69.6729677,92.1806641 L69.6729677,7.81933594 L65.8025806,7.81933594 C65.3748387,7.81933594 65.0285806,7.46992187 65.0285806,7.03808594 C65.0285806,6.60644531 65.3748387,6.25703125 65.8025806,6.25703125 L70.4469677,6.25703125 C70.8749032,6.25703125 71.2211613,6.60644531 71.2211613,7.03808594 L71.2211613,92.9619141 C71.2213548,93.3935547 70.8750968,93.7429688 70.4471613,93.7429688 Z" id="Shape"></path>
                        <path d="M59.6101935,7.81933594 L54.9658065,7.81933594 C54.537871,7.81933594 54.1916129,7.46992187 54.1916129,7.03808594 C54.1916129,6.60644531 54.537871,6.25703125 54.9658065,6.25703125 L59.6101935,6.25703125 C60.0379355,6.25703125 60.3841935,6.60644531 60.3841935,7.03808594 C60.3841935,7.46992188 60.0379355,7.81933594 59.6101935,7.81933594 Z" id="Shape"></path>
                        <path d="M48.7732258,7.81933594 L44.1288387,7.81933594 C43.7009032,7.81933594 43.3546452,7.46992187 43.3546452,7.03808594 C43.3546452,6.60644531 43.7009032,6.25703125 44.1288387,6.25703125 L48.7732258,6.25703125 C49.2009677,6.25703125 49.5472258,6.60644531 49.5472258,7.03808594 C49.5472258,7.46992188 49.2009677,7.81933594 48.7732258,7.81933594 Z" id="Shape"></path>
                        <path d="M37.9362581,7.81933594 L33.291871,7.81933594 C32.864129,7.81933594 32.517871,7.46992187 32.517871,7.03808594 C32.517871,6.60644531 32.864129,6.25703125 33.291871,6.25703125 L37.9362581,6.25703125 C38.3641935,6.25703125 38.7104516,6.60644531 38.7104516,7.03808594 C38.7102581,7.46992188 38.3641935,7.81933594 37.9362581,7.81933594 Z" id="Shape"></path>
                        <path d="M27.0992903,7.81933594 L22.4549032,7.81933594 C22.0271613,7.81933594 21.6807097,7.46992187 21.6807097,7.03808594 C21.6807097,6.60644531 22.0269677,6.25703125 22.4549032,6.25703125 L27.0992903,6.25703125 C27.5270323,6.25703125 27.8734839,6.60644531 27.8734839,7.03808594 C27.8734839,7.46992188 27.5272258,7.81933594 27.0992903,7.81933594 Z" id="Shape"></path>
                        <path d="M16.2623226,7.81933594 L11.6179355,7.81933594 C11.19,7.81933594 10.8437419,7.46992187 10.8437419,7.03808594 C10.8437419,6.60644531 11.19,6.25703125 11.6179355,6.25703125 L16.2623226,6.25703125 C16.6900645,6.25703125 17.0363226,6.60644531 17.0363226,7.03808594 C17.0363226,7.46992188 16.6900645,7.81933594 16.2623226,7.81933594 Z" id="Shape"></path>
                        <path d="M70.4471613,96.8673828 L0.780967742,96.8673828 C0.353032258,96.8673828 0.00677419355,96.5181641 0.00677419355,96.0863281 C0.00677419355,95.6546875 0.353032258,95.3052734 0.780967742,95.3052734 L70.4469677,95.3052734 C70.8749032,95.3052734 71.2211613,95.6546875 71.2211613,96.0863281 C71.2213548,96.5181641 70.8750968,96.8673828 70.4471613,96.8673828 Z" id="Shape"></path>
                        <path d="M70.4471613,99.9919922 L0.780967742,99.9919922 C0.353032258,99.9919922 0.00677419355,99.6425781 0.00677419355,99.2107422 C0.00677419355,98.7791016 0.353032258,98.4296875 0.780967742,98.4296875 L70.4469677,98.4296875 C70.8749032,98.4296875 71.2211613,98.7791016 71.2211613,99.2107422 C71.2213548,99.6425781 70.8750968,99.9919922 70.4471613,99.9919922 Z" id="Shape"></path>
                        <path d="M8.52154839,14.0681641 C7.24103226,14.0681641 6.19935484,13.0169922 6.19935484,11.7248047 L6.19935484,2.35136719 C6.19935484,1.05917969 7.24103226,0.0080078125 8.52154839,0.0080078125 C9.80206452,0.0080078125 10.8437419,1.05917969 10.8437419,2.35136719 L10.8437419,11.7248047 C10.8437419,13.0169922 9.80225806,14.0681641 8.52154839,14.0681641 Z M8.52154839,1.5703125 C8.09535484,1.5703125 7.74754839,1.9203125 7.74754839,2.35136719 L7.74754839,11.7248047 C7.74754839,12.1558594 8.09535484,12.5060547 8.52154839,12.5060547 C8.94948387,12.5060547 9.29574194,12.1558594 9.29574194,11.7248047 L9.29574194,2.35136719 C9.29574194,1.92050781 8.94948387,1.5703125 8.52154839,1.5703125 Z" id="Shape"></path>
                        <path d="M19.3587097,14.0681641 C18.0781935,14.0681641 17.0365161,13.0169922 17.0365161,11.7248047 L17.0365161,2.35136719 C17.0365161,1.05917969 18.0781935,0.0080078125 19.3587097,0.0080078125 C20.6392258,0.0080078125 21.6809032,1.05917969 21.6809032,2.35136719 L21.6809032,11.7248047 C21.6809032,13.0169922 20.6392258,14.0681641 19.3587097,14.0681641 Z M19.3587097,1.5703125 C18.9323226,1.5703125 18.5847097,1.9203125 18.5847097,2.35136719 L18.5847097,11.7248047 C18.5847097,12.1558594 18.9323226,12.5060547 19.3587097,12.5060547 C19.7866452,12.5060547 20.1329032,12.1558594 20.1329032,11.7248047 L20.1329032,2.35136719 C20.1327097,1.92050781 19.7864516,1.5703125 19.3587097,1.5703125 Z" id="Shape"></path>
                        <path d="M30.1956774,14.0681641 C28.9151613,14.0681641 27.8734839,13.0169922 27.8734839,11.7248047 L27.8734839,2.35136719 C27.8734839,1.05917969 28.9151613,0.0080078125 30.1956774,0.0080078125 C31.4761935,0.0080078125 32.517871,1.05917969 32.517871,2.35136719 L32.517871,11.7248047 C32.517871,13.0169922 31.4761935,14.0681641 30.1956774,14.0681641 Z M30.1956774,1.5703125 C29.7692903,1.5703125 29.4214839,1.9203125 29.4214839,2.35136719 L29.4214839,11.7248047 C29.4214839,12.1558594 29.7690968,12.5060547 30.1956774,12.5060547 C30.6234194,12.5060547 30.9696774,12.1558594 30.9696774,11.7248047 L30.9696774,2.35136719 C30.9696774,1.92050781 30.6234194,1.5703125 30.1956774,1.5703125 Z" id="Shape"></path>
                        <path d="M41.0324516,14.0681641 C39.7519355,14.0681641 38.7102581,13.0169922 38.7102581,11.7248047 L38.7102581,2.35136719 C38.7102581,1.05917969 39.7519355,0.0080078125 41.0324516,0.0080078125 C42.3129677,0.0080078125 43.3546452,1.05917969 43.3546452,2.35136719 L43.3546452,11.7248047 C43.3548387,13.0169922 42.3131613,14.0681641 41.0324516,14.0681641 Z M41.0324516,1.5703125 C40.6060645,1.5703125 40.2582581,1.9203125 40.2582581,2.35136719 L40.2582581,11.7248047 C40.2582581,12.1558594 40.6060645,12.5060547 41.0324516,12.5060547 C41.4601935,12.5060547 41.8066452,12.1558594 41.8066452,11.7248047 L41.8066452,2.35136719 C41.8066452,1.92050781 41.4603871,1.5703125 41.0324516,1.5703125 Z" id="Shape"></path>
                        <path d="M51.8694194,14.0681641 C50.5890968,14.0681641 49.5472258,13.0169922 49.5472258,11.7248047 L49.5472258,2.35136719 C49.5472258,1.05917969 50.5890968,0.0080078125 51.8694194,0.0080078125 C53.1499355,0.0080078125 54.1916129,1.05917969 54.1916129,2.35136719 L54.1916129,11.7248047 C54.1916129,13.0169922 53.1499355,14.0681641 51.8694194,14.0681641 Z M51.8694194,1.5703125 C51.4432258,1.5703125 51.0954194,1.9203125 51.0954194,2.35136719 L51.0954194,11.7248047 C51.0954194,12.1558594 51.4432258,12.5060547 51.8694194,12.5060547 C52.2973548,12.5060547 52.6436129,12.1558594 52.6436129,11.7248047 L52.6436129,2.35136719 C52.6436129,1.92050781 52.2973548,1.5703125 51.8694194,1.5703125 Z" id="Shape"></path>
                        <path d="M62.7063871,14.0681641 C61.425871,14.0681641 60.3841935,13.0169922 60.3841935,11.7248047 L60.3841935,2.35136719 C60.3841935,1.05917969 61.425871,0.0080078125 62.7063871,0.0080078125 C63.9869032,0.0080078125 65.0285806,1.05917969 65.0285806,2.35136719 L65.0285806,11.7248047 C65.0285806,13.0169922 63.9870968,14.0681641 62.7063871,14.0681641 Z M62.7063871,1.5703125 C62.2801935,1.5703125 61.9323871,1.9203125 61.9323871,2.35136719 L61.9323871,11.7248047 C61.9323871,12.1558594 62.2801935,12.5060547 62.7063871,12.5060547 C63.1343226,12.5060547 63.4803871,12.1558594 63.4803871,11.7248047 L63.4803871,2.35136719 C63.4803871,1.92050781 63.1343226,1.5703125 62.7063871,1.5703125 Z" id="Shape"></path>
                        <g id="Group" transform="translate(78.774194, 18.750000)">
                            <path d="M5.60767742,70.30625 C5.35683871,70.30625 5.11180645,70.1841797 4.96219355,69.9583984 L1.866,65.2716797 C1.7343871,65.0705078 1.70109677,64.8201172 1.77677419,64.5914063 L3.28393548,60.0251953 L3.28393548,58.5894531 C3.28393548,58.1576172 3.63019355,57.8083984 4.05812903,57.8083984 C4.48606452,57.8083984 4.83212903,58.1576172 4.83212903,58.5894531 L4.83212903,60.1517578 C4.83212903,60.2357422 4.81858065,60.3195313 4.79283871,60.3990234 L3.36406452,64.7226563 L6.25025806,69.0919922 C6.48774194,69.4521484 6.39232258,69.9355469 6.0356129,70.1751953 C5.904,70.2634766 5.75419355,70.30625 5.60767742,70.30625 Z" id="Shape"></path>
                            <path d="M5.60612903,70.30625 C5.45806452,70.30625 5.31,70.2634766 5.17683871,70.175 C4.82148387,69.9353516 4.72470968,69.4519531 4.96219355,69.0917969 L7.8483871,64.7224609 L6.42116129,60.3988281 C6.39387097,60.3195313 6.38032258,60.2355469 6.38032258,60.1515625 L6.38032258,58.5892578 C6.38032258,58.1574219 6.72658065,57.8082031 7.15432258,57.8082031 C7.58225806,57.8082031 7.92851613,58.1574219 7.92851613,58.5892578 L7.92851613,60.025 L9.43722581,64.5912109 C9.51290323,64.8201172 9.4796129,65.0703125 9.34664516,65.2714844 L6.25025806,69.9582031 C6.102,70.1841797 5.8556129,70.30625 5.60612903,70.30625 Z" id="Shape"></path>
                            <path d="M8.70251613,46.8724609 L2.50993548,46.8724609 C2.08219355,46.8724609 1.73593548,46.5230469 1.73593548,46.0914062 C1.73593548,45.6595703 2.08219355,45.3101562 2.50993548,45.3101562 L8.70251613,45.3101562 C9.13045161,45.3101562 9.47651613,45.6595703 9.47651613,46.0914062 C9.47651613,46.5230469 9.13045161,46.8724609 8.70251613,46.8724609 Z" id="Shape"></path>
                            <path d="M2.50993548,46.8724609 C2.09729032,46.8724609 1.75412903,46.5427734 1.73748387,46.121875 L0.189290323,7.06484375 C0.171096774,6.63378906 0.503806452,6.26992188 0.931548387,6.253125 C1.35503226,6.19902344 1.71774194,6.57128906 1.73593548,7.00214844 L3.28393548,46.0607422 C3.30058065,46.4908203 2.96806452,46.8541016 2.54167742,46.8722656 C2.53103226,46.8724609 2.5203871,46.8724609 2.50993548,46.8724609 Z" id="Shape"></path>
                            <path d="M8.70406452,46.8724609 C8.69341935,46.8724609 8.68296774,46.8724609 8.67232258,46.8724609 C8.2443871,46.8541016 7.91187097,46.4910156 7.93006452,46.0609375 L9.47806452,7.00234375 C9.49470968,6.57128906 9.85316129,6.19980469 10.2824516,6.25332031 C10.7086452,6.27011719 11.0413548,6.63398437 11.0247097,7.06503906 L9.47651613,46.1220703 C9.45987097,46.5429687 9.11690323,46.8724609 8.70406452,46.8724609 Z" id="Shape"></path>
                            <path d="M10.2507097,7.81484375 C9.82277419,7.81484375 9.47651613,7.46542969 9.47651613,7.03359375 C9.47651613,3.40566406 8.17470968,1.565625 5.60612903,1.565625 C3.03909677,1.565625 1.73593548,3.40546875 1.73593548,7.03359375 C1.73593548,7.46523438 1.38967742,7.81484375 0.961741935,7.81484375 C0.534,7.81484375 0.187741935,7.46542969 0.187741935,7.03359375 C0.187741935,2.56582031 2.16387097,0.003515625 5.60612903,0.003515625 C9.05032258,0.003515625 11.0247097,2.56582031 11.0247097,7.03359375 C11.0247097,7.46542969 10.6784516,7.81484375 10.2507097,7.81484375 Z" id="Shape"></path>
                            <path d="M7.15432258,1.56582031 L4.05812903,1.56582031 C3.63019355,1.56582031 3.28393548,1.21640625 3.28393548,0.784765625 C3.28393548,0.352929688 3.63019355,0.003515625 4.05812903,0.003515625 L7.15432258,0.003515625 C7.58225806,0.003515625 7.92851613,0.352929688 7.92851613,0.784765625 C7.92851613,1.21640625 7.58225806,1.56582031 7.15432258,1.56582031 Z" id="Shape"></path>
                            <path d="M5.60612903,28.1240234 C5.1783871,28.1240234 4.83212903,27.7746094 4.83212903,27.3427734 L4.83212903,3.90917969 C4.83212903,3.47753906 5.1783871,3.128125 5.60612903,3.128125 C6.03406452,3.128125 6.38032258,3.47753906 6.38032258,3.90917969 L6.38032258,27.3427734 C6.38032258,27.7746094 6.03406452,28.1240234 5.60612903,28.1240234 Z" id="Shape"></path>
                            <path d="M8.70251613,49.996875 L2.50993548,49.996875 C2.08219355,49.996875 1.73593548,49.6474609 1.73593548,49.2158203 C1.73593548,48.7839844 2.08219355,48.4347656 2.50993548,48.4347656 L8.70251613,48.4347656 C9.13045161,48.4347656 9.47651613,48.7839844 9.47651613,49.2158203 C9.47651613,49.6474609 9.13045161,49.996875 8.70251613,49.996875 Z" id="Shape"></path>
                            <path d="M8.70251613,49.996875 C8.27458065,49.996875 7.92851613,49.6474609 7.92851613,49.2158203 L7.92851613,46.0914062 C7.92851613,45.6595703 8.27458065,45.3101562 8.70251613,45.3101562 C9.13045161,45.3101562 9.47651613,45.6595703 9.47651613,46.0914062 L9.47651613,49.2158203 C9.47651613,49.6474609 9.13045161,49.996875 8.70251613,49.996875 Z" id="Shape"></path>
                            <path d="M2.50993548,49.996875 C2.08219355,49.996875 1.73593548,49.6474609 1.73593548,49.2158203 L1.73593548,46.0914062 C1.73593548,45.6595703 2.08219355,45.3101562 2.50993548,45.3101562 C2.93787097,45.3101562 3.28393548,45.6595703 3.28393548,46.0914062 L3.28393548,49.2158203 C3.28393548,49.6474609 2.93787097,49.996875 2.50993548,49.996875 Z" id="Shape"></path>
                            <path d="M8.70251613,59.3705078 L2.50993548,59.3705078 C2.08219355,59.3705078 1.73593548,59.0210937 1.73593548,58.5894531 C1.73593548,58.1576172 2.08219355,57.8083984 2.50993548,57.8083984 L8.70251613,57.8083984 C9.13045161,57.8083984 9.47651613,58.1576172 9.47651613,58.5894531 C9.47651613,59.0210937 9.13045161,59.3705078 8.70251613,59.3705078 Z" id="Shape"></path>
                            <path d="M8.70251613,59.3705078 C8.27458065,59.3705078 7.92851613,59.0210937 7.92851613,58.5894531 L7.92851613,49.2160156 C7.92851613,48.7841797 8.27458065,48.4349609 8.70251613,48.4349609 C9.13045161,48.4349609 9.47651613,48.7841797 9.47651613,49.2160156 L9.47651613,58.5894531 C9.47651613,59.0210937 9.13045161,59.3705078 8.70251613,59.3705078 Z" id="Shape"></path>
                            <path d="M2.50993548,59.3705078 C2.08219355,59.3705078 1.73593548,59.0210937 1.73593548,58.5894531 L1.73593548,49.2160156 C1.73593548,48.7841797 2.08219355,48.4349609 2.50993548,48.4349609 C2.93787097,48.4349609 3.28393548,48.7841797 3.28393548,49.2160156 L3.28393548,58.5894531 C3.28393548,59.0210937 2.93787097,59.3705078 2.50993548,59.3705078 Z" id="Shape"></path>
                        </g>
                        <path d="M14.714129,35.9398437 C14.516129,35.9398437 14.3179355,35.8634766 14.1667742,35.7109375 L11.0703871,32.5865234 C10.7680645,32.2814453 10.7680645,31.7871094 11.0703871,31.4820313 C11.3727097,31.1769531 11.8625806,31.1769531 12.1649032,31.4820313 L15.2612903,34.6064453 C15.5636129,34.9115234 15.5636129,35.4058594 15.2612903,35.7109375 C15.1103226,35.8634766 14.9123226,35.9398437 14.714129,35.9398437 Z" id="Shape"></path>
                        <path d="M14.714129,35.9398438 C14.516129,35.9398438 14.3179355,35.8634766 14.1667742,35.7109375 C13.8644516,35.4058594 13.8644516,34.9115234 14.1667742,34.6064453 L20.3593548,28.3574219 C20.6616774,28.0523437 21.1515484,28.0523437 21.453871,28.3574219 C21.7561935,28.6625 21.7561935,29.1568359 21.453871,29.4619141 L15.2612903,35.7109375 C15.1103226,35.8634766 14.9123226,35.9398438 14.714129,35.9398438 Z" id="Shape"></path>
                        <path d="M14.714129,56.2490234 C14.516129,56.2490234 14.3179355,56.1726563 14.1667742,56.0201172 L11.0703871,52.8957031 C10.7680645,52.590625 10.7680645,52.0960938 11.0703871,51.7910156 C11.3727097,51.4859375 11.8625806,51.4859375 12.1649032,51.7910156 L15.2612903,54.915625 C15.5636129,55.2207031 15.5636129,55.7150391 15.2612903,56.0201172 C15.1103226,56.1726563 14.9123226,56.2490234 14.714129,56.2490234 Z" id="Shape"></path>
                        <path d="M14.714129,56.2490234 C14.516129,56.2490234 14.3179355,56.1726562 14.1667742,56.0201172 C13.8644516,55.7150391 13.8644516,55.2207031 14.1667742,54.915625 L20.3593548,48.6681641 C20.6616774,48.3630859 21.1515484,48.3630859 21.453871,48.6681641 C21.7561935,48.9732422 21.7561935,49.4675781 21.453871,49.7726563 L15.2612903,56.0201172 C15.1103226,56.1726562 14.9123226,56.2490234 14.714129,56.2490234 Z" id="Shape"></path>
                        <path d="M59.6101935,28.1285156 L28.6474839,28.1285156 C28.2197419,28.1285156 27.8734839,27.7791016 27.8734839,27.3472656 C27.8734839,26.915625 28.2197419,26.5662109 28.6474839,26.5662109 L59.6103871,26.5662109 C60.038129,26.5662109 60.3843871,26.915625 60.3843871,27.3472656 C60.3841935,27.7791016 60.0379355,28.1285156 59.6101935,28.1285156 Z" id="Shape"></path>
                        <path d="M59.6101935,32.8152344 L28.6474839,32.8152344 C28.2197419,32.8152344 27.8734839,32.4658203 27.8734839,32.0339844 C27.8734839,31.6023437 28.2197419,31.2529297 28.6474839,31.2529297 L59.6103871,31.2529297 C60.038129,31.2529297 60.3843871,31.6023437 60.3843871,32.0339844 C60.3841935,32.4660156 60.0379355,32.8152344 59.6101935,32.8152344 Z" id="Shape"></path>
                        <path d="M44.1288387,37.5019531 L28.6474839,37.5019531 C28.2197419,37.5019531 27.8734839,37.1525391 27.8734839,36.7207031 C27.8734839,36.2890625 28.2197419,35.9396484 28.6474839,35.9396484 L44.1288387,35.9396484 C44.5565806,35.9396484 44.9028387,36.2890625 44.9028387,36.7207031 C44.9028387,37.1527344 44.5565806,37.5019531 44.1288387,37.5019531 Z" id="Shape"></path>
                        <path d="M59.6101935,48.4376953 L28.6474839,48.4376953 C28.2197419,48.4376953 27.8734839,48.0884766 27.8734839,47.6566406 C27.8734839,47.2248047 28.2197419,46.8755859 28.6474839,46.8755859 L59.6103871,46.8755859 C60.038129,46.8755859 60.3843871,47.2248047 60.3843871,47.6566406 C60.3843871,48.0884766 60.0379355,48.4376953 59.6101935,48.4376953 Z" id="Shape"></path>
                        <path d="M59.6101935,53.1246094 L28.6474839,53.1246094 C28.2197419,53.1246094 27.8734839,52.7751953 27.8734839,52.3433594 C27.8734839,51.9115234 28.2197419,51.5623047 28.6474839,51.5623047 L59.6103871,51.5623047 C60.038129,51.5623047 60.3843871,51.9115234 60.3843871,52.3433594 C60.3843871,52.7751953 60.0379355,53.1246094 59.6101935,53.1246094 Z" id="Shape"></path>
                        <path d="M44.1288387,57.8113281 L28.6474839,57.8113281 C28.2197419,57.8113281 27.8734839,57.4619141 27.8734839,57.0300781 C27.8734839,56.5982422 28.2197419,56.2490234 28.6474839,56.2490234 L44.1288387,56.2490234 C44.5565806,56.2490234 44.9028387,56.5982422 44.9028387,57.0300781 C44.9028387,57.4619141 44.5565806,57.8113281 44.1288387,57.8113281 Z" id="Shape"></path>
                        <path d="M14.714129,76.5583984 C14.516129,76.5583984 14.3179355,76.4820313 14.1667742,76.3294922 L11.0703871,73.2048828 C10.7680645,72.8998047 10.7680645,72.4054688 11.0703871,72.1003906 C11.3727097,71.7953125 11.8625806,71.7953125 12.1649032,72.1003906 L15.2612903,75.225 C15.5636129,75.5300781 15.5636129,76.0244141 15.2612903,76.3294922 C15.1103226,76.4820313 14.9123226,76.5583984 14.714129,76.5583984 Z" id="Shape"></path>
                        <path d="M14.714129,76.5583984 C14.516129,76.5583984 14.3179355,76.4820312 14.1667742,76.3294922 C13.8644516,76.0244141 13.8644516,75.5298828 14.1667742,75.225 L20.3593548,68.9759766 C20.6616774,68.6708984 21.1515484,68.6708984 21.453871,68.9759766 C21.7561935,69.2810547 21.7561935,69.7753906 21.453871,70.0804687 L15.2612903,76.3294922 C15.1103226,76.4820312 14.9123226,76.5583984 14.714129,76.5583984 Z" id="Shape"></path>
                        <path d="M59.6101935,68.746875 L28.6474839,68.746875 C28.2197419,68.746875 27.8734839,68.3974609 27.8734839,67.9658203 C27.8734839,67.5339844 28.2197419,67.1847656 28.6474839,67.1847656 L59.6103871,67.1847656 C60.038129,67.1847656 60.3843871,67.5339844 60.3843871,67.9658203 C60.3841935,68.3974609 60.0379355,68.746875 59.6101935,68.746875 Z" id="Shape"></path>
                        <path d="M59.6101935,73.4335938 L28.6474839,73.4335938 C28.2197419,73.4335938 27.8734839,73.0841797 27.8734839,72.6525391 C27.8734839,72.2207031 28.2197419,71.8714844 28.6474839,71.8714844 L59.6103871,71.8714844 C60.038129,71.8714844 60.3843871,72.2207031 60.3843871,72.6525391 C60.3841935,73.0841797 60.0379355,73.4335938 59.6101935,73.4335938 Z" id="Shape"></path>
                        <path d="M44.1288387,78.1205078 L28.6474839,78.1205078 C28.2197419,78.1205078 27.8734839,77.7710937 27.8734839,77.3394531 C27.8734839,76.9076172 28.2197419,76.5583984 28.6474839,76.5583984 L44.1288387,76.5583984 C44.5565806,76.5583984 44.9028387,76.9076172 44.9028387,77.3394531 C44.9028387,77.7710937 44.5565806,78.1205078 44.1288387,78.1205078 Z" id="Shape"></path>
                    </g>
                </g>
            </g>
        </g>
    </g>
</svg>