<?xml version="1.0" encoding="UTF-8"?>
<svg width="100px" height="90px" viewBox="0 0 100 90" version="1.1" xmlns="http://www.w3.org/2000/svg" xmlns:xlink="http://www.w3.org/1999/xlink">
    <!-- Generator: Sketch 51 (57462) - http://www.bohemiancoding.com/sketch -->
    <title>verification-workflow</title>
    <desc>Created with Sketch.</desc>
    <defs></defs>
    <g id="Design" stroke="none" stroke-width="1" fill="none" fill-rule="evenodd">
        <g id="Features-Template-V2" transform="translate(-570.000000, -1281.000000)" fill-rule="nonzero">
            <g id="Feature-Copy-2" transform="translate(135.000000, 1226.000000)">
                <g id="verification-workflow" transform="translate(435.000000, 55.000000)">
                    <rect id="Rectangle-path" fill="#D7E9FF" x="3.93769531" y="10.1098707" width="92.1248047" height="58.9255603"></rect>
                    <rect id="Rectangle-path" fill="#5C9EFF" x="0.814648437" y="3.90743534" width="98.3705078" height="6.20262931"></rect>
                    <rect id="Rectangle-path" fill="#94C1FF" x="48.4384766" y="0.805926724" width="3.12285156" height="3.10131466"></rect>
                    <rect id="Rectangle-path" fill="#94C1FF" x="48.4384766" y="69.035431" width="3.12285156" height="20.1586422"></rect>
                    <polygon id="Shape" fill="#D7E9FF" points="50 78.7269181 28.9205078 89.1940733 22.6748047 89.1940733 50 75.6257974"></polygon>
                    <polygon id="Shape" fill="#D7E9FF" points="50 78.7269181 71.0792969 89.1940733 77.325 89.1940733 50 75.6257974"></polygon>
                    <rect id="Rectangle-path" fill="#94C1FF" x="0.814648438" y="3.90743534" width="3.12285156" height="6.20262931"></rect>
                    <rect id="Rectangle-path" fill="#FFFFFF" x="3.93769531" y="10.1098707" width="3.12285156" height="58.9255603"></rect>
                    <rect id="Rectangle-path" fill="#94C1FF" x="92.9394531" y="10.1098707" width="3.12304687" height="58.9255603"></rect>
                    <rect id="Rectangle-path" fill="#2287FF" x="96.0625" y="3.90743534" width="3.12265625" height="6.20262931"></rect>
                    <rect id="Rectangle-path" fill="#5C9EFF" x="48.4384766" y="69.035431" width="3.12285156" height="3.10112069"></rect>
                    <path d="M44.5578125,55.878944 C44.5578125,58.0323491 42.7996094,59.7797845 40.6298828,59.7797845 C38.4615234,59.7797845 36.7019531,58.0321552 36.7019531,55.878944 C36.7019531,53.7253448 38.4615234,51.9781034 40.6298828,51.9781034 C42.7996094,51.9781034 44.5578125,53.7253448 44.5578125,55.878944 Z" id="Shape" fill="#94C1FF"></path>
                    <path d="M22.6992188,51.2028233 C22.6992188,53.3562284 20.9394531,55.1036638 18.7712891,55.1036638 C16.6013672,55.1036638 14.8433594,53.3560345 14.8433594,51.2028233 C14.8433594,49.0492241 16.6013672,47.3019828 18.7712891,47.3019828 C20.9394531,47.3017888 22.6992188,49.0492241 22.6992188,51.2028233 Z" id="Shape" fill="#FFFFFF"></path>
                    <path d="M38.2648438,55.8546983 C38.2648438,53.966444 39.6173828,52.391444 41.4121094,52.0324138 C41.1589844,51.9810129 40.8982422,51.9538578 40.6314453,51.9538578 C38.4615234,51.9538578 36.7035156,53.7012931 36.7035156,55.8546983 C36.7035156,58.0081034 38.4615234,59.7555388 40.6314453,59.7555388 C40.8982422,59.7555388 41.1589844,59.7281897 41.4121094,59.6767888 C39.6173828,59.3177586 38.2648438,57.7429526 38.2648438,55.8546983 Z" id="Shape" fill="#D7E9FF"></path>
                    <g id="Group" opacity="0.2" transform="translate(39.843750, 51.788793)" fill="#000000">
                        <g id="Shape">
                            <path d="M3.15410156,4.06590517 C3.15410156,5.95415948 1.8015625,7.52896552 0.0068359375,7.88799569 C0.25859375,7.93959052 0.519335937,7.96674569 0.787695312,7.96674569 C2.95605469,7.96674569 4.715625,6.21911638 4.715625,4.06590517 C4.715625,1.91230603 2.95585937,0.165064655 0.787695312,0.165064655 C0.519335937,0.165064655 0.25859375,0.192413793 0.0068359375,0.24362069 C1.8015625,0.602456897 3.15410156,2.17765086 3.15410156,4.06590517 Z"></path>
                        </g>
                    </g>
                    <path d="M77.325,31.8192672 C77.325,33.5319828 75.9253906,34.9205819 74.2023437,34.9205819 C72.4792969,34.9205819 71.0792969,33.5319828 71.0792969,31.8192672 C71.0792969,30.1065517 72.4792969,28.7179526 74.2023437,28.7179526 C75.9253906,28.7179526 77.325,30.1065517 77.325,31.8192672 Z" id="Shape" fill="#FFFFFF"></path>
                    <path d="M82.0339844,57.4052586 C82.0339844,59.5588578 80.2742188,61.3060991 78.1060547,61.3060991 C75.9363281,61.3060991 74.178125,59.5586638 74.178125,57.4052586 C74.178125,55.2518534 75.9363281,53.5044181 78.1060547,53.5044181 C80.2742188,53.5044181 82.0339844,55.2518534 82.0339844,57.4052586 Z" id="Shape" fill="#94C1FF"></path>
                    <path d="M75.7392578,57.4052586 C75.7392578,55.5170043 77.0919922,53.9421983 78.8863281,53.5831681 C78.6333984,53.5315733 78.3740234,53.5044181 78.1058594,53.5044181 C75.9375,53.5044181 74.1779297,55.2520474 74.1779297,57.4052586 C74.1779297,59.5588578 75.9376953,61.3060991 78.1058594,61.3060991 C78.3740234,61.3060991 78.6333984,61.27875 78.8863281,61.2275431 C77.0919922,60.8687069 75.7392578,59.2935129 75.7392578,57.4052586 Z" id="Shape" fill="#D7E9FF"></path>
                    <path d="M80.4726562,57.4052586 C80.4726562,59.2935129 79.1199219,60.8685129 77.3251953,61.2275431 C77.5785156,61.278944 77.8375,61.3060991 78.1060547,61.3060991 C80.2744141,61.3060991 82.0339844,59.5586638 82.0339844,57.4052586 C82.0339844,55.2518534 80.2742187,53.5044181 78.1060547,53.5044181 C77.8375,53.5044181 77.5785156,53.5317672 77.3251953,53.5831681 C79.1199219,53.9421983 80.4726562,55.5170043 80.4726562,57.4052586 Z" id="Shape" fill="#5C9EFF"></path>
                    <path d="M49.2435547,21.7400431 C49.2435547,23.8940302 47.4837891,25.6408836 45.315625,25.6408836 C43.1458984,25.6408836 41.3876953,23.8940302 41.3876953,21.7400431 C41.3876953,19.5858621 43.1458984,17.8392026 45.315625,17.8392026 C47.4839844,17.8392026 49.2435547,19.5858621 49.2435547,21.7400431 Z" id="Shape" fill="#94C1FF"></path>
                    <path d="M42.9490234,21.7400431 C42.9490234,19.8515948 44.3015625,18.2767888 46.0962891,17.9169828 C45.8431641,17.8661638 45.5824219,17.8392026 45.315625,17.8392026 C43.1458984,17.8392026 41.3876953,19.5858621 41.3876953,21.7400431 C41.3876953,23.8940302 43.1458984,25.6408836 45.315625,25.6408836 C45.5824219,25.6408836 45.8431641,25.6135345 46.0962891,25.5629095 C44.3017578,25.2032974 42.9490234,23.6282974 42.9490234,21.7400431 Z" id="Shape" fill="#D7E9FF"></path>
                    <path d="M47.6822266,21.7400431 C47.6822266,23.6282974 46.3296875,25.2031034 44.5349609,25.5629095 C44.7865234,25.6137284 45.0472656,25.6408836 45.315625,25.6408836 C47.4839844,25.6408836 49.2435547,23.8940302 49.2435547,21.7400431 C49.2435547,19.5858621 47.4837891,17.8392026 45.315625,17.8392026 C45.0472656,17.8392026 44.7865234,17.8663578 44.5349609,17.9169828 C46.3296875,18.2767888 47.6822266,19.8515948 47.6822266,21.7400431 Z" id="Shape" fill="#5C9EFF"></path>
                    <rect id="Rectangle-path" fill="#5C9EFF" x="74.1779297" y="17.8392026" width="7.83164063" height="3.12536638"></rect>
                    <polygon id="Shape" fill="#5C9EFF" points="88.2675781 24.0781034 78.8742187 24.0781034 80.4359375 20.9523491 88.2675781 20.9523491 86.6935547 22.5153233"></polygon>
                    <g id="_x33__strategy_x2C__plan_x2C__presentation_x2C__business_x2C__job_x2C__work" fill="#116FFF">
                        <g id="Group" transform="translate(3.125000, 9.310345)">
                            <path d="M15.6919922,42.6677586 C15.2619141,42.6677586 14.9035156,42.3209483 14.9035156,41.8924784 C14.9035156,41.4638147 15.2451172,41.1170043 15.6765625,41.1170043 L15.6917969,41.1170043 C16.1232422,41.1170043 16.4724609,41.4638147 16.4724609,41.8924784 C16.4726563,42.3209483 16.1234375,42.6677586 15.6919922,42.6677586 Z" id="Shape"></path>
                            <path d="M92.9375,60.5001724 L0.812695313,60.5001724 C0.381054688,60.5001724 0.0318359375,60.153556 0.0318359375,59.7250862 L0.0318359375,0.799525862 C0.0318359375,0.371056034 0.381054688,0.0242456897 0.812695313,0.0242456897 L92.9375,0.0242456897 C93.3689453,0.0242456897 93.7179687,0.371056034 93.7179687,0.799525862 L93.7179687,59.7250862 C93.7179688,60.153556 93.3689453,60.5001724 92.9375,60.5001724 Z M1.59335938,58.9496121 L92.1566406,58.9496121 L92.1566406,1.575 L1.59335938,1.575 L1.59335938,58.9496121 Z" id="Shape"></path>
                            <path d="M71.0773438,26.3855172 C68.9244141,26.3855172 67.1738281,24.6464224 67.1738281,22.5089224 C67.1738281,21.8290733 67.3535156,21.1581466 67.6953125,20.5698491 C67.9101563,20.1982112 68.3876953,20.0709698 68.7626953,20.2851078 C69.1361328,20.4988578 69.2642578,20.9727155 69.0492187,21.3437716 C68.8435547,21.6971767 68.7353516,22.1000431 68.7353516,22.5089224 C68.7353516,23.7916164 69.7859375,24.8349569 71.0775391,24.8349569 C72.36875,24.8349569 73.4197266,23.7916164 73.4197266,22.5089224 C73.4197266,22.1046983 73.3113281,21.7033836 73.1068359,21.3490086 C72.8935547,20.9773707 73.0228516,20.5042888 73.3982422,20.2913147 C73.7671875,20.0777586 74.2474609,20.2059698 74.4640625,20.5797414 C74.8023438,21.1680388 74.9808594,21.8352802 74.9808594,22.5089224 C74.9808594,24.6464224 73.2302734,26.3855172 71.0773438,26.3855172 Z" id="Shape"></path>
                            <path d="M71.0773437,23.2843966 C70.6458984,23.2843966 70.2964844,22.9375862 70.2964844,22.5089224 L70.2964844,7.00234914 C70.2964844,6.57387931 70.6458984,6.22706897 71.0773437,6.22706897 C71.5087891,6.22706897 71.8578125,6.57387931 71.8578125,7.00234914 L71.8578125,22.5089224 C71.8578125,22.9375862 71.5087891,23.2843966 71.0773437,23.2843966 Z" id="Shape"></path>
                            <path d="M78.8845703,12.4296983 L72.6386719,12.4296983 C72.2072266,12.4296983 71.8578125,12.0828879 71.8578125,11.6542241 C71.8578125,11.2257543 72.2072266,10.878944 72.6386719,10.878944 L78.1035156,10.878944 L78.1035156,9.32838362 L72.6386719,9.32838362 C72.2072266,9.32838362 71.8578125,8.98157328 71.8578125,8.55290948 C71.8578125,8.12443966 72.2072266,7.77762931 72.6386719,7.77762931 L78.8845703,7.77762931 C79.3160156,7.77762931 79.6650391,8.12443966 79.6650391,8.55290948 L79.6650391,11.6542241 C79.6650391,12.0828879 79.3160156,12.4296983 78.8845703,12.4296983 Z" id="Shape"></path>
                            <path d="M85.1302734,15.530819 L75.7613281,15.530819 C75.3298828,15.530819 74.9808594,15.1842026 74.9808594,14.7555388 C74.9808594,14.327069 75.3298828,13.9802586 75.7613281,13.9802586 L85.1302734,13.9802586 C85.5617188,13.9802586 85.9107422,14.327069 85.9107422,14.7555388 C85.9107422,15.1842026 85.5617188,15.530819 85.1302734,15.530819 Z" id="Shape"></path>
                            <path d="M85.1302734,12.4296983 L80.4458984,12.4296983 C80.0144531,12.4296983 79.6650391,12.0828879 79.6650391,11.6542241 C79.6650391,11.2257543 80.0144531,10.878944 80.4458984,10.878944 L85.1302734,10.878944 C85.5617188,10.878944 85.9107422,11.2257543 85.9107422,11.6542241 C85.9107422,12.0828879 85.5617188,12.4296983 85.1302734,12.4296983 Z" id="Shape"></path>
                            <path d="M85.1302734,15.530819 C84.9304688,15.530819 84.7304688,15.4551724 84.5783203,15.3036853 L83.0166016,13.753125 C82.7117188,13.4501509 82.7117188,12.9596121 83.0166016,12.6568319 L84.5783203,11.1060776 C84.8832031,10.8031034 85.3771484,10.8031034 85.6822266,11.1060776 C85.9871094,11.4090517 85.9871094,11.8995905 85.6822266,12.2023707 L84.6728516,13.2049784 L85.6822266,14.2073922 C85.9871094,14.5103664 85.9871094,15.0009052 85.6822266,15.3036853 C85.5296875,15.4553664 85.3298828,15.530819 85.1302734,15.530819 Z" id="Shape"></path>
                            <path d="M15.6462891,46.5443534 C13.0630859,46.5443534 10.9619141,44.4574784 10.9619141,41.8924784 C10.9619141,39.3270905 13.0630859,37.2404095 15.6462891,37.2404095 C18.2292969,37.2404095 20.3304688,39.3272845 20.3304688,41.8924784 C20.3304687,44.4574784 18.2292969,46.5443534 15.6462891,46.5443534 Z M15.6462891,38.7909698 C13.9232422,38.7909698 12.5234375,40.1811207 12.5234375,41.8922845 C12.5234375,43.6032543 13.9232422,44.9934052 15.6462891,44.9934052 C17.3677734,44.9934052 18.7691406,43.6032543 18.7691406,41.8922845 C18.7691406,40.1811207 17.3677734,38.7909698 15.6462891,38.7909698 Z" id="Shape"></path>
                            <path d="M20.3304688,38.0156897 C20.1185547,38.0156897 19.9080078,37.9307328 19.7541016,37.7625647 C19.4628906,37.4462069 19.4857422,36.95625 19.8044922,36.6676293 C37.8144531,20.3365086 64.6560547,23.2599569 64.9230469,23.2894397 C65.3513672,23.3392888 65.65625,23.7246983 65.60625,24.1494828 C65.5558594,24.5729095 65.2003906,24.8764655 64.7398438,24.8295259 C64.4853516,24.7984914 38.3341797,21.9665948 20.8564453,37.8126078 C20.7072266,37.9489655 20.5181641,38.0156897 20.3304688,38.0156897 Z" id="Shape"></path>
                            <path d="M61.7083984,26.3855172 C61.4234375,26.3855172 61.1472656,26.2287931 61.0103516,25.9570474 C60.8181641,25.5737716 60.9736328,25.1082543 61.359375,24.9168103 L64.4824219,23.366056 C64.8681641,23.1761638 65.3361328,23.3290086 65.5298828,23.7128664 C65.7216797,24.0961422 65.5666016,24.5616595 65.1804687,24.7531034 L62.0578125,26.3038578 C61.9449219,26.3591379 61.8259766,26.3855172 61.7083984,26.3855172 Z" id="Shape"></path>
                            <path d="M64.8316406,24.8349569 C64.7140625,24.8349569 64.5951172,24.8083836 64.4826172,24.7531034 L61.3595703,23.2025431 C60.9738281,23.0110991 60.8183594,22.545194 61.0105469,22.162306 C61.2054688,21.7790302 61.6724609,21.6275431 62.0580078,21.8154957 L65.1806641,23.366056 C65.5667969,23.557694 65.721875,24.0234052 65.5300781,24.4062931 C65.3927734,24.6782328 65.1164063,24.8349569 64.8316406,24.8349569 Z" id="Shape"></path>
                            <path d="M43.7521484,14.7555388 C43.5523437,14.7555388 43.3527344,14.6796983 43.2001953,14.5284052 L40.0773437,11.4270905 C39.7724609,11.1241164 39.7724609,10.6335776 40.0773437,10.3307974 C40.3824219,10.0278233 40.8763672,10.0278233 41.1814453,10.3307974 L44.3042969,13.4321121 C44.609375,13.7350862 44.609375,14.225625 44.3042969,14.5284052 C44.1515625,14.6798922 43.9519531,14.7555388 43.7521484,14.7555388 Z" id="Shape"></path>
                            <path d="M40.6291016,14.7555388 C40.4292969,14.7555388 40.2296875,14.6796983 40.0771484,14.5284052 C39.7722656,14.225431 39.7722656,13.7348922 40.0771484,13.4321121 L43.2,10.3307974 C43.5048828,10.0278233 43.9990234,10.0278233 44.3039062,10.3307974 C44.6087891,10.6337716 44.6089844,11.1243103 44.3039062,11.4270905 L41.1810547,14.5284052 C41.0287109,14.6798922 40.8289062,14.7555388 40.6291016,14.7555388 Z" id="Shape"></path>
                            <path d="M42.190625,17.0815733 C39.6074219,17.0815733 37.5064453,14.9946983 37.5064453,12.4296983 C37.5064453,9.86431034 39.6076172,7.77762931 42.190625,7.77762931 C44.7736328,7.77762931 46.875,9.86431034 46.875,12.4296983 C46.875,14.9948922 44.7738281,17.0815733 42.190625,17.0815733 Z M42.190625,9.32838362 C40.4691406,9.32838362 39.0677734,10.7193103 39.0677734,12.4296983 C39.0677734,14.1398922 40.4691406,15.530819 42.190625,15.530819 C43.9136719,15.530819 45.3134766,14.1398922 45.3134766,12.4296983 C45.3134766,10.7193103 43.9136719,9.32838362 42.190625,9.32838362 Z" id="Shape"></path>
                            <path d="M21.1097656,21.7336422 C20.9101562,21.7336422 20.7103516,21.6578017 20.5578125,21.5065086 L15.8736328,16.8546336 C15.5685547,16.5516595 15.5685547,16.0609267 15.8736328,15.7583405 C16.1787109,15.4553664 16.6726562,15.4553664 16.9775391,15.7583405 L21.6617187,20.4102155 C21.9667969,20.7131897 21.9667969,21.2037284 21.6617187,21.5065086 C21.5091797,21.6578017 21.309375,21.7336422 21.1097656,21.7336422 Z" id="Shape"></path>
                            <path d="M16.4253906,21.7336422 C16.2257812,21.7336422 16.0259766,21.6578017 15.8734375,21.5065086 C15.5683594,21.2035345 15.5683594,20.7129957 15.8734375,20.4102155 L20.5576172,15.7583405 C20.8626953,15.4553664 21.3566406,15.4553664 21.6615234,15.7583405 C21.9666016,16.0611207 21.9666016,16.5518534 21.6615234,16.8546336 L16.9773437,21.5065086 C16.825,21.6578017 16.6251953,21.7336422 16.4253906,21.7336422 Z" id="Shape"></path>
                            <path d="M39.0662109,48.870194 C38.8666016,48.870194 38.6667969,48.7945474 38.5142578,48.6430603 L35.3914063,45.5417457 C35.0865234,45.2389655 35.0865234,44.7482328 35.3914063,44.4454526 C35.6964844,44.1426724 36.1904297,44.1426724 36.4953125,44.4454526 L39.6181641,47.5467672 C39.9232422,47.8497414 39.9232422,48.3402802 39.6181641,48.6430603 C39.4658203,48.7945474 39.2660156,48.870194 39.0662109,48.870194 Z" id="Shape"></path>
                            <path d="M35.9433594,48.870194 C35.74375,48.870194 35.5439453,48.7945474 35.3914063,48.6430603 C35.0865234,48.3400862 35.0865234,47.8495474 35.3914063,47.5467672 L38.5142578,44.4454526 C38.8193359,44.1426724 39.3132813,44.1426724 39.6181641,44.4454526 C39.9232422,44.7484267 39.9232422,45.2391595 39.6181641,45.5417457 L36.4953125,48.6430603 C36.3429687,48.7945474 36.1431641,48.870194 35.9433594,48.870194 Z" id="Shape"></path>
                            <path d="M37.5064453,51.1962284 C34.9232422,51.1962284 32.8220703,49.1095474 32.8220703,46.5443534 C32.8220703,43.9791595 34.9232422,41.8924784 37.5064453,41.8924784 C40.0894531,41.8924784 42.190625,43.9791595 42.190625,46.5443534 C42.190625,49.1095474 40.0894531,51.1962284 37.5064453,51.1962284 Z M37.5064453,43.4430388 C35.7833984,43.4430388 34.3835938,44.8331897 34.3835938,46.5443534 C34.3835938,48.2555172 35.7833984,49.6456681 37.5064453,49.6456681 C39.2279297,49.6456681 40.6292969,48.2555172 40.6292969,46.5443534 C40.6292969,44.8331897 39.2279297,43.4430388 37.5064453,43.4430388 Z" id="Shape"></path>
                            <path d="M58.5857422,43.4430388 C58.3859375,43.4430388 58.1863281,43.3671983 58.0337891,43.2159052 L53.3494141,38.5640302 C53.0445313,38.261056 53.0445313,37.7703233 53.3494141,37.4677371 C53.6544922,37.1647629 54.1486328,37.1647629 54.4533203,37.4677371 L59.1376953,42.1196121 C59.4427734,42.4225862 59.4427734,42.913125 59.1376953,43.2159052 C58.9851563,43.3671983 58.7855469,43.4430388 58.5857422,43.4430388 Z" id="Shape"></path>
                            <path d="M53.9013672,43.4430388 C53.7019531,43.4430388 53.5019531,43.3671983 53.3494141,43.2159052 C53.0445313,42.912931 53.0445313,42.4223922 53.3494141,42.1196121 L58.0337891,37.4677371 C58.3388672,37.1647629 58.8330078,37.1647629 59.1376953,37.4677371 C59.4427734,37.7705172 59.4427734,38.261056 59.1376953,38.5640302 L54.4533203,43.2159052 C54.3009766,43.3671983 54.1011719,43.4430388 53.9013672,43.4430388 Z" id="Shape"></path>
                            <path d="M76.5421875,50.4209483 C76.3423828,50.4209483 76.1427734,50.3451078 75.9902344,50.1938147 L72.8675781,47.0925 C72.5625,46.7895259 72.5625,46.2989871 72.8675781,45.9962069 C73.1724609,45.6932328 73.6664063,45.6932328 73.9714844,45.9962069 L77.0941406,49.0975216 C77.3990234,49.4003017 77.3990234,49.8910345 77.0941406,50.1938147 C76.9416016,50.3453017 76.7421875,50.4209483 76.5421875,50.4209483 Z" id="Shape"></path>
                            <path d="M73.4195313,50.4209483 C73.2197266,50.4209483 73.0197266,50.3451078 72.8675781,50.1938147 C72.5625,49.8908405 72.5625,49.4001078 72.8675781,49.0975216 L75.9902344,45.9962069 C76.2951172,45.6932328 76.7894531,45.6932328 77.0941406,45.9962069 C77.3988281,46.299181 77.3990234,46.7897198 77.0941406,47.0925 L73.9714844,50.1938147 C73.8189453,50.3453017 73.6191406,50.4209483 73.4195313,50.4209483 Z" id="Shape"></path>
                            <path d="M74.9808594,52.7467888 C72.3974609,52.7467888 70.2964844,50.6601078 70.2964844,48.0949138 C70.2964844,45.5297198 72.3976562,43.4430388 74.9808594,43.4430388 C77.5638672,43.4430388 79.6648438,45.5297198 79.6648438,48.0949138 C79.6648438,50.6601078 77.5638672,52.7467888 74.9808594,52.7467888 Z M74.9808594,44.9935991 C73.259375,44.9935991 71.8578125,46.38375 71.8578125,48.0949138 C71.8578125,49.8060776 73.259375,51.1962284 74.9808594,51.1962284 C76.7023437,51.1962284 78.1035156,49.8060776 78.1035156,48.0949138 C78.1035156,46.38375 76.7025391,44.9935991 74.9808594,44.9935991 Z" id="Shape"></path>
                        </g>
                        <path d="M51.5613281,4.68271552 L48.4384766,4.68271552 C48.0070313,4.68271552 47.6578125,4.33590517 47.6578125,3.90743534 L47.6578125,0.805926724 C47.6578125,0.377262931 48.0070313,0.0306465517 48.4384766,0.0306465517 L51.5613281,0.0306465517 C51.9927734,0.0306465517 52.3421875,0.377262931 52.3421875,0.805926724 L52.3421875,3.90724138 C52.3421875,4.33590517 51.9927734,4.68271552 51.5613281,4.68271552 Z M49.2191406,3.13176724 L50.7808594,3.13176724 L50.7808594,1.5812069 L49.2191406,1.5812069 L49.2191406,3.13176724 Z" id="Shape"></path>
                        <path d="M99.1851563,10.8853448 L0.814648438,10.8853448 C0.383203125,10.8853448 0.033984375,10.5385345 0.033984375,10.1098707 L0.033984375,3.90743534 C0.033984375,3.47877155 0.383203125,3.13196121 0.814648438,3.13196121 L99.1851563,3.13196121 C99.6166016,3.13196121 99.9660156,3.47877155 99.9660156,3.90743534 L99.9660156,10.1100647 C99.9660156,10.5385345 99.6166016,10.8853448 99.1851563,10.8853448 Z M1.5953125,9.33459052 L98.4046875,9.33459052 L98.4046875,4.68271552 L1.5953125,4.68271552 L1.5953125,9.33459052 Z" id="Shape"></path>
                        <path d="M94.5011719,7.78403017 L5.49902344,7.78403017 C5.06757812,7.78403017 4.71835937,7.43721983 4.71835937,7.00875 C4.71835937,6.58008621 5.06757812,6.23327586 5.49902344,6.23327586 L94.5011719,6.23327586 C94.9326172,6.23327586 95.2816406,6.58008621 95.2816406,7.00875 C95.2816406,7.43721983 94.9326172,7.78403017 94.5011719,7.78403017 Z" id="Shape"></path>
                        <g id="Group" transform="translate(49.218750, 74.676724)">
                            <path d="M21.8605469,15.2926293 C21.7433594,15.2926293 21.6244141,15.2652802 21.5115234,15.2107759 L0.43203125,4.74381466 C0.0462890625,4.55314655 -0.109179687,4.08646552 0.0828125,3.70357759 C0.276367187,3.32030172 0.74453125,3.16609914 1.13027344,3.35676724 L22.2099609,13.8239224 C22.5957031,14.0145905 22.7511719,14.4810776 22.5589844,14.8641595 C22.4216797,15.1351293 22.1458984,15.2926293 21.8605469,15.2926293 Z" id="Shape"></path>
                            <path d="M28.10625,15.2926293 C27.9886719,15.2926293 27.8701172,15.2652802 27.7572266,15.2107759 L0.43203125,1.6425 C0.0462890625,1.4518319 -0.109179687,0.985344828 0.0828125,0.602262931 C0.276367188,0.218987069 0.74453125,0.0647844828 1.13027344,0.255452586 L28.4556641,13.8239224 C28.8414063,14.0145905 28.996875,14.4810776 28.8046875,14.8641595 C28.6673828,15.1351293 28.3916016,15.2926293 28.10625,15.2926293 Z" id="Shape"></path>
                            <path d="M28.10625,15.2926293 L21.8603516,15.2926293 C21.4289062,15.2926293 21.0798828,14.9460129 21.0798828,14.5173491 C21.0798828,14.0886853 21.4289062,13.742069 21.8603516,13.742069 L28.10625,13.742069 C28.5376953,13.742069 28.8871094,14.0886853 28.8871094,14.5173491 C28.8871094,14.9460129 28.5376953,15.2926293 28.10625,15.2926293 Z" id="Shape"></path>
                        </g>
                        <g id="Group" transform="translate(21.875000, 74.676724)">
                            <path d="M7.04707031,15.2926293 C6.76035156,15.2926293 6.484375,15.1351293 6.34726562,14.8641595 C6.15527344,14.4808836 6.31054687,14.0145905 6.69648437,13.8239224 L27.7757812,3.35676724 C28.1615234,3.16609914 28.6296875,3.32030172 28.8234375,3.70357759 C29.0167969,4.08665948 28.8601562,4.55314655 28.4740234,4.74381466 L7.39472656,15.2107759 C7.28359375,15.2652802 7.16445312,15.2926293 7.04707031,15.2926293 Z" id="Shape"></path>
                            <path d="M0.801367187,15.2926293 C0.514648437,15.2926293 0.238671875,15.1351293 0.101367187,14.8641595 C-0.090625,14.4808836 0.06484375,14.0145905 0.450585937,13.8239224 L27.7757812,0.255452586 C28.1615234,0.0647844828 28.6296875,0.218987069 28.8234375,0.602262931 C29.0167969,0.985538793 28.8601562,1.4518319 28.4740234,1.6425 L1.14902344,15.2107759 C1.03769531,15.2652802 0.91875,15.2926293 0.801367187,15.2926293 Z" id="Shape"></path>
                            <path d="M7.04550781,15.2926293 L0.799804688,15.2926293 C0.368359375,15.2926293 0.019140625,14.9460129 0.019140625,14.5173491 C0.019140625,14.0886853 0.368359375,13.742069 0.799804688,13.742069 L7.04550781,13.742069 C7.47695313,13.742069 7.82636719,14.0886853 7.82636719,14.5173491 C7.82636719,14.9460129 7.47714844,15.2926293 7.04550781,15.2926293 Z" id="Shape"></path>
                        </g>
                        <path d="M48.4384766,77.1763578 C48.0070312,77.1763578 47.6578125,76.8297414 47.6578125,76.4010776 L47.6578125,69.035431 C47.6578125,68.6067672 48.0070312,68.2599569 48.4384766,68.2599569 C48.8699219,68.2599569 49.2191406,68.6067672 49.2191406,69.035431 L49.2191406,76.4010776 C49.2191406,76.8297414 48.8699219,77.1763578 48.4384766,77.1763578 Z" id="Shape"></path>
                        <path d="M51.5613281,77.1763578 C51.1298828,77.1763578 50.7808594,76.8297414 50.7808594,76.4010776 L50.7808594,69.035431 C50.7808594,68.6067672 51.1298828,68.2599569 51.5613281,68.2599569 C51.9927734,68.2599569 52.3421875,68.6067672 52.3421875,69.035431 L52.3421875,76.4010776 C52.3421875,76.8297414 51.9927734,77.1763578 51.5613281,77.1763578 Z" id="Shape"></path>
                        <path d="M51.5613281,89.9693534 C51.1298828,89.9693534 50.7808594,89.6227371 50.7808594,89.1940733 L50.7808594,79.5023922 C50.7808594,79.0737284 51.1298828,78.7269181 51.5613281,78.7269181 C51.9927734,78.7269181 52.3421875,79.0737284 52.3421875,79.5023922 L52.3421875,89.1940733 C52.3421875,89.6227371 51.9927734,89.9693534 51.5613281,89.9693534 Z" id="Shape"></path>
                        <path d="M51.5613281,89.9693534 L48.4384766,89.9693534 C48.0070313,89.9693534 47.6578125,89.6227371 47.6578125,89.1940733 C47.6578125,88.7654095 48.0070313,88.4187931 48.4384766,88.4187931 L51.5613281,88.4187931 C51.9927734,88.4187931 52.3421875,88.7654095 52.3421875,89.1940733 C52.3421875,89.6227371 51.9927734,89.9693534 51.5613281,89.9693534 Z" id="Shape"></path>
                        <path d="M48.4384766,89.9693534 C48.0070312,89.9693534 47.6578125,89.6227371 47.6578125,89.1940733 L47.6578125,79.5023922 C47.6578125,79.0737284 48.0070312,78.7269181 48.4384766,78.7269181 C48.8699219,78.7269181 49.2191406,79.0737284 49.2191406,79.5023922 L49.2191406,89.1940733 C49.2191406,89.6227371 48.8699219,89.9693534 48.4384766,89.9693534 Z" id="Shape"></path>
                    </g>
                </g>
            </g>
        </g>
    </g>
</svg>